<svg xmlns="http://www.w3.org/2000/svg" xmlns:xlink="http://www.w3.org/1999/xlink" width="361" zoomAndPan="magnify" viewBox="0 0 270.75 370.499989" height="494" preserveAspectRatio="xMidYMid meet" version="1.0"><defs><clipPath id="aec44397f6"><path d="M 107.015625 130.902344 L 162.753906 130.902344 L 162.753906 238.898438 L 107.015625 238.898438 Z M 107.015625 130.902344 " clip-rule="nonzero"/></clipPath><clipPath id="f31aba14e8"><path d="M 124.242188 130.902344 L 145.527344 130.902344 C 150.097656 130.902344 154.476562 132.71875 157.707031 135.949219 C 160.9375 139.179688 162.753906 143.5625 162.753906 148.128906 L 162.753906 221.671875 C 162.753906 226.238281 160.9375 230.621094 157.707031 233.851562 C 154.476562 237.082031 150.097656 238.898438 145.527344 238.898438 L 124.242188 238.898438 C 119.671875 238.898438 115.292969 237.082031 112.0625 233.851562 C 108.832031 230.621094 107.015625 226.238281 107.015625 221.671875 L 107.015625 148.128906 C 107.015625 143.5625 108.832031 139.179688 112.0625 135.949219 C 115.292969 132.71875 119.671875 130.902344 124.242188 130.902344 Z M 124.242188 130.902344 " clip-rule="nonzero"/></clipPath><clipPath id="07a1b82c97"><path d="M 115.457031 82.28125 L 154.3125 82.28125 L 154.3125 121.140625 L 115.457031 121.140625 Z M 115.457031 82.28125 " clip-rule="nonzero"/></clipPath><clipPath id="3b76f389b4"><path d="M 134.882812 82.28125 C 124.152344 82.28125 115.457031 90.980469 115.457031 101.710938 C 115.457031 112.441406 124.152344 121.140625 134.882812 121.140625 C 145.613281 121.140625 154.3125 112.441406 154.3125 101.710938 C 154.3125 90.980469 145.613281 82.28125 134.882812 82.28125 Z M 134.882812 82.28125 " clip-rule="nonzero"/></clipPath><clipPath id="f01295d277"><path d="M 138 227 L 170 227 L 170 329 L 138 329 Z M 138 227 " clip-rule="nonzero"/></clipPath><clipPath id="a8f1ef21be"><path d="M 137.621094 228.457031 L 156.414062 225.738281 L 171.011719 326.597656 L 152.21875 329.316406 Z M 137.621094 228.457031 " clip-rule="nonzero"/></clipPath><clipPath id="0b3d34a728"><path d="M 147.015625 227.097656 C 149.507812 226.738281 152.042969 227.382812 154.058594 228.886719 C 156.074219 230.394531 157.410156 232.640625 157.773438 235.132812 L 169.648438 317.1875 C 170.007812 319.679688 169.367188 322.214844 167.859375 324.230469 C 166.351562 326.246094 164.105469 327.582031 161.613281 327.945312 C 159.121094 328.304688 156.585938 327.660156 154.570312 326.152344 C 152.554688 324.648438 151.21875 322.398438 150.855469 319.90625 L 138.980469 237.855469 C 138.621094 235.363281 139.261719 232.828125 140.769531 230.8125 C 142.277344 228.792969 144.523438 227.457031 147.015625 227.097656 Z M 147.015625 227.097656 " clip-rule="nonzero"/></clipPath><clipPath id="fa44b1d274"><path d="M 98 227 L 133 227 L 133 328 L 98 328 Z M 98 227 " clip-rule="nonzero"/></clipPath><clipPath id="7a936e2cd9"><path d="M 115.863281 225.738281 L 134.5 229.363281 L 115.042969 329.402344 L 96.40625 325.773438 Z M 115.863281 225.738281 " clip-rule="nonzero"/></clipPath><clipPath id="038633fbab"><path d="M 125.179688 227.550781 C 127.652344 228.03125 129.832031 229.476562 131.238281 231.5625 C 132.648438 233.648438 133.167969 236.210938 132.6875 238.683594 L 116.859375 320.066406 C 116.378906 322.539062 114.9375 324.71875 112.847656 326.125 C 110.761719 327.535156 108.199219 328.054688 105.726562 327.574219 C 103.253906 327.09375 101.078125 325.652344 99.667969 323.5625 C 98.261719 321.476562 97.738281 318.914062 98.21875 316.441406 L 114.050781 235.058594 C 114.53125 232.585938 115.972656 230.40625 118.058594 229 C 120.148438 227.589844 122.710938 227.070312 125.179688 227.550781 Z M 125.179688 227.550781 " clip-rule="nonzero"/></clipPath><clipPath id="9decff1ff7"><path d="M 61 84 L 118 84 L 118 158 L 61 158 Z M 61 84 " clip-rule="nonzero"/></clipPath><clipPath id="e482ee72b1"><path d="M 121.1875 150.183594 L 105.59375 161.019531 L 57.679688 92.074219 L 73.269531 81.238281 Z M 121.1875 150.183594 " clip-rule="nonzero"/></clipPath><clipPath id="e2ce859f52"><path d="M 113.390625 155.601562 C 111.320312 157.039062 108.769531 157.59375 106.289062 157.148438 C 103.8125 156.703125 101.613281 155.292969 100.175781 153.222656 L 63.101562 99.875 C 61.664062 97.808594 61.105469 95.253906 61.550781 92.773438 C 62 90.296875 63.410156 88.097656 65.476562 86.660156 C 67.546875 85.222656 70.097656 84.667969 72.578125 85.113281 C 75.054688 85.558594 77.253906 86.972656 78.691406 89.039062 L 115.769531 142.386719 C 117.203125 144.457031 117.761719 147.007812 117.316406 149.488281 C 116.871094 151.964844 115.457031 154.164062 113.390625 155.601562 Z M 113.390625 155.601562 " clip-rule="nonzero"/></clipPath><clipPath id="65adb76f92"><path d="M 141 133 L 184 133 L 184 214 L 141 214 Z M 141 133 " clip-rule="nonzero"/></clipPath><clipPath id="a0f7ffb5cb"><path d="M 186.222656 209.628906 L 168.417969 216.21875 L 139.265625 137.480469 L 157.074219 130.890625 Z M 186.222656 209.628906 " clip-rule="nonzero"/></clipPath><clipPath id="49106a09fc"><path d="M 177.320312 212.925781 C 174.960938 213.796875 172.347656 213.699219 170.058594 212.648438 C 167.773438 211.597656 165.996094 209.679688 165.121094 207.316406 L 142.566406 146.390625 C 141.691406 144.03125 141.792969 141.417969 142.84375 139.128906 C 143.894531 136.839844 145.8125 135.066406 148.171875 134.191406 C 150.535156 133.316406 153.144531 133.417969 155.433594 134.46875 C 157.722656 135.519531 159.5 137.4375 160.371094 139.796875 L 182.929688 200.726562 C 183.800781 203.085938 183.703125 205.699219 182.652344 207.984375 C 181.597656 210.273438 179.683594 212.050781 177.320312 212.925781 Z M 177.320312 212.925781 " clip-rule="nonzero"/></clipPath></defs><g clip-path="url(#aec44397f6)"><g clip-path="url(#f31aba14e8)"><path fill="#ffde59" d="M 107.015625 130.902344 L 162.753906 130.902344 L 162.753906 238.898438 L 107.015625 238.898438 Z M 107.015625 130.902344 " fill-opacity="1" fill-rule="nonzero"/></g></g><g clip-path="url(#07a1b82c97)"><g clip-path="url(#3b76f389b4)"><path fill="#ffde59" d="M 115.457031 82.28125 L 154.3125 82.28125 L 154.3125 121.140625 L 115.457031 121.140625 Z M 115.457031 82.28125 " fill-opacity="1" fill-rule="nonzero"/></g></g><g clip-path="url(#f01295d277)"><g clip-path="url(#a8f1ef21be)"><g clip-path="url(#0b3d34a728)"><path fill="#ffde59" d="M 137.621094 228.457031 L 156.414062 225.738281 L 171.011719 326.597656 L 152.21875 329.316406 Z M 137.621094 228.457031 " fill-opacity="1" fill-rule="nonzero"/></g></g></g><g clip-path="url(#fa44b1d274)"><g clip-path="url(#7a936e2cd9)"><g clip-path="url(#038633fbab)"><path fill="#ffde59" d="M 115.863281 225.738281 L 134.5 229.363281 L 115.042969 329.402344 L 96.40625 325.773438 Z M 115.863281 225.738281 " fill-opacity="1" fill-rule="nonzero"/></g></g></g><g clip-path="url(#9decff1ff7)"><g clip-path="url(#e482ee72b1)"><g clip-path="url(#e2ce859f52)"><path fill="#ffde59" d="M 121.1875 150.183594 L 105.59375 161.019531 L 57.679688 92.074219 L 73.269531 81.238281 Z M 121.1875 150.183594 " fill-opacity="1" fill-rule="nonzero"/></g></g></g><g clip-path="url(#65adb76f92)"><g clip-path="url(#a0f7ffb5cb)"><g clip-path="url(#49106a09fc)"><path fill="#ffde59" d="M 186.222656 209.628906 L 168.417969 216.21875 L 139.265625 137.480469 L 157.074219 130.890625 Z M 186.222656 209.628906 " fill-opacity="1" fill-rule="nonzero"/></g></g></g></svg>