<svg xmlns="http://www.w3.org/2000/svg" xmlns:xlink="http://www.w3.org/1999/xlink" width="361" zoomAndPan="magnify" viewBox="0 0 270.75 370.499989" height="494" preserveAspectRatio="xMidYMid meet" version="1.0"><defs><clipPath id="22af9ff9a5"><path d="M 70 168 L 135 168 L 135 231 L 70 231 Z M 70 168 " clip-rule="nonzero"/></clipPath><clipPath id="48b4e69e18"><path d="M 60.925781 174.125 L 125.4375 163.574219 L 134.652344 219.941406 L 70.140625 230.488281 Z M 60.925781 174.125 " clip-rule="nonzero"/></clipPath><clipPath id="acfc307c09"><path d="M 93.132812 168.859375 L 134.558594 219.957031 L 70.140625 230.488281 Z M 93.132812 168.859375 " clip-rule="nonzero"/></clipPath><clipPath id="0fbd8f5fdc"><path d="M 43 220 L 108 220 L 108 284 L 43 284 Z M 43 220 " clip-rule="nonzero"/></clipPath><clipPath id="839d370746"><path d="M 118.125 276.867188 L 53.921875 289.171875 L 43.175781 233.078125 L 107.375 220.777344 Z M 118.125 276.867188 " clip-rule="nonzero"/></clipPath><clipPath id="2f21e4fed2"><path d="M 86.070312 283.011719 L 43.269531 233.0625 L 107.375 220.777344 Z M 86.070312 283.011719 " clip-rule="nonzero"/></clipPath><clipPath id="c226084bd0"><path d="M 157 63 L 222 63 L 222 125 L 157 125 Z M 157 63 " clip-rule="nonzero"/></clipPath><clipPath id="829f9bc752"><path d="M 148 68.535156 L 212.507812 57.984375 L 221.726562 114.351562 L 157.214844 124.898438 Z M 148 68.535156 " clip-rule="nonzero"/></clipPath><clipPath id="7f6fffd276"><path d="M 180.207031 63.269531 L 221.632812 114.367188 L 157.214844 124.898438 Z M 180.207031 63.269531 " clip-rule="nonzero"/></clipPath><clipPath id="ce3f7fbfd1"><path d="M 130 115 L 195 115 L 195 178 L 130 178 Z M 130 115 " clip-rule="nonzero"/></clipPath><clipPath id="9cfde427cb"><path d="M 205.195312 171.277344 L 140.996094 183.582031 L 130.25 127.488281 L 194.449219 115.1875 Z M 205.195312 171.277344 " clip-rule="nonzero"/></clipPath><clipPath id="871cd9e21d"><path d="M 173.144531 177.421875 L 130.34375 127.472656 L 194.449219 115.1875 Z M 173.144531 177.421875 " clip-rule="nonzero"/></clipPath></defs><g clip-path="url(#22af9ff9a5)"><g clip-path="url(#48b4e69e18)"><g clip-path="url(#acfc307c09)"><path fill="#004aad" d="M 60.925781 174.125 L 125.4375 163.574219 L 134.652344 219.941406 L 70.140625 230.488281 Z M 60.925781 174.125 " fill-opacity="1" fill-rule="nonzero"/></g></g></g><g clip-path="url(#0fbd8f5fdc)"><g clip-path="url(#839d370746)"><g clip-path="url(#2f21e4fed2)"><path fill="#004aad" d="M 118.125 276.867188 L 53.921875 289.171875 L 43.175781 233.078125 L 107.375 220.777344 Z M 118.125 276.867188 " fill-opacity="1" fill-rule="nonzero"/></g></g></g><g clip-path="url(#c226084bd0)"><g clip-path="url(#829f9bc752)"><g clip-path="url(#7f6fffd276)"><path fill="#004aad" d="M 148 68.535156 L 212.507812 57.984375 L 221.726562 114.351562 L 157.214844 124.898438 Z M 148 68.535156 " fill-opacity="1" fill-rule="nonzero"/></g></g></g><g clip-path="url(#ce3f7fbfd1)"><g clip-path="url(#9cfde427cb)"><g clip-path="url(#871cd9e21d)"><path fill="#004aad" d="M 205.195312 171.277344 L 140.996094 183.582031 L 130.25 127.488281 L 194.449219 115.1875 Z M 205.195312 171.277344 " fill-opacity="1" fill-rule="nonzero"/></g></g></g></svg>