<svg xmlns="http://www.w3.org/2000/svg" xmlns:xlink="http://www.w3.org/1999/xlink" width="361" zoomAndPan="magnify" viewBox="0 0 270.75 370.499989" height="494" preserveAspectRatio="xMidYMid meet" version="1.0"><defs><clipPath id="c0689fc46f"><path d="M 89.242188 184.902344 L 180.527344 184.902344 L 180.527344 297.578125 L 89.242188 297.578125 Z M 89.242188 184.902344 " clip-rule="nonzero"/></clipPath><clipPath id="ea4cd75cc2"><path d="M 119.6875 294.613281 C 124.367188 296.203125 129.6875 297.25 134.910156 297.25 C 140.132812 297.25 145.15625 296.355469 149.785156 294.761719 C 149.886719 294.710938 149.984375 294.710938 150.082031 294.664062 C 167.472656 288.296875 180.28125 271.488281 180.527344 251.84375 L 180.527344 184.902344 L 89.242188 184.902344 L 89.242188 251.792969 C 89.488281 271.585938 102.101562 288.398438 119.6875 294.613281 Z M 119.6875 294.613281 " clip-rule="nonzero"/></clipPath><clipPath id="deafdfc6e1"><path d="M 89.242188 60.796875 L 180.527344 60.796875 L 180.527344 173.472656 L 89.242188 173.472656 Z M 89.242188 60.796875 " clip-rule="nonzero"/></clipPath><clipPath id="c35f2b9fcc"><path d="M 119.6875 63.429688 C 124.351562 61.839844 129.6875 60.796875 134.910156 60.796875 C 140.132812 60.796875 145.15625 61.691406 149.785156 63.28125 C 149.886719 63.332031 149.984375 63.332031 150.082031 63.382812 C 167.472656 69.746094 180.28125 86.558594 180.527344 106.203125 L 180.527344 173.144531 L 89.242188 173.144531 L 89.242188 106.25 C 89.488281 86.457031 102.101562 69.648438 119.6875 63.429688 Z M 119.6875 63.429688 " clip-rule="nonzero"/></clipPath></defs><g clip-path="url(#c0689fc46f)"><g clip-path="url(#ea4cd75cc2)"><path fill="#0097b2" d="M 89.242188 184.902344 L 180.527344 184.902344 L 180.527344 297.222656 L 89.242188 297.222656 Z M 89.242188 184.902344 " fill-opacity="1" fill-rule="nonzero"/></g></g><g clip-path="url(#deafdfc6e1)"><g clip-path="url(#c35f2b9fcc)"><path fill="#0097b2" d="M 89.242188 60.796875 L 180.527344 60.796875 L 180.527344 173.117188 L 89.242188 173.117188 Z M 89.242188 60.796875 " fill-opacity="1" fill-rule="nonzero"/></g></g></svg>