<svg xmlns="http://www.w3.org/2000/svg" xmlns:xlink="http://www.w3.org/1999/xlink" width="361" zoomAndPan="magnify" viewBox="0 0 270.75 370.499989" height="494" preserveAspectRatio="xMidYMid meet" version="1.0"><defs><clipPath id="2b1d3097f1"><path d="M 129.28125 59.105469 L 197.15625 59.105469 L 197.15625 136.792969 L 129.28125 136.792969 Z M 129.28125 59.105469 " clip-rule="nonzero"/></clipPath><clipPath id="a2e567a9a6"><path d="M 197.15625 98.003906 L 129.28125 59.21875 L 129.28125 136.792969 Z M 197.15625 98.003906 " clip-rule="nonzero"/></clipPath><clipPath id="4d5a7889d0"><path d="M 56.09375 226.269531 L 151.71875 226.269531 L 151.71875 321.894531 L 56.09375 321.894531 Z M 56.09375 226.269531 " clip-rule="nonzero"/></clipPath><clipPath id="5d3f22147b"><path d="M 103.90625 226.269531 C 77.5 226.269531 56.09375 247.675781 56.09375 274.082031 C 56.09375 300.488281 77.5 321.894531 103.90625 321.894531 C 130.3125 321.894531 151.71875 300.488281 151.71875 274.082031 C 151.71875 247.675781 130.3125 226.269531 103.90625 226.269531 Z M 103.90625 226.269531 " clip-rule="nonzero"/></clipPath></defs><path stroke-linecap="round" transform="matrix(0, -0.748989, 0.748989, 0, 129.636751, 304.908341)" fill="none" stroke-linejoin="miter" d="M 7.001808 6.998973 L 255.326078 6.998973 " stroke="#ffde59" stroke-width="14" stroke-opacity="1" stroke-miterlimit="4"/><g clip-path="url(#2b1d3097f1)"><g clip-path="url(#a2e567a9a6)"><path fill="#ffde59" d="M 129.28125 136.792969 L 129.28125 59.105469 L 197.15625 59.105469 L 197.15625 136.792969 Z M 129.28125 136.792969 " fill-opacity="1" fill-rule="nonzero"/></g></g><g clip-path="url(#4d5a7889d0)"><g clip-path="url(#5d3f22147b)"><path fill="#ffde59" d="M 56.09375 226.269531 L 151.71875 226.269531 L 151.71875 321.894531 L 56.09375 321.894531 Z M 56.09375 226.269531 " fill-opacity="1" fill-rule="nonzero"/></g></g></svg>