<svg xmlns="http://www.w3.org/2000/svg" xmlns:xlink="http://www.w3.org/1999/xlink" width="361" zoomAndPan="magnify" viewBox="0 0 270.75 370.499989" height="494" preserveAspectRatio="xMidYMid meet" version="1.0"><defs><g/></defs><g fill="#004aad" fill-opacity="1"><g transform="translate(104.31958, 261.675964)"><g><path d="M 38.65625 -46.984375 L 22.46875 -46.984375 L 22.46875 -141.625 L 38.65625 -141.625 Z M 30.515625 0.96875 C 26.835938 0.96875 23.929688 -0.0625 21.796875 -2.125 C 19.660156 -4.195312 18.59375 -6.941406 18.59375 -10.359375 C 18.59375 -13.722656 19.660156 -16.484375 21.796875 -18.640625 C 23.929688 -20.804688 26.835938 -21.890625 30.515625 -21.890625 C 34.253906 -21.890625 37.191406 -20.851562 39.328125 -18.78125 C 41.460938 -16.71875 42.53125 -13.976562 42.53125 -10.5625 C 42.53125 -7.132812 41.445312 -4.351562 39.28125 -2.21875 C 37.113281 -0.09375 34.191406 0.96875 30.515625 0.96875 Z M 30.515625 0.96875 "/></g></g></g></svg>