<svg xmlns="http://www.w3.org/2000/svg" xmlns:xlink="http://www.w3.org/1999/xlink" width="361" zoomAndPan="magnify" viewBox="0 0 270.75 370.499989" height="494" preserveAspectRatio="xMidYMid meet" version="1.0"><defs><g/></defs><g fill="#00bf63" fill-opacity="1"><g transform="translate(117.062207, 235.936393)"><g><path d="M 23.265625 0.859375 C 19.984375 0.859375 17.390625 -0.0625 15.484375 -1.90625 C 13.578125 -3.75 12.625 -6.195312 12.625 -9.25 C 12.625 -12.25 13.578125 -14.710938 15.484375 -16.640625 C 17.390625 -18.578125 19.984375 -19.546875 23.265625 -19.546875 C 26.617188 -19.546875 29.242188 -18.625 31.140625 -16.78125 C 33.046875 -14.9375 34 -12.488281 34 -9.4375 C 34 -6.375 33.03125 -3.890625 31.09375 -1.984375 C 29.164062 -0.0859375 26.554688 0.859375 23.265625 0.859375 Z M 23.265625 -76.046875 C 19.984375 -76.046875 17.390625 -76.96875 15.484375 -78.8125 C 13.578125 -80.65625 12.625 -83.101562 12.625 -86.15625 C 12.625 -89.15625 13.578125 -91.617188 15.484375 -93.546875 C 17.390625 -95.484375 19.984375 -96.453125 23.265625 -96.453125 C 26.617188 -96.453125 29.242188 -95.53125 31.140625 -93.6875 C 33.046875 -91.84375 34 -89.394531 34 -86.34375 C 34 -83.28125 33.03125 -80.796875 31.09375 -78.890625 C 29.164062 -76.992188 26.554688 -76.046875 23.265625 -76.046875 Z M 23.265625 -76.046875 "/></g></g></g></svg>