<svg xmlns="http://www.w3.org/2000/svg" xmlns:xlink="http://www.w3.org/1999/xlink" width="361" zoomAndPan="magnify" viewBox="0 0 270.75 370.499989" height="494" preserveAspectRatio="xMidYMid meet" version="1.0"><defs><clipPath id="8066caffac"><path d="M 97.484375 152.175781 L 172.394531 152.175781 L 172.394531 217.625 L 97.484375 217.625 Z M 97.484375 152.175781 " clip-rule="nonzero"/></clipPath><clipPath id="5e75f8ebbb"><path d="M 134.882812 152.175781 L 172.285156 217.625 L 97.484375 217.625 Z M 134.882812 152.175781 " clip-rule="nonzero"/></clipPath><clipPath id="225c932ad6"><path d="M 97.484375 60.519531 L 172.394531 60.519531 L 172.394531 125.96875 L 97.484375 125.96875 Z M 97.484375 60.519531 " clip-rule="nonzero"/></clipPath><clipPath id="ec7337a57a"><path d="M 134.882812 60.519531 L 172.285156 125.96875 L 97.484375 125.96875 Z M 134.882812 60.519531 " clip-rule="nonzero"/></clipPath><clipPath id="f67237d5d2"><path d="M 97.484375 243.839844 L 172.394531 243.839844 L 172.394531 309.289062 L 97.484375 309.289062 Z M 97.484375 243.839844 " clip-rule="nonzero"/></clipPath><clipPath id="5ca8d00835"><path d="M 134.882812 243.839844 L 172.285156 309.289062 L 97.484375 309.289062 Z M 134.882812 243.839844 " clip-rule="nonzero"/></clipPath></defs><g clip-path="url(#8066caffac)"><g clip-path="url(#5e75f8ebbb)"><path fill="#004aad" d="M 97.484375 152.175781 L 172.394531 152.175781 L 172.394531 217.625 L 97.484375 217.625 Z M 97.484375 152.175781 " fill-opacity="1" fill-rule="nonzero"/></g></g><g clip-path="url(#225c932ad6)"><g clip-path="url(#ec7337a57a)"><path fill="#004aad" d="M 97.484375 60.519531 L 172.394531 60.519531 L 172.394531 125.96875 L 97.484375 125.96875 Z M 97.484375 60.519531 " fill-opacity="1" fill-rule="nonzero"/></g></g><g clip-path="url(#f67237d5d2)"><g clip-path="url(#5ca8d00835)"><path fill="#004aad" d="M 97.484375 243.839844 L 172.394531 243.839844 L 172.394531 309.289062 L 97.484375 309.289062 Z M 97.484375 243.839844 " fill-opacity="1" fill-rule="nonzero"/></g></g></svg>