<svg xmlns="http://www.w3.org/2000/svg" xmlns:xlink="http://www.w3.org/1999/xlink" width="361" zoomAndPan="magnify" viewBox="0 0 270.75 370.499989" height="494" preserveAspectRatio="xMidYMid meet" version="1.0"><defs><g/></defs><g fill="#0097b2" fill-opacity="1"><g transform="translate(74.558722, 261.218639)"><g><path d="M 109.875 -38.8125 C 109.875 -31.363281 108.316406 -24.703125 105.203125 -18.828125 C 102.085938 -12.953125 97.367188 -8.203125 91.046875 -4.578125 C 84.722656 -0.953125 76.90625 1.179688 67.59375 1.828125 L 67.59375 22.140625 L 53.53125 22.140625 L 53.53125 1.640625 C 42.5625 0.609375 33.320312 -2.28125 25.8125 -7.03125 C 18.300781 -11.78125 12.90625 -17.425781 9.625 -23.96875 L 18.6875 -34.953125 L 21.09375 -34.953125 C 28.53125 -22.429688 39.34375 -15.242188 53.53125 -13.390625 L 53.53125 -67.015625 L 49.5 -67.984375 C 37.238281 -70.929688 28.203125 -75.628906 22.390625 -82.078125 C 16.578125 -88.535156 13.671875 -96.707031 13.671875 -106.59375 C 13.671875 -113.070312 15.226562 -118.910156 18.34375 -124.109375 C 21.457031 -129.316406 26 -133.539062 31.96875 -136.78125 C 37.9375 -140.019531 45.125 -141.960938 53.53125 -142.609375 L 53.53125 -162.921875 L 67.59375 -162.921875 L 67.59375 -142.515625 C 84.28125 -141.160156 96.414062 -135.285156 104 -124.890625 L 95.90625 -114.015625 L 93.5 -114.015625 C 90.226562 -118.054688 86.457031 -121.195312 82.1875 -123.4375 C 77.914062 -125.6875 73.050781 -127.164062 67.59375 -127.875 L 67.59375 -79.828125 L 70.96875 -79.046875 C 84.632812 -75.835938 94.535156 -70.910156 100.671875 -64.265625 C 106.804688 -57.628906 109.875 -49.144531 109.875 -38.8125 Z M 30.140625 -106.984375 C 30.140625 -100.691406 31.921875 -95.679688 35.484375 -91.953125 C 39.046875 -88.234375 45.0625 -85.3125 53.53125 -83.1875 L 53.53125 -128.0625 C 45.832031 -127.289062 40.007812 -125.039062 36.0625 -121.3125 C 32.113281 -117.59375 30.140625 -112.816406 30.140625 -106.984375 Z M 67.59375 -13.1875 C 76.132812 -14.019531 82.488281 -16.601562 86.65625 -20.9375 C 90.832031 -25.269531 92.921875 -30.96875 92.921875 -38.03125 C 92.921875 -42.53125 92.117188 -46.351562 90.515625 -49.5 C 88.910156 -52.644531 86.273438 -55.351562 82.609375 -57.625 C 78.953125 -59.90625 73.945312 -61.878906 67.59375 -63.546875 Z M 67.59375 -13.1875 "/></g></g></g></svg>