<svg xmlns="http://www.w3.org/2000/svg" xmlns:xlink="http://www.w3.org/1999/xlink" width="361" zoomAndPan="magnify" viewBox="0 0 270.75 370.499989" height="494" preserveAspectRatio="xMidYMid meet" version="1.0"><defs><clipPath id="2059fae5e5"><path d="M 60.15625 89.292969 L 209.960938 89.292969 L 209.960938 187.375 L 60.15625 187.375 Z M 60.15625 89.292969 " clip-rule="nonzero"/></clipPath><clipPath id="73b7268093"><path d="M 145.015625 89.292969 C 146.652344 89.292969 148.304688 89.292969 149.9375 89.292969 C 162.984375 90.933594 171.136719 96.386719 174.847656 105.308594 C 196.59375 104.117188 212.40625 120.988281 202.769531 137.550781 C 205.976562 141.027344 208.648438 144.921875 209.613281 150.144531 C 209.613281 151.640625 209.613281 153.132812 209.613281 154.628906 C 206.738281 167.925781 194.355469 176.910156 174.03125 174.492188 C 168.800781 181.316406 159.496094 188.15625 145.015625 187.304688 C 137.535156 186.855469 132.328125 184.257812 127.769531 181.105469 C 122.964844 183.726562 117.765625 185.785156 110.253906 185.808594 C 92.871094 185.847656 81.242188 175.746094 80.960938 161.890625 C 69.785156 158.652344 62.214844 152.601562 60.15625 142.25 C 60.15625 140.753906 60.15625 139.253906 60.15625 137.765625 C 62.429688 127.507812 69.585938 121.0625 81.503906 118.332031 C 80.789062 101.027344 104.625 90.214844 124.207031 97.839844 C 128.871094 94.070312 135.464844 89.957031 145.015625 89.292969 Z M 145.015625 89.292969 " clip-rule="nonzero"/></clipPath><clipPath id="02b14d6819"><path d="M 121.671875 174.019531 L 148.097656 174.019531 L 148.097656 322.546875 L 121.671875 322.546875 Z M 121.671875 174.019531 " clip-rule="nonzero"/></clipPath><clipPath id="cd571800ac"><path d="M 125.417969 174.019531 L 144.351562 174.019531 C 145.34375 174.019531 146.296875 174.414062 147 175.113281 C 147.703125 175.816406 148.097656 176.769531 148.097656 177.761719 L 148.097656 318.714844 C 148.097656 319.707031 147.703125 320.660156 147 321.363281 C 146.296875 322.0625 145.34375 322.457031 144.351562 322.457031 L 125.417969 322.457031 C 124.425781 322.457031 123.472656 322.0625 122.769531 321.363281 C 122.066406 320.660156 121.671875 319.707031 121.671875 318.714844 L 121.671875 177.761719 C 121.671875 176.769531 122.066406 175.816406 122.769531 175.113281 C 123.472656 174.414062 124.425781 174.019531 125.417969 174.019531 Z M 125.417969 174.019531 " clip-rule="nonzero"/></clipPath><clipPath id="3b460a749a"><path d="M 79 64 L 194 64 L 194 205 L 79 205 Z M 79 64 " clip-rule="nonzero"/></clipPath><clipPath id="790aba8ae2"><path d="M 130.695312 227.617188 L 54.464844 98.65625 L 138.898438 48.746094 L 215.128906 177.707031 Z M 130.695312 227.617188 " clip-rule="nonzero"/></clipPath><clipPath id="e674ae11d3"><path d="M 87.515625 154.566406 C 86.679688 153.152344 85.839844 151.734375 85.007812 150.324219 C 79.78125 138.261719 80.328125 128.46875 86.117188 120.734375 C 74.027344 102.617188 80.507812 80.421875 99.664062 80.289062 C 101.03125 75.761719 103.019531 71.480469 107.027344 67.992188 C 108.316406 67.230469 109.601562 66.46875 110.886719 65.707031 C 123.796875 61.417969 137.832031 67.503906 146.089844 86.234375 C 154.628906 87.261719 165.25 91.792969 171.882812 104.691406 C 175.308594 111.359375 175.722656 117.164062 175.328125 122.695312 C 180.027344 125.492188 184.445312 128.921875 188.285156 135.378906 C 197.164062 150.324219 194.386719 165.472656 182.605469 172.765625 C 185.5 184.035156 184.144531 193.628906 176.28125 200.667969 C 174.996094 201.429688 173.703125 202.195312 172.421875 202.953125 C 162.433594 206.214844 153.246094 203.332031 144.828125 194.460938 C 130.296875 203.882812 108.859375 188.867188 105.457031 168.128906 C 99.839844 166.035156 92.945312 162.445312 87.515625 154.566406 Z M 87.515625 154.566406 " clip-rule="nonzero"/></clipPath><clipPath id="ae0f3ef1a5"><path d="M 77 71 L 203 71 L 203 197 L 77 197 Z M 77 71 " clip-rule="nonzero"/></clipPath><clipPath id="063be2f1b5"><path d="M 47.730469 155.023438 L 151.617188 47.09375 L 222.28125 115.109375 L 118.394531 223.039062 Z M 47.730469 155.023438 " clip-rule="nonzero"/></clipPath><clipPath id="ade4e1bb50"><path d="M 106.578125 93.882812 C 107.714844 92.703125 108.859375 91.515625 109.992188 90.335938 C 120.21875 82.074219 129.800781 79.980469 138.804688 83.496094 C 153.027344 67 176.148438 67.308594 181.398438 85.734375 C 186.125 85.839844 190.785156 86.613281 195.21875 89.539062 C 196.296875 90.578125 197.371094 91.613281 198.449219 92.652344 C 206.035156 103.945312 203.921875 119.09375 188.082031 132.0625 C 189.375 140.5625 187.847656 152.007812 177.195312 161.847656 C 171.679688 166.929688 166.199219 168.882812 160.765625 169.980469 C 159.324219 175.257812 157.199219 180.429688 152.007812 185.859375 C 139.980469 198.410156 124.640625 199.785156 114.464844 190.378906 C 104.378906 196.183594 94.769531 197.441406 85.882812 191.746094 C 84.804688 190.710938 83.726562 189.667969 82.652344 188.636719 C 76.839844 179.882812 77.160156 170.257812 83.457031 159.78125 C 70.492188 148.296875 79.234375 123.625 98.304688 114.800781 C 98.824219 108.828125 100.433594 101.222656 106.578125 93.882812 Z M 106.578125 93.882812 " clip-rule="nonzero"/></clipPath></defs><g clip-path="url(#2059fae5e5)"><g clip-path="url(#73b7268093)"><path fill="#00bf63" d="M 60.15625 89.292969 L 209.578125 89.292969 L 209.578125 187.375 L 60.15625 187.375 Z M 60.15625 89.292969 " fill-opacity="1" fill-rule="nonzero"/></g></g><g clip-path="url(#02b14d6819)"><g clip-path="url(#cd571800ac)"><path fill="#00bf63" d="M 121.671875 174.019531 L 148.097656 174.019531 L 148.097656 322.441406 L 121.671875 322.441406 Z M 121.671875 174.019531 " fill-opacity="1" fill-rule="nonzero"/></g></g><g clip-path="url(#3b460a749a)"><g clip-path="url(#790aba8ae2)"><g clip-path="url(#e674ae11d3)"><path fill="#00bf63" d="M 130.695312 227.617188 L 54.660156 98.988281 L 139.09375 49.078125 L 215.128906 177.707031 Z M 130.695312 227.617188 " fill-opacity="1" fill-rule="nonzero"/></g></g></g><g clip-path="url(#ae0f3ef1a5)"><g clip-path="url(#063be2f1b5)"><g clip-path="url(#ade4e1bb50)"><path fill="#00bf63" d="M 47.730469 155.023438 L 151.351562 47.367188 L 222.015625 115.386719 L 118.394531 223.039062 Z M 47.730469 155.023438 " fill-opacity="1" fill-rule="nonzero"/></g></g></g></svg>