<svg xmlns="http://www.w3.org/2000/svg" xmlns:xlink="http://www.w3.org/1999/xlink" width="361" zoomAndPan="magnify" viewBox="0 0 270.75 370.499989" height="494" preserveAspectRatio="xMidYMid meet" version="1.0"><defs><clipPath id="169797aa74"><path d="M 74.339844 178.804688 L 195.429688 178.804688 L 195.429688 318.34375 L 74.339844 318.34375 Z M 74.339844 178.804688 " clip-rule="nonzero"/></clipPath><clipPath id="2d1b8624ca"><path d="M 110.925781 318.175781 L 158.84375 318.175781 L 195.429688 178.804688 L 74.339844 178.804688 Z M 110.925781 318.175781 " clip-rule="nonzero"/></clipPath><clipPath id="9deffcc572"><path d="M 51.640625 91.710938 L 132.636719 91.710938 L 132.636719 172.707031 L 51.640625 172.707031 Z M 51.640625 91.710938 " clip-rule="nonzero"/></clipPath><clipPath id="4071a96f25"><path d="M 92.140625 91.710938 C 69.773438 91.710938 51.640625 109.84375 51.640625 132.210938 C 51.640625 154.578125 69.773438 172.707031 92.140625 172.707031 C 114.507812 172.707031 132.636719 154.578125 132.636719 132.210938 C 132.636719 109.84375 114.507812 91.710938 92.140625 91.710938 Z M 92.140625 91.710938 " clip-rule="nonzero"/></clipPath><clipPath id="91b4482950"><path d="M 137.132812 91.710938 L 218.125 91.710938 L 218.125 172.707031 L 137.132812 172.707031 Z M 137.132812 91.710938 " clip-rule="nonzero"/></clipPath><clipPath id="5a5bca4910"><path d="M 177.628906 91.710938 C 155.261719 91.710938 137.132812 109.84375 137.132812 132.210938 C 137.132812 154.578125 155.261719 172.707031 177.628906 172.707031 C 199.996094 172.707031 218.125 154.578125 218.125 132.210938 C 218.125 109.84375 199.996094 91.710938 177.628906 91.710938 Z M 177.628906 91.710938 " clip-rule="nonzero"/></clipPath><clipPath id="f01ad4469b"><path d="M 92.140625 18.554688 L 173.136719 18.554688 L 173.136719 99.550781 L 92.140625 99.550781 Z M 92.140625 18.554688 " clip-rule="nonzero"/></clipPath><clipPath id="87cc61c3c4"><path d="M 132.636719 18.554688 C 110.269531 18.554688 92.140625 36.6875 92.140625 59.054688 C 92.140625 81.417969 110.269531 99.550781 132.636719 99.550781 C 155.003906 99.550781 173.136719 81.417969 173.136719 59.054688 C 173.136719 36.6875 155.003906 18.554688 132.636719 18.554688 Z M 132.636719 18.554688 " clip-rule="nonzero"/></clipPath></defs><g clip-path="url(#169797aa74)"><g clip-path="url(#2d1b8624ca)"><path fill="#00bf63" d="M 74.339844 178.804688 L 195.429688 178.804688 L 195.429688 318.34375 L 74.339844 318.34375 Z M 74.339844 178.804688 " fill-opacity="1" fill-rule="nonzero"/></g></g><g clip-path="url(#9deffcc572)"><g clip-path="url(#4071a96f25)"><path fill="#00bf63" d="M 51.640625 91.710938 L 132.636719 91.710938 L 132.636719 172.707031 L 51.640625 172.707031 Z M 51.640625 91.710938 " fill-opacity="1" fill-rule="nonzero"/></g></g><g clip-path="url(#91b4482950)"><g clip-path="url(#5a5bca4910)"><path fill="#00bf63" d="M 137.132812 91.710938 L 218.125 91.710938 L 218.125 172.707031 L 137.132812 172.707031 Z M 137.132812 91.710938 " fill-opacity="1" fill-rule="nonzero"/></g></g><g clip-path="url(#f01ad4469b)"><g clip-path="url(#87cc61c3c4)"><path fill="#00bf63" d="M 92.140625 18.554688 L 173.136719 18.554688 L 173.136719 99.550781 L 92.140625 99.550781 Z M 92.140625 18.554688 " fill-opacity="1" fill-rule="nonzero"/></g></g></svg>