<svg xmlns="http://www.w3.org/2000/svg" xmlns:xlink="http://www.w3.org/1999/xlink" width="361" zoomAndPan="magnify" viewBox="0 0 270.75 370.499989" height="494" preserveAspectRatio="xMidYMid meet" version="1.0"><defs><g/></defs><g fill="#ff3131" fill-opacity="1"><g transform="translate(90.715977, 238.587395)"><g><path d="M 53.46875 -96.203125 C 57.488281 -96.203125 61.289062 -95.804688 64.875 -95.015625 C 68.457031 -94.234375 71.5625 -93.1875 74.1875 -91.875 C 76.195312 -90.820312 77.613281 -89.789062 78.4375 -88.78125 C 79.269531 -87.78125 79.6875 -86.671875 79.6875 -85.453125 C 79.6875 -83.441406 78.460938 -81.34375 76.015625 -79.15625 C 73.566406 -81.082031 70.351562 -82.765625 66.375 -84.203125 C 62.40625 -85.648438 58.101562 -86.375 53.46875 -86.375 C 46.476562 -86.375 40.316406 -84.753906 34.984375 -81.515625 C 29.660156 -78.285156 25.535156 -73.722656 22.609375 -67.828125 C 19.679688 -61.929688 18.21875 -55.09375 18.21875 -47.3125 C 18.21875 -39.625 19.550781 -32.804688 22.21875 -26.859375 C 24.882812 -20.921875 28.75 -16.289062 33.8125 -12.96875 C 38.882812 -9.65625 45 -8 52.15625 -8 C 57.570312 -8 62.597656 -8.9375 67.234375 -10.8125 C 71.867188 -12.6875 75.625 -14.894531 78.5 -17.4375 C 81.125 -15.070312 82.4375 -12.84375 82.4375 -10.75 C 82.4375 -9.695312 82.085938 -8.691406 81.390625 -7.734375 C 80.691406 -6.773438 79.335938 -5.679688 77.328125 -4.453125 C 74.703125 -2.878906 71.140625 -1.4375 66.640625 -0.125 C 62.140625 1.175781 57.3125 1.828125 52.15625 1.828125 C 41.9375 1.828125 33.421875 -0.242188 26.609375 -4.390625 C 19.796875 -8.535156 14.75 -14.253906 11.46875 -21.546875 C 8.1875 -28.847656 6.546875 -37.304688 6.546875 -46.921875 C 6.546875 -56.441406 8.445312 -64.9375 12.25 -72.40625 C 16.050781 -79.882812 21.488281 -85.71875 28.5625 -89.90625 C 35.644531 -94.101562 43.945312 -96.203125 53.46875 -96.203125 Z M 53.46875 -96.203125 "/></g></g></g></svg>