<svg xmlns="http://www.w3.org/2000/svg" xmlns:xlink="http://www.w3.org/1999/xlink" width="361" zoomAndPan="magnify" viewBox="0 0 270.75 370.499989" height="494" preserveAspectRatio="xMidYMid meet" version="1.0"><defs><clipPath id="510466cb49"><path d="M 106.578125 72.117188 L 203.199219 72.117188 L 203.199219 168.738281 L 106.578125 168.738281 Z M 106.578125 72.117188 " clip-rule="nonzero"/></clipPath><clipPath id="d987bc79ee"><path d="M 154.914062 72.117188 C 128.21875 72.117188 106.578125 93.757812 106.578125 120.449219 C 106.578125 147.144531 128.21875 168.785156 154.914062 168.785156 C 181.605469 168.785156 203.246094 147.144531 203.246094 120.449219 C 203.246094 93.757812 181.605469 72.117188 154.914062 72.117188 Z M 154.914062 72.117188 " clip-rule="nonzero"/></clipPath></defs><g clip-path="url(#510466cb49)"><g clip-path="url(#d987bc79ee)"><path stroke-linecap="butt" transform="matrix(0.748989, 0, 0, 0.748989, 106.579749, 72.116969)" fill="none" stroke-linejoin="miter" d="M 64.532727 0.00029119 C 28.89094 0.00029119 -0.00216852 28.893399 -0.00216852 64.529971 C -0.00216852 100.171759 28.89094 129.064867 64.532727 129.064867 C 100.169299 129.064867 129.062407 100.171759 129.062407 64.529971 C 129.062407 28.893399 100.169299 0.00029119 64.532727 0.00029119 Z M 64.532727 0.00029119 " stroke="#0097b2" stroke-width="30" stroke-opacity="1" stroke-miterlimit="4"/></g></g><path stroke-linecap="round" transform="matrix(0.208075, -0.719506, 0.719506, 0.208075, 101.39319, 272.880831)" fill="none" stroke-linejoin="miter" d="M 7.49828 7.502597 L 152.501808 7.497489 " stroke="#0097b2" stroke-width="15" stroke-opacity="1" stroke-miterlimit="4"/></svg>