<svg xmlns="http://www.w3.org/2000/svg" xmlns:xlink="http://www.w3.org/1999/xlink" width="361" zoomAndPan="magnify" viewBox="0 0 270.75 370.499989" height="494" preserveAspectRatio="xMidYMid meet" version="1.0"><defs><clipPath id="ef7e2c58a8"><path d="M 67.558594 80 L 202.199219 80 L 202.199219 289.714844 L 67.558594 289.714844 Z M 67.558594 80 " clip-rule="nonzero"/></clipPath><clipPath id="d1e5383ecd"><path d="M 134.878906 80 C 97.699219 80 67.558594 126.964844 67.558594 184.894531 C 67.558594 242.828125 97.699219 289.792969 134.878906 289.792969 C 172.058594 289.792969 202.199219 242.828125 202.199219 184.894531 C 202.199219 126.964844 172.058594 80 134.878906 80 Z M 134.878906 80 " clip-rule="nonzero"/></clipPath></defs><g clip-path="url(#ef7e2c58a8)"><g clip-path="url(#d1e5383ecd)"><path stroke-linecap="butt" transform="matrix(0.748989, 0, 0, 0.748989, 67.557685, 79.999643)" fill="none" stroke-linejoin="miter" d="M 89.882771 0.000476706 C 40.242951 0.000476706 0.00121391 62.70478 0.00121391 140.048606 C 0.00121391 217.397647 40.242951 280.10195 89.882771 280.10195 C 139.522591 280.10195 179.764328 217.397647 179.764328 140.048606 C 179.764328 62.70478 139.522591 0.000476706 89.882771 0.000476706 Z M 89.882771 0.000476706 " stroke="#ffde59" stroke-width="18" stroke-opacity="1" stroke-miterlimit="4"/></g></g></svg>