<svg xmlns="http://www.w3.org/2000/svg" xmlns:xlink="http://www.w3.org/1999/xlink" width="361" zoomAndPan="magnify" viewBox="0 0 270.75 370.499989" height="494" preserveAspectRatio="xMidYMid meet" version="1.0"><defs><clipPath id="f6c262f300"><path d="M 64.007812 68.96875 L 157.632812 68.96875 L 157.632812 162.589844 L 64.007812 162.589844 Z M 64.007812 68.96875 " clip-rule="nonzero"/></clipPath><clipPath id="ad6cf42ee8"><path d="M 157.632812 115.777344 C 157.632812 89.925781 136.675781 68.96875 110.820312 68.96875 C 84.96875 68.96875 64.007812 89.925781 64.007812 115.777344 C 64.007812 141.632812 84.96875 162.589844 110.820312 162.589844 C 136.675781 162.589844 157.632812 141.632812 157.632812 115.777344 Z M 157.632812 115.777344 " clip-rule="nonzero"/></clipPath><clipPath id="f81600e601"><path d="M 134.25 74.925781 L 205.742188 74.925781 L 205.742188 156.75 L 134.25 156.75 Z M 134.25 74.925781 " clip-rule="nonzero"/></clipPath><clipPath id="446c3a6289"><path d="M 205.742188 115.777344 L 134.25 156.632812 L 134.25 74.925781 Z M 205.742188 115.777344 " clip-rule="nonzero"/></clipPath><clipPath id="e29d6b8fb9"><path d="M 64.007812 192.429688 L 157.632812 192.429688 L 157.632812 286.050781 L 64.007812 286.050781 Z M 64.007812 192.429688 " clip-rule="nonzero"/></clipPath><clipPath id="8b994cc776"><path d="M 157.632812 239.238281 C 157.632812 213.386719 136.675781 192.429688 110.820312 192.429688 C 84.96875 192.429688 64.007812 213.386719 64.007812 239.238281 C 64.007812 265.09375 84.96875 286.050781 110.820312 286.050781 C 136.675781 286.050781 157.632812 265.09375 157.632812 239.238281 Z M 157.632812 239.238281 " clip-rule="nonzero"/></clipPath><clipPath id="75558008b8"><path d="M 134.25 198.386719 L 205.742188 198.386719 L 205.742188 280.210938 L 134.25 280.210938 Z M 134.25 198.386719 " clip-rule="nonzero"/></clipPath><clipPath id="af998e7a2d"><path d="M 205.742188 239.238281 L 134.25 280.09375 L 134.25 198.386719 Z M 205.742188 239.238281 " clip-rule="nonzero"/></clipPath></defs><g clip-path="url(#f6c262f300)"><g clip-path="url(#ad6cf42ee8)"><path fill="#ff3131" d="M 157.632812 68.96875 L 157.632812 162.589844 L 64.007812 162.589844 L 64.007812 68.96875 Z M 157.632812 68.96875 " fill-opacity="1" fill-rule="nonzero"/></g></g><g clip-path="url(#f81600e601)"><g clip-path="url(#446c3a6289)"><path fill="#ff3131" d="M 205.742188 74.925781 L 205.742188 156.75 L 134.25 156.75 L 134.25 74.925781 Z M 205.742188 74.925781 " fill-opacity="1" fill-rule="nonzero"/></g></g><g clip-path="url(#e29d6b8fb9)"><g clip-path="url(#8b994cc776)"><path fill="#ff3131" d="M 157.632812 192.429688 L 157.632812 286.050781 L 64.007812 286.050781 L 64.007812 192.429688 Z M 157.632812 192.429688 " fill-opacity="1" fill-rule="nonzero"/></g></g><g clip-path="url(#75558008b8)"><g clip-path="url(#af998e7a2d)"><path fill="#ff3131" d="M 205.742188 198.386719 L 205.742188 280.210938 L 134.25 280.210938 L 134.25 198.386719 Z M 205.742188 198.386719 " fill-opacity="1" fill-rule="nonzero"/></g></g></svg>