<svg xmlns="http://www.w3.org/2000/svg" xmlns:xlink="http://www.w3.org/1999/xlink" width="361" zoomAndPan="magnify" viewBox="0 0 270.75 370.499989" height="494" preserveAspectRatio="xMidYMid meet" version="1.0"><path stroke-linecap="round" transform="matrix(0.748989, 0, 0, 0.748989, 51.448476, 179.283386)" fill="none" stroke-linejoin="miter" d="M 7.500683 7.502054 L 223.447983 7.502054 " stroke="#ffde59" stroke-width="15" stroke-opacity="1" stroke-miterlimit="4"/><path stroke-linecap="round" transform="matrix(0.748989, 0, 0, 0.748989, 51.448476, 119.851966)" fill="none" stroke-linejoin="miter" d="M 7.500683 7.499152 L 223.447983 7.499152 " stroke="#ffde59" stroke-width="15" stroke-opacity="1" stroke-miterlimit="4"/><path stroke-linecap="round" transform="matrix(0.748989, 0, 0, 0.748989, 51.448476, 237.425836)" fill="none" stroke-linejoin="miter" d="M 7.500683 7.499618 L 223.447983 7.499618 " stroke="#ffde59" stroke-width="15" stroke-opacity="1" stroke-miterlimit="4"/><path stroke-linecap="round" transform="matrix(0, -0.748989, 0.748989, 0, 129.265315, 287.945316)" fill="none" stroke-linejoin="miter" d="M 7.499695 7.500105 L 267.662838 7.500105 " stroke="#ffde59" stroke-width="15" stroke-opacity="1" stroke-miterlimit="4"/><path stroke-linecap="round" transform="matrix(0, -0.748989, 0.748989, 0, 87.252253, 287.945316)" fill="none" stroke-linejoin="miter" d="M 7.499695 7.501899 L 267.662838 7.501899 " stroke="#ffde59" stroke-width="15" stroke-opacity="1" stroke-miterlimit="4"/><path stroke-linecap="round" transform="matrix(0, -0.748989, 0.748989, 0, 169.989421, 287.945316)" fill="none" stroke-linejoin="miter" d="M 7.499695 7.498169 L 267.662838 7.498169 " stroke="#ffde59" stroke-width="15" stroke-opacity="1" stroke-miterlimit="4"/></svg>