<svg xmlns="http://www.w3.org/2000/svg" xmlns:xlink="http://www.w3.org/1999/xlink" width="361" zoomAndPan="magnify" viewBox="0 0 270.75 370.499989" height="494" preserveAspectRatio="xMidYMid meet" version="1.0"><defs><clipPath id="2cdaea6cb9"><path d="M 30.199219 177.523438 L 239.683594 177.523438 L 239.683594 221.410156 L 30.199219 221.410156 Z M 30.199219 177.523438 " clip-rule="nonzero"/></clipPath><clipPath id="721b9c2138"><path d="M 100.027344 180.160156 C 110.726562 178.566406 122.964844 177.523438 134.941406 177.523438 C 146.917969 177.523438 158.445312 178.417969 169.066406 180.011719 C 169.289062 180.058594 169.515625 180.058594 169.742188 180.109375 C 209.628906 186.476562 239.007812 203.285156 239.570312 221.410156 L 30.199219 221.410156 C 30.761719 203.1875 59.6875 186.375 100.027344 180.160156 Z M 100.027344 180.160156 " clip-rule="nonzero"/></clipPath><clipPath id="dc0eb2d671"><path d="M 82.453125 132.660156 L 185.996094 132.660156 L 185.996094 176.542969 L 82.453125 176.542969 Z M 82.453125 132.660156 " clip-rule="nonzero"/></clipPath><clipPath id="82910f6e10"><path d="M 116.964844 135.292969 C 122.25 133.703125 128.300781 132.660156 134.21875 132.660156 C 140.136719 132.660156 145.832031 133.554688 151.082031 135.144531 C 151.195312 135.195312 151.304688 135.195312 151.417969 135.246094 C 171.128906 141.609375 185.648438 158.421875 185.929688 176.542969 L 82.453125 176.542969 C 82.730469 158.320312 97.027344 141.511719 116.964844 135.292969 Z M 116.964844 135.292969 " clip-rule="nonzero"/></clipPath><clipPath id="035aaf4314"><path d="M 128.816406 114.03125 L 139.5625 114.03125 L 139.5625 130.445312 L 128.816406 130.445312 Z M 128.816406 114.03125 " clip-rule="nonzero"/></clipPath><clipPath id="d8bb8b43d9"><path d="M 134.191406 114.03125 L 139.5625 130.410156 L 128.816406 130.410156 Z M 134.191406 114.03125 " clip-rule="nonzero"/></clipPath><clipPath id="7c66d01e9b"><path d="M 51.019531 223.65625 L 217.367188 223.65625 L 217.367188 235.414062 L 51.019531 235.414062 Z M 51.019531 223.65625 " clip-rule="nonzero"/></clipPath><clipPath id="b1ef878b57"><path d="M 189.277344 223.65625 C 204.789062 223.65625 217.363281 226.289062 217.363281 229.535156 C 217.363281 232.78125 204.789062 235.414062 189.277344 235.414062 L 79.105469 235.414062 C 63.59375 235.414062 51.019531 232.78125 51.019531 229.535156 C 51.019531 226.289062 63.59375 223.65625 79.105469 223.65625 Z M 189.277344 223.65625 " clip-rule="nonzero"/></clipPath><clipPath id="a9bd2494d6"><path d="M 116.050781 237.660156 L 153.757812 237.660156 L 153.757812 255.773438 L 116.050781 255.773438 Z M 116.050781 237.660156 " clip-rule="nonzero"/></clipPath><clipPath id="dfff6024fe"><path d="M 128.613281 254.683594 C 130.542969 255.339844 132.738281 255.773438 134.894531 255.773438 C 137.050781 255.773438 139.125 255.402344 141.035156 254.746094 C 141.074219 254.726562 141.117188 254.726562 141.15625 254.703125 C 148.332031 252.078125 153.617188 245.140625 153.71875 237.660156 L 116.050781 237.660156 C 116.152344 245.179688 121.355469 252.117188 128.613281 254.683594 Z M 128.613281 254.683594 " clip-rule="nonzero"/></clipPath><clipPath id="d1fa4e11e0"><path d="M 76.667969 237.660156 L 114.375 237.660156 L 114.375 255.773438 L 76.667969 255.773438 Z M 76.667969 237.660156 " clip-rule="nonzero"/></clipPath><clipPath id="28f47f45ef"><path d="M 89.230469 254.683594 C 91.160156 255.339844 93.355469 255.773438 95.511719 255.773438 C 97.667969 255.773438 99.742188 255.402344 101.652344 254.746094 C 101.691406 254.726562 101.734375 254.726562 101.773438 254.703125 C 108.949219 252.078125 114.234375 245.140625 114.335938 237.660156 L 76.667969 237.660156 C 76.769531 245.179688 81.972656 252.117188 89.230469 254.683594 Z M 89.230469 254.683594 " clip-rule="nonzero"/></clipPath><clipPath id="533890b473"><path d="M 155.964844 237.660156 L 193.671875 237.660156 L 193.671875 255.773438 L 155.964844 255.773438 Z M 155.964844 237.660156 " clip-rule="nonzero"/></clipPath><clipPath id="71ed02f3d8"><path d="M 168.53125 254.683594 C 170.460938 255.339844 172.65625 255.773438 174.8125 255.773438 C 176.964844 255.773438 179.039062 255.402344 180.949219 254.746094 C 180.992188 254.726562 181.03125 254.726562 181.074219 254.703125 C 188.25 252.078125 193.535156 245.140625 193.636719 237.660156 L 155.964844 237.660156 C 156.066406 245.179688 161.273438 252.117188 168.53125 254.683594 Z M 168.53125 254.683594 " clip-rule="nonzero"/></clipPath></defs><g clip-path="url(#2cdaea6cb9)"><g clip-path="url(#721b9c2138)"><path fill="#0097b2" d="M 30.199219 177.523438 L 239.511719 177.523438 L 239.511719 221.410156 L 30.199219 221.410156 Z M 30.199219 177.523438 " fill-opacity="1" fill-rule="nonzero"/></g></g><g clip-path="url(#dc0eb2d671)"><g clip-path="url(#82910f6e10)"><path fill="#0097b2" d="M 82.453125 132.660156 L 185.996094 132.660156 L 185.996094 176.542969 L 82.453125 176.542969 Z M 82.453125 132.660156 " fill-opacity="1" fill-rule="nonzero"/></g></g><g clip-path="url(#035aaf4314)"><g clip-path="url(#d8bb8b43d9)"><path fill="#0097b2" d="M 128.816406 114.03125 L 139.5625 114.03125 L 139.5625 130.402344 L 128.816406 130.402344 Z M 128.816406 114.03125 " fill-opacity="1" fill-rule="nonzero"/></g></g><g clip-path="url(#7c66d01e9b)"><g clip-path="url(#b1ef878b57)"><path fill="#0097b2" d="M 51.019531 223.65625 L 217.367188 223.65625 L 217.367188 235.414062 L 51.019531 235.414062 Z M 51.019531 223.65625 " fill-opacity="1" fill-rule="nonzero"/></g></g><g clip-path="url(#a9bd2494d6)"><g clip-path="url(#dfff6024fe)"><path fill="#0097b2" d="M 116.050781 237.660156 L 153.683594 237.660156 L 153.683594 255.773438 L 116.050781 255.773438 Z M 116.050781 237.660156 " fill-opacity="1" fill-rule="nonzero"/></g></g><g clip-path="url(#d1fa4e11e0)"><g clip-path="url(#28f47f45ef)"><path fill="#0097b2" d="M 76.667969 237.660156 L 114.300781 237.660156 L 114.300781 255.773438 L 76.667969 255.773438 Z M 76.667969 237.660156 " fill-opacity="1" fill-rule="nonzero"/></g></g><g clip-path="url(#533890b473)"><g clip-path="url(#71ed02f3d8)"><path fill="#0097b2" d="M 155.964844 237.660156 L 193.601562 237.660156 L 193.601562 255.773438 L 155.964844 255.773438 Z M 155.964844 237.660156 " fill-opacity="1" fill-rule="nonzero"/></g></g></svg>