<svg xmlns="http://www.w3.org/2000/svg" xmlns:xlink="http://www.w3.org/1999/xlink" width="361" zoomAndPan="magnify" viewBox="0 0 270.75 370.499989" height="494" preserveAspectRatio="xMidYMid meet" version="1.0"><defs><clipPath id="0703f6ffa1"><path d="M 45.332031 126.132812 L 224.851562 126.132812 L 224.851562 243.667969 L 45.332031 243.667969 Z M 45.332031 126.132812 " clip-rule="nonzero"/></clipPath><clipPath id="90df67f54a"><path d="M 147.023438 126.132812 C 148.988281 126.132812 150.964844 126.132812 152.925781 126.132812 C 168.554688 128.097656 178.324219 134.628906 182.773438 145.324219 C 208.835938 143.898438 227.78125 164.117188 216.234375 183.960938 C 220.074219 188.128906 223.277344 192.792969 224.433594 199.054688 C 224.433594 200.847656 224.433594 202.636719 224.433594 204.429688 C 220.988281 220.359375 206.152344 231.128906 181.796875 228.230469 C 175.53125 236.410156 164.378906 244.601562 147.027344 243.582031 C 138.058594 243.046875 131.820312 239.933594 126.355469 236.15625 C 120.601562 239.296875 114.371094 241.761719 105.367188 241.789062 C 84.535156 241.835938 70.601562 229.734375 70.265625 213.132812 C 56.871094 209.246094 47.804688 201.996094 45.332031 189.59375 C 45.332031 187.800781 45.332031 186.003906 45.332031 184.21875 C 48.058594 171.925781 56.636719 164.203125 70.917969 160.929688 C 70.058594 140.195312 98.621094 127.238281 122.089844 136.375 C 127.675781 131.855469 135.582031 126.929688 147.023438 126.132812 Z M 147.023438 126.132812 " clip-rule="nonzero"/></clipPath></defs><g clip-path="url(#0703f6ffa1)"><g clip-path="url(#90df67f54a)"><path fill="#ffde59" d="M 45.332031 126.132812 L 224.390625 126.132812 L 224.390625 243.667969 L 45.332031 243.667969 Z M 45.332031 126.132812 " fill-opacity="1" fill-rule="nonzero"/></g></g></svg>