<svg xmlns="http://www.w3.org/2000/svg" xmlns:xlink="http://www.w3.org/1999/xlink" width="361" zoomAndPan="magnify" viewBox="0 0 270.75 370.499989" height="494" preserveAspectRatio="xMidYMid meet" version="1.0"><defs><g/><clipPath id="0a9e4a35e5"><path d="M 91.855469 162.753906 L 119.136719 162.753906 L 119.136719 179.664062 L 91.855469 179.664062 Z M 91.855469 162.753906 " clip-rule="nonzero"/></clipPath><clipPath id="ab20c864fb"><path d="M 105.503906 179.664062 C 113.03125 179.664062 119.136719 175.878906 119.136719 171.210938 C 119.136719 166.539062 113.03125 162.753906 105.503906 162.753906 C 97.972656 162.753906 91.867188 166.539062 91.867188 171.210938 C 91.867188 175.878906 97.972656 179.664062 105.503906 179.664062 Z M 105.503906 179.664062 " clip-rule="nonzero"/></clipPath><clipPath id="c7e68085fc"><path d="M 150.683594 162.753906 L 177.96875 162.753906 L 177.96875 179.664062 L 150.683594 179.664062 Z M 150.683594 162.753906 " clip-rule="nonzero"/></clipPath><clipPath id="4fccff6320"><path d="M 164.332031 179.664062 C 171.863281 179.664062 177.96875 175.878906 177.96875 171.210938 C 177.96875 166.539062 171.863281 162.753906 164.332031 162.753906 C 156.800781 162.753906 150.699219 166.539062 150.699219 171.210938 C 150.699219 175.878906 156.800781 179.664062 164.332031 179.664062 Z M 164.332031 179.664062 " clip-rule="nonzero"/></clipPath><clipPath id="5133a51482"><path d="M 143 231 L 180 231 L 180 254 L 143 254 Z M 143 231 " clip-rule="nonzero"/></clipPath><clipPath id="af2172e8f9"><path d="M 145.554688 227.996094 L 181.644531 236.6875 L 176.746094 257.035156 L 140.65625 248.347656 Z M 145.554688 227.996094 " clip-rule="nonzero"/></clipPath><clipPath id="0362873f33"><path d="M 163.605469 232.34375 C 153.679688 229.953125 144.539062 232.570312 143.183594 238.191406 C 141.832031 243.808594 148.78125 250.300781 158.707031 252.691406 C 168.628906 255.082031 177.773438 252.464844 179.125 246.84375 C 180.480469 241.226562 173.53125 234.730469 163.605469 232.34375 Z M 163.605469 232.34375 " clip-rule="nonzero"/></clipPath><clipPath id="fd625f1e0c"><path d="M 168 230 L 206 230 L 206 252 L 168 252 Z M 168 230 " clip-rule="nonzero"/></clipPath><clipPath id="3ef9d8e54d"><path d="M 202.429688 222.15625 L 208.570312 239.027344 L 174.363281 251.472656 L 168.226562 234.597656 Z M 202.429688 222.15625 " clip-rule="nonzero"/></clipPath><clipPath id="c09fd15cb4"><path d="M 205.5 230.589844 L 174.40625 251.453125 L 168.269531 234.582031 Z M 205.5 230.589844 " clip-rule="nonzero"/></clipPath><clipPath id="326c3ea29a"><path d="M 105 233 L 142 233 L 142 256 L 105 256 Z M 105 233 " clip-rule="nonzero"/></clipPath><clipPath id="b1d4a01be8"><path d="M 144.105469 249.503906 L 108.390625 259.628906 L 102.683594 239.492188 L 138.394531 229.367188 Z M 144.105469 249.503906 " clip-rule="nonzero"/></clipPath><clipPath id="6e4faf45b5"><path d="M 126.242188 254.566406 C 136.0625 251.78125 142.746094 245.019531 141.171875 239.457031 C 139.59375 233.894531 130.355469 231.644531 120.53125 234.429688 C 110.710938 237.214844 104.027344 243.980469 105.605469 249.542969 C 107.179688 255.101562 116.421875 257.351562 126.242188 254.566406 Z M 126.242188 254.566406 " clip-rule="nonzero"/></clipPath><clipPath id="4e0d89440c"><path d="M 79 231 L 117 231 L 117 255 L 79 255 Z M 79 231 " clip-rule="nonzero"/></clipPath><clipPath id="8ad2ebc65a"><path d="M 76.292969 239.195312 L 83.632812 222.8125 L 116.851562 237.695312 L 109.507812 254.082031 Z M 76.292969 239.195312 " clip-rule="nonzero"/></clipPath><clipPath id="501e646b23"><path d="M 79.960938 231.003906 L 116.804688 237.675781 L 109.464844 254.0625 Z M 79.960938 231.003906 " clip-rule="nonzero"/></clipPath><clipPath id="1caa9ef8ff"><path d="M 86.988281 83.078125 L 178 83.078125 L 178 119.324219 L 86.988281 119.324219 Z M 86.988281 83.078125 " clip-rule="nonzero"/></clipPath><clipPath id="cb317732db"><path d="M 138.648438 83.078125 C 139.648438 83.078125 140.652344 83.078125 141.648438 83.078125 C 149.585938 83.683594 154.550781 85.6875 156.8125 88.972656 C 170.050781 88.535156 179.457031 94.746094 173.808594 100.839844 C 175.761719 102.121094 177.386719 103.554688 177.976562 105.476562 C 177.976562 106.027344 177.976562 106.578125 177.976562 107.128906 C 176.222656 112.023438 168.6875 115.332031 156.3125 114.441406 C 153.128906 116.953125 147.464844 119.597656 138.648438 119.15625 C 134.09375 118.992188 130.925781 118.035156 128.148438 116.875 C 125.226562 117.839844 122.058594 118.597656 117.484375 118.605469 C 106.902344 118.621094 99.824219 114.902344 99.652344 109.800781 C 92.851562 108.609375 88.242188 106.382812 86.988281 102.574219 C 86.988281 102.023438 86.988281 101.46875 86.988281 100.921875 C 88.371094 97.144531 92.730469 94.773438 99.984375 93.769531 C 99.546875 87.398438 114.058594 83.417969 125.980469 86.222656 C 128.820312 84.835938 132.835938 83.324219 138.648438 83.078125 Z M 138.648438 83.078125 " clip-rule="nonzero"/></clipPath><clipPath id="928ab95573"><path d="M 48 89 L 134 89 L 134 141 L 48 141 Z M 48 89 " clip-rule="nonzero"/></clipPath><clipPath id="67a7f33c80"><path d="M 41.222656 117.648438 L 123.738281 79.027344 L 139.101562 111.855469 L 56.585938 150.476562 Z M 41.222656 117.648438 " clip-rule="nonzero"/></clipPath><clipPath id="72de6ffdc1"><path d="M 88.011719 95.75 C 88.917969 95.324219 89.824219 94.898438 90.726562 94.476562 C 98.175781 91.65625 103.519531 91.371094 106.960938 93.390625 C 118.765625 87.378906 129.917969 89.019531 127.386719 96.933594 C 129.695312 97.265625 131.777344 97.875 133.125 99.367188 C 133.359375 99.867188 133.59375 100.363281 133.824219 100.863281 C 134.3125 106.039062 128.890625 112.226562 117.304688 116.664062 C 115.488281 120.292969 111.476562 125.085938 103.304688 128.425781 C 99.109375 130.207031 95.832031 130.683594 92.828125 130.808594 C 90.589844 132.921875 88.042969 134.949219 83.902344 136.898438 C 74.324219 141.394531 66.339844 141.027344 64.019531 136.484375 C 57.355469 138.285156 52.238281 138.222656 49.484375 135.300781 C 49.25 134.804688 49.019531 134.304688 48.785156 133.808594 C 48.4375 129.800781 51.378906 125.804688 57.523438 121.820312 C 54.429688 116.234375 65.886719 106.480469 77.871094 103.96875 C 79.855469 101.507812 82.851562 98.433594 88.011719 95.75 Z M 88.011719 95.75 " clip-rule="nonzero"/></clipPath><clipPath id="0e1e206fee"><path d="M 52 104 L 88 104 L 88 155 L 52 155 Z M 52 104 " clip-rule="nonzero"/></clipPath><clipPath id="48a1aba79c"><path d="M 43.988281 148.511719 L 72.890625 98.835938 L 92.652344 110.332031 L 63.75 160.007812 Z M 43.988281 148.511719 " clip-rule="nonzero"/></clipPath><clipPath id="4f5510fe2c"><path d="M 60.375 120.34375 C 60.691406 119.796875 61.011719 119.25 61.328125 118.707031 C 64.175781 114.570312 66.84375 112.5 69.351562 112.308594 C 73.3125 104.953125 79.683594 101.792969 81.214844 106.804688 C 82.53125 106.148438 83.828125 105.714844 85.066406 106.003906 C 85.363281 106.179688 85.664062 106.355469 85.964844 106.527344 C 88.078125 109.035156 87.492188 114.195312 83.078125 120.660156 C 83.441406 123.191406 83.082031 127.121094 80.046875 131.785156 C 78.511719 134.21875 76.984375 135.644531 75.472656 136.789062 C 75.070312 138.6875 74.480469 140.65625 73.035156 143.152344 C 69.683594 148.925781 65.410156 151.605469 62.578125 150.082031 C 59.769531 153.414062 57.09375 155.21875 54.617188 154.695312 C 54.316406 154.519531 54.015625 154.34375 53.714844 154.171875 C 52.097656 152.21875 52.1875 149.089844 53.9375 144.816406 C 50.328125 143.03125 52.761719 133.855469 58.074219 128.246094 C 58.214844 126.257812 58.664062 123.589844 60.375 120.34375 Z M 60.375 120.34375 " clip-rule="nonzero"/></clipPath><clipPath id="56b93df46a"><path d="M 170 90 L 218 90 L 218 164 L 170 164 Z M 170 90 " clip-rule="nonzero"/></clipPath><clipPath id="0dde1ea6c6"><path d="M 189.273438 83.082031 L 226.820312 154.039062 L 198.59375 168.976562 L 161.042969 98.019531 Z M 189.273438 83.082031 " clip-rule="nonzero"/></clipPath><clipPath id="1710047a4d"><path d="M 210.5625 123.316406 C 210.976562 124.09375 211.390625 124.875 211.800781 125.652344 C 214.601562 132.085938 215.085938 136.777344 213.457031 139.890625 C 219.257812 150.023438 218.296875 159.90625 211.222656 158.023438 C 211.027344 160.070312 210.582031 161.925781 209.328125 163.175781 C 208.898438 163.402344 208.46875 163.628906 208.042969 163.859375 C 203.507812 164.511719 197.824219 160.003906 193.417969 150 C 190.152344 148.558594 185.757812 145.234375 182.46875 138.1875 C 180.71875 134.570312 180.15625 131.707031 179.914062 129.070312 C 177.960938 127.191406 176.066406 125.035156 174.171875 121.476562 C 169.800781 113.242188 169.777344 106.195312 173.679688 103.960938 C 171.804688 98.171875 171.640625 93.664062 174.089844 91.117188 C 174.519531 90.890625 174.949219 90.664062 175.375 90.4375 C 178.886719 89.957031 182.53125 92.375 186.304688 97.609375 C 191.085938 94.644531 200.164062 104.304688 202.894531 114.746094 C 205.144531 116.386719 207.976562 118.890625 210.5625 123.316406 Z M 210.5625 123.316406 " clip-rule="nonzero"/></clipPath><clipPath id="de6aa2da94"><path d="M 206 181 L 222 181 L 222 239 L 206 239 Z M 206 181 " clip-rule="nonzero"/></clipPath><clipPath id="91384af076"><path d="M 220.320312 181.296875 L 222.910156 237.796875 L 207.832031 238.488281 L 205.238281 181.988281 Z M 220.320312 181.296875 " clip-rule="nonzero"/></clipPath><clipPath id="6ba85094a7"><path d="M 221.789062 213.347656 C 221.816406 213.964844 221.847656 214.589844 221.875 215.207031 C 221.851562 220.144531 221.15625 223.261719 219.855469 224.726562 C 220.414062 232.933594 218.113281 239.273438 215.402344 235.5 C 214.921875 236.734375 214.375 237.773438 213.589844 238.175781 C 213.363281 238.183594 213.132812 238.195312 212.902344 238.207031 C 210.816406 237.210938 209.226562 232.597656 209.246094 224.90625 C 208.109375 222.980469 206.65625 219.523438 206.78125 214.039062 C 206.71875 211.207031 207.027344 209.222656 207.429688 207.476562 C 206.945312 205.683594 206.539062 203.734375 206.40625 200.894531 C 206.101562 194.332031 207.445312 189.867188 209.5625 189.664062 C 209.863281 185.421875 210.660156 182.519531 212.210938 181.667969 C 212.4375 181.65625 212.667969 181.648438 212.894531 181.636719 C 214.507812 182.421875 215.617188 185.082031 216.242188 189.5625 C 218.878906 189.171875 220.949219 198.097656 220.121094 205.546875 C 220.777344 207.28125 221.523438 209.746094 221.789062 213.347656 Z M 221.789062 213.347656 " clip-rule="nonzero"/></clipPath><clipPath id="9402e6a447"><path d="M 185 225 L 223 225 L 223 270 L 185 270 Z M 185 225 " clip-rule="nonzero"/></clipPath><clipPath id="80acccfce4"><path d="M 228.542969 230.199219 L 193.300781 274.4375 L 181.492188 265.03125 L 216.738281 220.792969 Z M 228.542969 230.199219 " clip-rule="nonzero"/></clipPath><clipPath id="17752eba61"><path d="M 208.550781 255.292969 C 208.164062 255.777344 207.777344 256.265625 207.390625 256.75 C 204.121094 260.453125 201.546875 262.339844 199.601562 262.585938 C 194.621094 269.132812 188.71875 272.390625 189.15625 267.765625 C 187.984375 268.378906 186.890625 268.800781 186.035156 268.585938 C 185.855469 268.441406 185.675781 268.300781 185.496094 268.15625 C 184.582031 266.035156 186.421875 261.515625 191.5 255.738281 C 191.914062 253.539062 193.09375 249.980469 196.796875 245.933594 C 198.617188 243.761719 200.152344 242.472656 201.605469 241.425781 C 202.421875 239.753906 203.402344 238.019531 205.167969 235.796875 C 209.257812 230.652344 213.210938 228.175781 214.9375 229.417969 C 217.957031 226.421875 220.46875 224.761719 222.195312 225.140625 C 222.371094 225.285156 222.554688 225.425781 222.730469 225.570312 C 223.425781 227.222656 222.511719 229.953125 220.03125 233.738281 C 222.273438 235.179688 217.957031 243.261719 212.429688 248.324219 C 211.78125 250.0625 210.71875 252.40625 208.550781 255.292969 Z M 208.550781 255.292969 " clip-rule="nonzero"/></clipPath><clipPath id="71098d1ce6"><path d="M 140 259 L 195 259 L 195 285 L 140 285 Z M 140 259 " clip-rule="nonzero"/></clipPath><clipPath id="157fef595a"><path d="M 196.933594 267.976562 L 144.566406 289.351562 L 138.863281 275.378906 L 191.226562 254 Z M 196.933594 267.976562 " clip-rule="nonzero"/></clipPath><clipPath id="18e424cefe"><path d="M 167.226562 280.101562 C 166.652344 280.335938 166.074219 280.570312 165.503906 280.804688 C 160.839844 282.4375 157.671875 282.828125 155.855469 282.09375 C 148.3125 285.367188 141.570312 285.328125 144.210938 281.507812 C 142.890625 281.46875 141.726562 281.300781 141.085938 280.695312 C 141 280.484375 140.914062 280.273438 140.828125 280.058594 C 141.066406 277.761719 144.878906 274.71875 152.132812 272.15625 C 153.566406 270.441406 156.335938 267.914062 161.546875 266.191406 C 164.191406 265.1875 166.167969 264.808594 167.945312 264.605469 C 169.472656 263.546875 171.175781 262.511719 173.804688 261.4375 C 179.886719 258.945312 184.542969 258.71875 185.445312 260.644531 C 189.542969 259.507812 192.542969 259.285156 193.863281 260.460938 C 193.949219 260.671875 194.039062 260.886719 194.125 261.097656 C 193.921875 262.878906 191.789062 264.816406 187.777344 266.90625 C 189.03125 269.257812 181.3125 274.199219 174.015625 275.914062 C 172.601562 277.117188 170.53125 278.644531 167.226562 280.101562 Z M 167.226562 280.101562 " clip-rule="nonzero"/></clipPath><clipPath id="a811565ab1"><path d="M 94 259 L 148 259 L 148 285 L 94 285 Z M 94 259 " clip-rule="nonzero"/></clipPath><clipPath id="9273efe18d"><path d="M 143.976562 290.710938 L 91.09375 270.785156 L 96.972656 255.183594 L 149.855469 275.109375 Z M 143.976562 290.710938 " clip-rule="nonzero"/></clipPath><clipPath id="419fd8331d"><path d="M 113.949219 279.398438 C 113.371094 279.179688 112.789062 278.960938 112.207031 278.742188 C 107.691406 276.742188 105.132812 274.792969 104.351562 272.882812 C 96.585938 270.171875 91.765625 265.304688 96.398438 264.050781 C 95.472656 263.074219 94.757812 262.101562 94.730469 261.144531 C 94.816406 260.90625 94.90625 260.667969 94.996094 260.433594 C 96.808594 258.710938 101.726562 258.9375 108.773438 262.027344 C 111.03125 261.644531 114.8125 261.585938 119.800781 263.867188 C 122.425781 264.9375 124.109375 266.042969 125.535156 267.148438 C 127.390625 267.375 129.355469 267.742188 132.011719 268.738281 C 138.167969 271.050781 141.675781 274.203125 140.949219 276.433594 C 144.710938 278.4375 147.027344 280.40625 147.136719 282.320312 C 147.046875 282.558594 146.957031 282.796875 146.871094 283.03125 C 145.453125 284.355469 142.535156 284.421875 138.15625 283.265625 C 137.375 286.101562 128.296875 284.636719 121.824219 280.820312 C 119.949219 280.792969 117.371094 280.566406 113.949219 279.398438 Z M 113.949219 279.398438 " clip-rule="nonzero"/></clipPath><clipPath id="8182769365"><path d="M 65 224 L 99 224 L 99 274 L 65 274 Z M 65 224 " clip-rule="nonzero"/></clipPath><clipPath id="7b52df657e"><path d="M 90.855469 277.90625 L 60.351562 230.335938 L 74.390625 221.335938 L 104.894531 268.90625 Z M 90.855469 277.90625 " clip-rule="nonzero"/></clipPath><clipPath id="d72f7a3473"><path d="M 73.539062 250.898438 C 73.203125 250.375 72.867188 249.851562 72.53125 249.332031 C 70.105469 245.027344 69.21875 241.9375 69.730469 239.9375 C 65.125 233.125 64.167969 226.339844 68.628906 228.105469 C 68.472656 226.765625 68.480469 225.558594 69.027344 224.773438 C 69.242188 224.636719 69.453125 224.5 69.667969 224.363281 C 72.148438 224.066406 75.957031 227.183594 79.761719 233.875 C 81.800781 234.914062 84.871094 237.125 87.507812 241.9375 C 88.972656 244.359375 89.664062 246.253906 90.144531 247.996094 C 91.5 249.285156 92.855469 250.75 94.390625 253.140625 C 97.945312 258.667969 98.878906 263.292969 96.960938 264.648438 C 98.777344 268.503906 99.460938 271.464844 98.40625 273.066406 C 98.191406 273.203125 97.980469 273.339844 97.765625 273.476562 C 95.839844 273.691406 93.460938 272 90.640625 268.457031 C 88.320312 270.265625 81.914062 263.667969 79.003906 256.738281 C 77.511719 255.601562 75.582031 253.875 73.539062 250.898438 Z M 73.539062 250.898438 " clip-rule="nonzero"/></clipPath><clipPath id="64f98fd873"><path d="M 29.507812 296.34375 L 80.089844 296.34375 L 80.089844 346.925781 L 29.507812 346.925781 Z M 29.507812 296.34375 " clip-rule="nonzero"/></clipPath><clipPath id="08d29c76a0"><path d="M 54.800781 296.34375 L 58.359375 299.152344 L 62.613281 297.582031 L 65.132812 301.351562 L 69.664062 301.171875 L 70.894531 305.539062 L 75.261719 306.769531 L 75.082031 311.300781 L 78.855469 313.820312 L 77.28125 318.074219 L 80.089844 321.636719 L 77.28125 325.195312 L 78.855469 329.449219 L 75.082031 331.96875 L 75.261719 336.5 L 70.894531 337.730469 L 69.664062 342.097656 L 65.132812 341.917969 L 62.613281 345.691406 L 58.359375 344.117188 L 54.800781 346.925781 L 51.238281 344.117188 L 46.984375 345.691406 L 44.464844 341.917969 L 39.933594 342.097656 L 38.703125 337.730469 L 34.335938 336.5 L 34.515625 331.96875 L 30.746094 329.449219 L 32.316406 325.195312 L 29.507812 321.636719 L 32.316406 318.074219 L 30.746094 313.820312 L 34.515625 311.300781 L 34.335938 306.769531 L 38.703125 305.539062 L 39.933594 301.171875 L 44.464844 301.351562 L 46.984375 297.582031 L 51.238281 299.152344 Z M 54.800781 296.34375 " clip-rule="nonzero"/></clipPath><clipPath id="5bc0defaf1"><path d="M 37.773438 304.605469 L 71.828125 304.605469 L 71.828125 338.664062 L 37.773438 338.664062 Z M 37.773438 304.605469 " clip-rule="nonzero"/></clipPath><clipPath id="6abaf49713"><path d="M 54.800781 304.605469 L 57.195312 306.5 L 60.0625 305.441406 L 61.757812 307.980469 L 64.808594 307.859375 L 65.636719 310.796875 L 68.574219 311.625 L 68.453125 314.675781 L 70.992188 316.375 L 69.933594 319.238281 L 71.828125 321.636719 L 69.933594 324.03125 L 70.992188 326.898438 L 68.453125 328.59375 L 68.574219 331.644531 L 65.636719 332.472656 L 64.808594 335.410156 L 61.757812 335.289062 L 60.0625 337.828125 L 57.195312 336.769531 L 54.800781 338.664062 L 52.402344 336.769531 L 49.539062 337.828125 L 47.84375 335.289062 L 44.789062 335.410156 L 43.964844 332.472656 L 41.023438 331.644531 L 41.144531 328.59375 L 38.605469 326.898438 L 39.664062 324.03125 L 37.773438 321.636719 L 39.664062 319.238281 L 38.605469 316.375 L 41.144531 314.675781 L 41.023438 311.625 L 43.964844 310.796875 L 44.789062 307.859375 L 47.84375 307.980469 L 49.539062 305.441406 L 52.402344 306.5 Z M 54.800781 304.605469 " clip-rule="nonzero"/></clipPath><clipPath id="6159b28087"><path d="M 42.976562 308.8125 L 66.621094 308.8125 L 66.621094 332.457031 L 42.976562 332.457031 Z M 42.976562 308.8125 " clip-rule="nonzero"/></clipPath><clipPath id="7b5c8f3852"><path d="M 54.800781 308.8125 L 56.464844 310.125 L 58.453125 309.390625 L 59.628906 311.152344 L 61.75 311.070312 L 62.324219 313.109375 L 64.363281 313.6875 L 64.28125 315.804688 L 66.042969 316.980469 L 65.308594 318.972656 L 66.621094 320.636719 L 65.308594 322.300781 L 66.042969 324.289062 L 64.28125 325.464844 L 64.363281 327.585938 L 62.324219 328.160156 L 61.75 330.199219 L 59.628906 330.117188 L 58.453125 331.878906 L 56.464844 331.144531 L 54.800781 332.457031 L 53.132812 331.144531 L 51.144531 331.878906 L 49.96875 330.117188 L 47.851562 330.199219 L 47.273438 328.160156 L 45.234375 327.585938 L 45.316406 325.464844 L 43.554688 324.289062 L 44.289062 322.300781 L 42.976562 320.636719 L 44.289062 318.972656 L 43.554688 316.980469 L 45.316406 315.804688 L 45.234375 313.6875 L 47.273438 313.109375 L 47.851562 311.070312 L 49.96875 311.152344 L 51.144531 309.390625 L 53.132812 310.125 Z M 54.800781 308.8125 " clip-rule="nonzero"/></clipPath></defs><g clip-path="url(#0a9e4a35e5)"><g clip-path="url(#ab20c864fb)"><path fill="#000000" d="M 119.136719 179.664062 L 91.855469 179.664062 L 91.855469 162.753906 L 119.136719 162.753906 Z M 119.136719 179.664062 " fill-opacity="1" fill-rule="nonzero"/></g></g><g fill="#000000" fill-opacity="1"><g transform="translate(91.695832, 151.009484)"><g><path d="M 29.046875 16.140625 C 29.046875 17.359375 28.925781 18.507812 28.6875 19.59375 C 28.457031 20.675781 28.144531 21.613281 27.75 22.40625 C 27.425781 23.007812 27.113281 23.4375 26.8125 23.6875 C 26.507812 23.9375 26.175781 24.0625 25.8125 24.0625 C 25.195312 24.0625 24.5625 23.691406 23.90625 22.953125 C 24.488281 22.210938 24.992188 21.242188 25.421875 20.046875 C 25.859375 18.847656 26.078125 17.546875 26.078125 16.140625 C 26.078125 14.035156 25.585938 12.175781 24.609375 10.5625 C 23.640625 8.957031 22.265625 7.710938 20.484375 6.828125 C 18.703125 5.941406 16.632812 5.5 14.28125 5.5 C 11.96875 5.5 9.910156 5.898438 8.109375 6.703125 C 6.316406 7.515625 4.921875 8.679688 3.921875 10.203125 C 2.921875 11.734375 2.421875 13.582031 2.421875 15.75 C 2.421875 17.382812 2.703125 18.898438 3.265625 20.296875 C 3.828125 21.703125 4.492188 22.835938 5.265625 23.703125 C 4.546875 24.492188 3.875 24.890625 3.25 24.890625 C 2.925781 24.890625 2.617188 24.785156 2.328125 24.578125 C 2.046875 24.367188 1.71875 23.957031 1.34375 23.34375 C 0.875 22.550781 0.441406 21.476562 0.046875 20.125 C -0.347656 18.769531 -0.546875 17.3125 -0.546875 15.75 C -0.546875 12.664062 0.078125 10.09375 1.328125 8.03125 C 2.578125 5.976562 4.300781 4.457031 6.5 3.46875 C 8.707031 2.476562 11.265625 1.984375 14.171875 1.984375 C 17.046875 1.984375 19.609375 2.554688 21.859375 3.703125 C 24.117188 4.847656 25.878906 6.488281 27.140625 8.625 C 28.410156 10.757812 29.046875 13.265625 29.046875 16.140625 Z M 29.046875 16.140625 "/></g></g></g><g clip-path="url(#c7e68085fc)"><g clip-path="url(#4fccff6320)"><path fill="#000000" d="M 177.96875 179.664062 L 150.683594 179.664062 L 150.683594 162.753906 L 177.96875 162.753906 Z M 177.96875 179.664062 " fill-opacity="1" fill-rule="nonzero"/></g></g><path stroke-linecap="butt" transform="matrix(0.659116, 0, 0, 0.659116, 87.247843, 138.034621)" fill="none" stroke-linejoin="miter" d="M -0.00265351 1.99804 L 44.84313 1.99804 " stroke="#000000" stroke-width="4" stroke-opacity="1" stroke-miterlimit="4"/><path stroke-linecap="butt" transform="matrix(0.388363, 0.532549, -0.532549, 0.388363, 117.58472, 138.579775)" fill="none" stroke-linejoin="miter" d="M -0.00134733 1.999188 L 46.93363 2.001546 " stroke="#000000" stroke-width="4" stroke-opacity="1" stroke-miterlimit="4"/><path stroke-linecap="butt" transform="matrix(0, 0.659116, -0.659116, 0, 136.066151, 164.349947)" fill="none" stroke-linejoin="miter" d="M 0.00245092 2.002768 L 73.42579 2.002768 " stroke="#000000" stroke-width="4" stroke-opacity="1" stroke-miterlimit="4"/><path stroke-linecap="butt" transform="matrix(0.659116, 0, 0, 0.659116, 140.735851, 219.519815)" fill="none" stroke-linejoin="miter" d="M -0.00223869 2.002724 L 16.206724 2.002724 " stroke="#000000" stroke-width="4" stroke-opacity="1" stroke-miterlimit="4"/><path stroke-linecap="butt" transform="matrix(0.322171, 0.575013, -0.575013, 0.322171, 135.898272, 212.102936)" fill="none" stroke-linejoin="miter" d="M -0.000267086 1.996799 L 16.367913 2.003446 " stroke="#000000" stroke-width="4" stroke-opacity="1" stroke-miterlimit="4"/><path stroke-linecap="butt" transform="matrix(0.659116, 0, 0, 0.659116, 152.709115, 137.638302)" fill="none" stroke-linejoin="miter" d="M 0.0027656 2.000753 L 29.398178 2.000753 " stroke="#000000" stroke-width="4" stroke-opacity="1" stroke-miterlimit="4"/><path stroke-linecap="butt" transform="matrix(-0.531473, -0.389835, 0.389835, -0.531473, 185.380974, 150.346584)" fill="none" stroke-linejoin="miter" d="M -0.000765351 1.997707 L 26.498056 2.001214 " stroke="#000000" stroke-width="4" stroke-opacity="1" stroke-miterlimit="4"/><g clip-path="url(#5133a51482)"><g clip-path="url(#af2172e8f9)"><g clip-path="url(#0362873f33)"><path fill="#000000" d="M 145.636719 228.015625 L 181.566406 236.667969 L 176.664062 257.015625 L 140.734375 248.367188 Z M 145.636719 228.015625 " fill-opacity="1" fill-rule="nonzero"/></g></g></g><g clip-path="url(#fd625f1e0c)"><g clip-path="url(#3ef9d8e54d)"><g clip-path="url(#c09fd15cb4)"><path fill="#000000" d="M 202.429688 222.15625 L 208.570312 239.027344 L 174.429688 251.445312 L 168.289062 234.574219 Z M 202.429688 222.15625 " fill-opacity="1" fill-rule="nonzero"/></g></g></g><g fill="#000000" fill-opacity="1"><g transform="translate(153.598422, 261.992804)"><g><path d="M -22.125 -12.84375 C -22.113281 -13.769531 -22.007812 -14.644531 -21.8125 -15.46875 C -21.613281 -16.300781 -21.359375 -17.023438 -21.046875 -17.640625 C -20.796875 -18.109375 -20.550781 -18.4375 -20.3125 -18.625 C -20.070312 -18.8125 -19.804688 -18.898438 -19.515625 -18.890625 C -19.054688 -18.878906 -18.578125 -18.585938 -18.078125 -18.015625 C -18.535156 -17.441406 -18.941406 -16.695312 -19.296875 -15.78125 C -19.648438 -14.863281 -19.832031 -13.867188 -19.84375 -12.796875 C -19.875 -11.171875 -19.523438 -9.734375 -18.796875 -8.484375 C -18.078125 -7.234375 -17.035156 -6.253906 -15.671875 -5.546875 C -14.304688 -4.835938 -12.722656 -4.46875 -10.921875 -4.4375 C -9.128906 -4.40625 -7.535156 -4.6875 -6.140625 -5.28125 C -4.753906 -5.875 -3.664062 -6.75 -2.875 -7.90625 C -2.082031 -9.070312 -1.671875 -10.488281 -1.640625 -12.15625 C -1.617188 -13.414062 -1.816406 -14.585938 -2.234375 -15.671875 C -2.648438 -16.765625 -3.144531 -17.648438 -3.71875 -18.328125 C -3.164062 -18.929688 -2.644531 -19.226562 -2.15625 -19.21875 C -1.90625 -19.207031 -1.671875 -19.117188 -1.453125 -18.953125 C -1.234375 -18.785156 -0.984375 -18.460938 -0.703125 -17.984375 C -0.347656 -17.378906 -0.03125 -16.550781 0.25 -15.5 C 0.53125 -14.445312 0.660156 -13.320312 0.640625 -12.125 C 0.597656 -9.75 0.0820312 -7.773438 -0.90625 -6.203125 C -1.90625 -4.640625 -3.257812 -3.488281 -4.96875 -2.75 C -6.675781 -2.019531 -8.644531 -1.675781 -10.875 -1.71875 C -13.09375 -1.757812 -15.0625 -2.238281 -16.78125 -3.15625 C -18.5 -4.070312 -19.828125 -5.359375 -20.765625 -7.015625 C -21.710938 -8.679688 -22.164062 -10.625 -22.125 -12.84375 Z M -22.125 -12.84375 "/></g></g></g><g clip-path="url(#326c3ea29a)"><g clip-path="url(#b1d4a01be8)"><g clip-path="url(#6e4faf45b5)"><path fill="#000000" d="M 144.023438 249.527344 L 108.46875 259.605469 L 102.761719 239.46875 L 138.316406 229.386719 Z M 144.023438 249.527344 " fill-opacity="1" fill-rule="nonzero"/></g></g></g><g clip-path="url(#4e0d89440c)"><g clip-path="url(#8ad2ebc65a)"><g clip-path="url(#501e646b23)"><path fill="#000000" d="M 76.292969 239.195312 L 83.632812 222.8125 L 116.785156 237.667969 L 109.445312 254.050781 Z M 76.292969 239.195312 " fill-opacity="1" fill-rule="nonzero"/></g></g></g><g clip-path="url(#1caa9ef8ff)"><g clip-path="url(#cb317732db)"><path fill="#000000" d="M 86.988281 83.078125 L 177.953125 83.078125 L 177.953125 119.183594 L 86.988281 119.183594 Z M 86.988281 83.078125 " fill-opacity="1" fill-rule="nonzero"/></g></g><g fill="#000000" fill-opacity="1"><g transform="translate(150.525815, 151.009484)"><g><path d="M 29.046875 16.140625 C 29.046875 17.359375 28.925781 18.507812 28.6875 19.59375 C 28.457031 20.675781 28.144531 21.613281 27.75 22.40625 C 27.425781 23.007812 27.113281 23.4375 26.8125 23.6875 C 26.507812 23.9375 26.175781 24.0625 25.8125 24.0625 C 25.195312 24.0625 24.5625 23.691406 23.90625 22.953125 C 24.488281 22.210938 24.992188 21.242188 25.421875 20.046875 C 25.859375 18.847656 26.078125 17.546875 26.078125 16.140625 C 26.078125 14.035156 25.585938 12.175781 24.609375 10.5625 C 23.640625 8.957031 22.265625 7.710938 20.484375 6.828125 C 18.703125 5.941406 16.632812 5.5 14.28125 5.5 C 11.96875 5.5 9.910156 5.898438 8.109375 6.703125 C 6.316406 7.515625 4.921875 8.679688 3.921875 10.203125 C 2.921875 11.734375 2.421875 13.582031 2.421875 15.75 C 2.421875 17.382812 2.703125 18.898438 3.265625 20.296875 C 3.828125 21.703125 4.492188 22.835938 5.265625 23.703125 C 4.546875 24.492188 3.875 24.890625 3.25 24.890625 C 2.925781 24.890625 2.617188 24.785156 2.328125 24.578125 C 2.046875 24.367188 1.71875 23.957031 1.34375 23.34375 C 0.875 22.550781 0.441406 21.476562 0.046875 20.125 C -0.347656 18.769531 -0.546875 17.3125 -0.546875 15.75 C -0.546875 12.664062 0.078125 10.09375 1.328125 8.03125 C 2.578125 5.976562 4.300781 4.457031 6.5 3.46875 C 8.707031 2.476562 11.265625 1.984375 14.171875 1.984375 C 17.046875 1.984375 19.609375 2.554688 21.859375 3.703125 C 24.117188 4.847656 25.878906 6.488281 27.140625 8.625 C 28.410156 10.757812 29.046875 13.265625 29.046875 16.140625 Z M 29.046875 16.140625 "/></g></g></g><g clip-path="url(#928ab95573)"><g clip-path="url(#67a7f33c80)"><g clip-path="url(#72de6ffdc1)"><path fill="#000000" d="M 41.222656 117.648438 L 123.613281 79.089844 L 138.914062 111.789062 L 56.527344 150.347656 Z M 41.222656 117.648438 " fill-opacity="1" fill-rule="nonzero"/></g></g></g><g clip-path="url(#0e1e206fee)"><g clip-path="url(#48a1aba79c)"><g clip-path="url(#4f5510fe2c)"><path fill="#000000" d="M 43.988281 148.511719 L 72.84375 98.910156 L 92.53125 110.363281 L 63.671875 159.964844 Z M 43.988281 148.511719 " fill-opacity="1" fill-rule="nonzero"/></g></g></g><g clip-path="url(#56b93df46a)"><g clip-path="url(#0dde1ea6c6)"><g clip-path="url(#1710047a4d)"><path fill="#000000" d="M 189.273438 83.082031 L 226.765625 153.929688 L 198.644531 168.808594 L 161.152344 97.960938 Z M 189.273438 83.082031 " fill-opacity="1" fill-rule="nonzero"/></g></g></g><g clip-path="url(#de6aa2da94)"><g clip-path="url(#91384af076)"><g clip-path="url(#6ba85094a7)"><path fill="#000000" d="M 220.320312 181.296875 L 222.910156 237.738281 L 207.890625 238.429688 L 205.296875 181.984375 Z M 220.320312 181.296875 " fill-opacity="1" fill-rule="nonzero"/></g></g></g><g clip-path="url(#9402e6a447)"><g clip-path="url(#80acccfce4)"><g clip-path="url(#17752eba61)"><path fill="#000000" d="M 228.542969 230.199219 L 193.335938 274.390625 L 181.574219 265.023438 L 216.78125 220.832031 Z M 228.542969 230.199219 " fill-opacity="1" fill-rule="nonzero"/></g></g></g><g clip-path="url(#71098d1ce6)"><g clip-path="url(#157fef595a)"><g clip-path="url(#18e424cefe)"><path fill="#000000" d="M 196.933594 267.976562 L 144.621094 289.332031 L 138.9375 275.410156 L 191.25 254.054688 Z M 196.933594 267.976562 " fill-opacity="1" fill-rule="nonzero"/></g></g></g><g clip-path="url(#a811565ab1)"><g clip-path="url(#9273efe18d)"><g clip-path="url(#419fd8331d)"><path fill="#000000" d="M 143.976562 290.710938 L 91.09375 270.785156 L 96.949219 255.242188 L 149.832031 275.167969 Z M 143.976562 290.710938 " fill-opacity="1" fill-rule="nonzero"/></g></g></g><g clip-path="url(#8182769365)"><g clip-path="url(#7b52df657e)"><g clip-path="url(#d72f7a3473)"><path fill="#000000" d="M 90.855469 277.90625 L 60.351562 230.335938 L 74.335938 221.371094 L 104.839844 268.941406 Z M 90.855469 277.90625 " fill-opacity="1" fill-rule="nonzero"/></g></g></g><g clip-path="url(#64f98fd873)"><g clip-path="url(#08d29c76a0)"><path fill="#00bf63" d="M 29.507812 296.34375 L 80.089844 296.34375 L 80.089844 346.925781 L 29.507812 346.925781 Z M 29.507812 296.34375 " fill-opacity="1" fill-rule="nonzero"/></g></g><g clip-path="url(#5bc0defaf1)"><g clip-path="url(#6abaf49713)"><path fill="#ffffff" d="M 37.773438 304.605469 L 71.828125 304.605469 L 71.828125 338.664062 L 37.773438 338.664062 Z M 37.773438 304.605469 " fill-opacity="1" fill-rule="nonzero"/></g></g><g clip-path="url(#6159b28087)"><g clip-path="url(#7b5c8f3852)"><path fill="#ff3131" d="M 42.976562 308.8125 L 66.621094 308.8125 L 66.621094 332.457031 L 42.976562 332.457031 Z M 42.976562 308.8125 " fill-opacity="1" fill-rule="nonzero"/></g></g></svg>