<svg xmlns="http://www.w3.org/2000/svg" width="361" zoomAndPan="magnify" viewBox="0 0 270.75 370.499989" height="494" preserveAspectRatio="xMidYMid meet" version="1.0"><defs><clipPath id="6c64194f22"><path d="M 45.046875 99.273438 L 224.71875 99.273438 L 224.71875 270.523438 L 45.046875 270.523438 Z M 45.046875 99.273438 " clip-rule="nonzero"/></clipPath><clipPath id="0c270f9ca7"><path d="M 134.882812 99.273438 L 156.089844 164.683594 L 224.71875 164.683594 L 169.199219 205.109375 L 190.40625 270.523438 L 134.882812 230.097656 L 79.363281 270.523438 L 100.570312 205.109375 L 45.046875 164.683594 L 113.675781 164.683594 Z M 134.882812 99.273438 " clip-rule="nonzero"/></clipPath></defs><g clip-path="url(#6c64194f22)"><g clip-path="url(#0c270f9ca7)"><path stroke-linecap="butt" transform="matrix(0.748989, 0, 0, 0.748989, 45.047785, 99.273188)" fill="none" stroke-linejoin="miter" d="M 119.9417 0.000332858 L 148.255905 87.331583 L 239.884614 87.331583 L 165.758662 141.305373 L 194.072867 228.641839 L 119.9417 174.668049 L 45.815748 228.641839 L 74.129953 141.305373 L -0.00121455 87.331583 L 91.627495 87.331583 Z M 119.9417 0.000332858 " stroke="#ffde59" stroke-width="20" stroke-opacity="1" stroke-miterlimit="4"/></g></g></svg>