<svg xmlns="http://www.w3.org/2000/svg" width="361" zoomAndPan="magnify" viewBox="0 0 270.75 370.499989" height="494" preserveAspectRatio="xMidYMid meet" version="1.0"><defs><clipPath id="042f92f1fc"><path d="M 49.179688 205.394531 L 94.796875 205.394531 L 94.796875 251.015625 L 49.179688 251.015625 Z M 49.179688 205.394531 " clip-rule="nonzero"/></clipPath><clipPath id="1630f729e6"><path d="M 71.988281 205.394531 C 59.390625 205.394531 49.179688 215.609375 49.179688 228.207031 C 49.179688 240.804688 59.390625 251.015625 71.988281 251.015625 C 84.585938 251.015625 94.796875 240.804688 94.796875 228.207031 C 94.796875 215.609375 84.585938 205.394531 71.988281 205.394531 Z M 71.988281 205.394531 " clip-rule="nonzero"/></clipPath><clipPath id="1f33fdaea6"><path d="M 174.816406 205.394531 L 220.4375 205.394531 L 220.4375 251.015625 L 174.816406 251.015625 Z M 174.816406 205.394531 " clip-rule="nonzero"/></clipPath><clipPath id="1f2b8cb067"><path d="M 197.628906 205.394531 C 185.03125 205.394531 174.816406 215.609375 174.816406 228.207031 C 174.816406 240.804688 185.03125 251.015625 197.628906 251.015625 C 210.226562 251.015625 220.4375 240.804688 220.4375 228.207031 C 220.4375 215.609375 210.226562 205.394531 197.628906 205.394531 Z M 197.628906 205.394531 " clip-rule="nonzero"/></clipPath><clipPath id="c5087fc5bc"><path d="M 71.988281 164.878906 L 197.628906 164.878906 L 197.628906 234.226562 L 71.988281 234.226562 Z M 71.988281 164.878906 " clip-rule="nonzero"/></clipPath><clipPath id="4539e6c89f"><path d="M 31.046875 164.878906 L 122.335938 164.878906 L 122.335938 234.226562 L 31.046875 234.226562 Z M 31.046875 164.878906 " clip-rule="nonzero"/></clipPath><clipPath id="2e9aed71a6"><path d="M 61.492188 167.511719 C 66.15625 165.921875 71.492188 164.878906 76.710938 164.878906 C 81.933594 164.878906 86.960938 165.773438 91.589844 167.363281 C 91.6875 167.414062 91.789062 167.414062 91.886719 167.464844 C 109.273438 173.828125 122.082031 190.640625 122.328125 209.328125 L 122.328125 234.226562 L 31.046875 234.226562 L 31.046875 209.347656 C 31.292969 190.539062 43.902344 173.730469 61.492188 167.511719 Z M 61.492188 167.511719 " clip-rule="nonzero"/></clipPath><clipPath id="15f84c709f"><path d="M 147.4375 164.878906 L 238.730469 164.878906 L 238.730469 234.226562 L 147.4375 234.226562 Z M 147.4375 164.878906 " clip-rule="nonzero"/></clipPath><clipPath id="85a621dd4d"><path d="M 177.882812 167.511719 C 182.546875 165.921875 187.882812 164.878906 193.105469 164.878906 C 198.328125 164.878906 203.351562 165.773438 207.984375 167.363281 C 208.082031 167.414062 208.179688 167.414062 208.277344 167.464844 C 225.667969 173.828125 238.476562 190.640625 238.722656 209.328125 L 238.722656 234.226562 L 147.4375 234.226562 L 147.4375 209.347656 C 147.6875 190.539062 160.296875 173.730469 177.882812 167.511719 Z M 177.882812 167.511719 " clip-rule="nonzero"/></clipPath></defs><path stroke-linecap="round" transform="matrix(0.748989, 0, 0, 0.748989, 111.40188, 119.658502)" fill="none" stroke-linejoin="miter" d="M 4.000802 4.002392 L 114.263995 4.002392 " stroke="#ff3131" stroke-width="8" stroke-opacity="1" stroke-miterlimit="4"/><path stroke-linecap="round" transform="matrix(0, 0.748989, -0.748989, 0, 154.780831, 122.657136)" fill="none" stroke-linejoin="miter" d="M 3.999001 3.999623 L 57.931064 3.999623 " stroke="#ff3131" stroke-width="8" stroke-opacity="1" stroke-miterlimit="4"/><path stroke-linecap="round" transform="matrix(0.142679, 0.735274, -0.735274, 0.142679, 200.456515, 119.719109)" fill="none" stroke-linejoin="miter" d="M 3.999356 4.000148 L 70.779142 4.001177 " stroke="#ff3131" stroke-width="8" stroke-opacity="1" stroke-miterlimit="4"/><path stroke-linecap="round" transform="matrix(-0.456313, 0.593939, -0.593939, -0.456313, 117.18529, 122.44142)" fill="none" stroke-linejoin="miter" d="M 4.000205 3.999688 L 77.18603 3.997831 " stroke="#ff3131" stroke-width="8" stroke-opacity="1" stroke-miterlimit="4"/><g clip-path="url(#042f92f1fc)"><g clip-path="url(#1630f729e6)"><path fill="#ff3131" d="M 49.179688 205.394531 L 94.796875 205.394531 L 94.796875 251.015625 L 49.179688 251.015625 Z M 49.179688 205.394531 " fill-opacity="1" fill-rule="nonzero"/></g></g><g clip-path="url(#1f33fdaea6)"><g clip-path="url(#1f2b8cb067)"><path fill="#ff3131" d="M 174.816406 205.394531 L 220.4375 205.394531 L 220.4375 251.015625 L 174.816406 251.015625 Z M 174.816406 205.394531 " fill-opacity="1" fill-rule="nonzero"/></g></g><g clip-path="url(#c5087fc5bc)"><path fill="#ff3131" d="M 71.988281 164.878906 L 197.679688 164.878906 L 197.679688 234.226562 L 71.988281 234.226562 Z M 71.988281 164.878906 " fill-opacity="1" fill-rule="nonzero"/></g><g clip-path="url(#4539e6c89f)"><g clip-path="url(#2e9aed71a6)"><path fill="#ff3131" d="M 31.046875 164.878906 L 122.335938 164.878906 L 122.335938 234.226562 L 31.046875 234.226562 Z M 31.046875 164.878906 " fill-opacity="1" fill-rule="nonzero"/></g></g><g clip-path="url(#15f84c709f)"><g clip-path="url(#85a621dd4d)"><path fill="#ff3131" d="M 147.4375 164.878906 L 238.730469 164.878906 L 238.730469 234.226562 L 147.4375 234.226562 Z M 147.4375 164.878906 " fill-opacity="1" fill-rule="nonzero"/></g></g></svg>