<svg xmlns="http://www.w3.org/2000/svg" width="361" zoomAndPan="magnify" viewBox="0 0 270.75 370.499989" height="494" preserveAspectRatio="xMidYMid meet" version="1.0"><defs><clipPath id="f68590e106"><path d="M 113.546875 116.96875 L 156.222656 116.96875 L 156.222656 252.832031 L 113.546875 252.832031 Z M 113.546875 116.96875 " clip-rule="nonzero"/></clipPath><clipPath id="489869d493"><path d="M 103.421875 96.558594 L 166.335938 96.558594 L 166.335938 111.09375 L 103.421875 111.09375 Z M 103.421875 96.558594 " clip-rule="nonzero"/></clipPath><clipPath id="d1009563fd"><path d="M 112.964844 252.082031 L 156.285156 252.082031 L 156.285156 289.933594 L 112.964844 289.933594 Z M 112.964844 252.082031 " clip-rule="nonzero"/></clipPath><clipPath id="fb0e5a6a00"><path d="M 134.59375 289.933594 L 156.222656 252.082031 L 112.964844 252.082031 Z M 134.59375 289.933594 " clip-rule="nonzero"/></clipPath><clipPath id="e2ba1bf13b"><path d="M 126.917969 64.921875 L 139.652344 64.921875 L 139.652344 93.558594 L 126.917969 93.558594 Z M 126.917969 64.921875 " clip-rule="nonzero"/></clipPath><clipPath id="a37bc0a97a"><path d="M 119.894531 43.292969 L 146.675781 43.292969 L 146.675781 76.351562 L 119.894531 76.351562 Z M 119.894531 43.292969 " clip-rule="nonzero"/></clipPath><clipPath id="ea47f7d48a"><path d="M 128.828125 44.066406 C 130.195312 43.597656 131.761719 43.292969 133.292969 43.292969 C 134.824219 43.292969 136.300781 43.554688 137.660156 44.023438 C 137.6875 44.035156 137.714844 44.035156 137.746094 44.050781 C 142.847656 45.917969 146.605469 50.851562 146.675781 56.613281 L 146.675781 76.253906 L 119.894531 76.253906 L 119.894531 56.628906 C 119.96875 50.820312 123.667969 45.890625 128.828125 44.066406 Z M 128.828125 44.066406 " clip-rule="nonzero"/></clipPath></defs><g clip-path="url(#f68590e106)"><path fill="#ff3131" d="M 113.546875 116.96875 L 156.222656 116.96875 L 156.222656 252.828125 L 113.546875 252.828125 Z M 113.546875 116.96875 " fill-opacity="1" fill-rule="nonzero"/></g><g clip-path="url(#489869d493)"><path fill="#ff3131" d="M 103.421875 111.09375 L 103.421875 96.558594 L 166.332031 96.558594 L 166.332031 111.09375 Z M 103.421875 111.09375 " fill-opacity="1" fill-rule="nonzero"/></g><g clip-path="url(#d1009563fd)"><g clip-path="url(#fb0e5a6a00)"><path fill="#ff3131" d="M 112.964844 252.082031 L 156.285156 252.082031 L 156.285156 289.933594 L 112.964844 289.933594 Z M 112.964844 252.082031 " fill-opacity="1" fill-rule="nonzero"/></g></g><g clip-path="url(#e2ba1bf13b)"><path fill="#ff3131" d="M 139.652344 93.558594 L 126.917969 93.558594 L 126.917969 64.90625 L 139.652344 64.90625 Z M 139.652344 93.558594 " fill-opacity="1" fill-rule="nonzero"/></g><g clip-path="url(#a37bc0a97a)"><g clip-path="url(#ea47f7d48a)"><path fill="#ff3131" d="M 119.894531 43.292969 L 146.675781 43.292969 L 146.675781 76.246094 L 119.894531 76.246094 Z M 119.894531 43.292969 " fill-opacity="1" fill-rule="nonzero"/></g></g></svg>