<svg xmlns="http://www.w3.org/2000/svg" width="361" zoomAndPan="magnify" viewBox="0 0 270.75 370.499989" height="494" preserveAspectRatio="xMidYMid meet" version="1.0"><defs><clipPath id="3ea8fc8328"><path d="M 53.234375 103.253906 L 216.515625 103.253906 L 216.515625 266.53125 L 53.234375 266.53125 Z M 53.234375 103.253906 " clip-rule="nonzero"/></clipPath><clipPath id="d3790fc5ba"><path d="M 134.882812 103.253906 C 89.789062 103.253906 53.234375 139.804688 53.234375 184.898438 C 53.234375 229.988281 89.789062 266.542969 134.882812 266.542969 C 179.972656 266.542969 216.527344 229.988281 216.527344 184.898438 C 216.527344 139.804688 179.972656 103.253906 134.882812 103.253906 Z M 134.882812 103.253906 " clip-rule="nonzero"/></clipPath></defs><g clip-path="url(#3ea8fc8328)"><g clip-path="url(#d3790fc5ba)"><path stroke-linecap="butt" transform="matrix(0.748989, 0, 0, 0.748989, 53.236051, 103.252274)" fill="none" stroke-linejoin="miter" d="M 109.009277 0.00217924 C 48.803128 0.00217924 -0.00223716 48.802329 -0.00223716 109.008478 C -0.00223716 169.209411 48.803128 218.014776 109.009277 218.014776 C 169.21021 218.014776 218.015575 169.209411 218.015575 109.008478 C 218.015575 48.802329 169.21021 0.00217924 109.009277 0.00217924 Z M 109.009277 0.00217924 " stroke="#004aad" stroke-width="20" stroke-opacity="1" stroke-miterlimit="4"/></g></g><path stroke-linecap="butt" transform="matrix(0.491025, -0.565579, 0.565579, 0.491025, 82.586906, 239.922587)" fill="none" stroke-linejoin="miter" d="M -0.00184824 5.000303 L 203.262084 5.001914 " stroke="#004aad" stroke-width="10" stroke-opacity="1" stroke-miterlimit="4"/></svg>