<svg xmlns="http://www.w3.org/2000/svg" width="361" zoomAndPan="magnify" viewBox="0 0 270.75 370.499989" height="494" preserveAspectRatio="xMidYMid meet" version="1.0"><defs><clipPath id="2725171f92"><path d="M 53.644531 113.261719 L 216.359375 113.261719 L 216.359375 255.984375 L 53.644531 255.984375 Z M 53.644531 113.261719 " clip-rule="nonzero"/></clipPath><clipPath id="6acfb730e1"><path d="M 60.085938 136.515625 C 46.914062 158.21875 56.195312 179.34375 67.859375 190.558594 L 136.054688 255.984375 L 202.808594 190.792969 C 213.65625 178.730469 217.816406 165.9375 215.503906 151.691406 C 212.316406 131.984375 196.078125 116.695312 176.015625 114.511719 C 163.710938 113.1875 151.828125 116.667969 142.550781 124.378906 C 140.054688 126.453125 137.824219 128.769531 135.878906 131.289062 C 133.570312 128.421875 130.863281 125.796875 127.804688 123.46875 C 117.136719 115.363281 103.558594 112.144531 90.515625 114.648438 C 78.164062 117.035156 67.074219 125.003906 60.085938 136.515625 Z M 60.085938 136.515625 " clip-rule="nonzero"/></clipPath><clipPath id="dfcac40199"><path d="M 53.652344 113.816406 L 216.175781 113.816406 L 216.175781 255.972656 L 53.652344 255.972656 Z M 53.652344 113.816406 " clip-rule="nonzero"/></clipPath><clipPath id="cbee81af1e"><path d="M 60.089844 136.515625 C 46.917969 158.21875 56.199219 179.339844 67.863281 190.550781 L 136.050781 255.972656 L 202.800781 190.785156 C 213.648438 178.726562 217.804688 165.933594 215.496094 151.6875 C 212.308594 131.984375 196.070312 116.695312 176.011719 114.511719 C 163.707031 113.1875 151.824219 116.667969 142.546875 124.378906 C 140.050781 126.449219 137.820312 128.769531 135.875 131.289062 C 133.566406 128.421875 130.863281 125.796875 127.800781 123.46875 C 117.136719 115.363281 103.558594 112.144531 90.515625 114.648438 C 78.164062 117.035156 67.078125 125 60.089844 136.515625 Z M 60.089844 136.515625 " clip-rule="nonzero"/></clipPath></defs><g clip-path="url(#2725171f92)"><g clip-path="url(#6acfb730e1)"><path fill="#ff3131" d="M 53.644531 113.816406 L 216.359375 113.816406 L 216.359375 255.984375 L 53.644531 255.984375 Z M 53.644531 113.816406 " fill-opacity="1" fill-rule="nonzero"/></g></g><g clip-path="url(#dfcac40199)"><g clip-path="url(#cbee81af1e)"><path stroke-linecap="butt" transform="matrix(0.748989, 0, 0, 0.748989, 53.650638, 113.817446)" fill="none" stroke-linejoin="miter" d="M 8.597194 30.305082 C -8.989007 59.281634 3.402693 87.481097 18.975765 102.449187 L 110.015126 189.796072 L 199.135235 102.762108 C 213.618296 86.662285 219.167441 69.581974 216.085162 50.561548 C 211.829427 24.255262 190.149166 3.842334 163.368281 0.926947 C 146.939891 -0.841061 131.074759 3.805827 118.688274 14.100952 C 115.355657 16.865093 112.377686 19.963019 109.780435 23.326927 C 106.698156 19.498851 103.089126 15.994128 99.000282 12.885772 C 84.762343 2.063896 66.633744 -2.233563 49.21965 1.109484 C 32.728675 4.296071 17.927477 14.930194 8.597194 30.305082 Z M 8.597194 30.305082 " stroke="#ff3131" stroke-width="20" stroke-opacity="1" stroke-miterlimit="4"/></g></g></svg>