<svg xmlns="http://www.w3.org/2000/svg" width="361" zoomAndPan="magnify" viewBox="0 0 270.75 370.499989" height="494" preserveAspectRatio="xMidYMid meet" version="1.0"><defs><clipPath id="40f0309034"><path d="M 98.175781 103.542969 L 171.59375 103.542969 L 171.59375 266.152344 L 98.175781 266.152344 Z M 98.175781 103.542969 " clip-rule="nonzero"/></clipPath><clipPath id="ebee290ad5"><path d="M 98.175781 103.636719 L 98.175781 266.152344 L 134.882812 245.835938 L 171.59375 266.152344 L 171.59375 103.636719 L 134.882812 123.953125 Z M 98.175781 103.636719 " clip-rule="nonzero"/></clipPath><clipPath id="c0b387c6c6"><path d="M 81.113281 80.347656 L 141.644531 80.347656 L 141.644531 140.875 L 81.113281 140.875 Z M 81.113281 80.347656 " clip-rule="nonzero"/></clipPath><clipPath id="91e18fc348"><path d="M 111.378906 80.347656 C 94.664062 80.347656 81.113281 93.898438 81.113281 110.613281 C 81.113281 127.324219 94.664062 140.875 111.378906 140.875 C 128.09375 140.875 141.644531 127.324219 141.644531 110.613281 C 141.644531 93.898438 128.09375 80.347656 111.378906 80.347656 Z M 111.378906 80.347656 " clip-rule="nonzero"/></clipPath><clipPath id="4e4cdd7e0e"><path d="M 128.144531 80.347656 L 188.671875 80.347656 L 188.671875 140.875 L 128.144531 140.875 Z M 128.144531 80.347656 " clip-rule="nonzero"/></clipPath><clipPath id="df6057846a"><path d="M 158.40625 80.347656 C 141.695312 80.347656 128.144531 93.898438 128.144531 110.613281 C 128.144531 127.324219 141.695312 140.875 158.40625 140.875 C 175.121094 140.875 188.671875 127.324219 188.671875 110.613281 C 188.671875 93.898438 175.121094 80.347656 158.40625 80.347656 Z M 158.40625 80.347656 " clip-rule="nonzero"/></clipPath><clipPath id="be89552a24"><path d="M 81.113281 223.839844 L 141.644531 223.839844 L 141.644531 284.367188 L 81.113281 284.367188 Z M 81.113281 223.839844 " clip-rule="nonzero"/></clipPath><clipPath id="aae65faf22"><path d="M 111.378906 223.839844 C 94.664062 223.839844 81.113281 237.390625 81.113281 254.105469 C 81.113281 270.820312 94.664062 284.367188 111.378906 284.367188 C 128.09375 284.367188 141.644531 270.820312 141.644531 254.105469 C 141.644531 237.390625 128.09375 223.839844 111.378906 223.839844 Z M 111.378906 223.839844 " clip-rule="nonzero"/></clipPath><clipPath id="45d0ae76cb"><path d="M 128.144531 223.839844 L 188.671875 223.839844 L 188.671875 284.367188 L 128.144531 284.367188 Z M 128.144531 223.839844 " clip-rule="nonzero"/></clipPath><clipPath id="1848f74f5c"><path d="M 158.40625 223.839844 C 141.695312 223.839844 128.144531 237.390625 128.144531 254.105469 C 128.144531 270.820312 141.695312 284.367188 158.40625 284.367188 C 175.121094 284.367188 188.671875 270.820312 188.671875 254.105469 C 188.671875 237.390625 175.121094 223.839844 158.40625 223.839844 Z M 158.40625 223.839844 " clip-rule="nonzero"/></clipPath></defs><g clip-path="url(#40f0309034)"><g clip-path="url(#ebee290ad5)"><path fill="#0097b2" d="M 98.175781 266.152344 L 98.175781 103.542969 L 171.59375 103.542969 L 171.59375 266.152344 Z M 98.175781 266.152344 " fill-opacity="1" fill-rule="nonzero"/></g></g><g clip-path="url(#c0b387c6c6)"><g clip-path="url(#91e18fc348)"><path fill="#0097b2" d="M 81.113281 80.347656 L 141.644531 80.347656 L 141.644531 140.875 L 81.113281 140.875 Z M 81.113281 80.347656 " fill-opacity="1" fill-rule="nonzero"/></g></g><g clip-path="url(#4e4cdd7e0e)"><g clip-path="url(#df6057846a)"><path fill="#0097b2" d="M 128.144531 80.347656 L 188.671875 80.347656 L 188.671875 140.875 L 128.144531 140.875 Z M 128.144531 80.347656 " fill-opacity="1" fill-rule="nonzero"/></g></g><g clip-path="url(#be89552a24)"><g clip-path="url(#aae65faf22)"><path fill="#0097b2" d="M 81.113281 223.839844 L 141.644531 223.839844 L 141.644531 284.367188 L 81.113281 284.367188 Z M 81.113281 223.839844 " fill-opacity="1" fill-rule="nonzero"/></g></g><g clip-path="url(#45d0ae76cb)"><g clip-path="url(#1848f74f5c)"><path fill="#0097b2" d="M 128.144531 223.839844 L 188.671875 223.839844 L 188.671875 284.367188 L 128.144531 284.367188 Z M 128.144531 223.839844 " fill-opacity="1" fill-rule="nonzero"/></g></g></svg>