<svg xmlns="http://www.w3.org/2000/svg" width="361" zoomAndPan="magnify" viewBox="0 0 270.75 370.499989" height="494" preserveAspectRatio="xMidYMid meet" version="1.0"><defs><clipPath id="d08f35a65e"><path d="M 95 85 L 175 85 L 175 166 L 95 166 Z M 95 85 " clip-rule="nonzero"/></clipPath><clipPath id="05563adc89"><path d="M 134.882812 46.234375 L 214.328125 125.679688 L 134.882812 205.121094 L 55.441406 125.679688 Z M 134.882812 46.234375 " clip-rule="nonzero"/></clipPath><clipPath id="45f6d61f93"><path d="M 174.605469 85.957031 L 160.164062 125.679688 L 174.605469 165.398438 L 134.882812 150.957031 L 95.164062 165.398438 L 109.605469 125.679688 L 95.164062 85.957031 L 134.882812 100.398438 Z M 174.605469 85.957031 " clip-rule="nonzero"/></clipPath><clipPath id="ddff12b583"><path d="M 81 72 L 189 72 L 189 180 L 81 180 Z M 81 72 " clip-rule="nonzero"/></clipPath><clipPath id="6b079a4378"><path d="M 63.941406 89.925781 L 170.636719 54.738281 L 205.828125 161.433594 L 99.132812 196.621094 Z M 63.941406 89.925781 " clip-rule="nonzero"/></clipPath><clipPath id="8c08bbdfb9"><path d="M 117.289062 72.332031 L 146.261719 103.105469 L 188.230469 108.085938 L 157.457031 137.054688 L 152.480469 179.027344 L 123.507812 148.25 L 81.535156 143.273438 L 112.3125 114.300781 Z M 117.289062 72.332031 " clip-rule="nonzero"/></clipPath><clipPath id="ae6fa1bc95"><path d="M 80 71 L 190 71 L 190 181 L 80 181 Z M 80 71 " clip-rule="nonzero"/></clipPath><clipPath id="ed96109183"><path d="M 67.261719 167.371094 L 93.191406 58.054688 L 202.507812 83.988281 L 176.574219 193.300781 Z M 67.261719 167.371094 " clip-rule="nonzero"/></clipPath><clipPath id="f73d493252"><path d="M 80.226562 112.710938 L 121.617188 104.160156 L 147.851562 71.019531 L 156.402344 112.414062 L 189.542969 138.644531 L 148.152344 147.195312 L 121.917969 180.335938 L 113.367188 138.945312 Z M 80.226562 112.710938 " clip-rule="nonzero"/></clipPath></defs><g clip-path="url(#d08f35a65e)"><g clip-path="url(#05563adc89)"><g clip-path="url(#45f6d61f93)"><path fill="#ff3131" d="M 134.882812 46.234375 L 214.328125 125.679688 L 134.882812 205.121094 L 55.441406 125.679688 Z M 134.882812 46.234375 " fill-opacity="1" fill-rule="nonzero"/></g></g></g><g clip-path="url(#ddff12b583)"><g clip-path="url(#6b079a4378)"><g clip-path="url(#8c08bbdfb9)"><path fill="#ff3131" d="M 63.941406 89.925781 L 170.636719 54.738281 L 205.828125 161.433594 L 99.132812 196.621094 Z M 63.941406 89.925781 " fill-opacity="1" fill-rule="nonzero"/></g></g></g><g clip-path="url(#ae6fa1bc95)"><g clip-path="url(#ed96109183)"><g clip-path="url(#f73d493252)"><path fill="#ff3131" d="M 67.261719 167.371094 L 93.191406 58.054688 L 202.507812 83.988281 L 176.574219 193.300781 Z M 67.261719 167.371094 " fill-opacity="1" fill-rule="nonzero"/></g></g></g><path stroke-linecap="round" transform="matrix(0.00000000130723, 0.748989, -0.748989, 0.00000000130723, 138.628895, 125.679021)" fill="none" stroke-linejoin="miter" d="M 5.002423 5.001517 L 231.250064 5.001518 " stroke="#ff3131" stroke-width="10" stroke-opacity="1" stroke-miterlimit="4"/><path stroke-linecap="round" transform="matrix(-0.409974, 0.626822, -0.626822, -0.409974, 164.001532, 218.63772)" fill="none" stroke-linejoin="miter" d="M 7.001953 7.001549 L 52.990296 6.997644 " stroke="#ff3131" stroke-width="14" stroke-opacity="1" stroke-miterlimit="4"/></svg>