<svg xmlns="http://www.w3.org/2000/svg" width="361" zoomAndPan="magnify" viewBox="0 0 270.75 370.499989" height="494" preserveAspectRatio="xMidYMid meet" version="1.0"><defs><clipPath id="c105c9728d"><path d="M 48.445312 98.460938 L 221.324219 98.460938 L 221.324219 271.339844 L 48.445312 271.339844 Z M 48.445312 98.460938 " clip-rule="nonzero"/></clipPath><clipPath id="50988b3ea3"><path d="M 134.882812 98.460938 C 87.144531 98.460938 48.445312 137.160156 48.445312 184.902344 C 48.445312 232.640625 87.144531 271.339844 134.882812 271.339844 C 182.625 271.339844 221.324219 232.640625 221.324219 184.902344 C 221.324219 137.160156 182.625 98.460938 134.882812 98.460938 Z M 134.882812 98.460938 " clip-rule="nonzero"/></clipPath><clipPath id="e1dd474f0b"><path d="M 48.445312 98.460938 L 221.320312 98.460938 L 221.320312 271.339844 L 48.445312 271.339844 Z M 48.445312 98.460938 " clip-rule="nonzero"/></clipPath><clipPath id="8776361494"><path d="M 134.882812 98.460938 C 87.144531 98.460938 48.445312 137.160156 48.445312 184.898438 C 48.445312 232.636719 87.144531 271.339844 134.882812 271.339844 C 182.621094 271.339844 221.320312 232.636719 221.320312 184.898438 C 221.320312 137.160156 182.621094 98.460938 134.882812 98.460938 Z M 134.882812 98.460938 " clip-rule="nonzero"/></clipPath></defs><g clip-path="url(#c105c9728d)"><g clip-path="url(#50988b3ea3)"><path fill="#004aad" d="M 48.445312 98.460938 L 221.324219 98.460938 L 221.324219 271.339844 L 48.445312 271.339844 Z M 48.445312 98.460938 " fill-opacity="1" fill-rule="nonzero"/></g></g><g clip-path="url(#e1dd474f0b)"><g clip-path="url(#8776361494)"><path stroke-linecap="butt" transform="matrix(0.748989, 0, 0, 0.748989, 48.446005, 98.462226)" fill="none" stroke-linejoin="miter" d="M 115.404617 -0.00172014 C 51.667672 -0.00172014 -0.000924378 51.666876 -0.000924378 115.403821 C -0.000924378 179.140766 51.667672 230.814578 115.404617 230.814578 C 179.141562 230.814578 230.810158 179.140766 230.810158 115.403821 C 230.810158 51.666876 179.141562 -0.00172014 115.404617 -0.00172014 Z M 115.404617 -0.00172014 " stroke="#004aad" stroke-width="20" stroke-opacity="1" stroke-miterlimit="4"/></g></g></svg>