<svg xmlns="http://www.w3.org/2000/svg" width="361" zoomAndPan="magnify" viewBox="0 0 270.75 370.499989" height="494" preserveAspectRatio="xMidYMid meet" version="1.0"><defs><clipPath id="8e3fd31261"><path d="M 79.144531 230.414062 L 190.625 230.414062 L 190.625 316.636719 L 79.144531 316.636719 Z M 79.144531 230.414062 " clip-rule="nonzero"/></clipPath><clipPath id="44c9c0cbc1"><path d="M 96.371094 230.414062 L 173.398438 230.414062 C 177.964844 230.414062 182.347656 232.230469 185.578125 235.460938 C 188.808594 238.691406 190.625 243.074219 190.625 247.640625 L 190.625 299.410156 C 190.625 303.976562 188.808594 308.359375 185.578125 311.589844 C 182.347656 314.820312 177.964844 316.636719 173.398438 316.636719 L 96.371094 316.636719 C 91.804688 316.636719 87.421875 314.820312 84.191406 311.589844 C 80.960938 308.359375 79.144531 303.976562 79.144531 299.410156 L 79.144531 247.640625 C 79.144531 243.074219 80.960938 238.691406 84.191406 235.460938 C 87.421875 232.230469 91.804688 230.414062 96.371094 230.414062 Z M 96.371094 230.414062 " clip-rule="nonzero"/></clipPath><clipPath id="758aaab225"><path d="M 79.144531 44.699219 L 190.625 44.699219 L 190.625 130.921875 L 79.144531 130.921875 Z M 79.144531 44.699219 " clip-rule="nonzero"/></clipPath><clipPath id="73cf2fe556"><path d="M 96.371094 44.699219 L 173.398438 44.699219 C 177.964844 44.699219 182.347656 46.515625 185.578125 49.746094 C 188.808594 52.976562 190.625 57.359375 190.625 61.925781 L 190.625 113.695312 C 190.625 118.261719 188.808594 122.644531 185.578125 125.875 C 182.347656 129.105469 177.964844 130.921875 173.398438 130.921875 L 96.371094 130.921875 C 91.804688 130.921875 87.421875 129.105469 84.191406 125.875 C 80.960938 122.644531 79.144531 118.261719 79.144531 113.695312 L 79.144531 61.925781 C 79.144531 57.359375 80.960938 52.976562 84.191406 49.746094 C 87.421875 46.515625 91.804688 44.699219 96.371094 44.699219 Z M 96.371094 44.699219 " clip-rule="nonzero"/></clipPath></defs><path stroke-linecap="butt" transform="matrix(0, -0.748989, 0.748989, 0, 104.922422, 254.398793)" fill="none" stroke-linejoin="miter" d="M 0.000474924 40.0011 L 185.583934 40.0011 " stroke="#ff3131" stroke-width="80" stroke-opacity="1" stroke-miterlimit="4"/><g clip-path="url(#8e3fd31261)"><g clip-path="url(#44c9c0cbc1)"><path fill="#ff3131" d="M 79.144531 230.414062 L 190.625 230.414062 L 190.625 316.636719 L 79.144531 316.636719 Z M 79.144531 230.414062 " fill-opacity="1" fill-rule="nonzero"/></g></g><g clip-path="url(#758aaab225)"><g clip-path="url(#73cf2fe556)"><path fill="#ff3131" d="M 79.144531 44.699219 L 190.625 44.699219 L 190.625 130.921875 L 79.144531 130.921875 Z M 79.144531 44.699219 " fill-opacity="1" fill-rule="nonzero"/></g></g></svg>