<svg xmlns="http://www.w3.org/2000/svg" width="361" zoomAndPan="magnify" viewBox="0 0 270.75 370.499989" height="494" preserveAspectRatio="xMidYMid meet" version="1.0"><defs><clipPath id="523153e57d"><path d="M 58.210938 113.160156 L 211.558594 113.160156 L 211.558594 298.25 L 58.210938 298.25 Z M 58.210938 113.160156 " clip-rule="nonzero"/></clipPath><clipPath id="817eee26b0"><path d="M 110.617188 113.160156 L 159.152344 113.160156 L 211.558594 298.246094 L 58.210938 298.246094 Z M 110.617188 113.160156 " clip-rule="nonzero"/></clipPath><clipPath id="186ce9e3c1"><path d="M 106.796875 46.859375 L 162.972656 46.859375 L 162.972656 103.035156 L 106.796875 103.035156 Z M 106.796875 46.859375 " clip-rule="nonzero"/></clipPath><clipPath id="ff78145d9f"><path d="M 134.882812 46.859375 C 119.371094 46.859375 106.796875 59.433594 106.796875 74.949219 C 106.796875 90.460938 119.371094 103.035156 134.882812 103.035156 C 150.398438 103.035156 162.972656 90.460938 162.972656 74.949219 C 162.972656 59.433594 150.398438 46.859375 134.882812 46.859375 Z M 134.882812 46.859375 " clip-rule="nonzero"/></clipPath><clipPath id="f85030282f"><path d="M 65 133 L 99 133 L 99 177 L 65 177 Z M 65 133 " clip-rule="nonzero"/></clipPath><clipPath id="e8b1a35588"><path d="M 84.957031 129.578125 L 101.460938 138.96875 L 78.023438 180.160156 L 61.519531 170.773438 Z M 84.957031 129.578125 " clip-rule="nonzero"/></clipPath><clipPath id="9d43b54bb1"><path d="M 93.210938 134.273438 C 95.398438 135.519531 97.003906 137.582031 97.671875 140.007812 C 98.335938 142.4375 98.011719 145.03125 96.765625 147.21875 L 82.75 171.855469 C 81.503906 174.046875 79.441406 175.648438 77.011719 176.316406 C 74.585938 176.984375 71.992188 176.660156 69.804688 175.414062 C 67.613281 174.167969 66.011719 172.105469 65.34375 169.675781 C 64.675781 167.25 65 164.65625 66.246094 162.464844 L 80.265625 137.828125 C 81.507812 135.640625 83.574219 134.035156 86 133.371094 C 88.429688 132.703125 91.023438 133.027344 93.210938 134.273438 Z M 93.210938 134.273438 " clip-rule="nonzero"/></clipPath><clipPath id="e3c023b4d6"><path d="M 34 155 L 82 155 L 82 179 L 34 179 Z M 34 155 " clip-rule="nonzero"/></clipPath><clipPath id="4e9fb38b2a"><path d="M 83.027344 161.332031 L 80.179688 180.105469 L 33.320312 172.992188 L 36.171875 154.21875 Z M 83.027344 161.332031 " clip-rule="nonzero"/></clipPath><clipPath id="f031fb1a97"><path d="M 81.605469 170.71875 C 81.226562 173.210938 79.875 175.445312 77.847656 176.941406 C 75.820312 178.433594 73.28125 179.058594 70.792969 178.679688 L 42.769531 174.425781 C 40.277344 174.050781 38.042969 172.699219 36.546875 170.671875 C 35.054688 168.644531 34.429688 166.105469 34.808594 163.617188 C 35.183594 161.125 36.535156 158.890625 38.5625 157.394531 C 40.589844 155.902344 43.128906 155.277344 45.617188 155.652344 L 73.644531 159.910156 C 76.132812 160.285156 78.371094 161.636719 79.863281 163.664062 C 81.355469 165.691406 81.980469 168.230469 81.605469 170.71875 Z M 81.605469 170.71875 " clip-rule="nonzero"/></clipPath><clipPath id="69cd0402bb"><path d="M 171 131 L 202 131 L 202 177 L 171 177 Z M 171 131 " clip-rule="nonzero"/></clipPath><clipPath id="c17e525f04"><path d="M 168.5 136.351562 L 185.898438 128.742188 L 204.890625 172.164062 L 187.492188 179.773438 Z M 168.5 136.351562 " clip-rule="nonzero"/></clipPath><clipPath id="73b4d267eb"><path d="M 177.199219 132.546875 C 179.503906 131.535156 182.117188 131.484375 184.464844 132.402344 C 186.808594 133.320312 188.691406 135.132812 189.703125 137.4375 L 201.058594 163.410156 C 202.070312 165.71875 202.121094 168.332031 201.203125 170.675781 C 200.285156 173.019531 198.472656 174.902344 196.164062 175.914062 C 193.859375 176.921875 191.246094 176.972656 188.902344 176.054688 C 186.554688 175.136719 184.671875 173.324219 183.664062 171.019531 L 172.304688 145.046875 C 171.296875 142.742188 171.246094 140.128906 172.164062 137.78125 C 173.078125 135.4375 174.890625 133.554688 177.199219 132.546875 Z M 177.199219 132.546875 " clip-rule="nonzero"/></clipPath><clipPath id="e4fa24e235"><path d="M 182 154 L 230 154 L 230 178 L 182 178 Z M 182 154 " clip-rule="nonzero"/></clipPath><clipPath id="664ed63fe6"><path d="M 184.097656 178.308594 L 181.675781 159.472656 L 228.683594 153.425781 L 231.105469 172.257812 Z M 184.097656 178.308594 " clip-rule="nonzero"/></clipPath><clipPath id="4d20a545c3"><path d="M 182.886719 168.890625 C 182.566406 166.394531 183.25 163.871094 184.789062 161.878906 C 186.328125 159.882812 188.59375 158.582031 191.09375 158.261719 L 219.207031 154.644531 C 221.703125 154.324219 224.226562 155.007812 226.21875 156.546875 C 228.210938 158.085938 229.511719 160.351562 229.835938 162.847656 C 230.15625 165.347656 229.472656 167.871094 227.933594 169.863281 C 226.394531 171.855469 224.128906 173.15625 221.628906 173.476562 L 193.515625 177.09375 C 191.019531 177.417969 188.496094 176.734375 186.503906 175.195312 C 184.507812 173.65625 183.210938 171.386719 182.886719 168.890625 Z M 182.886719 168.890625 " clip-rule="nonzero"/></clipPath></defs><g clip-path="url(#523153e57d)"><g clip-path="url(#817eee26b0)"><path fill="#00bf63" d="M 58.210938 113.160156 L 211.558594 113.160156 L 211.558594 298.25 L 58.210938 298.25 Z M 58.210938 113.160156 " fill-opacity="1" fill-rule="nonzero"/></g></g><g clip-path="url(#186ce9e3c1)"><g clip-path="url(#ff78145d9f)"><path fill="#00bf63" d="M 106.796875 46.859375 L 162.972656 46.859375 L 162.972656 103.035156 L 106.796875 103.035156 Z M 106.796875 46.859375 " fill-opacity="1" fill-rule="nonzero"/></g></g><g clip-path="url(#f85030282f)"><g clip-path="url(#e8b1a35588)"><g clip-path="url(#9d43b54bb1)"><path fill="#00bf63" d="M 84.957031 129.578125 L 101.460938 138.96875 L 78.0625 180.097656 L 61.558594 170.707031 Z M 84.957031 129.578125 " fill-opacity="1" fill-rule="nonzero"/></g></g></g><g clip-path="url(#e3c023b4d6)"><g clip-path="url(#4e9fb38b2a)"><g clip-path="url(#f031fb1a97)"><path fill="#00bf63" d="M 83.027344 161.332031 L 80.179688 180.105469 L 33.394531 173.003906 L 36.242188 154.230469 Z M 83.027344 161.332031 " fill-opacity="1" fill-rule="nonzero"/></g></g></g><g clip-path="url(#69cd0402bb)"><g clip-path="url(#c17e525f04)"><g clip-path="url(#73b4d267eb)"><path fill="#00bf63" d="M 168.5 136.351562 L 185.898438 128.742188 L 204.859375 172.097656 L 187.460938 179.707031 Z M 168.5 136.351562 " fill-opacity="1" fill-rule="nonzero"/></g></g></g><g clip-path="url(#e4fa24e235)"><g clip-path="url(#664ed63fe6)"><g clip-path="url(#4d20a545c3)"><path fill="#00bf63" d="M 184.097656 178.308594 L 181.675781 159.472656 L 228.609375 153.433594 L 231.035156 172.265625 Z M 184.097656 178.308594 " fill-opacity="1" fill-rule="nonzero"/></g></g></g></svg>