<svg xmlns="http://www.w3.org/2000/svg" width="361" zoomAndPan="magnify" viewBox="0 0 270.75 370.499989" height="494" preserveAspectRatio="xMidYMid meet" version="1.0"><defs><g/></defs><g fill="#ffde59" fill-opacity="1"><g transform="translate(151.789869, 228.699717)"><g><path d="M -11.0625 -30.3125 C -7.3125 -30.3125 -4.445312 -29.125 -2.46875 -26.75 C -0.5 -24.382812 0.484375 -21.019531 0.484375 -16.65625 C 0.484375 -12.289062 -0.5 -8.914062 -2.46875 -6.53125 C -4.445312 -4.144531 -7.3125 -2.953125 -11.0625 -2.953125 L -27.484375 -2.953125 L -27.484375 -11.78125 L -11.1875 -11.78125 C -9.632812 -11.78125 -8.398438 -12.191406 -7.484375 -13.015625 C -6.566406 -13.835938 -6.109375 -15.035156 -6.109375 -16.609375 C -6.109375 -18.179688 -6.570312 -19.382812 -7.5 -20.21875 C -8.4375 -21.0625 -9.664062 -21.484375 -11.1875 -21.484375 L -27.484375 -21.484375 L -27.484375 -30.3125 Z M -11.0625 -30.3125 "/></g></g></g><g fill="#ffde59" fill-opacity="1"><g transform="translate(117.976936, 177.293328)"><g><path d="M 11.0625 30.3125 C 7.3125 30.3125 4.445312 29.125 2.46875 26.75 C 0.5 24.382812 -0.484375 21.019531 -0.484375 16.65625 C -0.484375 12.289062 0.5 8.914062 2.46875 6.53125 C 4.445312 4.144531 7.3125 2.953125 11.0625 2.953125 L 27.484375 2.953125 L 27.484375 11.78125 L 11.1875 11.78125 C 9.632812 11.78125 8.398438 12.191406 7.484375 13.015625 C 6.566406 13.835938 6.109375 15.035156 6.109375 16.609375 C 6.109375 18.179688 6.570312 19.382812 7.5 20.21875 C 8.4375 21.0625 9.664062 21.484375 11.1875 21.484375 L 27.484375 21.484375 L 27.484375 30.3125 Z M 11.0625 30.3125 "/></g></g></g><g fill="#ffde59" fill-opacity="1"><g transform="translate(151.789869, 191.459288)"><g><path d="M -11.0625 -30.3125 C -7.3125 -30.3125 -4.445312 -29.125 -2.46875 -26.75 C -0.5 -24.382812 0.484375 -21.019531 0.484375 -16.65625 C 0.484375 -12.289062 -0.5 -8.914062 -2.46875 -6.53125 C -4.445312 -4.144531 -7.3125 -2.953125 -11.0625 -2.953125 L -27.484375 -2.953125 L -27.484375 -11.78125 L -11.1875 -11.78125 C -9.632812 -11.78125 -8.398438 -12.191406 -7.484375 -13.015625 C -6.566406 -13.835938 -6.109375 -15.035156 -6.109375 -16.609375 C -6.109375 -18.179688 -6.570312 -19.382812 -7.5 -20.21875 C -8.4375 -21.0625 -9.664062 -21.484375 -11.1875 -21.484375 L -27.484375 -21.484375 L -27.484375 -30.3125 Z M -11.0625 -30.3125 "/></g></g></g><g fill="#ffde59" fill-opacity="1"><g transform="translate(117.976936, 140.052885)"><g><path d="M 11.0625 30.3125 C 7.3125 30.3125 4.445312 29.125 2.46875 26.75 C 0.5 24.382812 -0.484375 21.019531 -0.484375 16.65625 C -0.484375 12.289062 0.5 8.914062 2.46875 6.53125 C 4.445312 4.144531 7.3125 2.953125 11.0625 2.953125 L 27.484375 2.953125 L 27.484375 11.78125 L 11.1875 11.78125 C 9.632812 11.78125 8.398438 12.191406 7.484375 13.015625 C 6.566406 13.835938 6.109375 15.035156 6.109375 16.609375 C 6.109375 18.179688 6.570312 19.382812 7.5 20.21875 C 8.4375 21.0625 9.664062 21.484375 11.1875 21.484375 L 27.484375 21.484375 L 27.484375 30.3125 Z M 11.0625 30.3125 "/></g></g></g><g fill="#ffde59" fill-opacity="1"><g transform="translate(151.789869, 302.936742)"><g><path d="M -11.0625 -30.3125 C -7.3125 -30.3125 -4.445312 -29.125 -2.46875 -26.75 C -0.5 -24.382812 0.484375 -21.019531 0.484375 -16.65625 C 0.484375 -12.289062 -0.5 -8.914062 -2.46875 -6.53125 C -4.445312 -4.144531 -7.3125 -2.953125 -11.0625 -2.953125 L -27.484375 -2.953125 L -27.484375 -11.78125 L -11.1875 -11.78125 C -9.632812 -11.78125 -8.398438 -12.191406 -7.484375 -13.015625 C -6.566406 -13.835938 -6.109375 -15.035156 -6.109375 -16.609375 C -6.109375 -18.179688 -6.570312 -19.382812 -7.5 -20.21875 C -8.4375 -21.0625 -9.664062 -21.484375 -11.1875 -21.484375 L -27.484375 -21.484375 L -27.484375 -30.3125 Z M -11.0625 -30.3125 "/></g></g></g><g fill="#ffde59" fill-opacity="1"><g transform="translate(117.976936, 251.53034)"><g><path d="M 11.0625 30.3125 C 7.3125 30.3125 4.445312 29.125 2.46875 26.75 C 0.5 24.382812 -0.484375 21.019531 -0.484375 16.65625 C -0.484375 12.289062 0.5 8.914062 2.46875 6.53125 C 4.445312 4.144531 7.3125 2.953125 11.0625 2.953125 L 27.484375 2.953125 L 27.484375 11.78125 L 11.1875 11.78125 C 9.632812 11.78125 8.398438 12.191406 7.484375 13.015625 C 6.566406 13.835938 6.109375 15.035156 6.109375 16.609375 C 6.109375 18.179688 6.570312 19.382812 7.5 20.21875 C 8.4375 21.0625 9.664062 21.484375 11.1875 21.484375 L 27.484375 21.484375 L 27.484375 30.3125 Z M 11.0625 30.3125 "/></g></g></g><g fill="#ffde59" fill-opacity="1"><g transform="translate(151.789869, 265.696299)"><g><path d="M -11.0625 -30.3125 C -7.3125 -30.3125 -4.445312 -29.125 -2.46875 -26.75 C -0.5 -24.382812 0.484375 -21.019531 0.484375 -16.65625 C 0.484375 -12.289062 -0.5 -8.914062 -2.46875 -6.53125 C -4.445312 -4.144531 -7.3125 -2.953125 -11.0625 -2.953125 L -27.484375 -2.953125 L -27.484375 -11.78125 L -11.1875 -11.78125 C -9.632812 -11.78125 -8.398438 -12.191406 -7.484375 -13.015625 C -6.566406 -13.835938 -6.109375 -15.035156 -6.109375 -16.609375 C -6.109375 -18.179688 -6.570312 -19.382812 -7.5 -20.21875 C -8.4375 -21.0625 -9.664062 -21.484375 -11.1875 -21.484375 L -27.484375 -21.484375 L -27.484375 -30.3125 Z M -11.0625 -30.3125 "/></g></g></g><g fill="#ffde59" fill-opacity="1"><g transform="translate(117.976936, 214.289896)"><g><path d="M 11.0625 30.3125 C 7.3125 30.3125 4.445312 29.125 2.46875 26.75 C 0.5 24.382812 -0.484375 21.019531 -0.484375 16.65625 C -0.484375 12.289062 0.5 8.914062 2.46875 6.53125 C 4.445312 4.144531 7.3125 2.953125 11.0625 2.953125 L 27.484375 2.953125 L 27.484375 11.78125 L 11.1875 11.78125 C 9.632812 11.78125 8.398438 12.191406 7.484375 13.015625 C 6.566406 13.835938 6.109375 15.035156 6.109375 16.609375 C 6.109375 18.179688 6.570312 19.382812 7.5 20.21875 C 8.4375 21.0625 9.664062 21.484375 11.1875 21.484375 L 27.484375 21.484375 L 27.484375 30.3125 Z M 11.0625 30.3125 "/></g></g></g><g fill="#ffde59" fill-opacity="1"><g transform="translate(151.789869, 155.507808)"><g><path d="M -11.0625 -30.3125 C -7.3125 -30.3125 -4.445312 -29.125 -2.46875 -26.75 C -0.5 -24.382812 0.484375 -21.019531 0.484375 -16.65625 C 0.484375 -12.289062 -0.5 -8.914062 -2.46875 -6.53125 C -4.445312 -4.144531 -7.3125 -2.953125 -11.0625 -2.953125 L -27.484375 -2.953125 L -27.484375 -11.78125 L -11.1875 -11.78125 C -9.632812 -11.78125 -8.398438 -12.191406 -7.484375 -13.015625 C -6.566406 -13.835938 -6.109375 -15.035156 -6.109375 -16.609375 C -6.109375 -18.179688 -6.570312 -19.382812 -7.5 -20.21875 C -8.4375 -21.0625 -9.664062 -21.484375 -11.1875 -21.484375 L -27.484375 -21.484375 L -27.484375 -30.3125 Z M -11.0625 -30.3125 "/></g></g></g><g fill="#ffde59" fill-opacity="1"><g transform="translate(117.976936, 104.101405)"><g><path d="M 11.0625 30.3125 C 7.3125 30.3125 4.445312 29.125 2.46875 26.75 C 0.5 24.382812 -0.484375 21.019531 -0.484375 16.65625 C -0.484375 12.289062 0.5 8.914062 2.46875 6.53125 C 4.445312 4.144531 7.3125 2.953125 11.0625 2.953125 L 27.484375 2.953125 L 27.484375 11.78125 L 11.1875 11.78125 C 9.632812 11.78125 8.398438 12.191406 7.484375 13.015625 C 6.566406 13.835938 6.109375 15.035156 6.109375 16.609375 C 6.109375 18.179688 6.570312 19.382812 7.5 20.21875 C 8.4375 21.0625 9.664062 21.484375 11.1875 21.484375 L 27.484375 21.484375 L 27.484375 30.3125 Z M 11.0625 30.3125 "/></g></g></g><g fill="#ffde59" fill-opacity="1"><g transform="translate(151.789869, 118.267364)"><g><path d="M -11.0625 -30.3125 C -7.3125 -30.3125 -4.445312 -29.125 -2.46875 -26.75 C -0.5 -24.382812 0.484375 -21.019531 0.484375 -16.65625 C 0.484375 -12.289062 -0.5 -8.914062 -2.46875 -6.53125 C -4.445312 -4.144531 -7.3125 -2.953125 -11.0625 -2.953125 L -27.484375 -2.953125 L -27.484375 -11.78125 L -11.1875 -11.78125 C -9.632812 -11.78125 -8.398438 -12.191406 -7.484375 -13.015625 C -6.566406 -13.835938 -6.109375 -15.035156 -6.109375 -16.609375 C -6.109375 -18.179688 -6.570312 -19.382812 -7.5 -20.21875 C -8.4375 -21.0625 -9.664062 -21.484375 -11.1875 -21.484375 L -27.484375 -21.484375 L -27.484375 -30.3125 Z M -11.0625 -30.3125 "/></g></g></g><g fill="#ffde59" fill-opacity="1"><g transform="translate(117.976936, 66.860961)"><g><path d="M 11.0625 30.3125 C 7.3125 30.3125 4.445312 29.125 2.46875 26.75 C 0.5 24.382812 -0.484375 21.019531 -0.484375 16.65625 C -0.484375 12.289062 0.5 8.914062 2.46875 6.53125 C 4.445312 4.144531 7.3125 2.953125 11.0625 2.953125 L 27.484375 2.953125 L 27.484375 11.78125 L 11.1875 11.78125 C 9.632812 11.78125 8.398438 12.191406 7.484375 13.015625 C 6.566406 13.835938 6.109375 15.035156 6.109375 16.609375 C 6.109375 18.179688 6.570312 19.382812 7.5 20.21875 C 8.4375 21.0625 9.664062 21.484375 11.1875 21.484375 L 27.484375 21.484375 L 27.484375 30.3125 Z M 11.0625 30.3125 "/></g></g></g></svg>