<svg xmlns="http://www.w3.org/2000/svg" width="361" zoomAndPan="magnify" viewBox="0 0 270.75 370.499989" height="494" preserveAspectRatio="xMidYMid meet" version="1.0"><defs><clipPath id="3c9338aee1"><path d="M 76.464844 188.136719 L 193.417969 188.136719 L 193.417969 244.3125 L 76.464844 244.3125 Z M 76.464844 188.136719 " clip-rule="nonzero"/></clipPath><clipPath id="0474de898d"><path d="M 115.433594 240.9375 C 121.421875 242.976562 128.230469 244.3125 134.917969 244.3125 C 141.601562 244.3125 148.03125 243.164062 153.957031 241.128906 C 154.085938 241.066406 154.210938 241.066406 154.335938 241 C 176.597656 232.851562 192.992188 211.335938 193.304688 188.136719 L 76.464844 188.136719 C 76.777344 211.464844 92.921875 232.980469 115.433594 240.9375 Z M 115.433594 240.9375 " clip-rule="nonzero"/></clipPath></defs><g clip-path="url(#3c9338aee1)"><g clip-path="url(#0474de898d)"><path fill="#004aad" d="M 76.464844 188.136719 L 193.199219 188.136719 L 193.199219 244.3125 L 76.464844 244.3125 Z M 76.464844 188.136719 " fill-opacity="1" fill-rule="nonzero"/></g></g><path stroke-linecap="round" transform="matrix(0.018344, 0.748764, -0.748764, 0.018344, 120.782611, 125.491759)" fill="none" stroke-linejoin="miter" d="M 8.000317 8.002341 L 42.708537 8.002298 " stroke="#004aad" stroke-width="16" stroke-opacity="1" stroke-miterlimit="4"/><path stroke-linecap="round" transform="matrix(0.018344, 0.748764, -0.748764, 0.018344, 158.893965, 125.638515)" fill="none" stroke-linejoin="miter" d="M 7.99741 7.999696 L 42.70563 7.999652 " stroke="#004aad" stroke-width="16" stroke-opacity="1" stroke-miterlimit="4"/></svg>