<svg xmlns="http://www.w3.org/2000/svg" width="361" zoomAndPan="magnify" viewBox="0 0 270.75 370.499989" height="494" preserveAspectRatio="xMidYMid meet" version="1.0"><defs><clipPath id="1c33b4d966"><path d="M 57.816406 137.636719 L 168.617188 137.636719 L 168.617188 258.824219 L 57.816406 258.824219 Z M 57.816406 137.636719 " clip-rule="nonzero"/></clipPath><clipPath id="c1d05db6f0"><path d="M 113.214844 137.636719 C 82.621094 137.636719 57.816406 164.726562 57.816406 198.148438 C 57.816406 231.566406 82.621094 258.660156 113.214844 258.660156 C 143.8125 258.660156 168.617188 231.566406 168.617188 198.148438 C 168.617188 164.726562 143.8125 137.636719 113.214844 137.636719 Z M 113.214844 137.636719 " clip-rule="nonzero"/></clipPath><clipPath id="ca4b89f167"><path d="M 101.152344 138.382812 L 211.953125 138.382812 L 211.953125 259.574219 L 101.152344 259.574219 Z M 101.152344 138.382812 " clip-rule="nonzero"/></clipPath><clipPath id="287d676da5"><path d="M 156.554688 138.382812 C 125.957031 138.382812 101.152344 165.476562 101.152344 198.894531 C 101.152344 232.316406 125.957031 259.410156 156.554688 259.410156 C 187.148438 259.410156 211.953125 232.316406 211.953125 198.894531 C 211.953125 165.476562 187.148438 138.382812 156.554688 138.382812 Z M 156.554688 138.382812 " clip-rule="nonzero"/></clipPath><clipPath id="bd479b4ce7"><path d="M 96.117188 180.21875 L 168.617188 180.21875 L 168.617188 259.515625 L 96.117188 259.515625 Z M 96.117188 180.21875 " clip-rule="nonzero"/></clipPath><clipPath id="b75a393840"><path d="M 132.367188 180.21875 C 112.347656 180.21875 96.117188 197.945312 96.117188 219.8125 C 96.117188 241.679688 112.347656 259.410156 132.367188 259.410156 C 152.386719 259.410156 168.617188 241.679688 168.617188 219.8125 C 168.617188 197.945312 152.386719 180.21875 132.367188 180.21875 Z M 132.367188 180.21875 " clip-rule="nonzero"/></clipPath></defs><g clip-path="url(#1c33b4d966)"><g clip-path="url(#c1d05db6f0)"><path fill="#004aad" d="M 57.816406 137.636719 L 168.617188 137.636719 L 168.617188 258.824219 L 57.816406 258.824219 Z M 57.816406 137.636719 " fill-opacity="1" fill-rule="nonzero"/></g></g><g clip-path="url(#ca4b89f167)"><g clip-path="url(#287d676da5)"><path fill="#004aad" d="M 101.152344 138.382812 L 211.953125 138.382812 L 211.953125 259.574219 L 101.152344 259.574219 Z M 101.152344 138.382812 " fill-opacity="1" fill-rule="nonzero"/></g></g><g clip-path="url(#bd479b4ce7)"><g clip-path="url(#b75a393840)"><path fill="#004aad" d="M 96.117188 180.21875 L 168.617188 180.21875 L 168.617188 259.515625 L 96.117188 259.515625 Z M 96.117188 180.21875 " fill-opacity="1" fill-rule="nonzero"/></g></g><path stroke-linecap="round" transform="matrix(0.303849, -0.684588, 0.684588, 0.303849, 136.656844, 135.649078)" fill="none" stroke-linejoin="miter" d="M 4.498227 4.501749 L 32.394919 4.501999 " stroke="#004aad" stroke-width="9" stroke-opacity="1" stroke-miterlimit="4"/></svg>