<svg xmlns="http://www.w3.org/2000/svg" width="361" zoomAndPan="magnify" viewBox="0 0 270.75 370.499989" height="494" preserveAspectRatio="xMidYMid meet" version="1.0"><defs><clipPath id="7c7f47e664"><path d="M 42.992188 247.605469 L 83.925781 247.605469 L 83.925781 268.507812 L 42.992188 268.507812 Z M 42.992188 247.605469 " clip-rule="nonzero"/></clipPath><clipPath id="95c5564862"><path d="M 63.460938 226.703125 L 104.394531 226.703125 L 104.394531 247.605469 L 63.460938 247.605469 Z M 63.460938 226.703125 " clip-rule="nonzero"/></clipPath><clipPath id="b27e5ca18b"><path d="M 82.847656 205.804688 L 123.78125 205.804688 L 123.78125 226.703125 L 82.847656 226.703125 Z M 82.847656 205.804688 " clip-rule="nonzero"/></clipPath><clipPath id="a9b43320b7"><path d="M 103.3125 184.902344 L 144.246094 184.902344 L 144.246094 205.804688 L 103.3125 205.804688 Z M 103.3125 184.902344 " clip-rule="nonzero"/></clipPath><clipPath id="74262a0092"><path d="M 125.523438 164 L 166.457031 164 L 166.457031 184.902344 L 125.523438 184.902344 Z M 125.523438 164 " clip-rule="nonzero"/></clipPath><clipPath id="47c59eda32"><path d="M 145.988281 143.097656 L 186.921875 143.097656 L 186.921875 164 L 145.988281 164 Z M 145.988281 143.097656 " clip-rule="nonzero"/></clipPath><clipPath id="b84b7cffac"><path d="M 165.375 122.195312 L 206.308594 122.195312 L 206.308594 143.097656 L 165.375 143.097656 Z M 165.375 122.195312 " clip-rule="nonzero"/></clipPath><clipPath id="70551a37a2"><path d="M 185.84375 101.292969 L 226.773438 101.292969 L 226.773438 122.195312 L 185.84375 122.195312 Z M 185.84375 101.292969 " clip-rule="nonzero"/></clipPath></defs><g clip-path="url(#7c7f47e664)"><path fill="#00bf63" d="M 42.992188 247.605469 L 83.898438 247.605469 L 83.898438 268.507812 L 42.992188 268.507812 Z M 42.992188 247.605469 " fill-opacity="1" fill-rule="nonzero"/></g><g clip-path="url(#95c5564862)"><path fill="#00bf63" d="M 63.460938 226.703125 L 104.367188 226.703125 L 104.367188 247.605469 L 63.460938 247.605469 Z M 63.460938 226.703125 " fill-opacity="1" fill-rule="nonzero"/></g><g clip-path="url(#b27e5ca18b)"><path fill="#00bf63" d="M 82.847656 205.804688 L 123.753906 205.804688 L 123.753906 226.703125 L 82.847656 226.703125 Z M 82.847656 205.804688 " fill-opacity="1" fill-rule="nonzero"/></g><g clip-path="url(#a9b43320b7)"><path fill="#00bf63" d="M 103.3125 184.902344 L 144.21875 184.902344 L 144.21875 205.804688 L 103.3125 205.804688 Z M 103.3125 184.902344 " fill-opacity="1" fill-rule="nonzero"/></g><g clip-path="url(#74262a0092)"><path fill="#00bf63" d="M 125.523438 164 L 166.429688 164 L 166.429688 184.902344 L 125.523438 184.902344 Z M 125.523438 164 " fill-opacity="1" fill-rule="nonzero"/></g><g clip-path="url(#47c59eda32)"><path fill="#00bf63" d="M 145.988281 143.097656 L 186.894531 143.097656 L 186.894531 164 L 145.988281 164 Z M 145.988281 143.097656 " fill-opacity="1" fill-rule="nonzero"/></g><g clip-path="url(#b84b7cffac)"><path fill="#00bf63" d="M 165.375 122.195312 L 206.28125 122.195312 L 206.28125 143.097656 L 165.375 143.097656 Z M 165.375 122.195312 " fill-opacity="1" fill-rule="nonzero"/></g><g clip-path="url(#70551a37a2)"><path fill="#00bf63" d="M 185.84375 101.292969 L 226.746094 101.292969 L 226.746094 122.195312 L 185.84375 122.195312 Z M 185.84375 101.292969 " fill-opacity="1" fill-rule="nonzero"/></g></svg>