<svg xmlns="http://www.w3.org/2000/svg" width="361" zoomAndPan="magnify" viewBox="0 0 270.75 370.499989" height="494" preserveAspectRatio="xMidYMid meet" version="1.0"><path stroke-linecap="round" transform="matrix(0.0809668, -0.7446, 0.7446, 0.0809668, 119.056183, 182.591124)" fill="none" stroke-linejoin="miter" d="M 3.998927 4.001359 L 133.682641 4.001264 " stroke="#ff3131" stroke-width="8" stroke-opacity="1" stroke-miterlimit="4"/><path stroke-linecap="round" transform="matrix(-0.107479, -0.741237, 0.741237, -0.107479, 144.941615, 183.345832)" fill="none" stroke-linejoin="miter" d="M 4.002323 4.000222 L 133.526158 3.999242 " stroke="#ff3131" stroke-width="8" stroke-opacity="1" stroke-miterlimit="4"/><path stroke-linecap="round" transform="matrix(0.360028, -0.656784, 0.656784, 0.360028, 145.281191, 181.475686)" fill="none" stroke-linejoin="miter" d="M 3.999032 3.999341 L 82.572424 4.000013 " stroke="#ff3131" stroke-width="8" stroke-opacity="1" stroke-miterlimit="4"/><path stroke-linecap="round" transform="matrix(-0.327524, -0.673582, 0.673582, -0.327524, 119.340018, 184.226758)" fill="none" stroke-linejoin="miter" d="M 4.000544 3.997897 L 80.416371 3.998876 " stroke="#ff3131" stroke-width="8" stroke-opacity="1" stroke-miterlimit="4"/><path stroke-linecap="round" transform="matrix(-0.0932876, -0.743157, 0.743157, -0.0932876, 102.304068, 213.189292)" fill="none" stroke-linejoin="miter" d="M 3.999887 3.998368 L 112.747273 3.9987 " stroke="#ff3131" stroke-width="8" stroke-opacity="1" stroke-miterlimit="4"/><path stroke-linecap="round" transform="matrix(0.132995, -0.737087, 0.737087, 0.132995, 160.47445, 212.286905)" fill="none" stroke-linejoin="miter" d="M 3.998877 3.997962 L 113.706246 4.002346 " stroke="#ff3131" stroke-width="8" stroke-opacity="1" stroke-miterlimit="4"/><path stroke-linecap="round" transform="matrix(0.566732, -0.489693, 0.489693, 0.566732, 161.46417, 210.550099)" fill="none" stroke-linejoin="miter" d="M 4.000575 4.00247 L 57.06117 4.00074 " stroke="#ff3131" stroke-width="8" stroke-opacity="1" stroke-miterlimit="4"/><path stroke-linecap="round" transform="matrix(-0.577199, -0.477311, 0.477311, -0.577199, 103.369177, 215.128251)" fill="none" stroke-linejoin="miter" d="M 4.000948 3.999309 L 58.643368 4.000314 " stroke="#ff3131" stroke-width="8" stroke-opacity="1" stroke-miterlimit="4"/><path stroke-linecap="round" transform="matrix(-0.335894, -0.669448, 0.669448, -0.335894, 119.35771, 289.723344)" fill="none" stroke-linejoin="miter" d="M 3.998942 3.998695 L 153.537359 4.002421 " stroke="#ff3131" stroke-width="8" stroke-opacity="1" stroke-miterlimit="4"/><path stroke-linecap="round" transform="matrix(0.233518, -0.711656, 0.711656, 0.233518, 160.576281, 287.445511)" fill="none" stroke-linejoin="miter" d="M 4.001541 3.997375 L 144.190323 3.99971 " stroke="#ff3131" stroke-width="8" stroke-opacity="1" stroke-miterlimit="4"/></svg>