<svg xmlns="http://www.w3.org/2000/svg" width="361" zoomAndPan="magnify" viewBox="0 0 270.75 370.499989" height="494" preserveAspectRatio="xMidYMid meet" version="1.0"><defs><clipPath id="bee05e5e75"><path d="M 0.0585938 5 L 240 5 L 240 352 L 0.0585938 352 Z M 0.0585938 5 " clip-rule="nonzero"/></clipPath><clipPath id="05db2852aa"><path d="M 106.292969 81.011719 L 140.691406 81.011719 L 140.691406 115.414062 L 106.292969 115.414062 Z M 106.292969 81.011719 " clip-rule="nonzero"/></clipPath><clipPath id="4ea453ed05"><path d="M 123.492188 81.011719 C 113.992188 81.011719 106.292969 88.714844 106.292969 98.214844 C 106.292969 107.710938 113.992188 115.414062 123.492188 115.414062 C 132.992188 115.414062 140.691406 107.710938 140.691406 98.214844 C 140.691406 88.714844 132.992188 81.011719 123.492188 81.011719 Z M 123.492188 81.011719 " clip-rule="nonzero"/></clipPath></defs><g clip-path="url(#bee05e5e75)"><path stroke-linecap="round" transform="matrix(0.138425, -0.736086, 0.736086, 0.138425, 82.14738, 233.815723)" fill="none" stroke-linejoin="miter" d="M 14.999141 15.00094 L 140.828251 15.001042 " stroke="#004aad" stroke-width="30" stroke-opacity="1" stroke-miterlimit="4"/></g><path stroke-linecap="round" transform="matrix(0.748989, 0.000000000000000793, -0.000000000000000793, 0.748989, 83.273409, 220.91295)" fill="none" stroke-linejoin="miter" d="M 9.997888 9.999336 L 97.391717 9.999336 " stroke="#004aad" stroke-width="20" stroke-opacity="1" stroke-miterlimit="4"/><path stroke-linecap="round" transform="matrix(0.250671, 0.705797, -0.705797, 0.250671, 164.762486, 219.415499)" fill="none" stroke-linejoin="miter" d="M 10.000246 10.000493 L 81.190115 10.002551 " stroke="#004aad" stroke-width="20" stroke-opacity="1" stroke-miterlimit="4"/><g clip-path="url(#05db2852aa)"><g clip-path="url(#4ea453ed05)"><path fill="#004aad" d="M 106.292969 81.011719 L 140.691406 81.011719 L 140.691406 115.414062 L 106.292969 115.414062 Z M 106.292969 81.011719 " fill-opacity="1" fill-rule="nonzero"/></g></g><path stroke-linecap="round" transform="matrix(0.519806, 0.539246, -0.539246, 0.519806, 118.232968, 119.624518)" fill="none" stroke-linejoin="miter" d="M 10.000273 9.999339 L 99.736343 10.000839 " stroke="#004aad" stroke-width="20" stroke-opacity="1" stroke-miterlimit="4"/></svg>