<svg xmlns="http://www.w3.org/2000/svg" width="361" zoomAndPan="magnify" viewBox="0 0 270.75 370.499989" height="494" preserveAspectRatio="xMidYMid meet" version="1.0"><defs><clipPath id="5bc1ba6dfc"><path d="M 133.375 160.320312 L 216.683594 160.320312 L 216.683594 276.824219 L 133.375 276.824219 Z M 133.375 160.320312 " clip-rule="nonzero"/></clipPath><clipPath id="f9f1b69a13"><path d="M 150.601562 160.320312 L 199.457031 160.320312 C 204.023438 160.320312 208.40625 162.136719 211.636719 165.367188 C 214.867188 168.597656 216.683594 172.980469 216.683594 177.546875 L 216.683594 259.363281 C 216.683594 263.929688 214.867188 268.3125 211.636719 271.542969 C 208.40625 274.773438 204.023438 276.589844 199.457031 276.589844 L 150.601562 276.589844 C 146.03125 276.589844 141.648438 274.773438 138.417969 271.542969 C 135.1875 268.3125 133.375 263.929688 133.375 259.363281 L 133.375 177.546875 C 133.375 172.980469 135.1875 168.597656 138.417969 165.367188 C 141.648438 162.136719 146.03125 160.320312 150.601562 160.320312 Z M 150.601562 160.320312 " clip-rule="nonzero"/></clipPath><clipPath id="35279a1182"><path d="M 87.3125 159.886719 L 204.011719 159.886719 L 204.011719 276.589844 L 87.3125 276.589844 Z M 87.3125 159.886719 " clip-rule="nonzero"/></clipPath><clipPath id="ff7410020e"><path d="M 145.664062 159.886719 C 113.433594 159.886719 87.3125 186.011719 87.3125 218.238281 C 87.3125 250.464844 113.433594 276.589844 145.664062 276.589844 C 177.890625 276.589844 204.011719 250.464844 204.011719 218.238281 C 204.011719 186.011719 177.890625 159.886719 145.664062 159.886719 Z M 145.664062 159.886719 " clip-rule="nonzero"/></clipPath><clipPath id="41cd9200db"><path d="M 47.03125 187.171875 L 80.125 187.171875 L 80.125 256.84375 L 47.03125 256.84375 Z M 47.03125 187.171875 " clip-rule="nonzero"/></clipPath><clipPath id="04ef3cadad"><path d="M 121 95 L 169 95 L 169 206 L 121 206 Z M 121 95 " clip-rule="nonzero"/></clipPath><clipPath id="8e24b083f2"><path d="M 138.21875 93.214844 L 171.535156 99.03125 L 152.464844 208.222656 L 119.148438 202.40625 Z M 138.21875 93.214844 " clip-rule="nonzero"/></clipPath><clipPath id="d21fc31372"><path d="M 154.875 96.125 C 164.074219 97.730469 170.230469 106.492188 168.625 115.691406 L 155.378906 191.539062 C 153.769531 200.738281 145.011719 206.894531 135.808594 205.285156 C 126.609375 203.679688 120.453125 194.917969 122.0625 185.71875 L 135.308594 109.871094 C 136.914062 100.671875 145.675781 94.515625 154.875 96.125 Z M 154.875 96.125 " clip-rule="nonzero"/></clipPath><clipPath id="5cb7bb82c5"><path d="M 186.8125 162.566406 L 221.214844 162.566406 L 221.214844 196.96875 L 186.8125 196.96875 Z M 186.8125 162.566406 " clip-rule="nonzero"/></clipPath><clipPath id="910b968542"><path d="M 204.015625 162.566406 C 194.515625 162.566406 186.8125 170.269531 186.8125 179.769531 C 186.8125 189.269531 194.515625 196.96875 204.015625 196.96875 C 213.511719 196.96875 221.214844 189.269531 221.214844 179.769531 C 221.214844 170.269531 213.511719 162.566406 204.015625 162.566406 Z M 204.015625 162.566406 " clip-rule="nonzero"/></clipPath><clipPath id="937e6aa498"><path d="M 188.335938 190.996094 L 222.738281 190.996094 L 222.738281 225.394531 L 188.335938 225.394531 Z M 188.335938 190.996094 " clip-rule="nonzero"/></clipPath><clipPath id="92d678334b"><path d="M 205.539062 190.996094 C 196.039062 190.996094 188.335938 198.695312 188.335938 208.195312 C 188.335938 217.695312 196.039062 225.394531 205.539062 225.394531 C 215.039062 225.394531 222.738281 217.695312 222.738281 208.195312 C 222.738281 198.695312 215.039062 190.996094 205.539062 190.996094 Z M 205.539062 190.996094 " clip-rule="nonzero"/></clipPath><clipPath id="1834f928c5"><path d="M 188.335938 215.910156 L 222.738281 215.910156 L 222.738281 250.3125 L 188.335938 250.3125 Z M 188.335938 215.910156 " clip-rule="nonzero"/></clipPath><clipPath id="22fd345a69"><path d="M 205.539062 215.910156 C 196.039062 215.910156 188.335938 223.613281 188.335938 233.113281 C 188.335938 242.613281 196.039062 250.3125 205.539062 250.3125 C 215.039062 250.3125 222.738281 242.613281 222.738281 233.113281 C 222.738281 223.613281 215.039062 215.910156 205.539062 215.910156 Z M 205.539062 215.910156 " clip-rule="nonzero"/></clipPath><clipPath id="678f146e23"><path d="M 188.335938 239.644531 L 222.738281 239.644531 L 222.738281 274.046875 L 188.335938 274.046875 Z M 188.335938 239.644531 " clip-rule="nonzero"/></clipPath><clipPath id="6cfda63cae"><path d="M 205.539062 239.644531 C 196.039062 239.644531 188.335938 247.34375 188.335938 256.84375 C 188.335938 266.34375 196.039062 274.046875 205.539062 274.046875 C 215.039062 274.046875 222.738281 266.34375 222.738281 256.84375 C 222.738281 247.34375 215.039062 239.644531 205.539062 239.644531 Z M 205.539062 239.644531 " clip-rule="nonzero"/></clipPath></defs><g clip-path="url(#5bc1ba6dfc)"><g clip-path="url(#f9f1b69a13)"><path fill="#00bf63" d="M 133.375 160.320312 L 216.683594 160.320312 L 216.683594 276.496094 L 133.375 276.496094 Z M 133.375 160.320312 " fill-opacity="1" fill-rule="nonzero"/></g></g><g clip-path="url(#35279a1182)"><g clip-path="url(#ff7410020e)"><path fill="#00bf63" d="M 87.3125 159.886719 L 204.011719 159.886719 L 204.011719 276.589844 L 87.3125 276.589844 Z M 87.3125 159.886719 " fill-opacity="1" fill-rule="nonzero"/></g></g><g clip-path="url(#41cd9200db)"><path fill="#00bf63" d="M 47.03125 187.171875 L 80.125 187.171875 L 80.125 256.851562 L 47.03125 256.851562 Z M 47.03125 187.171875 " fill-opacity="1" fill-rule="nonzero"/></g><g clip-path="url(#04ef3cadad)"><g clip-path="url(#8e24b083f2)"><g clip-path="url(#d21fc31372)"><path fill="#00bf63" d="M 138.21875 93.214844 L 171.535156 99.03125 L 152.464844 208.222656 L 119.148438 202.40625 Z M 138.21875 93.214844 " fill-opacity="1" fill-rule="nonzero"/></g></g></g><g clip-path="url(#5cb7bb82c5)"><g clip-path="url(#910b968542)"><path fill="#00bf63" d="M 186.8125 162.566406 L 221.214844 162.566406 L 221.214844 196.96875 L 186.8125 196.96875 Z M 186.8125 162.566406 " fill-opacity="1" fill-rule="nonzero"/></g></g><g clip-path="url(#937e6aa498)"><g clip-path="url(#92d678334b)"><path fill="#00bf63" d="M 188.335938 190.996094 L 222.738281 190.996094 L 222.738281 225.394531 L 188.335938 225.394531 Z M 188.335938 190.996094 " fill-opacity="1" fill-rule="nonzero"/></g></g><g clip-path="url(#1834f928c5)"><g clip-path="url(#22fd345a69)"><path fill="#00bf63" d="M 188.335938 215.910156 L 222.738281 215.910156 L 222.738281 250.3125 L 188.335938 250.3125 Z M 188.335938 215.910156 " fill-opacity="1" fill-rule="nonzero"/></g></g><g clip-path="url(#678f146e23)"><g clip-path="url(#6cfda63cae)"><path fill="#00bf63" d="M 188.335938 239.644531 L 222.738281 239.644531 L 222.738281 274.046875 L 188.335938 274.046875 Z M 188.335938 239.644531 " fill-opacity="1" fill-rule="nonzero"/></g></g></svg>