<svg xmlns="http://www.w3.org/2000/svg" width="361" zoomAndPan="magnify" viewBox="0 0 270.75 370.499989" height="494" preserveAspectRatio="xMidYMid meet" version="1.0"><defs><clipPath id="ef8d7a30ec"><path d="M 52.882812 104.125 L 214.4375 104.125 L 214.4375 265.679688 L 52.882812 265.679688 Z M 52.882812 104.125 " clip-rule="nonzero"/></clipPath><clipPath id="93806e8bfa"><path d="M 133.660156 104.125 L 149.339844 126.382812 L 174.050781 114.945312 L 176.5 142.0625 L 203.617188 144.511719 L 192.179688 169.21875 L 214.4375 184.902344 L 192.179688 200.582031 L 203.617188 225.289062 L 176.5 227.738281 L 174.050781 254.855469 L 149.339844 243.417969 L 133.660156 265.679688 L 117.980469 243.417969 L 93.273438 254.855469 L 90.820312 227.738281 L 63.707031 225.289062 L 75.140625 200.582031 L 52.882812 184.902344 L 75.140625 169.21875 L 63.707031 144.511719 L 90.820312 142.0625 L 93.273438 114.945312 L 117.980469 126.382812 Z M 133.660156 104.125 " clip-rule="nonzero"/></clipPath></defs><g clip-path="url(#ef8d7a30ec)"><g clip-path="url(#93806e8bfa)"><path fill="#ffde59" d="M 52.882812 104.125 L 214.4375 104.125 L 214.4375 265.679688 L 52.882812 265.679688 Z M 52.882812 104.125 " fill-opacity="1" fill-rule="nonzero"/></g></g></svg>