<svg xmlns="http://www.w3.org/2000/svg" width="361" zoomAndPan="magnify" viewBox="0 0 270.75 370.499989" height="494" preserveAspectRatio="xMidYMid meet" version="1.0"><defs><clipPath id="bd273df0c5"><path d="M 57.035156 67.109375 L 142.816406 67.109375 L 142.816406 152.890625 L 57.035156 152.890625 Z M 57.035156 67.109375 " clip-rule="nonzero"/></clipPath><clipPath id="9e67d7c66b"><path d="M 142.816406 110 C 142.816406 86.3125 123.613281 67.109375 99.925781 67.109375 C 76.238281 67.109375 57.035156 86.3125 57.035156 110 C 57.035156 133.6875 76.238281 152.890625 99.925781 152.890625 C 123.613281 152.890625 142.816406 133.6875 142.816406 110 Z M 142.816406 110 " clip-rule="nonzero"/></clipPath><clipPath id="577ac60aea"><path d="M 57.035156 216.90625 L 142.816406 216.90625 L 142.816406 302.691406 L 57.035156 302.691406 Z M 57.035156 216.90625 " clip-rule="nonzero"/></clipPath><clipPath id="9a5fe552e8"><path d="M 142.816406 259.796875 C 142.816406 236.109375 123.613281 216.90625 99.925781 216.90625 C 76.238281 216.90625 57.035156 236.109375 57.035156 259.796875 C 57.035156 283.488281 76.238281 302.691406 99.925781 302.691406 C 123.613281 302.691406 142.816406 283.488281 142.816406 259.796875 Z M 142.816406 259.796875 " clip-rule="nonzero"/></clipPath><clipPath id="bb6180e7a7"><path d="M 107 128 L 270.441406 128 L 270.441406 313 L 107 313 Z M 107 128 " clip-rule="nonzero"/></clipPath><clipPath id="bdfcea518f"><path d="M 91.609375 159.125 L 116.328125 159.125 L 116.328125 183.84375 L 91.609375 183.84375 Z M 91.609375 159.125 " clip-rule="nonzero"/></clipPath><clipPath id="2bdd086627"><path d="M 116.328125 171.601562 C 116.328125 164.710938 110.742188 159.125 103.851562 159.125 C 96.960938 159.125 91.375 164.710938 91.375 171.601562 C 91.375 178.492188 96.960938 184.074219 103.851562 184.074219 C 110.742188 184.074219 116.328125 178.492188 116.328125 171.601562 Z M 116.328125 171.601562 " clip-rule="nonzero"/></clipPath></defs><g clip-path="url(#bd273df0c5)"><g clip-path="url(#9e67d7c66b)"><path stroke-linecap="butt" transform="matrix(0, 0.748989, -0.748989, 0, 142.816811, 67.109194)" fill="none" stroke-linejoin="miter" d="M 57.264921 0.000540252 C 25.638963 0.000540252 0.000241271 25.639262 0.000241271 57.26522 C 0.000241271 88.891179 25.638963 114.529901 57.264921 114.529901 C 88.89088 114.529901 114.529602 88.891179 114.529602 57.26522 C 114.529602 25.639262 88.89088 0.000540252 57.264921 0.000540252 Z M 57.264921 0.000540252 " stroke="#00bf63" stroke-width="20" stroke-opacity="1" stroke-miterlimit="4"/></g></g><g clip-path="url(#577ac60aea)"><g clip-path="url(#9a5fe552e8)"><path stroke-linecap="butt" transform="matrix(0, 0.748989, -0.748989, 0, 142.816811, 216.907013)" fill="none" stroke-linejoin="miter" d="M 57.263662 0.000540252 C 25.637703 0.000540252 -0.00101856 25.639262 -0.00101856 57.26522 C -0.00101856 88.891179 25.637703 114.529901 57.263662 114.529901 C 88.894835 114.529901 114.533557 88.891179 114.533557 57.26522 C 114.533557 25.639262 88.894835 0.000540252 57.263662 0.000540252 Z M 57.263662 0.000540252 " stroke="#00bf63" stroke-width="20" stroke-opacity="1" stroke-miterlimit="4"/></g></g><path stroke-linecap="round" transform="matrix(0.649392, -0.373196, 0.373196, 0.649392, 101.24111, 254.573927)" fill="none" stroke-linejoin="miter" d="M 5.002831 4.998882 L 104.639111 4.999254 " stroke="#00bf63" stroke-width="10" stroke-opacity="1" stroke-miterlimit="4"/><path stroke-linecap="round" transform="matrix(0.668107, 0.338552, -0.338552, 0.668107, 102.563142, 178.751897)" fill="none" stroke-linejoin="miter" d="M 5 4.999945 L 107.880494 5.002401 " stroke="#00bf63" stroke-width="10" stroke-opacity="1" stroke-miterlimit="4"/><path stroke-linecap="round" transform="matrix(0, -0.748989, 0.748989, 0, 100.866944, 259.79605)" fill="none" stroke-linejoin="miter" d="M 5.000431 5.001858 L 98.308481 5.001858 " stroke="#00bf63" stroke-width="10" stroke-opacity="1" stroke-miterlimit="4"/><path stroke-linecap="round" transform="matrix(0.0871527, -0.743901, 0.743901, 0.0871527, 169.774935, 219.431063)" fill="none" stroke-linejoin="miter" d="M 4.998438 4.999488 L 103.544768 5.001184 " stroke="#00bf63" stroke-width="10" stroke-opacity="1" stroke-miterlimit="4"/><path stroke-linecap="round" transform="matrix(0.718287, 0.212247, -0.212247, 0.718287, 98.741536, 108.175963)" fill="none" stroke-linejoin="miter" d="M 5.001985 4.998709 L 149.307165 4.999584 " stroke="#00bf63" stroke-width="10" stroke-opacity="1" stroke-miterlimit="4"/><g clip-path="url(#bb6180e7a7)"><path stroke-linecap="round" transform="matrix(0.125427, -0.738412, 0.738412, 0.125427, 183.78583, 233.752146)" fill="none" stroke-linejoin="miter" d="M 10.001928 10.001779 L 29.818255 10.000247 " stroke="#00bf63" stroke-width="20" stroke-opacity="1" stroke-miterlimit="4"/></g><g clip-path="url(#bdfcea518f)"><g clip-path="url(#2bdd086627)"><path stroke-linecap="butt" transform="matrix(0, 0.748989, -0.748989, 0, 116.327032, 159.125322)" fill="none" stroke-linejoin="miter" d="M 16.657438 -0.00145947 C 7.457538 -0.00145947 -0.000430187 7.456509 -0.000430187 16.656408 C -0.000430187 25.856308 7.457538 33.314276 16.657438 33.314276 C 25.857337 33.314276 33.31009 25.856308 33.31009 16.656408 C 33.31009 7.456509 25.857337 -0.00145947 16.657438 -0.00145947 Z M 16.657438 -0.00145947 " stroke="#00bf63" stroke-width="12" stroke-opacity="1" stroke-miterlimit="4"/></g></g><path stroke-linecap="round" transform="matrix(0.675333, -0.323899, 0.323899, 0.675333, 111.723608, 166.741212)" fill="none" stroke-linejoin="miter" d="M 4.997844 5.001361 L 95.683701 4.998446 " stroke="#00bf63" stroke-width="10" stroke-opacity="1" stroke-miterlimit="4"/></svg>