<svg xmlns="http://www.w3.org/2000/svg" width="361" zoomAndPan="magnify" viewBox="0 0 270.75 370.499989" height="494" preserveAspectRatio="xMidYMid meet" version="1.0"><defs><clipPath id="634c1d6d0e"><path d="M 95.523438 154.386719 L 207.523438 154.386719 L 207.523438 205.769531 L 95.523438 205.769531 Z M 95.523438 154.386719 " clip-rule="nonzero"/></clipPath><clipPath id="fdde666820"><path d="M 112.75 154.386719 L 190.222656 154.386719 C 194.792969 154.386719 199.175781 156.203125 202.40625 159.433594 C 205.636719 162.664062 207.449219 167.046875 207.449219 171.613281 L 207.449219 188.542969 C 207.449219 193.113281 205.636719 197.496094 202.40625 200.726562 C 199.175781 203.957031 194.792969 205.769531 190.222656 205.769531 L 112.75 205.769531 C 108.183594 205.769531 103.800781 203.957031 100.570312 200.726562 C 97.339844 197.496094 95.523438 193.113281 95.523438 188.542969 L 95.523438 171.613281 C 95.523438 167.046875 97.339844 162.664062 100.570312 159.433594 C 103.800781 156.203125 108.183594 154.386719 112.75 154.386719 Z M 112.75 154.386719 " clip-rule="nonzero"/></clipPath><clipPath id="29c1083f90"><path d="M 102.054688 164.792969 L 126.003906 164.792969 L 126.003906 262.371094 L 102.054688 262.371094 Z M 102.054688 164.792969 " clip-rule="nonzero"/></clipPath><clipPath id="9820028c36"><path d="M 102.054688 192.917969 L 102.054688 262.371094 L 126.003906 262.371094 L 126.003906 192.917969 L 114.027344 164.828125 Z M 102.054688 192.917969 " clip-rule="nonzero"/></clipPath><clipPath id="9c7f23c450"><path d="M 89 154 L 128 154 L 128 204 L 89 204 Z M 89 154 " clip-rule="nonzero"/></clipPath><clipPath id="b21b39b067"><path d="M 101.335938 211.089844 L 82.167969 165.296875 L 108.335938 154.34375 L 127.503906 200.140625 Z M 101.335938 211.089844 " clip-rule="nonzero"/></clipPath><clipPath id="d02fa47fa4"><path d="M 96.355469 195.242188 C 94.527344 193.261719 92.851562 190.820312 91.753906 188.203125 C 90.660156 185.585938 90.082031 182.867188 89.960938 180.191406 C 89.96875 180.128906 89.945312 180.082031 89.953125 180.019531 C 89.703125 169.882812 95.992188 159.703125 105.679688 155.503906 L 108.355469 154.386719 L 127.503906 200.140625 L 124.832031 201.257812 C 114.984375 205.234375 103.363281 202.667969 96.355469 195.242188 Z M 96.355469 195.242188 " clip-rule="nonzero"/></clipPath><clipPath id="4cb9e6287f"><path d="M 52.152344 118.910156 L 100.972656 118.910156 L 100.972656 167.730469 L 52.152344 167.730469 Z M 52.152344 118.910156 " clip-rule="nonzero"/></clipPath><clipPath id="5548d56011"><path d="M 76.5625 118.910156 C 63.082031 118.910156 52.152344 129.839844 52.152344 143.320312 C 52.152344 156.800781 63.082031 167.730469 76.5625 167.730469 C 90.042969 167.730469 100.972656 156.800781 100.972656 143.320312 C 100.972656 129.839844 90.042969 118.910156 76.5625 118.910156 Z M 76.5625 118.910156 " clip-rule="nonzero"/></clipPath><clipPath id="6cc13e88a8"><path d="M 39 135 L 95 135 L 95 173 L 39 173 Z M 39 135 " clip-rule="nonzero"/></clipPath><clipPath id="8c313dc9b4"><path d="M 39.136719 154.300781 L 92.804688 135.472656 L 101.847656 161.25 L 48.179688 180.078125 Z M 39.136719 154.300781 " clip-rule="nonzero"/></clipPath><clipPath id="78728ee611"><path d="M 65.519531 172.257812 C 68.59375 172.226562 71.933594 171.742188 75.003906 170.667969 C 78.070312 169.589844 80.835938 168.03125 83.226562 166.140625 C 83.273438 166.09375 83.332031 166.070312 83.378906 166.023438 C 92.28125 158.699219 96.339844 146.1875 92.75 135.492188 L 39.136719 154.300781 C 43.039062 164.953125 53.910156 172.230469 65.519531 172.257812 Z M 65.519531 172.257812 " clip-rule="nonzero"/></clipPath><clipPath id="defbbce3e7"><path d="M 56 106 L 112 106 L 112 163 L 56 163 Z M 56 106 " clip-rule="nonzero"/></clipPath><clipPath id="8ac1e8a37f"><path d="M 56.089844 140.53125 L 96.253906 106.601562 L 121.652344 136.664062 L 81.484375 170.59375 Z M 56.089844 140.53125 " clip-rule="nonzero"/></clipPath><clipPath id="8b46fee9c9"><path d="M 91.507812 162.128906 L 111.550781 145.199219 L 96.175781 106.667969 L 56.089844 140.53125 Z M 91.507812 162.128906 " clip-rule="nonzero"/></clipPath><clipPath id="582ce8ca73"><path d="M 178.253906 165.542969 L 202.207031 165.542969 L 202.207031 263.121094 L 178.253906 263.121094 Z M 178.253906 165.542969 " clip-rule="nonzero"/></clipPath><clipPath id="42585e66f7"><path d="M 178.253906 193.667969 L 178.253906 263.121094 L 202.207031 263.121094 L 202.207031 193.667969 L 190.230469 165.578125 Z M 178.253906 193.667969 " clip-rule="nonzero"/></clipPath></defs><g clip-path="url(#634c1d6d0e)"><g clip-path="url(#fdde666820)"><path fill="#ffde59" d="M 95.523438 154.386719 L 207.523438 154.386719 L 207.523438 205.769531 L 95.523438 205.769531 Z M 95.523438 154.386719 " fill-opacity="1" fill-rule="nonzero"/></g></g><g clip-path="url(#29c1083f90)"><g clip-path="url(#9820028c36)"><path fill="#ffde59" d="M 102.054688 262.371094 L 102.054688 164.792969 L 126.003906 164.792969 L 126.003906 262.371094 Z M 102.054688 262.371094 " fill-opacity="1" fill-rule="nonzero"/></g></g><g clip-path="url(#9c7f23c450)"><g clip-path="url(#b21b39b067)"><g clip-path="url(#d02fa47fa4)"><path fill="#ffde59" d="M 101.335938 211.089844 L 82.167969 165.296875 L 108.335938 154.34375 L 127.503906 200.140625 Z M 101.335938 211.089844 " fill-opacity="1" fill-rule="nonzero"/></g></g></g><g clip-path="url(#4cb9e6287f)"><g clip-path="url(#5548d56011)"><path fill="#ffde59" d="M 52.152344 118.910156 L 100.972656 118.910156 L 100.972656 167.730469 L 52.152344 167.730469 Z M 52.152344 118.910156 " fill-opacity="1" fill-rule="nonzero"/></g></g><g clip-path="url(#6cc13e88a8)"><g clip-path="url(#8c313dc9b4)"><g clip-path="url(#78728ee611)"><path fill="#ffde59" d="M 39.136719 154.300781 L 92.703125 135.507812 L 101.746094 161.285156 L 48.179688 180.078125 Z M 39.136719 154.300781 " fill-opacity="1" fill-rule="nonzero"/></g></g></g><g clip-path="url(#defbbce3e7)"><g clip-path="url(#8ac1e8a37f)"><g clip-path="url(#8b46fee9c9)"><path fill="#ffde59" d="M 56.089844 140.53125 L 96.136719 106.699219 L 121.53125 136.765625 L 81.484375 170.59375 Z M 56.089844 140.53125 " fill-opacity="1" fill-rule="nonzero"/></g></g></g><g clip-path="url(#582ce8ca73)"><g clip-path="url(#42585e66f7)"><path fill="#ffde59" d="M 178.253906 263.121094 L 178.253906 165.542969 L 202.207031 165.542969 L 202.207031 263.121094 Z M 178.253906 263.121094 " fill-opacity="1" fill-rule="nonzero"/></g></g></svg>