<svg xmlns="http://www.w3.org/2000/svg" width="361" zoomAndPan="magnify" viewBox="0 0 270.75 370.499989" height="494" preserveAspectRatio="xMidYMid meet" version="1.0"><defs><clipPath id="5a39293c4d"><path d="M 105.859375 94.984375 L 204.941406 94.984375 L 204.941406 192.917969 L 105.859375 192.917969 Z M 105.859375 94.984375 " clip-rule="nonzero"/></clipPath><clipPath id="55c7670da4"><path d="M 136.183594 94.984375 L 204.585938 94.984375 L 174.261719 192.917969 L 105.859375 192.917969 Z M 136.183594 94.984375 " clip-rule="nonzero"/></clipPath><clipPath id="cadf50bdb6"><path d="M 65.183594 171.121094 L 167.082031 171.121094 L 167.082031 192.917969 L 65.183594 192.917969 Z M 65.183594 171.121094 " clip-rule="nonzero"/></clipPath></defs><g clip-path="url(#5a39293c4d)"><g clip-path="url(#55c7670da4)"><path fill="#ff3131" d="M 105.859375 94.984375 L 204.558594 94.984375 L 204.558594 192.917969 L 105.859375 192.917969 Z M 105.859375 94.984375 " fill-opacity="1" fill-rule="nonzero"/></g></g><g clip-path="url(#cadf50bdb6)"><path fill="#ff3131" d="M 65.183594 171.121094 L 167.097656 171.121094 L 167.097656 192.917969 L 65.183594 192.917969 Z M 65.183594 171.121094 " fill-opacity="1" fill-rule="nonzero"/></g><path stroke-linecap="round" transform="matrix(0.00000000130723, 0.748989, -0.748989, 0.00000000130723, 84.013592, 182.021073)" fill="none" stroke-linejoin="miter" d="M 6.000824 6.000169 L 117.844273 6.000169 " stroke="#ff3131" stroke-width="12" stroke-opacity="1" stroke-miterlimit="4"/><path stroke-linecap="round" transform="matrix(0.00000000130723, 0.748989, -0.748989, 0.00000000130723, 173.445451, 181.985965)" fill="none" stroke-linejoin="miter" d="M 6.00076 5.997852 L 117.948516 5.997852 " stroke="#ff3131" stroke-width="12" stroke-opacity="1" stroke-miterlimit="4"/><path stroke-linecap="round" transform="matrix(0, 0.748989, -0.748989, 0, 139.54329, 182.021073)" fill="none" stroke-linejoin="miter" d="M 6.000824 5.998095 L 117.844273 5.998095 " stroke="#ff3131" stroke-width="12" stroke-opacity="1" stroke-miterlimit="4"/></svg>