<svg xmlns="http://www.w3.org/2000/svg" width="361" zoomAndPan="magnify" viewBox="0 0 270.75 370.499989" height="494" preserveAspectRatio="xMidYMid meet" version="1.0"><defs><clipPath id="2c503c022e"><path d="M 73.484375 86.996094 L 185.996094 86.996094 L 185.996094 185.300781 L 73.484375 185.300781 Z M 73.484375 86.996094 " clip-rule="nonzero"/></clipPath><clipPath id="6ca0f6e94c"><path d="M 129.660156 86.996094 L 185.832031 185.300781 L 73.484375 185.300781 Z M 129.660156 86.996094 " clip-rule="nonzero"/></clipPath><clipPath id="ab31582fb2"><path d="M 62.40625 116.832031 L 197 116.832031 L 197 234.523438 L 62.40625 234.523438 Z M 62.40625 116.832031 " clip-rule="nonzero"/></clipPath><clipPath id="1d1aa6acf2"><path d="M 129.660156 116.832031 L 196.910156 234.523438 L 62.40625 234.523438 Z M 129.660156 116.832031 " clip-rule="nonzero"/></clipPath><clipPath id="8a4bbad946"><path d="M 51.328125 145.726562 L 208 145.726562 L 208 282.804688 L 51.328125 282.804688 Z M 51.328125 145.726562 " clip-rule="nonzero"/></clipPath><clipPath id="46f6a976eb"><path d="M 129.660156 145.726562 L 207.988281 282.804688 L 51.328125 282.804688 Z M 129.660156 145.726562 " clip-rule="nonzero"/></clipPath></defs><g clip-path="url(#2c503c022e)"><g clip-path="url(#6ca0f6e94c)"><path fill="#00bf63" d="M 73.484375 86.996094 L 185.996094 86.996094 L 185.996094 185.300781 L 73.484375 185.300781 Z M 73.484375 86.996094 " fill-opacity="1" fill-rule="nonzero"/></g></g><g clip-path="url(#ab31582fb2)"><g clip-path="url(#1d1aa6acf2)"><path fill="#00bf63" d="M 62.40625 116.832031 L 197.109375 116.832031 L 197.109375 234.523438 L 62.40625 234.523438 Z M 62.40625 116.832031 " fill-opacity="1" fill-rule="nonzero"/></g></g><g clip-path="url(#8a4bbad946)"><g clip-path="url(#46f6a976eb)"><path fill="#00bf63" d="M 51.328125 145.726562 L 208.21875 145.726562 L 208.21875 282.804688 L 51.328125 282.804688 Z M 51.328125 145.726562 " fill-opacity="1" fill-rule="nonzero"/></g></g></svg>