<svg xmlns="http://www.w3.org/2000/svg" xmlns:xlink="http://www.w3.org/1999/xlink" width="361" zoomAndPan="magnify" viewBox="0 0 270.75 370.499989" height="494" preserveAspectRatio="xMidYMid meet" version="1.0"><defs><clipPath id="dc93b871a6"><path d="M 0.0585938 0 L 270.441406 0 L 270.441406 370 L 0.0585938 370 Z M 0.0585938 0 " clip-rule="nonzero"/></clipPath><clipPath id="466a790cf7"><path d="M 67 53 L 270.441406 53 L 270.441406 353 L 67 353 Z M 67 53 " clip-rule="nonzero"/></clipPath><clipPath id="a0f46f48f3"><path d="M 151.972656 93.667969 L 187.679688 93.667969 L 187.679688 129.375 L 151.972656 129.375 Z M 151.972656 93.667969 " clip-rule="nonzero"/></clipPath><clipPath id="583574880b"><path d="M 169.824219 93.667969 C 159.964844 93.667969 151.972656 101.660156 151.972656 111.523438 C 151.972656 121.382812 159.964844 129.375 169.824219 129.375 C 179.683594 129.375 187.679688 121.382812 187.679688 111.523438 C 187.679688 101.660156 179.683594 93.667969 169.824219 93.667969 Z M 169.824219 93.667969 " clip-rule="nonzero"/></clipPath><clipPath id="407a7cb697"><path d="M 0.0585938 85 L 249 85 L 249 347 L 0.0585938 347 Z M 0.0585938 85 " clip-rule="nonzero"/></clipPath><clipPath id="9b8c7ff59b"><path d="M 0.0585938 87 L 210 87 L 210 370 L 0.0585938 370 Z M 0.0585938 87 " clip-rule="nonzero"/></clipPath></defs><g clip-path="url(#dc93b871a6)"><path stroke-linecap="round" transform="matrix(0.138425, -0.736086, 0.736086, 0.138425, 133.532154, 252.326315)" fill="none" stroke-linejoin="miter" d="M 19.997747 20.001855 L 135.828203 19.99835 " stroke="#0097b2" stroke-width="40" stroke-opacity="1" stroke-miterlimit="4"/></g><path stroke-linecap="round" transform="matrix(0.748989, 0, 0, 0.748989, 42.659859, 232.625736)" fill="none" stroke-linejoin="miter" d="M 14.99978 14.9984 L 137.357399 14.9984 " stroke="#0097b2" stroke-width="30" stroke-opacity="1" stroke-miterlimit="4"/><g clip-path="url(#466a790cf7)"><path stroke-linecap="round" transform="matrix(0.319103, 0.677612, -0.677612, 0.319103, 178.2179, 147.291864)" fill="none" stroke-linejoin="miter" d="M 12.500031 12.497431 L 140.711615 12.501117 " stroke="#0097b2" stroke-width="25" stroke-opacity="1" stroke-miterlimit="4"/></g><g clip-path="url(#a0f46f48f3)"><g clip-path="url(#583574880b)"><path fill="#0097b2" d="M 151.972656 93.667969 L 187.679688 93.667969 L 187.679688 129.375 L 151.972656 129.375 Z M 151.972656 93.667969 " fill-opacity="1" fill-rule="nonzero"/></g></g><g clip-path="url(#407a7cb697)"><path stroke-linecap="round" transform="matrix(0.450543, 0.598328, -0.598328, 0.450543, 107.119043, 177.942782)" fill="none" stroke-linejoin="miter" d="M 12.502469 12.498999 L 95.512414 12.500789 " stroke="#0097b2" stroke-width="25" stroke-opacity="1" stroke-miterlimit="4"/></g><g clip-path="url(#9b8c7ff59b)"><path stroke-linecap="round" transform="matrix(0.0348117, -0.74818, 0.74818, 0.0348117, 90.284329, 275.25741)" fill="none" stroke-linejoin="miter" d="M 12.500534 12.498092 L 109.402489 12.500336 " stroke="#0097b2" stroke-width="25" stroke-opacity="1" stroke-miterlimit="4"/></g></svg>