<svg xmlns="http://www.w3.org/2000/svg" xmlns:xlink="http://www.w3.org/1999/xlink" width="361" zoomAndPan="magnify" viewBox="0 0 270.75 370.499989" height="494" preserveAspectRatio="xMidYMid meet" version="1.0"><defs><clipPath id="4255d98b7a"><path d="M 133.375 98.671875 L 216.683594 98.671875 L 216.683594 215 L 133.375 215 Z M 133.375 98.671875 " clip-rule="nonzero"/></clipPath><clipPath id="4912b0144f"><path d="M 150.601562 98.671875 L 199.457031 98.671875 C 204.023438 98.671875 208.40625 100.484375 211.636719 103.71875 C 214.867188 106.949219 216.683594 111.328125 216.683594 115.898438 L 216.683594 197.710938 C 216.683594 202.28125 214.867188 206.664062 211.636719 209.894531 C 208.40625 213.125 204.023438 214.9375 199.457031 214.9375 L 150.601562 214.9375 C 146.03125 214.9375 141.648438 213.125 138.417969 209.894531 C 135.1875 206.664062 133.375 202.28125 133.375 197.710938 L 133.375 115.898438 C 133.375 111.328125 135.1875 106.949219 138.417969 103.71875 C 141.648438 100.484375 146.03125 98.671875 150.601562 98.671875 Z M 150.601562 98.671875 " clip-rule="nonzero"/></clipPath><clipPath id="0e0e50e2b9"><path d="M 87.3125 98.234375 L 204.011719 98.234375 L 204.011719 214.9375 L 87.3125 214.9375 Z M 87.3125 98.234375 " clip-rule="nonzero"/></clipPath><clipPath id="2aa60be399"><path d="M 145.664062 98.234375 C 113.433594 98.234375 87.3125 124.359375 87.3125 156.585938 C 87.3125 188.8125 113.433594 214.9375 145.664062 214.9375 C 177.890625 214.9375 204.011719 188.8125 204.011719 156.585938 C 204.011719 124.359375 177.890625 98.234375 145.664062 98.234375 Z M 145.664062 98.234375 " clip-rule="nonzero"/></clipPath><clipPath id="c302dbaa71"><path d="M 47.03125 125.523438 L 80.125 125.523438 L 80.125 195.195312 L 47.03125 195.195312 Z M 47.03125 125.523438 " clip-rule="nonzero"/></clipPath><clipPath id="71ad0b5100"><path d="M 112 162 L 179 162 L 179 267 L 112 267 Z M 112 162 " clip-rule="nonzero"/></clipPath><clipPath id="fc8b4bd12b"><path d="M 107.011719 171.03125 L 137.695312 156.800781 L 184.324219 257.359375 L 153.640625 271.589844 Z M 107.011719 171.03125 " clip-rule="nonzero"/></clipPath><clipPath id="da7f99e888"><path d="M 122.351562 163.917969 C 130.824219 159.988281 140.878906 163.671875 144.808594 172.144531 L 177.199219 241.996094 C 181.125 250.46875 177.441406 260.519531 168.96875 264.449219 C 160.496094 268.378906 150.445312 264.695312 146.515625 256.222656 L 114.125 186.371094 C 110.195312 177.898438 113.878906 167.84375 122.351562 163.917969 Z M 122.351562 163.917969 " clip-rule="nonzero"/></clipPath><clipPath id="2f3bd10b0c"><path d="M 186.8125 100.917969 L 221.214844 100.917969 L 221.214844 135.320312 L 186.8125 135.320312 Z M 186.8125 100.917969 " clip-rule="nonzero"/></clipPath><clipPath id="103ea28638"><path d="M 204.015625 100.917969 C 194.515625 100.917969 186.8125 108.621094 186.8125 118.117188 C 186.8125 127.617188 194.515625 135.320312 204.015625 135.320312 C 213.511719 135.320312 221.214844 127.617188 221.214844 118.117188 C 221.214844 108.621094 213.511719 100.917969 204.015625 100.917969 Z M 204.015625 100.917969 " clip-rule="nonzero"/></clipPath><clipPath id="774a1e3504"><path d="M 188.335938 129.34375 L 222.738281 129.34375 L 222.738281 163.746094 L 188.335938 163.746094 Z M 188.335938 129.34375 " clip-rule="nonzero"/></clipPath><clipPath id="c4811c50b7"><path d="M 205.539062 129.34375 C 196.039062 129.34375 188.335938 137.046875 188.335938 146.546875 C 188.335938 156.046875 196.039062 163.746094 205.539062 163.746094 C 215.039062 163.746094 222.738281 156.046875 222.738281 146.546875 C 222.738281 137.046875 215.039062 129.34375 205.539062 129.34375 Z M 205.539062 129.34375 " clip-rule="nonzero"/></clipPath><clipPath id="ea9e82a392"><path d="M 188.335938 154.261719 L 222.738281 154.261719 L 222.738281 188.664062 L 188.335938 188.664062 Z M 188.335938 154.261719 " clip-rule="nonzero"/></clipPath><clipPath id="385e5982d9"><path d="M 205.539062 154.261719 C 196.039062 154.261719 188.335938 161.960938 188.335938 171.460938 C 188.335938 180.960938 196.039062 188.664062 205.539062 188.664062 C 215.039062 188.664062 222.738281 180.960938 222.738281 171.460938 C 222.738281 161.960938 215.039062 154.261719 205.539062 154.261719 Z M 205.539062 154.261719 " clip-rule="nonzero"/></clipPath><clipPath id="de725a0bd3"><path d="M 188.335938 177.996094 L 222.738281 177.996094 L 222.738281 212.394531 L 188.335938 212.394531 Z M 188.335938 177.996094 " clip-rule="nonzero"/></clipPath><clipPath id="e54743f63c"><path d="M 205.539062 177.996094 C 196.039062 177.996094 188.335938 185.695312 188.335938 195.195312 C 188.335938 204.695312 196.039062 212.394531 205.539062 212.394531 C 215.039062 212.394531 222.738281 204.695312 222.738281 195.195312 C 222.738281 185.695312 215.039062 177.996094 205.539062 177.996094 Z M 205.539062 177.996094 " clip-rule="nonzero"/></clipPath></defs><g clip-path="url(#4255d98b7a)"><g clip-path="url(#4912b0144f)"><path fill="#ff3131" d="M 133.375 98.671875 L 216.683594 98.671875 L 216.683594 214.847656 L 133.375 214.847656 Z M 133.375 98.671875 " fill-opacity="1" fill-rule="nonzero"/></g></g><g clip-path="url(#0e0e50e2b9)"><g clip-path="url(#2aa60be399)"><path fill="#ff3131" d="M 87.3125 98.234375 L 204.011719 98.234375 L 204.011719 214.9375 L 87.3125 214.9375 Z M 87.3125 98.234375 " fill-opacity="1" fill-rule="nonzero"/></g></g><g clip-path="url(#c302dbaa71)"><path fill="#ff3131" d="M 47.03125 125.523438 L 80.125 125.523438 L 80.125 195.203125 L 47.03125 195.203125 Z M 47.03125 125.523438 " fill-opacity="1" fill-rule="nonzero"/></g><g clip-path="url(#71ad0b5100)"><g clip-path="url(#fc8b4bd12b)"><g clip-path="url(#da7f99e888)"><path fill="#ff3131" d="M 107.011719 171.03125 L 137.695312 156.800781 L 184.324219 257.359375 L 153.640625 271.589844 Z M 107.011719 171.03125 " fill-opacity="1" fill-rule="nonzero"/></g></g></g><g clip-path="url(#2f3bd10b0c)"><g clip-path="url(#103ea28638)"><path fill="#ff3131" d="M 186.8125 100.917969 L 221.214844 100.917969 L 221.214844 135.320312 L 186.8125 135.320312 Z M 186.8125 100.917969 " fill-opacity="1" fill-rule="nonzero"/></g></g><g clip-path="url(#774a1e3504)"><g clip-path="url(#c4811c50b7)"><path fill="#ff3131" d="M 188.335938 129.34375 L 222.738281 129.34375 L 222.738281 163.746094 L 188.335938 163.746094 Z M 188.335938 129.34375 " fill-opacity="1" fill-rule="nonzero"/></g></g><g clip-path="url(#ea9e82a392)"><g clip-path="url(#385e5982d9)"><path fill="#ff3131" d="M 188.335938 154.261719 L 222.738281 154.261719 L 222.738281 188.664062 L 188.335938 188.664062 Z M 188.335938 154.261719 " fill-opacity="1" fill-rule="nonzero"/></g></g><g clip-path="url(#de725a0bd3)"><g clip-path="url(#e54743f63c)"><path fill="#ff3131" d="M 188.335938 177.996094 L 222.738281 177.996094 L 222.738281 212.394531 L 188.335938 212.394531 Z M 188.335938 177.996094 " fill-opacity="1" fill-rule="nonzero"/></g></g></svg>