<svg xmlns="http://www.w3.org/2000/svg" xmlns:xlink="http://www.w3.org/1999/xlink" width="361" zoomAndPan="magnify" viewBox="0 0 270.75 370.499989" height="494" preserveAspectRatio="xMidYMid meet" version="1.0"><defs><filter x="0%" y="0%" width="100%" height="100%" id="ff471e35c5"><feColorMatrix values="0 0 0 0 1 0 0 0 0 1 0 0 0 0 1 0 0 0 1 0" color-interpolation-filters="sRGB"/></filter><clipPath id="08545fbb50"><path d="M 0.0585938 0 L 270 0 L 270 370 L 0.0585938 370 Z M 0.0585938 0 " clip-rule="nonzero"/></clipPath><mask id="e664884594"><g filter="url(#ff471e35c5)"><rect x="-27.075" width="324.9" fill="#000000" y="-37.049999" height="444.599987" fill-opacity="0.1"/></g></mask><clipPath id="148729dea1"><path d="M 0.0585938 0 L 269.710938 0 L 269.710938 370 L 0.0585938 370 Z M 0.0585938 0 " clip-rule="nonzero"/></clipPath><clipPath id="ebd2ec46c5"><path d="M 17.285156 0 L 252.484375 0 C 257.054688 0 261.433594 1.816406 264.664062 5.046875 C 267.898438 8.277344 269.710938 12.65625 269.710938 17.226562 L 269.710938 352.574219 C 269.710938 357.144531 267.898438 361.523438 264.664062 364.757812 C 261.433594 367.988281 257.054688 369.800781 252.484375 369.800781 L 17.285156 369.800781 C 12.714844 369.800781 8.332031 367.988281 5.101562 364.757812 C 1.871094 361.523438 0.0585938 357.144531 0.0585938 352.574219 L 0.0585938 17.226562 C 0.0585938 12.65625 1.871094 8.277344 5.101562 5.046875 C 8.332031 1.816406 12.714844 0 17.285156 0 Z M 17.285156 0 " clip-rule="nonzero"/></clipPath><clipPath id="de5a5a6f4a"><rect x="0" width="270" y="0" height="370"/></clipPath><clipPath id="1dcfc09ee1"><path d="M 45.046875 99.273438 L 224.71875 99.273438 L 224.71875 270.523438 L 45.046875 270.523438 Z M 45.046875 99.273438 " clip-rule="nonzero"/></clipPath><clipPath id="d99b0b9f6a"><path d="M 134.882812 99.273438 L 156.089844 164.683594 L 224.71875 164.683594 L 169.199219 205.109375 L 190.40625 270.523438 L 134.882812 230.097656 L 79.363281 270.523438 L 100.570312 205.109375 L 45.046875 164.683594 L 113.675781 164.683594 Z M 134.882812 99.273438 " clip-rule="nonzero"/></clipPath></defs><g clip-path="url(#08545fbb50)"><g mask="url(#e664884594)"><g><g clip-path="url(#de5a5a6f4a)"><g clip-path="url(#148729dea1)"><g clip-path="url(#ebd2ec46c5)"><path fill="#919191" d="M 0.0585938 0 L 269.710938 0 L 269.710938 369.722656 L 0.0585938 369.722656 Z M 0.0585938 0 " fill-opacity="1" fill-rule="nonzero"/></g></g></g></g></g></g><g clip-path="url(#1dcfc09ee1)"><g clip-path="url(#d99b0b9f6a)"><path stroke-linecap="butt" transform="matrix(0.748989, 0, 0, 0.748989, 45.047785, 99.273188)" fill="none" stroke-linejoin="miter" d="M 119.9417 0.000332858 L 148.255905 87.331583 L 239.884614 87.331583 L 165.758662 141.305373 L 194.072867 228.641839 L 119.9417 174.668049 L 45.815748 228.641839 L 74.129953 141.305373 L -0.00121455 87.331583 L 91.627495 87.331583 Z M 119.9417 0.000332858 " stroke="#ffde59" stroke-width="20" stroke-opacity="1" stroke-miterlimit="4"/></g></g></svg>