<svg xmlns="http://www.w3.org/2000/svg" xmlns:xlink="http://www.w3.org/1999/xlink" width="361" zoomAndPan="magnify" viewBox="0 0 270.75 370.499989" height="494" preserveAspectRatio="xMidYMid meet" version="1.0"><defs><filter x="0%" y="0%" width="100%" height="100%" id="5ff9592e2c"><feColorMatrix values="0 0 0 0 1 0 0 0 0 1 0 0 0 0 1 0 0 0 1 0" color-interpolation-filters="sRGB"/></filter><clipPath id="be66fa1f6a"><path d="M 0.0585938 0 L 270 0 L 270 370 L 0.0585938 370 Z M 0.0585938 0 " clip-rule="nonzero"/></clipPath><mask id="8d47c4ccb8"><g filter="url(#5ff9592e2c)"><rect x="-27.075" width="324.9" fill="#000000" y="-37.049999" height="444.599987" fill-opacity="0.1"/></g></mask><clipPath id="35db337a4a"><path d="M 0.0585938 0 L 269.710938 0 L 269.710938 370 L 0.0585938 370 Z M 0.0585938 0 " clip-rule="nonzero"/></clipPath><clipPath id="7452061d4e"><path d="M 17.285156 0 L 252.484375 0 C 257.054688 0 261.433594 1.816406 264.664062 5.046875 C 267.898438 8.277344 269.710938 12.65625 269.710938 17.226562 L 269.710938 352.574219 C 269.710938 357.144531 267.898438 361.523438 264.664062 364.757812 C 261.433594 367.988281 257.054688 369.800781 252.484375 369.800781 L 17.285156 369.800781 C 12.714844 369.800781 8.332031 367.988281 5.101562 364.757812 C 1.871094 361.523438 0.0585938 357.144531 0.0585938 352.574219 L 0.0585938 17.226562 C 0.0585938 12.65625 1.871094 8.277344 5.101562 5.046875 C 8.332031 1.816406 12.714844 0 17.285156 0 Z M 17.285156 0 " clip-rule="nonzero"/></clipPath><clipPath id="a68017d657"><rect x="0" width="270" y="0" height="370"/></clipPath><clipPath id="ceca72b5d4"><path d="M 45.964844 140.441406 L 223.804688 140.441406 L 223.804688 229.359375 L 45.964844 229.359375 Z M 45.964844 140.441406 " clip-rule="nonzero"/></clipPath><clipPath id="6fd56efc9d"><path d="M 45.964844 140.441406 L 179.34375 140.441406 L 223.804688 184.902344 L 179.34375 229.359375 L 45.964844 229.359375 L 90.425781 184.902344 Z M 45.964844 140.441406 " clip-rule="nonzero"/></clipPath></defs><g clip-path="url(#be66fa1f6a)"><g mask="url(#8d47c4ccb8)"><g><g clip-path="url(#a68017d657)"><g clip-path="url(#35db337a4a)"><g clip-path="url(#7452061d4e)"><path fill="#919191" d="M 0.0585938 0 L 269.710938 0 L 269.710938 369.722656 L 0.0585938 369.722656 Z M 0.0585938 0 " fill-opacity="1" fill-rule="nonzero"/></g></g></g></g></g></g><g clip-path="url(#ceca72b5d4)"><g clip-path="url(#6fd56efc9d)"><path fill="#0097b2" d="M 45.964844 140.441406 L 223.804688 140.441406 L 223.804688 229.359375 L 45.964844 229.359375 Z M 45.964844 140.441406 " fill-opacity="1" fill-rule="nonzero"/></g></g></svg>