<svg xmlns="http://www.w3.org/2000/svg" xmlns:xlink="http://www.w3.org/1999/xlink" width="361" zoomAndPan="magnify" viewBox="0 0 270.75 370.499989" height="494" preserveAspectRatio="xMidYMid meet" version="1.0"><defs><filter x="0%" y="0%" width="100%" height="100%" id="43d9d1267e"><feColorMatrix values="0 0 0 0 1 0 0 0 0 1 0 0 0 0 1 0 0 0 1 0" color-interpolation-filters="sRGB"/></filter><clipPath id="7b5818df0c"><path d="M 0.0585938 0 L 270 0 L 270 370 L 0.0585938 370 Z M 0.0585938 0 " clip-rule="nonzero"/></clipPath><mask id="569b7bf70c"><g filter="url(#43d9d1267e)"><rect x="-27.075" width="324.9" fill="#000000" y="-37.049999" height="444.599987" fill-opacity="0.1"/></g></mask><clipPath id="4d93a70feb"><path d="M 0.0585938 0 L 269.710938 0 L 269.710938 370 L 0.0585938 370 Z M 0.0585938 0 " clip-rule="nonzero"/></clipPath><clipPath id="e1d0daca1f"><path d="M 17.285156 0 L 252.484375 0 C 257.054688 0 261.433594 1.816406 264.664062 5.046875 C 267.898438 8.277344 269.710938 12.65625 269.710938 17.226562 L 269.710938 352.574219 C 269.710938 357.144531 267.898438 361.523438 264.664062 364.757812 C 261.433594 367.988281 257.054688 369.800781 252.484375 369.800781 L 17.285156 369.800781 C 12.714844 369.800781 8.332031 367.988281 5.101562 364.757812 C 1.871094 361.523438 0.0585938 357.144531 0.0585938 352.574219 L 0.0585938 17.226562 C 0.0585938 12.65625 1.871094 8.277344 5.101562 5.046875 C 8.332031 1.816406 12.714844 0 17.285156 0 Z M 17.285156 0 " clip-rule="nonzero"/></clipPath><clipPath id="9e74b7e1c3"><rect x="0" width="270" y="0" height="370"/></clipPath><clipPath id="136d28b572"><path d="M 49.179688 205.394531 L 94.796875 205.394531 L 94.796875 251.015625 L 49.179688 251.015625 Z M 49.179688 205.394531 " clip-rule="nonzero"/></clipPath><clipPath id="f4eb1b2763"><path d="M 71.988281 205.394531 C 59.390625 205.394531 49.179688 215.609375 49.179688 228.207031 C 49.179688 240.804688 59.390625 251.015625 71.988281 251.015625 C 84.585938 251.015625 94.796875 240.804688 94.796875 228.207031 C 94.796875 215.609375 84.585938 205.394531 71.988281 205.394531 Z M 71.988281 205.394531 " clip-rule="nonzero"/></clipPath><clipPath id="836f641d2d"><path d="M 174.816406 205.394531 L 220.4375 205.394531 L 220.4375 251.015625 L 174.816406 251.015625 Z M 174.816406 205.394531 " clip-rule="nonzero"/></clipPath><clipPath id="8a0a5ea7f7"><path d="M 197.628906 205.394531 C 185.03125 205.394531 174.816406 215.609375 174.816406 228.207031 C 174.816406 240.804688 185.03125 251.015625 197.628906 251.015625 C 210.226562 251.015625 220.4375 240.804688 220.4375 228.207031 C 220.4375 215.609375 210.226562 205.394531 197.628906 205.394531 Z M 197.628906 205.394531 " clip-rule="nonzero"/></clipPath><clipPath id="e7591d8fc2"><path d="M 71.988281 164.878906 L 197.628906 164.878906 L 197.628906 234.226562 L 71.988281 234.226562 Z M 71.988281 164.878906 " clip-rule="nonzero"/></clipPath><clipPath id="a0dbaf8cf5"><path d="M 31.046875 164.878906 L 122.335938 164.878906 L 122.335938 234.226562 L 31.046875 234.226562 Z M 31.046875 164.878906 " clip-rule="nonzero"/></clipPath><clipPath id="22fb4b1cc0"><path d="M 61.492188 167.511719 C 66.15625 165.921875 71.492188 164.878906 76.710938 164.878906 C 81.933594 164.878906 86.960938 165.773438 91.589844 167.363281 C 91.6875 167.414062 91.789062 167.414062 91.886719 167.464844 C 109.273438 173.828125 122.082031 190.640625 122.328125 209.328125 L 122.328125 234.226562 L 31.046875 234.226562 L 31.046875 209.347656 C 31.292969 190.539062 43.902344 173.730469 61.492188 167.511719 Z M 61.492188 167.511719 " clip-rule="nonzero"/></clipPath><clipPath id="f404bfe88f"><path d="M 147.4375 164.878906 L 238.730469 164.878906 L 238.730469 234.226562 L 147.4375 234.226562 Z M 147.4375 164.878906 " clip-rule="nonzero"/></clipPath><clipPath id="4a1a21a07d"><path d="M 177.882812 167.511719 C 182.546875 165.921875 187.882812 164.878906 193.105469 164.878906 C 198.328125 164.878906 203.351562 165.773438 207.984375 167.363281 C 208.082031 167.414062 208.179688 167.414062 208.277344 167.464844 C 225.667969 173.828125 238.476562 190.640625 238.722656 209.328125 L 238.722656 234.226562 L 147.4375 234.226562 L 147.4375 209.347656 C 147.6875 190.539062 160.296875 173.730469 177.882812 167.511719 Z M 177.882812 167.511719 " clip-rule="nonzero"/></clipPath></defs><g clip-path="url(#7b5818df0c)"><g mask="url(#569b7bf70c)"><g><g clip-path="url(#9e74b7e1c3)"><g clip-path="url(#4d93a70feb)"><g clip-path="url(#e1d0daca1f)"><path fill="#919191" d="M 0.0585938 0 L 269.710938 0 L 269.710938 369.722656 L 0.0585938 369.722656 Z M 0.0585938 0 " fill-opacity="1" fill-rule="nonzero"/></g></g></g></g></g></g><path stroke-linecap="round" transform="matrix(0.748989, 0, 0, 0.748989, 111.40188, 119.658502)" fill="none" stroke-linejoin="miter" d="M 4.000802 4.002392 L 114.263995 4.002392 " stroke="#ff3131" stroke-width="8" stroke-opacity="1" stroke-miterlimit="4"/><path stroke-linecap="round" transform="matrix(0, 0.748989, -0.748989, 0, 154.780831, 122.657136)" fill="none" stroke-linejoin="miter" d="M 3.999001 3.999623 L 57.931064 3.999623 " stroke="#ff3131" stroke-width="8" stroke-opacity="1" stroke-miterlimit="4"/><path stroke-linecap="round" transform="matrix(0.142679, 0.735274, -0.735274, 0.142679, 200.456515, 119.719109)" fill="none" stroke-linejoin="miter" d="M 3.999356 4.000148 L 70.779142 4.001177 " stroke="#ff3131" stroke-width="8" stroke-opacity="1" stroke-miterlimit="4"/><path stroke-linecap="round" transform="matrix(-0.456313, 0.593939, -0.593939, -0.456313, 117.18529, 122.44142)" fill="none" stroke-linejoin="miter" d="M 4.000205 3.999688 L 77.18603 3.997831 " stroke="#ff3131" stroke-width="8" stroke-opacity="1" stroke-miterlimit="4"/><g clip-path="url(#136d28b572)"><g clip-path="url(#f4eb1b2763)"><path fill="#ff3131" d="M 49.179688 205.394531 L 94.796875 205.394531 L 94.796875 251.015625 L 49.179688 251.015625 Z M 49.179688 205.394531 " fill-opacity="1" fill-rule="nonzero"/></g></g><g clip-path="url(#836f641d2d)"><g clip-path="url(#8a0a5ea7f7)"><path fill="#ff3131" d="M 174.816406 205.394531 L 220.4375 205.394531 L 220.4375 251.015625 L 174.816406 251.015625 Z M 174.816406 205.394531 " fill-opacity="1" fill-rule="nonzero"/></g></g><g clip-path="url(#e7591d8fc2)"><path fill="#ff3131" d="M 71.988281 164.878906 L 197.679688 164.878906 L 197.679688 234.226562 L 71.988281 234.226562 Z M 71.988281 164.878906 " fill-opacity="1" fill-rule="nonzero"/></g><g clip-path="url(#a0dbaf8cf5)"><g clip-path="url(#22fb4b1cc0)"><path fill="#ff3131" d="M 31.046875 164.878906 L 122.335938 164.878906 L 122.335938 234.226562 L 31.046875 234.226562 Z M 31.046875 164.878906 " fill-opacity="1" fill-rule="nonzero"/></g></g><g clip-path="url(#f404bfe88f)"><g clip-path="url(#4a1a21a07d)"><path fill="#ff3131" d="M 147.4375 164.878906 L 238.730469 164.878906 L 238.730469 234.226562 L 147.4375 234.226562 Z M 147.4375 164.878906 " fill-opacity="1" fill-rule="nonzero"/></g></g></svg>