<svg xmlns="http://www.w3.org/2000/svg" xmlns:xlink="http://www.w3.org/1999/xlink" width="361" zoomAndPan="magnify" viewBox="0 0 270.75 370.499989" height="494" preserveAspectRatio="xMidYMid meet" version="1.0"><defs><filter x="0%" y="0%" width="100%" height="100%" id="01a0cffbdb"><feColorMatrix values="0 0 0 0 1 0 0 0 0 1 0 0 0 0 1 0 0 0 1 0" color-interpolation-filters="sRGB"/></filter><clipPath id="bacbd0d27e"><path d="M 0.0585938 0 L 270 0 L 270 370 L 0.0585938 370 Z M 0.0585938 0 " clip-rule="nonzero"/></clipPath><mask id="c6885b4d75"><g filter="url(#01a0cffbdb)"><rect x="-27.075" width="324.9" fill="#000000" y="-37.049999" height="444.599987" fill-opacity="0.1"/></g></mask><clipPath id="18ee9ad4e5"><path d="M 0.0585938 0 L 269.710938 0 L 269.710938 370 L 0.0585938 370 Z M 0.0585938 0 " clip-rule="nonzero"/></clipPath><clipPath id="ad88ecb113"><path d="M 17.285156 0 L 252.484375 0 C 257.054688 0 261.433594 1.816406 264.664062 5.046875 C 267.898438 8.277344 269.710938 12.65625 269.710938 17.226562 L 269.710938 352.574219 C 269.710938 357.144531 267.898438 361.523438 264.664062 364.757812 C 261.433594 367.988281 257.054688 369.800781 252.484375 369.800781 L 17.285156 369.800781 C 12.714844 369.800781 8.332031 367.988281 5.101562 364.757812 C 1.871094 361.523438 0.0585938 357.144531 0.0585938 352.574219 L 0.0585938 17.226562 C 0.0585938 12.65625 1.871094 8.277344 5.101562 5.046875 C 8.332031 1.816406 12.714844 0 17.285156 0 Z M 17.285156 0 " clip-rule="nonzero"/></clipPath><clipPath id="a3a06edfc2"><rect x="0" width="270" y="0" height="370"/></clipPath><clipPath id="c49a7f0fbf"><path d="M 113.546875 116.96875 L 156.222656 116.96875 L 156.222656 252.832031 L 113.546875 252.832031 Z M 113.546875 116.96875 " clip-rule="nonzero"/></clipPath><clipPath id="d9f8053f71"><path d="M 103.421875 96.558594 L 166.335938 96.558594 L 166.335938 111.09375 L 103.421875 111.09375 Z M 103.421875 96.558594 " clip-rule="nonzero"/></clipPath><clipPath id="43e061741b"><path d="M 112.964844 252.082031 L 156.285156 252.082031 L 156.285156 289.933594 L 112.964844 289.933594 Z M 112.964844 252.082031 " clip-rule="nonzero"/></clipPath><clipPath id="2e096f301d"><path d="M 134.59375 289.933594 L 156.222656 252.082031 L 112.964844 252.082031 Z M 134.59375 289.933594 " clip-rule="nonzero"/></clipPath><clipPath id="5572556472"><path d="M 126.917969 64.921875 L 139.652344 64.921875 L 139.652344 93.558594 L 126.917969 93.558594 Z M 126.917969 64.921875 " clip-rule="nonzero"/></clipPath><clipPath id="7b1366c56f"><path d="M 119.894531 43.292969 L 146.675781 43.292969 L 146.675781 76.351562 L 119.894531 76.351562 Z M 119.894531 43.292969 " clip-rule="nonzero"/></clipPath><clipPath id="c35c155302"><path d="M 128.828125 44.066406 C 130.195312 43.597656 131.761719 43.292969 133.292969 43.292969 C 134.824219 43.292969 136.300781 43.554688 137.660156 44.023438 C 137.6875 44.035156 137.714844 44.035156 137.746094 44.050781 C 142.847656 45.917969 146.605469 50.851562 146.675781 56.613281 L 146.675781 76.253906 L 119.894531 76.253906 L 119.894531 56.628906 C 119.96875 50.820312 123.667969 45.890625 128.828125 44.066406 Z M 128.828125 44.066406 " clip-rule="nonzero"/></clipPath></defs><g clip-path="url(#bacbd0d27e)"><g mask="url(#c6885b4d75)"><g><g clip-path="url(#a3a06edfc2)"><g clip-path="url(#18ee9ad4e5)"><g clip-path="url(#ad88ecb113)"><path fill="#919191" d="M 0.0585938 0 L 269.710938 0 L 269.710938 369.722656 L 0.0585938 369.722656 Z M 0.0585938 0 " fill-opacity="1" fill-rule="nonzero"/></g></g></g></g></g></g><g clip-path="url(#c49a7f0fbf)"><path fill="#ff3131" d="M 113.546875 116.96875 L 156.222656 116.96875 L 156.222656 252.828125 L 113.546875 252.828125 Z M 113.546875 116.96875 " fill-opacity="1" fill-rule="nonzero"/></g><g clip-path="url(#d9f8053f71)"><path fill="#ff3131" d="M 103.421875 111.09375 L 103.421875 96.558594 L 166.332031 96.558594 L 166.332031 111.09375 Z M 103.421875 111.09375 " fill-opacity="1" fill-rule="nonzero"/></g><g clip-path="url(#43e061741b)"><g clip-path="url(#2e096f301d)"><path fill="#ff3131" d="M 112.964844 252.082031 L 156.285156 252.082031 L 156.285156 289.933594 L 112.964844 289.933594 Z M 112.964844 252.082031 " fill-opacity="1" fill-rule="nonzero"/></g></g><g clip-path="url(#5572556472)"><path fill="#ff3131" d="M 139.652344 93.558594 L 126.917969 93.558594 L 126.917969 64.90625 L 139.652344 64.90625 Z M 139.652344 93.558594 " fill-opacity="1" fill-rule="nonzero"/></g><g clip-path="url(#7b1366c56f)"><g clip-path="url(#c35c155302)"><path fill="#ff3131" d="M 119.894531 43.292969 L 146.675781 43.292969 L 146.675781 76.246094 L 119.894531 76.246094 Z M 119.894531 43.292969 " fill-opacity="1" fill-rule="nonzero"/></g></g></svg>