<svg xmlns="http://www.w3.org/2000/svg" xmlns:xlink="http://www.w3.org/1999/xlink" width="361" zoomAndPan="magnify" viewBox="0 0 270.75 370.499989" height="494" preserveAspectRatio="xMidYMid meet" version="1.0"><defs><filter x="0%" y="0%" width="100%" height="100%" id="cd6b82f16d"><feColorMatrix values="0 0 0 0 1 0 0 0 0 1 0 0 0 0 1 0 0 0 1 0" color-interpolation-filters="sRGB"/></filter><clipPath id="08f30d08bf"><path d="M 0.0585938 0 L 270 0 L 270 370 L 0.0585938 370 Z M 0.0585938 0 " clip-rule="nonzero"/></clipPath><mask id="bbc748e4ec"><g filter="url(#cd6b82f16d)"><rect x="-27.075" width="324.9" fill="#000000" y="-37.049999" height="444.599987" fill-opacity="0.1"/></g></mask><clipPath id="9f8dac928e"><path d="M 0.0585938 0 L 269.710938 0 L 269.710938 370 L 0.0585938 370 Z M 0.0585938 0 " clip-rule="nonzero"/></clipPath><clipPath id="b79864b9ab"><path d="M 17.285156 0 L 252.484375 0 C 257.054688 0 261.433594 1.816406 264.664062 5.046875 C 267.898438 8.277344 269.710938 12.65625 269.710938 17.226562 L 269.710938 352.574219 C 269.710938 357.144531 267.898438 361.523438 264.664062 364.757812 C 261.433594 367.988281 257.054688 369.800781 252.484375 369.800781 L 17.285156 369.800781 C 12.714844 369.800781 8.332031 367.988281 5.101562 364.757812 C 1.871094 361.523438 0.0585938 357.144531 0.0585938 352.574219 L 0.0585938 17.226562 C 0.0585938 12.65625 1.871094 8.277344 5.101562 5.046875 C 8.332031 1.816406 12.714844 0 17.285156 0 Z M 17.285156 0 " clip-rule="nonzero"/></clipPath><clipPath id="b52ed0f787"><rect x="0" width="270" y="0" height="370"/></clipPath><clipPath id="c08de0dd3f"><path d="M 53.644531 113.261719 L 216.359375 113.261719 L 216.359375 255.984375 L 53.644531 255.984375 Z M 53.644531 113.261719 " clip-rule="nonzero"/></clipPath><clipPath id="852fbab564"><path d="M 60.085938 136.515625 C 46.914062 158.21875 56.195312 179.34375 67.859375 190.558594 L 136.054688 255.984375 L 202.808594 190.792969 C 213.65625 178.730469 217.816406 165.9375 215.503906 151.691406 C 212.316406 131.984375 196.078125 116.695312 176.015625 114.511719 C 163.710938 113.1875 151.828125 116.667969 142.550781 124.378906 C 140.054688 126.453125 137.824219 128.769531 135.878906 131.289062 C 133.570312 128.421875 130.863281 125.796875 127.804688 123.46875 C 117.136719 115.363281 103.558594 112.144531 90.515625 114.648438 C 78.164062 117.035156 67.074219 125.003906 60.085938 136.515625 Z M 60.085938 136.515625 " clip-rule="nonzero"/></clipPath><clipPath id="fe168bfcb2"><path d="M 53.652344 113.816406 L 216.175781 113.816406 L 216.175781 255.972656 L 53.652344 255.972656 Z M 53.652344 113.816406 " clip-rule="nonzero"/></clipPath><clipPath id="2177500611"><path d="M 60.089844 136.515625 C 46.917969 158.21875 56.199219 179.339844 67.863281 190.550781 L 136.050781 255.972656 L 202.800781 190.785156 C 213.648438 178.726562 217.804688 165.933594 215.496094 151.6875 C 212.308594 131.984375 196.070312 116.695312 176.011719 114.511719 C 163.707031 113.1875 151.824219 116.667969 142.546875 124.378906 C 140.050781 126.449219 137.820312 128.769531 135.875 131.289062 C 133.566406 128.421875 130.863281 125.796875 127.800781 123.46875 C 117.136719 115.363281 103.558594 112.144531 90.515625 114.648438 C 78.164062 117.035156 67.078125 125 60.089844 136.515625 Z M 60.089844 136.515625 " clip-rule="nonzero"/></clipPath></defs><g clip-path="url(#08f30d08bf)"><g mask="url(#bbc748e4ec)"><g><g clip-path="url(#b52ed0f787)"><g clip-path="url(#9f8dac928e)"><g clip-path="url(#b79864b9ab)"><path fill="#919191" d="M 0.0585938 0 L 269.710938 0 L 269.710938 369.722656 L 0.0585938 369.722656 Z M 0.0585938 0 " fill-opacity="1" fill-rule="nonzero"/></g></g></g></g></g></g><g clip-path="url(#c08de0dd3f)"><g clip-path="url(#852fbab564)"><path fill="#ff3131" d="M 53.644531 113.816406 L 216.359375 113.816406 L 216.359375 255.984375 L 53.644531 255.984375 Z M 53.644531 113.816406 " fill-opacity="1" fill-rule="nonzero"/></g></g><g clip-path="url(#fe168bfcb2)"><g clip-path="url(#2177500611)"><path stroke-linecap="butt" transform="matrix(0.748989, 0, 0, 0.748989, 53.650638, 113.817446)" fill="none" stroke-linejoin="miter" d="M 8.597194 30.305082 C -8.989007 59.281634 3.402693 87.481097 18.975765 102.449187 L 110.015126 189.796072 L 199.135235 102.762108 C 213.618296 86.662285 219.167441 69.581974 216.085162 50.561548 C 211.829427 24.255262 190.149166 3.842334 163.368281 0.926947 C 146.939891 -0.841061 131.074759 3.805827 118.688274 14.100952 C 115.355657 16.865093 112.377686 19.963019 109.780435 23.326927 C 106.698156 19.498851 103.089126 15.994128 99.000282 12.885772 C 84.762343 2.063896 66.633744 -2.233563 49.21965 1.109484 C 32.728675 4.296071 17.927477 14.930194 8.597194 30.305082 Z M 8.597194 30.305082 " stroke="#ff3131" stroke-width="20" stroke-opacity="1" stroke-miterlimit="4"/></g></g></svg>