<svg xmlns="http://www.w3.org/2000/svg" xmlns:xlink="http://www.w3.org/1999/xlink" width="361" zoomAndPan="magnify" viewBox="0 0 270.75 370.499989" height="494" preserveAspectRatio="xMidYMid meet" version="1.0"><defs><filter x="0%" y="0%" width="100%" height="100%" id="ff64e9f886"><feColorMatrix values="0 0 0 0 1 0 0 0 0 1 0 0 0 0 1 0 0 0 1 0" color-interpolation-filters="sRGB"/></filter><g/><clipPath id="f5d098ae44"><path d="M 0.0585938 0 L 270 0 L 270 370 L 0.0585938 370 Z M 0.0585938 0 " clip-rule="nonzero"/></clipPath><mask id="41d7023493"><g filter="url(#ff64e9f886)"><rect x="-27.075" width="324.9" fill="#000000" y="-37.049999" height="444.599987" fill-opacity="0.1"/></g></mask><clipPath id="996a1c1ece"><path d="M 0.0585938 0 L 269.710938 0 L 269.710938 370 L 0.0585938 370 Z M 0.0585938 0 " clip-rule="nonzero"/></clipPath><clipPath id="cffce709e3"><path d="M 17.285156 0 L 252.484375 0 C 257.054688 0 261.433594 1.816406 264.664062 5.046875 C 267.898438 8.277344 269.710938 12.65625 269.710938 17.226562 L 269.710938 352.574219 C 269.710938 357.144531 267.898438 361.523438 264.664062 364.757812 C 261.433594 367.988281 257.054688 369.800781 252.484375 369.800781 L 17.285156 369.800781 C 12.714844 369.800781 8.332031 367.988281 5.101562 364.757812 C 1.871094 361.523438 0.0585938 357.144531 0.0585938 352.574219 L 0.0585938 17.226562 C 0.0585938 12.65625 1.871094 8.277344 5.101562 5.046875 C 8.332031 1.816406 12.714844 0 17.285156 0 Z M 17.285156 0 " clip-rule="nonzero"/></clipPath><clipPath id="00c3a18e71"><rect x="0" width="270" y="0" height="370"/></clipPath></defs><g clip-path="url(#f5d098ae44)"><g mask="url(#41d7023493)"><g><g clip-path="url(#00c3a18e71)"><g clip-path="url(#996a1c1ece)"><g clip-path="url(#cffce709e3)"><path fill="#919191" d="M 0.0585938 0 L 269.710938 0 L 269.710938 369.722656 L 0.0585938 369.722656 Z M 0.0585938 0 " fill-opacity="1" fill-rule="nonzero"/></g></g></g></g></g></g><g fill="#ff3131" fill-opacity="1"><g transform="translate(92.013923, 249.192765)"><g><path d="M 31.546875 -42.671875 C 31.546875 -46.296875 31.992188 -49.429688 32.890625 -52.078125 C 33.785156 -54.722656 35.242188 -57.234375 37.265625 -59.609375 C 39.296875 -61.992188 42.175781 -64.59375 45.90625 -67.40625 L 53.375 -73.171875 C 56.613281 -75.648438 58.976562 -78.363281 60.46875 -81.3125 C 61.957031 -84.257812 62.703125 -87.707031 62.703125 -91.65625 C 62.703125 -96.582031 60.875 -100.503906 57.21875 -103.421875 C 53.570312 -106.335938 48.453125 -107.796875 41.859375 -107.796875 C 30.441406 -107.796875 21.921875 -102.710938 16.296875 -92.546875 L 14.4375 -92.140625 L 6.078125 -100.984375 C 14.410156 -113.859375 26.335938 -120.296875 41.859375 -120.296875 C 49.640625 -120.296875 56.191406 -119.035156 61.515625 -116.515625 C 66.847656 -114.003906 70.8125 -110.597656 73.40625 -106.296875 C 76 -102.003906 77.296875 -97.125 77.296875 -91.65625 C 77.296875 -85.488281 75.914062 -80.296875 73.15625 -76.078125 C 70.40625 -71.867188 66.40625 -67.734375 61.15625 -63.671875 L 54.59375 -58.640625 C 52 -56.640625 50.035156 -54.867188 48.703125 -53.328125 C 47.378906 -51.785156 46.445312 -50.125 45.90625 -48.34375 C 45.363281 -46.5625 45.09375 -44.34375 45.09375 -41.6875 L 45.09375 -39.34375 L 31.546875 -39.34375 Z M 37.96875 0.8125 C 34.882812 0.8125 32.445312 -0.0507812 30.65625 -1.78125 C 28.875 -3.507812 27.984375 -5.804688 27.984375 -8.671875 C 27.984375 -11.484375 28.875 -13.796875 30.65625 -15.609375 C 32.445312 -17.421875 34.882812 -18.328125 37.96875 -18.328125 C 41.039062 -18.328125 43.46875 -17.460938 45.25 -15.734375 C 47.039062 -14.003906 47.9375 -11.707031 47.9375 -8.84375 C 47.9375 -5.976562 47.039062 -3.648438 45.25 -1.859375 C 43.46875 -0.078125 41.039062 0.8125 37.96875 0.8125 Z M 37.96875 0.8125 "/></g></g></g></svg>