<svg xmlns="http://www.w3.org/2000/svg" xmlns:xlink="http://www.w3.org/1999/xlink" width="361" zoomAndPan="magnify" viewBox="0 0 270.75 370.499989" height="494" preserveAspectRatio="xMidYMid meet" version="1.0"><defs><filter x="0%" y="0%" width="100%" height="100%" id="2a678a0b00"><feColorMatrix values="0 0 0 0 1 0 0 0 0 1 0 0 0 0 1 0 0 0 1 0" color-interpolation-filters="sRGB"/></filter><g/><clipPath id="2d35d63cce"><path d="M 0.0585938 0 L 270 0 L 270 370 L 0.0585938 370 Z M 0.0585938 0 " clip-rule="nonzero"/></clipPath><mask id="a8372b6a4f"><g filter="url(#2a678a0b00)"><rect x="-27.075" width="324.9" fill="#000000" y="-37.049999" height="444.599987" fill-opacity="0.1"/></g></mask><clipPath id="66559e87cf"><path d="M 0.0585938 0 L 269.710938 0 L 269.710938 370 L 0.0585938 370 Z M 0.0585938 0 " clip-rule="nonzero"/></clipPath><clipPath id="a842096ae9"><path d="M 17.285156 0 L 252.484375 0 C 257.054688 0 261.433594 1.816406 264.664062 5.046875 C 267.898438 8.277344 269.710938 12.65625 269.710938 17.226562 L 269.710938 352.574219 C 269.710938 357.144531 267.898438 361.523438 264.664062 364.757812 C 261.433594 367.988281 257.054688 369.800781 252.484375 369.800781 L 17.285156 369.800781 C 12.714844 369.800781 8.332031 367.988281 5.101562 364.757812 C 1.871094 361.523438 0.0585938 357.144531 0.0585938 352.574219 L 0.0585938 17.226562 C 0.0585938 12.65625 1.871094 8.277344 5.101562 5.046875 C 8.332031 1.816406 12.714844 0 17.285156 0 Z M 17.285156 0 " clip-rule="nonzero"/></clipPath><clipPath id="7a251e786c"><rect x="0" width="270" y="0" height="370"/></clipPath></defs><g clip-path="url(#2d35d63cce)"><g mask="url(#a8372b6a4f)"><g><g clip-path="url(#7a251e786c)"><g clip-path="url(#66559e87cf)"><g clip-path="url(#a842096ae9)"><path fill="#919191" d="M 0.0585938 0 L 269.710938 0 L 269.710938 369.722656 L 0.0585938 369.722656 Z M 0.0585938 0 " fill-opacity="1" fill-rule="nonzero"/></g></g></g></g></g></g><g fill="#004aad" fill-opacity="1"><g transform="translate(104.31958, 261.675964)"><g><path d="M 38.65625 -46.984375 L 22.46875 -46.984375 L 22.46875 -141.625 L 38.65625 -141.625 Z M 30.515625 0.96875 C 26.835938 0.96875 23.929688 -0.0625 21.796875 -2.125 C 19.660156 -4.195312 18.59375 -6.941406 18.59375 -10.359375 C 18.59375 -13.722656 19.660156 -16.484375 21.796875 -18.640625 C 23.929688 -20.804688 26.835938 -21.890625 30.515625 -21.890625 C 34.253906 -21.890625 37.191406 -20.851562 39.328125 -18.78125 C 41.460938 -16.71875 42.53125 -13.976562 42.53125 -10.5625 C 42.53125 -7.132812 41.445312 -4.351562 39.28125 -2.21875 C 37.113281 -0.09375 34.191406 0.96875 30.515625 0.96875 Z M 30.515625 0.96875 "/></g></g></g></svg>