<svg xmlns="http://www.w3.org/2000/svg" xmlns:xlink="http://www.w3.org/1999/xlink" width="361" zoomAndPan="magnify" viewBox="0 0 270.75 370.499989" height="494" preserveAspectRatio="xMidYMid meet" version="1.0"><defs><filter x="0%" y="0%" width="100%" height="100%" id="3110c79992"><feColorMatrix values="0 0 0 0 1 0 0 0 0 1 0 0 0 0 1 0 0 0 1 0" color-interpolation-filters="sRGB"/></filter><clipPath id="2c349aa516"><path d="M 0.0585938 0 L 270 0 L 270 370 L 0.0585938 370 Z M 0.0585938 0 " clip-rule="nonzero"/></clipPath><mask id="3623f78fa0"><g filter="url(#3110c79992)"><rect x="-27.075" width="324.9" fill="#000000" y="-37.049999" height="444.599987" fill-opacity="0.1"/></g></mask><clipPath id="3f889660e0"><path d="M 0.0585938 0 L 269.710938 0 L 269.710938 370 L 0.0585938 370 Z M 0.0585938 0 " clip-rule="nonzero"/></clipPath><clipPath id="ba4f7b3a76"><path d="M 17.285156 0 L 252.484375 0 C 257.054688 0 261.433594 1.816406 264.664062 5.046875 C 267.898438 8.277344 269.710938 12.65625 269.710938 17.226562 L 269.710938 352.574219 C 269.710938 357.144531 267.898438 361.523438 264.664062 364.757812 C 261.433594 367.988281 257.054688 369.800781 252.484375 369.800781 L 17.285156 369.800781 C 12.714844 369.800781 8.332031 367.988281 5.101562 364.757812 C 1.871094 361.523438 0.0585938 357.144531 0.0585938 352.574219 L 0.0585938 17.226562 C 0.0585938 12.65625 1.871094 8.277344 5.101562 5.046875 C 8.332031 1.816406 12.714844 0 17.285156 0 Z M 17.285156 0 " clip-rule="nonzero"/></clipPath><clipPath id="8de0535d63"><rect x="0" width="270" y="0" height="370"/></clipPath><clipPath id="0c28ddf5c0"><path d="M 52.582031 102.597656 L 217.1875 102.597656 L 217.1875 267.203125 L 52.582031 267.203125 Z M 52.582031 102.597656 " clip-rule="nonzero"/></clipPath><clipPath id="b6dc7458fa"><path d="M 134.882812 102.597656 C 89.429688 102.597656 52.582031 139.445312 52.582031 184.902344 C 52.582031 230.355469 89.429688 267.203125 134.882812 267.203125 C 180.339844 267.203125 217.1875 230.355469 217.1875 184.902344 C 217.1875 139.445312 180.339844 102.597656 134.882812 102.597656 Z M 134.882812 102.597656 " clip-rule="nonzero"/></clipPath></defs><g clip-path="url(#2c349aa516)"><g mask="url(#3623f78fa0)"><g><g clip-path="url(#8de0535d63)"><g clip-path="url(#3f889660e0)"><g clip-path="url(#ba4f7b3a76)"><path fill="#919191" d="M 0.0585938 0 L 269.710938 0 L 269.710938 369.722656 L 0.0585938 369.722656 Z M 0.0585938 0 " fill-opacity="1" fill-rule="nonzero"/></g></g></g></g></g></g><g clip-path="url(#0c28ddf5c0)"><g clip-path="url(#b6dc7458fa)"><path fill="#ffde59" d="M 52.582031 102.597656 L 217.1875 102.597656 L 217.1875 267.203125 L 52.582031 267.203125 Z M 52.582031 102.597656 " fill-opacity="1" fill-rule="nonzero"/></g></g></svg>