<svg xmlns="http://www.w3.org/2000/svg" xmlns:xlink="http://www.w3.org/1999/xlink" width="361" zoomAndPan="magnify" viewBox="0 0 270.75 370.499989" height="494" preserveAspectRatio="xMidYMid meet" version="1.0"><defs><filter x="0%" y="0%" width="100%" height="100%" id="6a1a351cd9"><feColorMatrix values="0 0 0 0 1 0 0 0 0 1 0 0 0 0 1 0 0 0 1 0" color-interpolation-filters="sRGB"/></filter><g/><clipPath id="892507de61"><path d="M 0.0585938 0 L 270 0 L 270 370 L 0.0585938 370 Z M 0.0585938 0 " clip-rule="nonzero"/></clipPath><mask id="273a8a2f4e"><g filter="url(#6a1a351cd9)"><rect x="-27.075" width="324.9" fill="#000000" y="-37.049999" height="444.599987" fill-opacity="0.1"/></g></mask><clipPath id="a3aa405ef0"><path d="M 0.0585938 0 L 269.710938 0 L 269.710938 370 L 0.0585938 370 Z M 0.0585938 0 " clip-rule="nonzero"/></clipPath><clipPath id="4c0dd49af5"><path d="M 15.785156 0 L 253.984375 0 C 262.667969 0 269.710938 7.042969 269.710938 15.730469 L 269.710938 354.074219 C 269.710938 362.757812 262.667969 369.800781 253.984375 369.800781 L 15.785156 369.800781 C 7.101562 369.800781 0.0585938 362.757812 0.0585938 354.074219 L 0.0585938 15.730469 C 0.0585938 7.042969 7.101562 0 15.785156 0 Z M 15.785156 0 " clip-rule="nonzero"/></clipPath><clipPath id="51fd7adda2"><rect x="0" width="270" y="0" height="370"/></clipPath><clipPath id="0214c7a2f6"><path d="M 48.007812 81.039062 L 221.929688 81.039062 L 221.929688 164.574219 L 48.007812 164.574219 Z M 48.007812 81.039062 " clip-rule="nonzero"/></clipPath><clipPath id="04c0b7db60"><path d="M 105.957031 86.054688 C 114.835938 83.027344 124.992188 81.039062 134.929688 81.039062 C 144.871094 81.039062 154.433594 82.742188 163.25 85.769531 C 163.4375 85.867188 163.625 85.867188 163.8125 85.960938 C 196.910156 98.078125 221.292969 130.074219 221.761719 164.574219 L 48.007812 164.574219 C 48.476562 129.886719 72.480469 97.886719 105.957031 86.054688 Z M 105.957031 86.054688 " clip-rule="nonzero"/></clipPath><clipPath id="3379f48e02"><path d="M 48 132.269531 L 95.675781 132.269531 L 95.675781 174 L 48 174 Z M 48 132.269531 " clip-rule="nonzero"/></clipPath><clipPath id="d436fee01b"><path d="M 93.785156 167.324219 C 97.652344 160.957031 94.925781 154.757812 91.503906 151.46875 L 71.496094 132.269531 L 51.90625 151.398438 C 48.722656 154.9375 47.503906 158.691406 48.179688 162.871094 C 49.117188 168.65625 53.882812 173.140625 59.769531 173.78125 C 63.378906 174.171875 66.867188 173.148438 69.589844 170.886719 C 70.320312 170.277344 70.976562 169.597656 71.546875 168.859375 C 72.222656 169.699219 73.015625 170.472656 73.914062 171.152344 C 77.046875 173.53125 81.03125 174.476562 84.855469 173.742188 C 88.480469 173.042969 91.734375 170.703125 93.785156 167.324219 Z M 93.785156 167.324219 " clip-rule="nonzero"/></clipPath><clipPath id="fe0e2c7088"><path d="M 87.128906 132.269531 L 134.875 132.269531 L 134.875 174 L 87.128906 174 Z M 87.128906 132.269531 " clip-rule="nonzero"/></clipPath><clipPath id="3bc4307945"><path d="M 132.984375 167.324219 C 136.851562 160.957031 134.128906 154.757812 130.707031 151.46875 L 110.695312 132.269531 L 91.105469 151.398438 C 87.921875 154.9375 86.703125 158.691406 87.382812 162.871094 C 88.316406 168.65625 93.082031 173.140625 98.96875 173.78125 C 102.578125 174.171875 106.066406 173.148438 108.789062 170.886719 C 109.519531 170.277344 110.175781 169.597656 110.746094 168.859375 C 111.421875 169.699219 112.21875 170.472656 113.117188 171.152344 C 116.246094 173.53125 120.230469 174.476562 124.058594 173.742188 C 127.683594 173.042969 130.933594 170.703125 132.984375 167.324219 Z M 132.984375 167.324219 " clip-rule="nonzero"/></clipPath><clipPath id="266f395944"><path d="M 129.289062 132.269531 L 177.035156 132.269531 L 177.035156 174 L 129.289062 174 Z M 129.289062 132.269531 " clip-rule="nonzero"/></clipPath><clipPath id="b44e2a5c0c"><path d="M 175.144531 167.324219 C 179.011719 160.957031 176.285156 154.757812 172.863281 151.46875 L 152.855469 132.269531 L 133.265625 151.398438 C 130.082031 154.9375 128.863281 158.691406 129.539062 162.871094 C 130.476562 168.65625 135.242188 173.140625 141.128906 173.78125 C 144.738281 174.171875 148.226562 173.148438 150.945312 170.886719 C 151.679688 170.277344 152.335938 169.597656 152.90625 168.859375 C 153.582031 169.699219 154.375 170.472656 155.273438 171.152344 C 158.40625 173.53125 162.390625 174.476562 166.214844 173.742188 C 169.839844 173.042969 173.09375 170.703125 175.144531 167.324219 Z M 175.144531 167.324219 " clip-rule="nonzero"/></clipPath><clipPath id="057add4bb1"><path d="M 174.003906 132.269531 L 221.75 132.269531 L 221.75 174 L 174.003906 174 Z M 174.003906 132.269531 " clip-rule="nonzero"/></clipPath><clipPath id="b6441bd0b4"><path d="M 219.859375 167.324219 C 223.726562 160.957031 221.003906 154.757812 217.582031 151.46875 L 197.570312 132.269531 L 177.980469 151.398438 C 174.800781 154.9375 173.578125 158.691406 174.257812 162.871094 C 175.191406 168.65625 179.957031 173.140625 185.84375 173.78125 C 189.453125 174.171875 192.941406 173.148438 195.664062 170.886719 C 196.398438 170.277344 197.050781 169.597656 197.621094 168.859375 C 198.300781 169.699219 199.09375 170.472656 199.992188 171.152344 C 203.121094 173.53125 207.105469 174.476562 210.933594 173.742188 C 214.558594 173.042969 217.8125 170.703125 219.859375 167.324219 Z M 219.859375 167.324219 " clip-rule="nonzero"/></clipPath></defs><g clip-path="url(#892507de61)"><g mask="url(#273a8a2f4e)"><g><g clip-path="url(#51fd7adda2)"><g clip-path="url(#a3aa405ef0)"><g clip-path="url(#4c0dd49af5)"><path fill="#919191" d="M 0.0585938 0 L 269.710938 0 L 269.710938 369.722656 L 0.0585938 369.722656 Z M 0.0585938 0 " fill-opacity="1" fill-rule="nonzero"/></g></g></g></g></g></g><g clip-path="url(#0214c7a2f6)"><g clip-path="url(#04c0b7db60)"><path fill="#ffde59" d="M 48.007812 81.039062 L 221.605469 81.039062 L 221.605469 164.574219 L 48.007812 164.574219 Z M 48.007812 81.039062 " fill-opacity="1" fill-rule="nonzero"/></g></g><g clip-path="url(#3379f48e02)"><g clip-path="url(#d436fee01b)"><path fill="#ffde59" d="M 95.675781 173.984375 L 47.929688 173.984375 L 47.929688 132.269531 L 95.675781 132.269531 Z M 95.675781 173.984375 " fill-opacity="1" fill-rule="nonzero"/></g></g><g clip-path="url(#fe0e2c7088)"><g clip-path="url(#3bc4307945)"><path fill="#ffde59" d="M 134.875 173.984375 L 87.128906 173.984375 L 87.128906 132.269531 L 134.875 132.269531 Z M 134.875 173.984375 " fill-opacity="1" fill-rule="nonzero"/></g></g><g clip-path="url(#266f395944)"><g clip-path="url(#b44e2a5c0c)"><path fill="#ffde59" d="M 177.035156 173.984375 L 129.289062 173.984375 L 129.289062 132.269531 L 177.035156 132.269531 Z M 177.035156 173.984375 " fill-opacity="1" fill-rule="nonzero"/></g></g><g clip-path="url(#057add4bb1)"><g clip-path="url(#b6441bd0b4)"><path fill="#ffde59" d="M 221.75 173.984375 L 174.003906 173.984375 L 174.003906 132.269531 L 221.75 132.269531 Z M 221.75 173.984375 " fill-opacity="1" fill-rule="nonzero"/></g></g><path stroke-linecap="round" transform="matrix(0, 0.826288, -0.826288, 0, 139.012691, 164.575799)" fill="none" stroke-linejoin="miter" d="M 4.999751 4.998113 L 131.36976 4.998113 " stroke="#ffde59" stroke-width="10" stroke-opacity="1" stroke-miterlimit="4"/><path stroke-linecap="round" transform="matrix(0, 0.826288, -0.826288, 0, 139.013732, 70.270506)" fill="none" stroke-linejoin="miter" d="M 3.000764 2.999652 L 33.067475 2.999652 " stroke="#ffde59" stroke-width="6" stroke-opacity="1" stroke-miterlimit="4"/><g fill="#ffde59" fill-opacity="1"><g transform="translate(116.865339, 289.232337)"><g><path d="M 22.203125 -8.953125 C 22.203125 -5.734375 21.285156 -3.359375 19.453125 -1.828125 C 17.617188 -0.304688 14.976562 0.453125 11.53125 0.453125 C 8.082031 0.453125 5.441406 -0.304688 3.609375 -1.828125 C 1.773438 -3.359375 0.859375 -5.734375 0.859375 -8.953125 L 0.859375 -9.28125 L 8.609375 -9.28125 L 8.609375 -8.984375 C 8.609375 -7.816406 8.828125 -6.984375 9.265625 -6.484375 C 9.703125 -5.984375 10.367188 -5.734375 11.265625 -5.734375 C 12.171875 -5.734375 12.84375 -5.984375 13.28125 -6.484375 C 13.71875 -6.984375 13.9375 -7.816406 13.9375 -8.984375 L 13.9375 -25.765625 L 22.203125 -25.765625 Z M 22.203125 -8.953125 "/></g></g></g></svg>