<svg xmlns="http://www.w3.org/2000/svg" xmlns:xlink="http://www.w3.org/1999/xlink" width="361" zoomAndPan="magnify" viewBox="0 0 270.75 370.499989" height="494" preserveAspectRatio="xMidYMid meet" version="1.0"><defs><filter x="0%" y="0%" width="100%" height="100%" id="f3e38d3920"><feColorMatrix values="0 0 0 0 1 0 0 0 0 1 0 0 0 0 1 0 0 0 1 0" color-interpolation-filters="sRGB"/></filter><clipPath id="53dcc97765"><path d="M 0.0585938 0 L 270 0 L 270 370 L 0.0585938 370 Z M 0.0585938 0 " clip-rule="nonzero"/></clipPath><mask id="a16f33c99b"><g filter="url(#f3e38d3920)"><rect x="-27.075" width="324.9" fill="#000000" y="-37.049999" height="444.599987" fill-opacity="0.1"/></g></mask><clipPath id="603264ade7"><path d="M 0.0585938 0 L 269.710938 0 L 269.710938 370 L 0.0585938 370 Z M 0.0585938 0 " clip-rule="nonzero"/></clipPath><clipPath id="ec8ada91ff"><path d="M 17.285156 0 L 252.484375 0 C 257.054688 0 261.433594 1.816406 264.664062 5.046875 C 267.898438 8.277344 269.710938 12.65625 269.710938 17.226562 L 269.710938 352.574219 C 269.710938 357.144531 267.898438 361.523438 264.664062 364.757812 C 261.433594 367.988281 257.054688 369.800781 252.484375 369.800781 L 17.285156 369.800781 C 12.714844 369.800781 8.332031 367.988281 5.101562 364.757812 C 1.871094 361.523438 0.0585938 357.144531 0.0585938 352.574219 L 0.0585938 17.226562 C 0.0585938 12.65625 1.871094 8.277344 5.101562 5.046875 C 8.332031 1.816406 12.714844 0 17.285156 0 Z M 17.285156 0 " clip-rule="nonzero"/></clipPath><clipPath id="31fd857c64"><rect x="0" width="270" y="0" height="370"/></clipPath><clipPath id="772fcc8e68"><path d="M 76.464844 188.136719 L 193.417969 188.136719 L 193.417969 244.3125 L 76.464844 244.3125 Z M 76.464844 188.136719 " clip-rule="nonzero"/></clipPath><clipPath id="9e150725b1"><path d="M 115.433594 240.9375 C 121.421875 242.976562 128.230469 244.3125 134.917969 244.3125 C 141.601562 244.3125 148.03125 243.164062 153.957031 241.128906 C 154.085938 241.066406 154.210938 241.066406 154.335938 241 C 176.597656 232.851562 192.992188 211.335938 193.304688 188.136719 L 76.464844 188.136719 C 76.777344 211.464844 92.921875 232.980469 115.433594 240.9375 Z M 115.433594 240.9375 " clip-rule="nonzero"/></clipPath></defs><g clip-path="url(#53dcc97765)"><g mask="url(#a16f33c99b)"><g><g clip-path="url(#31fd857c64)"><g clip-path="url(#603264ade7)"><g clip-path="url(#ec8ada91ff)"><path fill="#919191" d="M 0.0585938 0 L 269.710938 0 L 269.710938 369.722656 L 0.0585938 369.722656 Z M 0.0585938 0 " fill-opacity="1" fill-rule="nonzero"/></g></g></g></g></g></g><g clip-path="url(#772fcc8e68)"><g clip-path="url(#9e150725b1)"><path fill="#004aad" d="M 76.464844 188.136719 L 193.199219 188.136719 L 193.199219 244.3125 L 76.464844 244.3125 Z M 76.464844 188.136719 " fill-opacity="1" fill-rule="nonzero"/></g></g><path stroke-linecap="round" transform="matrix(0.018344, 0.748764, -0.748764, 0.018344, 120.782611, 125.491759)" fill="none" stroke-linejoin="miter" d="M 8.000317 8.002341 L 42.708537 8.002298 " stroke="#004aad" stroke-width="16" stroke-opacity="1" stroke-miterlimit="4"/><path stroke-linecap="round" transform="matrix(0.018344, 0.748764, -0.748764, 0.018344, 158.893965, 125.638515)" fill="none" stroke-linejoin="miter" d="M 7.99741 7.999696 L 42.70563 7.999652 " stroke="#004aad" stroke-width="16" stroke-opacity="1" stroke-miterlimit="4"/></svg>