<svg xmlns="http://www.w3.org/2000/svg" xmlns:xlink="http://www.w3.org/1999/xlink" width="361" zoomAndPan="magnify" viewBox="0 0 270.75 370.499989" height="494" preserveAspectRatio="xMidYMid meet" version="1.0"><defs><filter x="0%" y="0%" width="100%" height="100%" id="7db5a88a7c"><feColorMatrix values="0 0 0 0 1 0 0 0 0 1 0 0 0 0 1 0 0 0 1 0" color-interpolation-filters="sRGB"/></filter><clipPath id="35162d043a"><path d="M 0.0585938 0 L 270 0 L 270 370 L 0.0585938 370 Z M 0.0585938 0 " clip-rule="nonzero"/></clipPath><mask id="79f56435d5"><g filter="url(#7db5a88a7c)"><rect x="-27.075" width="324.9" fill="#000000" y="-37.049999" height="444.599987" fill-opacity="0.1"/></g></mask><clipPath id="e9189b0268"><path d="M 0.0585938 0 L 269.710938 0 L 269.710938 370 L 0.0585938 370 Z M 0.0585938 0 " clip-rule="nonzero"/></clipPath><clipPath id="57599dd105"><path d="M 17.285156 0 L 252.484375 0 C 257.054688 0 261.433594 1.816406 264.664062 5.046875 C 267.898438 8.277344 269.710938 12.65625 269.710938 17.226562 L 269.710938 352.574219 C 269.710938 357.144531 267.898438 361.523438 264.664062 364.757812 C 261.433594 367.988281 257.054688 369.800781 252.484375 369.800781 L 17.285156 369.800781 C 12.714844 369.800781 8.332031 367.988281 5.101562 364.757812 C 1.871094 361.523438 0.0585938 357.144531 0.0585938 352.574219 L 0.0585938 17.226562 C 0.0585938 12.65625 1.871094 8.277344 5.101562 5.046875 C 8.332031 1.816406 12.714844 0 17.285156 0 Z M 17.285156 0 " clip-rule="nonzero"/></clipPath><clipPath id="77261cad15"><rect x="0" width="270" y="0" height="370"/></clipPath><clipPath id="b26fe4e55d"><path d="M 106.578125 72.117188 L 203.199219 72.117188 L 203.199219 168.738281 L 106.578125 168.738281 Z M 106.578125 72.117188 " clip-rule="nonzero"/></clipPath><clipPath id="750b881b6e"><path d="M 154.914062 72.117188 C 128.21875 72.117188 106.578125 93.757812 106.578125 120.449219 C 106.578125 147.144531 128.21875 168.785156 154.914062 168.785156 C 181.605469 168.785156 203.246094 147.144531 203.246094 120.449219 C 203.246094 93.757812 181.605469 72.117188 154.914062 72.117188 Z M 154.914062 72.117188 " clip-rule="nonzero"/></clipPath></defs><g clip-path="url(#35162d043a)"><g mask="url(#79f56435d5)"><g><g clip-path="url(#77261cad15)"><g clip-path="url(#e9189b0268)"><g clip-path="url(#57599dd105)"><path fill="#919191" d="M 0.0585938 0 L 269.710938 0 L 269.710938 369.722656 L 0.0585938 369.722656 Z M 0.0585938 0 " fill-opacity="1" fill-rule="nonzero"/></g></g></g></g></g></g><g clip-path="url(#b26fe4e55d)"><g clip-path="url(#750b881b6e)"><path stroke-linecap="butt" transform="matrix(0.748989, 0, 0, 0.748989, 106.579749, 72.116969)" fill="none" stroke-linejoin="miter" d="M 64.532727 0.00029119 C 28.89094 0.00029119 -0.00216852 28.893399 -0.00216852 64.529971 C -0.00216852 100.171759 28.89094 129.064867 64.532727 129.064867 C 100.169299 129.064867 129.062407 100.171759 129.062407 64.529971 C 129.062407 28.893399 100.169299 0.00029119 64.532727 0.00029119 Z M 64.532727 0.00029119 " stroke="#0097b2" stroke-width="30" stroke-opacity="1" stroke-miterlimit="4"/></g></g><path stroke-linecap="round" transform="matrix(0.208075, -0.719506, 0.719506, 0.208075, 101.39319, 272.880831)" fill="none" stroke-linejoin="miter" d="M 7.49828 7.502597 L 152.501808 7.497489 " stroke="#0097b2" stroke-width="15" stroke-opacity="1" stroke-miterlimit="4"/></svg>