<svg xmlns="http://www.w3.org/2000/svg" xmlns:xlink="http://www.w3.org/1999/xlink" width="382" zoomAndPan="magnify" viewBox="0 0 286.5 370.499997" height="494" preserveAspectRatio="xMidYMid meet" version="1.0"><defs><filter x="0%" y="0%" width="100%" height="100%" id="d6d57cc1de"><feColorMatrix values="0 0 0 0 1 0 0 0 0 1 0 0 0 0 1 0 0 0 1 0" color-interpolation-filters="sRGB"/></filter><g/><clipPath id="c100cecce3"><path d="M 7 0.0742188 L 278 0.0742188 L 278 369.925781 L 7 369.925781 Z M 7 0.0742188 " clip-rule="nonzero"/></clipPath><mask id="4506766dd2"><g filter="url(#d6d57cc1de)"><rect x="-28.65" width="343.8" fill="#000000" y="-37.05" height="444.599996" fill-opacity="0.1"/></g></mask><clipPath id="4af521ccc6"><path d="M 0.988281 0.0742188 L 270.535156 0.0742188 L 270.535156 369.925781 L 0.988281 369.925781 Z M 0.988281 0.0742188 " clip-rule="nonzero"/></clipPath><clipPath id="a4ad492393"><path d="M 20.453125 0.0742188 L 251.066406 0.0742188 C 261.820312 0.0742188 270.535156 8.789062 270.535156 19.539062 L 270.535156 350.261719 C 270.535156 361.011719 261.820312 369.730469 251.066406 369.730469 L 20.453125 369.730469 C 9.703125 369.730469 0.988281 361.011719 0.988281 350.261719 L 0.988281 19.539062 C 0.988281 8.789062 9.703125 0.0742188 20.453125 0.0742188 Z M 20.453125 0.0742188 " clip-rule="nonzero"/></clipPath><clipPath id="66bd0624c5"><rect x="0" width="271" y="0" height="370"/></clipPath><clipPath id="b86a3606ef"><path d="M 101.667969 119.902344 L 183.570312 119.902344 L 183.570312 221 L 101.667969 221 Z M 101.667969 119.902344 " clip-rule="nonzero"/></clipPath><clipPath id="074956e3de"><path d="M 128.984375 218.34375 C 133.183594 219.773438 137.957031 220.707031 142.640625 220.707031 C 147.328125 220.707031 151.835938 219.90625 155.992188 218.476562 C 156.078125 218.433594 156.167969 218.433594 156.253906 218.386719 C 171.859375 212.675781 183.351562 197.59375 183.570312 179.96875 L 183.570312 119.902344 L 101.667969 119.902344 L 101.667969 179.921875 C 101.886719 197.683594 113.203125 212.765625 128.984375 218.34375 Z M 128.984375 218.34375 " clip-rule="nonzero"/></clipPath><clipPath id="0be1878468"><path d="M 117.6875 240.265625 L 168.738281 240.265625 L 168.738281 278.476562 L 117.6875 278.476562 Z M 117.6875 240.265625 " clip-rule="nonzero"/></clipPath><clipPath id="95e874a23c"><path d="M 156 240.265625 L 130.527344 240.265625 L 117.789062 278.476562 L 168.738281 278.476562 Z M 156 240.265625 " clip-rule="nonzero"/></clipPath></defs><g clip-path="url(#c100cecce3)"><g mask="url(#4506766dd2)"><g transform="matrix(1, 0, 0, 1, 7, 0.000000000000000333)"><g clip-path="url(#66bd0624c5)"><g clip-path="url(#4af521ccc6)"><g clip-path="url(#a4ad492393)"><path fill="#919191" d="M 0.988281 0.0742188 L 270.535156 0.0742188 L 270.535156 369.648438 L 0.988281 369.648438 Z M 0.988281 0.0742188 " fill-opacity="1" fill-rule="nonzero"/></g></g></g></g></g></g><g clip-path="url(#b86a3606ef)"><g clip-path="url(#074956e3de)"><path fill="#ffde59" d="M 101.667969 119.902344 L 183.570312 119.902344 L 183.570312 220.683594 L 101.667969 220.683594 Z M 101.667969 119.902344 " fill-opacity="1" fill-rule="nonzero"/></g></g><g clip-path="url(#0be1878468)"><g clip-path="url(#95e874a23c)"><path fill="#ffde59" d="M 168.738281 278.476562 L 117.839844 278.476562 L 117.839844 240.265625 L 168.738281 240.265625 Z M 168.738281 278.476562 " fill-opacity="1" fill-rule="nonzero"/></g></g><g fill="#ffde59" fill-opacity="1"><g transform="translate(45.543579, 188.627515)"><g><path d="M 36.515625 -65.6875 C 39.253906 -65.6875 41.847656 -65.414062 44.296875 -64.875 C 46.742188 -64.34375 48.859375 -63.628906 50.640625 -62.734375 C 52.015625 -62.015625 52.984375 -61.3125 53.546875 -60.625 C 54.117188 -59.9375 54.40625 -59.175781 54.40625 -58.34375 C 54.40625 -56.96875 53.570312 -55.535156 51.90625 -54.046875 C 50.226562 -55.359375 48.03125 -56.503906 45.3125 -57.484375 C 42.601562 -58.472656 39.671875 -58.96875 36.515625 -58.96875 C 31.734375 -58.96875 27.523438 -57.863281 23.890625 -55.65625 C 20.253906 -53.445312 17.4375 -50.328125 15.4375 -46.296875 C 13.4375 -42.273438 12.4375 -37.609375 12.4375 -32.296875 C 12.4375 -27.046875 13.34375 -22.394531 15.15625 -18.34375 C 16.976562 -14.289062 19.617188 -11.128906 23.078125 -8.859375 C 26.546875 -6.585938 30.722656 -5.453125 35.609375 -5.453125 C 39.304688 -5.453125 42.734375 -6.09375 45.890625 -7.375 C 49.054688 -8.664062 51.625 -10.175781 53.59375 -11.90625 C 55.382812 -10.289062 56.28125 -8.769531 56.28125 -7.34375 C 56.28125 -6.625 56.039062 -5.9375 55.5625 -5.28125 C 55.09375 -4.625 54.171875 -3.878906 52.796875 -3.046875 C 51.003906 -1.972656 48.570312 -0.988281 45.5 -0.09375 C 42.425781 0.800781 39.128906 1.25 35.609375 1.25 C 28.628906 1.25 22.8125 -0.164062 18.15625 -3 C 13.507812 -5.832031 10.066406 -9.738281 7.828125 -14.71875 C 5.585938 -19.695312 4.46875 -25.46875 4.46875 -32.03125 C 4.46875 -38.539062 5.765625 -44.34375 8.359375 -49.4375 C 10.960938 -54.539062 14.675781 -58.523438 19.5 -61.390625 C 24.332031 -64.253906 30.003906 -65.6875 36.515625 -65.6875 Z M 36.515625 -65.6875 "/></g></g></g><g fill="#ffde59" fill-opacity="1"><g transform="translate(239.973648, 123.397624)"><g><path d="M -36.515625 65.6875 C -39.253906 65.6875 -41.847656 65.414062 -44.296875 64.875 C -46.742188 64.34375 -48.859375 63.628906 -50.640625 62.734375 C -52.015625 62.015625 -52.984375 61.3125 -53.546875 60.625 C -54.117188 59.9375 -54.40625 59.175781 -54.40625 58.34375 C -54.40625 56.96875 -53.570312 55.535156 -51.90625 54.046875 C -50.226562 55.359375 -48.03125 56.503906 -45.3125 57.484375 C -42.601562 58.472656 -39.671875 58.96875 -36.515625 58.96875 C -31.734375 58.96875 -27.523438 57.863281 -23.890625 55.65625 C -20.253906 53.445312 -17.4375 50.328125 -15.4375 46.296875 C -13.4375 42.273438 -12.4375 37.609375 -12.4375 32.296875 C -12.4375 27.046875 -13.34375 22.394531 -15.15625 18.34375 C -16.976562 14.289062 -19.617188 11.128906 -23.078125 8.859375 C -26.546875 6.585938 -30.722656 5.453125 -35.609375 5.453125 C -39.304688 5.453125 -42.734375 6.09375 -45.890625 7.375 C -49.054688 8.664062 -51.625 10.175781 -53.59375 11.90625 C -55.382812 10.289062 -56.28125 8.769531 -56.28125 7.34375 C -56.28125 6.625 -56.039062 5.9375 -55.5625 5.28125 C -55.09375 4.625 -54.171875 3.878906 -52.796875 3.046875 C -51.003906 1.972656 -48.570312 0.988281 -45.5 0.09375 C -42.425781 -0.800781 -39.128906 -1.25 -35.609375 -1.25 C -28.628906 -1.25 -22.8125 0.164062 -18.15625 3 C -13.507812 5.832031 -10.066406 9.738281 -7.828125 14.71875 C -5.585938 19.695312 -4.46875 25.46875 -4.46875 32.03125 C -4.46875 38.539062 -5.765625 44.34375 -8.359375 49.4375 C -10.960938 54.539062 -14.675781 58.523438 -19.5 61.390625 C -24.332031 64.253906 -30.003906 65.6875 -36.515625 65.6875 Z M -36.515625 65.6875 "/></g></g></g><path stroke-linecap="round" transform="matrix(-0.6504, 0, 0, -0.6504, 154.047284, 229.210354)" fill="none" stroke-linejoin="miter" d="M 4.997557 5.002038 L 30.174387 5.002038 " stroke="#ffde59" stroke-width="10" stroke-opacity="1" stroke-miterlimit="4"/><path stroke-linecap="round" transform="matrix(-0.6504, 0, 0, -0.6504, 154.047284, 237.01516)" fill="none" stroke-linejoin="miter" d="M 4.997557 5.00222 L 30.174387 5.00222 " stroke="#ffde59" stroke-width="10" stroke-opacity="1" stroke-miterlimit="4"/></svg>