<svg xmlns="http://www.w3.org/2000/svg" xmlns:xlink="http://www.w3.org/1999/xlink" width="361" zoomAndPan="magnify" viewBox="0 0 270.75 370.499989" height="494" preserveAspectRatio="xMidYMid meet" version="1.0"><defs><filter x="0%" y="0%" width="100%" height="100%" id="193e995ff6"><feColorMatrix values="0 0 0 0 1 0 0 0 0 1 0 0 0 0 1 0 0 0 1 0" color-interpolation-filters="sRGB"/></filter><clipPath id="3e96dd9002"><path d="M 0.0585938 0 L 270 0 L 270 370 L 0.0585938 370 Z M 0.0585938 0 " clip-rule="nonzero"/></clipPath><mask id="112e3a8c51"><g filter="url(#193e995ff6)"><rect x="-27.075" width="324.9" fill="#000000" y="-37.049999" height="444.599987" fill-opacity="0.1"/></g></mask><clipPath id="57e0ef52d4"><path d="M 0.0585938 0 L 269.710938 0 L 269.710938 370 L 0.0585938 370 Z M 0.0585938 0 " clip-rule="nonzero"/></clipPath><clipPath id="8c76c00b71"><path d="M 17.285156 0 L 252.484375 0 C 257.054688 0 261.433594 1.816406 264.664062 5.046875 C 267.898438 8.277344 269.710938 12.65625 269.710938 17.226562 L 269.710938 352.574219 C 269.710938 357.144531 267.898438 361.523438 264.664062 364.757812 C 261.433594 367.988281 257.054688 369.800781 252.484375 369.800781 L 17.285156 369.800781 C 12.714844 369.800781 8.332031 367.988281 5.101562 364.757812 C 1.871094 361.523438 0.0585938 357.144531 0.0585938 352.574219 L 0.0585938 17.226562 C 0.0585938 12.65625 1.871094 8.277344 5.101562 5.046875 C 8.332031 1.816406 12.714844 0 17.285156 0 Z M 17.285156 0 " clip-rule="nonzero"/></clipPath><clipPath id="87e01a98fc"><rect x="0" width="270" y="0" height="370"/></clipPath><clipPath id="c841b2e2fe"><path d="M 133.375 160.320312 L 216.683594 160.320312 L 216.683594 276.824219 L 133.375 276.824219 Z M 133.375 160.320312 " clip-rule="nonzero"/></clipPath><clipPath id="641fa9a973"><path d="M 150.601562 160.320312 L 199.457031 160.320312 C 204.023438 160.320312 208.40625 162.136719 211.636719 165.367188 C 214.867188 168.597656 216.683594 172.980469 216.683594 177.546875 L 216.683594 259.363281 C 216.683594 263.929688 214.867188 268.3125 211.636719 271.542969 C 208.40625 274.773438 204.023438 276.589844 199.457031 276.589844 L 150.601562 276.589844 C 146.03125 276.589844 141.648438 274.773438 138.417969 271.542969 C 135.1875 268.3125 133.375 263.929688 133.375 259.363281 L 133.375 177.546875 C 133.375 172.980469 135.1875 168.597656 138.417969 165.367188 C 141.648438 162.136719 146.03125 160.320312 150.601562 160.320312 Z M 150.601562 160.320312 " clip-rule="nonzero"/></clipPath><clipPath id="6ddf97aa37"><path d="M 87.3125 159.886719 L 204.011719 159.886719 L 204.011719 276.589844 L 87.3125 276.589844 Z M 87.3125 159.886719 " clip-rule="nonzero"/></clipPath><clipPath id="65a0b11e97"><path d="M 145.664062 159.886719 C 113.433594 159.886719 87.3125 186.011719 87.3125 218.238281 C 87.3125 250.464844 113.433594 276.589844 145.664062 276.589844 C 177.890625 276.589844 204.011719 250.464844 204.011719 218.238281 C 204.011719 186.011719 177.890625 159.886719 145.664062 159.886719 Z M 145.664062 159.886719 " clip-rule="nonzero"/></clipPath><clipPath id="31cd266f82"><path d="M 47.03125 187.171875 L 80.125 187.171875 L 80.125 256.84375 L 47.03125 256.84375 Z M 47.03125 187.171875 " clip-rule="nonzero"/></clipPath><clipPath id="f12f3e8f8d"><path d="M 121 95 L 169 95 L 169 206 L 121 206 Z M 121 95 " clip-rule="nonzero"/></clipPath><clipPath id="b1a970d2c4"><path d="M 138.21875 93.214844 L 171.535156 99.03125 L 152.464844 208.222656 L 119.148438 202.40625 Z M 138.21875 93.214844 " clip-rule="nonzero"/></clipPath><clipPath id="98d54f100a"><path d="M 154.875 96.125 C 164.074219 97.730469 170.230469 106.492188 168.625 115.691406 L 155.378906 191.539062 C 153.769531 200.738281 145.011719 206.894531 135.808594 205.285156 C 126.609375 203.679688 120.453125 194.917969 122.0625 185.71875 L 135.308594 109.871094 C 136.914062 100.671875 145.675781 94.515625 154.875 96.125 Z M 154.875 96.125 " clip-rule="nonzero"/></clipPath><clipPath id="db3c54ceee"><path d="M 186.8125 162.566406 L 221.214844 162.566406 L 221.214844 196.96875 L 186.8125 196.96875 Z M 186.8125 162.566406 " clip-rule="nonzero"/></clipPath><clipPath id="6faffb5ed4"><path d="M 204.015625 162.566406 C 194.515625 162.566406 186.8125 170.269531 186.8125 179.769531 C 186.8125 189.269531 194.515625 196.96875 204.015625 196.96875 C 213.511719 196.96875 221.214844 189.269531 221.214844 179.769531 C 221.214844 170.269531 213.511719 162.566406 204.015625 162.566406 Z M 204.015625 162.566406 " clip-rule="nonzero"/></clipPath><clipPath id="ead9a7f086"><path d="M 188.335938 190.996094 L 222.738281 190.996094 L 222.738281 225.394531 L 188.335938 225.394531 Z M 188.335938 190.996094 " clip-rule="nonzero"/></clipPath><clipPath id="3594a77793"><path d="M 205.539062 190.996094 C 196.039062 190.996094 188.335938 198.695312 188.335938 208.195312 C 188.335938 217.695312 196.039062 225.394531 205.539062 225.394531 C 215.039062 225.394531 222.738281 217.695312 222.738281 208.195312 C 222.738281 198.695312 215.039062 190.996094 205.539062 190.996094 Z M 205.539062 190.996094 " clip-rule="nonzero"/></clipPath><clipPath id="7c527967b7"><path d="M 188.335938 215.910156 L 222.738281 215.910156 L 222.738281 250.3125 L 188.335938 250.3125 Z M 188.335938 215.910156 " clip-rule="nonzero"/></clipPath><clipPath id="4c73a56e2d"><path d="M 205.539062 215.910156 C 196.039062 215.910156 188.335938 223.613281 188.335938 233.113281 C 188.335938 242.613281 196.039062 250.3125 205.539062 250.3125 C 215.039062 250.3125 222.738281 242.613281 222.738281 233.113281 C 222.738281 223.613281 215.039062 215.910156 205.539062 215.910156 Z M 205.539062 215.910156 " clip-rule="nonzero"/></clipPath><clipPath id="d4d3990cc4"><path d="M 188.335938 239.644531 L 222.738281 239.644531 L 222.738281 274.046875 L 188.335938 274.046875 Z M 188.335938 239.644531 " clip-rule="nonzero"/></clipPath><clipPath id="b9620d781a"><path d="M 205.539062 239.644531 C 196.039062 239.644531 188.335938 247.34375 188.335938 256.84375 C 188.335938 266.34375 196.039062 274.046875 205.539062 274.046875 C 215.039062 274.046875 222.738281 266.34375 222.738281 256.84375 C 222.738281 247.34375 215.039062 239.644531 205.539062 239.644531 Z M 205.539062 239.644531 " clip-rule="nonzero"/></clipPath></defs><g clip-path="url(#3e96dd9002)"><g mask="url(#112e3a8c51)"><g><g clip-path="url(#87e01a98fc)"><g clip-path="url(#57e0ef52d4)"><g clip-path="url(#8c76c00b71)"><path fill="#919191" d="M 0.0585938 0 L 269.710938 0 L 269.710938 369.722656 L 0.0585938 369.722656 Z M 0.0585938 0 " fill-opacity="1" fill-rule="nonzero"/></g></g></g></g></g></g><g clip-path="url(#c841b2e2fe)"><g clip-path="url(#641fa9a973)"><path fill="#00bf63" d="M 133.375 160.320312 L 216.683594 160.320312 L 216.683594 276.496094 L 133.375 276.496094 Z M 133.375 160.320312 " fill-opacity="1" fill-rule="nonzero"/></g></g><g clip-path="url(#6ddf97aa37)"><g clip-path="url(#65a0b11e97)"><path fill="#00bf63" d="M 87.3125 159.886719 L 204.011719 159.886719 L 204.011719 276.589844 L 87.3125 276.589844 Z M 87.3125 159.886719 " fill-opacity="1" fill-rule="nonzero"/></g></g><g clip-path="url(#31cd266f82)"><path fill="#00bf63" d="M 47.03125 187.171875 L 80.125 187.171875 L 80.125 256.851562 L 47.03125 256.851562 Z M 47.03125 187.171875 " fill-opacity="1" fill-rule="nonzero"/></g><g clip-path="url(#f12f3e8f8d)"><g clip-path="url(#b1a970d2c4)"><g clip-path="url(#98d54f100a)"><path fill="#00bf63" d="M 138.21875 93.214844 L 171.535156 99.03125 L 152.464844 208.222656 L 119.148438 202.40625 Z M 138.21875 93.214844 " fill-opacity="1" fill-rule="nonzero"/></g></g></g><g clip-path="url(#db3c54ceee)"><g clip-path="url(#6faffb5ed4)"><path fill="#00bf63" d="M 186.8125 162.566406 L 221.214844 162.566406 L 221.214844 196.96875 L 186.8125 196.96875 Z M 186.8125 162.566406 " fill-opacity="1" fill-rule="nonzero"/></g></g><g clip-path="url(#ead9a7f086)"><g clip-path="url(#3594a77793)"><path fill="#00bf63" d="M 188.335938 190.996094 L 222.738281 190.996094 L 222.738281 225.394531 L 188.335938 225.394531 Z M 188.335938 190.996094 " fill-opacity="1" fill-rule="nonzero"/></g></g><g clip-path="url(#7c527967b7)"><g clip-path="url(#4c73a56e2d)"><path fill="#00bf63" d="M 188.335938 215.910156 L 222.738281 215.910156 L 222.738281 250.3125 L 188.335938 250.3125 Z M 188.335938 215.910156 " fill-opacity="1" fill-rule="nonzero"/></g></g><g clip-path="url(#d4d3990cc4)"><g clip-path="url(#b9620d781a)"><path fill="#00bf63" d="M 188.335938 239.644531 L 222.738281 239.644531 L 222.738281 274.046875 L 188.335938 274.046875 Z M 188.335938 239.644531 " fill-opacity="1" fill-rule="nonzero"/></g></g></svg>