<svg xmlns="http://www.w3.org/2000/svg" xmlns:xlink="http://www.w3.org/1999/xlink" width="361" zoomAndPan="magnify" viewBox="0 0 270.75 370.499989" height="494" preserveAspectRatio="xMidYMid meet" version="1.0"><defs><filter x="0%" y="0%" width="100%" height="100%" id="0689c24e6f"><feColorMatrix values="0 0 0 0 1 0 0 0 0 1 0 0 0 0 1 0 0 0 1 0" color-interpolation-filters="sRGB"/></filter><clipPath id="6125ca62e0"><path d="M 0.0585938 0 L 270 0 L 270 370 L 0.0585938 370 Z M 0.0585938 0 " clip-rule="nonzero"/></clipPath><mask id="38d53d23c3"><g filter="url(#0689c24e6f)"><rect x="-27.075" width="324.9" fill="#000000" y="-37.049999" height="444.599987" fill-opacity="0.1"/></g></mask><clipPath id="54c5db4602"><path d="M 0.0585938 0 L 269.710938 0 L 269.710938 370 L 0.0585938 370 Z M 0.0585938 0 " clip-rule="nonzero"/></clipPath><clipPath id="548f1d2834"><path d="M 17.285156 0 L 252.484375 0 C 257.054688 0 261.433594 1.816406 264.664062 5.046875 C 267.898438 8.277344 269.710938 12.65625 269.710938 17.226562 L 269.710938 352.574219 C 269.710938 357.144531 267.898438 361.523438 264.664062 364.757812 C 261.433594 367.988281 257.054688 369.800781 252.484375 369.800781 L 17.285156 369.800781 C 12.714844 369.800781 8.332031 367.988281 5.101562 364.757812 C 1.871094 361.523438 0.0585938 357.144531 0.0585938 352.574219 L 0.0585938 17.226562 C 0.0585938 12.65625 1.871094 8.277344 5.101562 5.046875 C 8.332031 1.816406 12.714844 0 17.285156 0 Z M 17.285156 0 " clip-rule="nonzero"/></clipPath><clipPath id="c3c44797b8"><rect x="0" width="270" y="0" height="370"/></clipPath><clipPath id="3d83e40bad"><path d="M 52.882812 104.125 L 214.4375 104.125 L 214.4375 265.679688 L 52.882812 265.679688 Z M 52.882812 104.125 " clip-rule="nonzero"/></clipPath><clipPath id="9be6925c4f"><path d="M 133.660156 104.125 L 149.339844 126.382812 L 174.050781 114.945312 L 176.5 142.0625 L 203.617188 144.511719 L 192.179688 169.21875 L 214.4375 184.902344 L 192.179688 200.582031 L 203.617188 225.289062 L 176.5 227.738281 L 174.050781 254.855469 L 149.339844 243.417969 L 133.660156 265.679688 L 117.980469 243.417969 L 93.273438 254.855469 L 90.820312 227.738281 L 63.707031 225.289062 L 75.140625 200.582031 L 52.882812 184.902344 L 75.140625 169.21875 L 63.707031 144.511719 L 90.820312 142.0625 L 93.273438 114.945312 L 117.980469 126.382812 Z M 133.660156 104.125 " clip-rule="nonzero"/></clipPath></defs><g clip-path="url(#6125ca62e0)"><g mask="url(#38d53d23c3)"><g><g clip-path="url(#c3c44797b8)"><g clip-path="url(#54c5db4602)"><g clip-path="url(#548f1d2834)"><path fill="#919191" d="M 0.0585938 0 L 269.710938 0 L 269.710938 369.722656 L 0.0585938 369.722656 Z M 0.0585938 0 " fill-opacity="1" fill-rule="nonzero"/></g></g></g></g></g></g><g clip-path="url(#3d83e40bad)"><g clip-path="url(#9be6925c4f)"><path fill="#ffde59" d="M 52.882812 104.125 L 214.4375 104.125 L 214.4375 265.679688 L 52.882812 265.679688 Z M 52.882812 104.125 " fill-opacity="1" fill-rule="nonzero"/></g></g></svg>