<svg xmlns="http://www.w3.org/2000/svg" xmlns:xlink="http://www.w3.org/1999/xlink" width="361" zoomAndPan="magnify" viewBox="0 0 270.75 370.499989" height="494" preserveAspectRatio="xMidYMid meet" version="1.0"><defs><filter x="0%" y="0%" width="100%" height="100%" id="a64f453728"><feColorMatrix values="0 0 0 0 1 0 0 0 0 1 0 0 0 0 1 0 0 0 1 0" color-interpolation-filters="sRGB"/></filter><clipPath id="4c574564f4"><path d="M 0.0585938 0 L 270 0 L 270 370 L 0.0585938 370 Z M 0.0585938 0 " clip-rule="nonzero"/></clipPath><mask id="59f5472864"><g filter="url(#a64f453728)"><rect x="-27.075" width="324.9" fill="#000000" y="-37.049999" height="444.599987" fill-opacity="0.1"/></g></mask><clipPath id="33742bcf70"><path d="M 0.0585938 0 L 269.710938 0 L 269.710938 370 L 0.0585938 370 Z M 0.0585938 0 " clip-rule="nonzero"/></clipPath><clipPath id="687d7e7d7c"><path d="M 18.78125 0 L 250.988281 0 C 255.953125 0 260.714844 1.972656 264.226562 5.484375 C 267.738281 8.996094 269.710938 13.757812 269.710938 18.726562 L 269.710938 351.078125 C 269.710938 356.042969 267.738281 360.804688 264.226562 364.316406 C 260.714844 367.828125 255.953125 369.800781 250.988281 369.800781 L 18.78125 369.800781 C 13.816406 369.800781 9.054688 367.828125 5.542969 364.316406 C 2.03125 360.804688 0.0585938 356.042969 0.0585938 351.078125 L 0.0585938 18.726562 C 0.0585938 13.757812 2.03125 8.996094 5.542969 5.484375 C 9.054688 1.972656 13.816406 0 18.78125 0 Z M 18.78125 0 " clip-rule="nonzero"/></clipPath><clipPath id="fcfee06c76"><rect x="0" width="270" y="0" height="370"/></clipPath><clipPath id="dc79249dd1"><path d="M 106.761719 62.242188 L 153.421875 62.242188 L 153.421875 207.507812 L 106.761719 207.507812 Z M 106.761719 62.242188 " clip-rule="nonzero"/></clipPath><clipPath id="38db3d4150"><path d="M 153.421875 181.683594 C 153.421875 195.890625 142.976562 207.40625 130.09375 207.40625 C 117.207031 207.40625 106.761719 195.890625 106.761719 181.683594 L 106.761719 87.964844 C 106.761719 73.757812 117.207031 62.242188 130.09375 62.242188 C 142.976562 62.242188 153.421875 73.757812 153.421875 87.964844 Z M 153.421875 181.683594 " clip-rule="nonzero"/></clipPath><clipPath id="b33b74dc55"><path d="M 19 127 L 147 127 L 147 208 L 19 208 Z M 19 127 " clip-rule="nonzero"/></clipPath><clipPath id="fc31c069d8"><path d="M 33.589844 231.421875 L 10.773438 167.585938 L 123.484375 127.300781 L 146.300781 191.140625 Z M 33.589844 231.421875 " clip-rule="nonzero"/></clipPath><clipPath id="a983052a48"><path d="M 24.929688 207.203125 L 19.429688 191.808594 L 123.363281 127.347656 L 146.175781 191.183594 Z M 24.929688 207.203125 " clip-rule="nonzero"/></clipPath><clipPath id="2e0c1b2c26"><path d="M 123 128 L 251 128 L 251 209 L 123 209 Z M 123 128 " clip-rule="nonzero"/></clipPath><clipPath id="cab93463da"><path d="M 258.992188 169.339844 L 235.574219 232.960938 L 123.246094 191.605469 L 146.667969 127.988281 Z M 258.992188 169.339844 " clip-rule="nonzero"/></clipPath><clipPath id="9a02b82a54"><path d="M 250.105469 193.480469 L 244.460938 208.820312 L 123.371094 191.652344 L 146.792969 128.035156 Z M 250.105469 193.480469 " clip-rule="nonzero"/></clipPath><clipPath id="388b640040"><path d="M 110.574219 132.082031 L 152.050781 132.082031 L 152.050781 277.246094 L 110.574219 277.246094 Z M 110.574219 132.082031 " clip-rule="nonzero"/></clipPath><clipPath id="004733ef65"><path d="M 152.050781 251.523438 C 152.050781 265.726562 142.765625 277.246094 131.3125 277.246094 C 119.859375 277.246094 110.574219 265.726562 110.574219 251.523438 L 110.574219 157.804688 C 110.574219 143.597656 119.859375 132.082031 131.3125 132.082031 C 142.765625 132.082031 152.050781 143.597656 152.050781 157.804688 Z M 152.050781 251.523438 " clip-rule="nonzero"/></clipPath><clipPath id="71d11c3073"><path d="M 53 218 L 136 218 L 136 276 L 53 276 Z M 53 218 " clip-rule="nonzero"/></clipPath><clipPath id="71fbc8f529"><path d="M 64.242188 299.449219 L 44.570312 244.402344 L 116.386719 218.734375 L 136.0625 273.78125 Z M 64.242188 299.449219 " clip-rule="nonzero"/></clipPath><clipPath id="580160e8a7"><path d="M 55.585938 275.226562 L 53.226562 268.625 L 116.183594 218.808594 L 135.859375 273.855469 Z M 55.585938 275.226562 " clip-rule="nonzero"/></clipPath><clipPath id="2be91e9a77"><path d="M 121 218 L 204 218 L 204 275 L 121 275 Z M 121 218 " clip-rule="nonzero"/></clipPath><clipPath id="ff4f4cf2e8"><path d="M 212.457031 244.050781 L 193.054688 299.191406 L 121.109375 273.882812 L 140.511719 218.738281 Z M 212.457031 244.050781 " clip-rule="nonzero"/></clipPath><clipPath id="df17d0633d"><path d="M 203.917969 268.316406 L 201.589844 274.929688 L 121.3125 273.953125 L 140.714844 218.808594 Z M 203.917969 268.316406 " clip-rule="nonzero"/></clipPath><clipPath id="f2278318f8"><path d="M 78.472656 204.664062 L 181.363281 204.664062 L 181.363281 307.558594 L 78.472656 307.558594 Z M 78.472656 204.664062 " clip-rule="nonzero"/></clipPath><clipPath id="9d199e08ce"><path d="M 129.917969 204.664062 L 146.289062 239.742188 L 181.363281 256.109375 L 146.289062 272.480469 L 129.917969 307.558594 L 113.550781 272.480469 L 78.472656 256.109375 L 113.550781 239.742188 Z M 129.917969 204.664062 " clip-rule="nonzero"/></clipPath><clipPath id="6592f99eb9"><path d="M 69 136 L 99 136 L 99 182 L 69 182 Z M 69 136 " clip-rule="nonzero"/></clipPath><clipPath id="3a14ec4d64"><path d="M 78.113281 132.742188 L 103.898438 177.304688 L 90.25 185.199219 L 64.464844 140.640625 Z M 78.113281 132.742188 " clip-rule="nonzero"/></clipPath><clipPath id="533280576d"><path d="M 90.996094 155.007812 C 98.109375 167.304688 100.824219 179.039062 97.054688 181.21875 C 93.289062 183.398438 84.464844 175.199219 77.347656 162.902344 C 70.234375 150.605469 67.519531 138.871094 71.289062 136.691406 C 75.058594 134.511719 83.878906 142.710938 90.996094 155.007812 Z M 90.996094 155.007812 " clip-rule="nonzero"/></clipPath><clipPath id="ee584d483e"><path d="M 43 153 L 73 153 L 73 199 L 43 199 Z M 43 153 " clip-rule="nonzero"/></clipPath><clipPath id="f3599d7872"><path d="M 52.015625 149.660156 L 77.800781 194.21875 L 64.15625 202.117188 L 38.371094 157.554688 Z M 52.015625 149.660156 " clip-rule="nonzero"/></clipPath><clipPath id="693443133c"><path d="M 64.898438 171.921875 C 72.015625 184.21875 74.726562 195.953125 70.960938 198.136719 C 67.191406 200.316406 58.371094 192.117188 51.253906 179.820312 C 44.140625 167.523438 41.425781 155.789062 45.195312 153.605469 C 48.960938 151.425781 57.785156 159.628906 64.898438 171.921875 Z M 64.898438 171.921875 " clip-rule="nonzero"/></clipPath><clipPath id="e3a3d9b144"><path d="M 161 136 L 197 136 L 197 178 L 161 178 Z M 161 136 " clip-rule="nonzero"/></clipPath><clipPath id="7cefb7b927"><path d="M 201.148438 142.140625 L 168.273438 181.765625 L 156.140625 171.699219 L 189.011719 132.074219 Z M 201.148438 142.140625 " clip-rule="nonzero"/></clipPath><clipPath id="4af0c25371"><path d="M 184.722656 161.9375 C 175.652344 172.871094 165.582031 179.480469 162.234375 176.703125 C 158.882812 173.921875 163.519531 162.804688 172.589844 151.871094 C 181.660156 140.9375 191.730469 134.328125 195.082031 137.109375 C 198.429688 139.886719 193.792969 151.003906 184.722656 161.9375 Z M 184.722656 161.9375 " clip-rule="nonzero"/></clipPath><clipPath id="e2c1afd274"><path d="M 187 154 L 223 154 L 223 195 L 187 195 Z M 187 154 " clip-rule="nonzero"/></clipPath><clipPath id="5261bf0d78"><path d="M 227.210938 159.71875 L 194.339844 199.34375 L 182.207031 189.277344 L 215.078125 149.652344 Z M 227.210938 159.71875 " clip-rule="nonzero"/></clipPath><clipPath id="d1b1c85463"><path d="M 210.789062 179.515625 C 201.71875 190.449219 191.648438 197.058594 188.296875 194.28125 C 184.949219 191.5 189.585938 180.382812 198.65625 169.449219 C 207.726562 158.515625 217.796875 151.90625 221.144531 154.6875 C 224.496094 157.464844 219.859375 168.582031 210.789062 179.515625 Z M 210.789062 179.515625 " clip-rule="nonzero"/></clipPath></defs><g clip-path="url(#4c574564f4)"><g mask="url(#59f5472864)"><g><g clip-path="url(#fcfee06c76)"><g clip-path="url(#33742bcf70)"><g clip-path="url(#687d7e7d7c)"><path fill="#919191" d="M 0.0585938 0 L 269.710938 0 L 269.710938 369.722656 L 0.0585938 369.722656 Z M 0.0585938 0 " fill-opacity="1" fill-rule="nonzero"/></g></g></g></g></g></g><g clip-path="url(#dc79249dd1)"><g clip-path="url(#38db3d4150)"><path fill="#004aad" d="M 153.421875 62.242188 L 153.421875 207.328125 L 106.761719 207.328125 L 106.761719 62.242188 Z M 153.421875 62.242188 " fill-opacity="1" fill-rule="nonzero"/></g></g><g clip-path="url(#b33b74dc55)"><g clip-path="url(#fc31c069d8)"><g clip-path="url(#a983052a48)"><path fill="#004aad" d="M 33.589844 231.421875 L 10.773438 167.585938 L 123.484375 127.300781 L 146.300781 191.140625 Z M 33.589844 231.421875 " fill-opacity="1" fill-rule="nonzero"/></g></g></g><g clip-path="url(#2e0c1b2c26)"><g clip-path="url(#cab93463da)"><g clip-path="url(#9a02b82a54)"><path fill="#004aad" d="M 258.992188 169.339844 L 235.574219 232.960938 L 123.246094 191.605469 L 146.667969 127.988281 Z M 258.992188 169.339844 " fill-opacity="1" fill-rule="nonzero"/></g></g></g><g clip-path="url(#388b640040)"><g clip-path="url(#004733ef65)"><path fill="#004aad" d="M 152.050781 132.082031 L 152.050781 277.246094 L 110.574219 277.246094 L 110.574219 132.082031 Z M 152.050781 132.082031 " fill-opacity="1" fill-rule="nonzero"/></g></g><g clip-path="url(#71d11c3073)"><g clip-path="url(#71fbc8f529)"><g clip-path="url(#580160e8a7)"><path fill="#004aad" d="M 64.242188 299.449219 L 44.570312 244.402344 L 116.171875 218.8125 L 135.847656 273.859375 Z M 64.242188 299.449219 " fill-opacity="1" fill-rule="nonzero"/></g></g></g><g clip-path="url(#2be91e9a77)"><g clip-path="url(#ff4f4cf2e8)"><g clip-path="url(#df17d0633d)"><path fill="#004aad" d="M 212.457031 244.050781 L 193.054688 299.191406 L 121.324219 273.957031 L 140.726562 218.8125 Z M 212.457031 244.050781 " fill-opacity="1" fill-rule="nonzero"/></g></g></g><g clip-path="url(#f2278318f8)"><g clip-path="url(#9d199e08ce)"><path fill="#004aad" d="M 78.472656 204.664062 L 181.363281 204.664062 L 181.363281 307.558594 L 78.472656 307.558594 Z M 78.472656 204.664062 " fill-opacity="1" fill-rule="nonzero"/></g></g><g clip-path="url(#6592f99eb9)"><g clip-path="url(#3a14ec4d64)"><g clip-path="url(#533280576d)"><path fill="#004aad" d="M 78.113281 132.742188 L 103.867188 177.25 L 90.222656 185.148438 L 64.464844 140.640625 Z M 78.113281 132.742188 " fill-opacity="1" fill-rule="nonzero"/></g></g></g><g clip-path="url(#ee584d483e)"><g clip-path="url(#f3599d7872)"><g clip-path="url(#693443133c)"><path fill="#004aad" d="M 52.015625 149.660156 L 77.769531 194.167969 L 64.125 202.0625 L 38.371094 157.554688 Z M 52.015625 149.660156 " fill-opacity="1" fill-rule="nonzero"/></g></g></g><g clip-path="url(#e3a3d9b144)"><g clip-path="url(#7cefb7b927)"><g clip-path="url(#4af0c25371)"><path fill="#004aad" d="M 201.148438 142.140625 L 168.3125 181.71875 L 156.179688 171.652344 L 189.011719 132.074219 Z M 201.148438 142.140625 " fill-opacity="1" fill-rule="nonzero"/></g></g></g><g clip-path="url(#e2c1afd274)"><g clip-path="url(#5261bf0d78)"><g clip-path="url(#d1b1c85463)"><path fill="#004aad" d="M 227.210938 159.71875 L 194.378906 199.296875 L 182.246094 189.230469 L 215.078125 149.652344 Z M 227.210938 159.71875 " fill-opacity="1" fill-rule="nonzero"/></g></g></g></svg>