<svg xmlns="http://www.w3.org/2000/svg" xmlns:xlink="http://www.w3.org/1999/xlink" width="361" zoomAndPan="magnify" viewBox="0 0 270.75 370.499989" height="494" preserveAspectRatio="xMidYMid meet" version="1.0"><defs><filter x="0%" y="0%" width="100%" height="100%" id="2421ce2376"><feColorMatrix values="0 0 0 0 1 0 0 0 0 1 0 0 0 0 1 0 0 0 1 0" color-interpolation-filters="sRGB"/></filter><clipPath id="2b85dab087"><path d="M 0.0585938 0 L 270 0 L 270 370 L 0.0585938 370 Z M 0.0585938 0 " clip-rule="nonzero"/></clipPath><mask id="92b94f375e"><g filter="url(#2421ce2376)"><rect x="-27.075" width="324.9" fill="#000000" y="-37.049999" height="444.599987" fill-opacity="0.1"/></g></mask><clipPath id="4b02280123"><path d="M 0.0585938 0 L 269.710938 0 L 269.710938 370 L 0.0585938 370 Z M 0.0585938 0 " clip-rule="nonzero"/></clipPath><clipPath id="d762071d27"><path d="M 19.53125 0 L 250.238281 0 C 260.992188 0 269.710938 8.71875 269.710938 19.472656 L 269.710938 350.328125 C 269.710938 361.082031 260.992188 369.800781 250.238281 369.800781 L 19.53125 369.800781 C 8.777344 369.800781 0.0585938 361.082031 0.0585938 350.328125 L 0.0585938 19.472656 C 0.0585938 8.71875 8.777344 0 19.53125 0 Z M 19.53125 0 " clip-rule="nonzero"/></clipPath><clipPath id="e179013fbc"><rect x="0" width="270" y="0" height="370"/></clipPath><clipPath id="c26407ef18"><path d="M 30.199219 177.523438 L 239.683594 177.523438 L 239.683594 221.410156 L 30.199219 221.410156 Z M 30.199219 177.523438 " clip-rule="nonzero"/></clipPath><clipPath id="719fd9037a"><path d="M 100.027344 180.160156 C 110.726562 178.566406 122.964844 177.523438 134.941406 177.523438 C 146.917969 177.523438 158.445312 178.417969 169.066406 180.011719 C 169.289062 180.058594 169.515625 180.058594 169.742188 180.109375 C 209.628906 186.476562 239.007812 203.285156 239.570312 221.410156 L 30.199219 221.410156 C 30.761719 203.1875 59.6875 186.375 100.027344 180.160156 Z M 100.027344 180.160156 " clip-rule="nonzero"/></clipPath><clipPath id="a7074bcf8c"><path d="M 82.453125 132.660156 L 185.996094 132.660156 L 185.996094 176.542969 L 82.453125 176.542969 Z M 82.453125 132.660156 " clip-rule="nonzero"/></clipPath><clipPath id="8b1588ecf2"><path d="M 116.964844 135.292969 C 122.25 133.703125 128.300781 132.660156 134.21875 132.660156 C 140.136719 132.660156 145.832031 133.554688 151.082031 135.144531 C 151.195312 135.195312 151.304688 135.195312 151.417969 135.246094 C 171.128906 141.609375 185.648438 158.421875 185.929688 176.542969 L 82.453125 176.542969 C 82.730469 158.320312 97.027344 141.511719 116.964844 135.292969 Z M 116.964844 135.292969 " clip-rule="nonzero"/></clipPath><clipPath id="e755fc19b4"><path d="M 128.816406 114.03125 L 139.5625 114.03125 L 139.5625 130.445312 L 128.816406 130.445312 Z M 128.816406 114.03125 " clip-rule="nonzero"/></clipPath><clipPath id="02865e101c"><path d="M 134.191406 114.03125 L 139.5625 130.410156 L 128.816406 130.410156 Z M 134.191406 114.03125 " clip-rule="nonzero"/></clipPath><clipPath id="8ac9072c3d"><path d="M 51.019531 223.65625 L 217.367188 223.65625 L 217.367188 235.414062 L 51.019531 235.414062 Z M 51.019531 223.65625 " clip-rule="nonzero"/></clipPath><clipPath id="8caedf719f"><path d="M 189.277344 223.65625 C 204.789062 223.65625 217.363281 226.289062 217.363281 229.535156 C 217.363281 232.78125 204.789062 235.414062 189.277344 235.414062 L 79.105469 235.414062 C 63.59375 235.414062 51.019531 232.78125 51.019531 229.535156 C 51.019531 226.289062 63.59375 223.65625 79.105469 223.65625 Z M 189.277344 223.65625 " clip-rule="nonzero"/></clipPath><clipPath id="8a524d8481"><path d="M 116.050781 237.660156 L 153.757812 237.660156 L 153.757812 255.773438 L 116.050781 255.773438 Z M 116.050781 237.660156 " clip-rule="nonzero"/></clipPath><clipPath id="b43d422d1c"><path d="M 128.613281 254.683594 C 130.542969 255.339844 132.738281 255.773438 134.894531 255.773438 C 137.050781 255.773438 139.125 255.402344 141.035156 254.746094 C 141.074219 254.726562 141.117188 254.726562 141.15625 254.703125 C 148.332031 252.078125 153.617188 245.140625 153.71875 237.660156 L 116.050781 237.660156 C 116.152344 245.179688 121.355469 252.117188 128.613281 254.683594 Z M 128.613281 254.683594 " clip-rule="nonzero"/></clipPath><clipPath id="7500e9b8e3"><path d="M 76.667969 237.660156 L 114.375 237.660156 L 114.375 255.773438 L 76.667969 255.773438 Z M 76.667969 237.660156 " clip-rule="nonzero"/></clipPath><clipPath id="72057909d1"><path d="M 89.230469 254.683594 C 91.160156 255.339844 93.355469 255.773438 95.511719 255.773438 C 97.667969 255.773438 99.742188 255.402344 101.652344 254.746094 C 101.691406 254.726562 101.734375 254.726562 101.773438 254.703125 C 108.949219 252.078125 114.234375 245.140625 114.335938 237.660156 L 76.667969 237.660156 C 76.769531 245.179688 81.972656 252.117188 89.230469 254.683594 Z M 89.230469 254.683594 " clip-rule="nonzero"/></clipPath><clipPath id="808d7d9820"><path d="M 155.964844 237.660156 L 193.671875 237.660156 L 193.671875 255.773438 L 155.964844 255.773438 Z M 155.964844 237.660156 " clip-rule="nonzero"/></clipPath><clipPath id="65dd5ed54e"><path d="M 168.53125 254.683594 C 170.460938 255.339844 172.65625 255.773438 174.8125 255.773438 C 176.964844 255.773438 179.039062 255.402344 180.949219 254.746094 C 180.992188 254.726562 181.03125 254.726562 181.074219 254.703125 C 188.25 252.078125 193.535156 245.140625 193.636719 237.660156 L 155.964844 237.660156 C 156.066406 245.179688 161.273438 252.117188 168.53125 254.683594 Z M 168.53125 254.683594 " clip-rule="nonzero"/></clipPath></defs><g clip-path="url(#2b85dab087)"><g mask="url(#92b94f375e)"><g><g clip-path="url(#e179013fbc)"><g clip-path="url(#4b02280123)"><g clip-path="url(#d762071d27)"><path fill="#919191" d="M 0.0585938 0 L 269.710938 0 L 269.710938 369.722656 L 0.0585938 369.722656 Z M 0.0585938 0 " fill-opacity="1" fill-rule="nonzero"/></g></g></g></g></g></g><g clip-path="url(#c26407ef18)"><g clip-path="url(#719fd9037a)"><path fill="#0097b2" d="M 30.199219 177.523438 L 239.511719 177.523438 L 239.511719 221.410156 L 30.199219 221.410156 Z M 30.199219 177.523438 " fill-opacity="1" fill-rule="nonzero"/></g></g><g clip-path="url(#a7074bcf8c)"><g clip-path="url(#8b1588ecf2)"><path fill="#0097b2" d="M 82.453125 132.660156 L 185.996094 132.660156 L 185.996094 176.542969 L 82.453125 176.542969 Z M 82.453125 132.660156 " fill-opacity="1" fill-rule="nonzero"/></g></g><g clip-path="url(#e755fc19b4)"><g clip-path="url(#02865e101c)"><path fill="#0097b2" d="M 128.816406 114.03125 L 139.5625 114.03125 L 139.5625 130.402344 L 128.816406 130.402344 Z M 128.816406 114.03125 " fill-opacity="1" fill-rule="nonzero"/></g></g><g clip-path="url(#8ac9072c3d)"><g clip-path="url(#8caedf719f)"><path fill="#0097b2" d="M 51.019531 223.65625 L 217.367188 223.65625 L 217.367188 235.414062 L 51.019531 235.414062 Z M 51.019531 223.65625 " fill-opacity="1" fill-rule="nonzero"/></g></g><g clip-path="url(#8a524d8481)"><g clip-path="url(#b43d422d1c)"><path fill="#0097b2" d="M 116.050781 237.660156 L 153.683594 237.660156 L 153.683594 255.773438 L 116.050781 255.773438 Z M 116.050781 237.660156 " fill-opacity="1" fill-rule="nonzero"/></g></g><g clip-path="url(#7500e9b8e3)"><g clip-path="url(#72057909d1)"><path fill="#0097b2" d="M 76.667969 237.660156 L 114.300781 237.660156 L 114.300781 255.773438 L 76.667969 255.773438 Z M 76.667969 237.660156 " fill-opacity="1" fill-rule="nonzero"/></g></g><g clip-path="url(#808d7d9820)"><g clip-path="url(#65dd5ed54e)"><path fill="#0097b2" d="M 155.964844 237.660156 L 193.601562 237.660156 L 193.601562 255.773438 L 155.964844 255.773438 Z M 155.964844 237.660156 " fill-opacity="1" fill-rule="nonzero"/></g></g></svg>