<svg xmlns="http://www.w3.org/2000/svg" xmlns:xlink="http://www.w3.org/1999/xlink" width="361" zoomAndPan="magnify" viewBox="0 0 270.75 370.499989" height="494" preserveAspectRatio="xMidYMid meet" version="1.0"><defs><filter x="0%" y="0%" width="100%" height="100%" id="c1eb706970"><feColorMatrix values="0 0 0 0 1 0 0 0 0 1 0 0 0 0 1 0 0 0 1 0" color-interpolation-filters="sRGB"/></filter><clipPath id="80f16b3603"><path d="M 0.0585938 0 L 270 0 L 270 370 L 0.0585938 370 Z M 0.0585938 0 " clip-rule="nonzero"/></clipPath><mask id="47c6450fca"><g filter="url(#c1eb706970)"><rect x="-27.075" width="324.9" fill="#000000" y="-37.049999" height="444.599987" fill-opacity="0.1"/></g></mask><clipPath id="081828aeb1"><path d="M 0.0585938 0 L 269.710938 0 L 269.710938 370 L 0.0585938 370 Z M 0.0585938 0 " clip-rule="nonzero"/></clipPath><clipPath id="9c5856e17e"><path d="M 19.53125 0 L 250.238281 0 C 260.992188 0 269.710938 8.71875 269.710938 19.472656 L 269.710938 350.328125 C 269.710938 361.082031 260.992188 369.800781 250.238281 369.800781 L 19.53125 369.800781 C 8.777344 369.800781 0.0585938 361.082031 0.0585938 350.328125 L 0.0585938 19.472656 C 0.0585938 8.71875 8.777344 0 19.53125 0 Z M 19.53125 0 " clip-rule="nonzero"/></clipPath><clipPath id="dce8c043d4"><rect x="0" width="270" y="0" height="370"/></clipPath><clipPath id="4c0d34bc8c"><path d="M 105.859375 94.984375 L 204.941406 94.984375 L 204.941406 192.917969 L 105.859375 192.917969 Z M 105.859375 94.984375 " clip-rule="nonzero"/></clipPath><clipPath id="d2cd9d9ef0"><path d="M 136.183594 94.984375 L 204.585938 94.984375 L 174.261719 192.917969 L 105.859375 192.917969 Z M 136.183594 94.984375 " clip-rule="nonzero"/></clipPath><clipPath id="bf2e2fb26e"><path d="M 65.183594 171.121094 L 167.082031 171.121094 L 167.082031 192.917969 L 65.183594 192.917969 Z M 65.183594 171.121094 " clip-rule="nonzero"/></clipPath></defs><g clip-path="url(#80f16b3603)"><g mask="url(#47c6450fca)"><g><g clip-path="url(#dce8c043d4)"><g clip-path="url(#081828aeb1)"><g clip-path="url(#9c5856e17e)"><path fill="#919191" d="M 0.0585938 0 L 269.710938 0 L 269.710938 369.722656 L 0.0585938 369.722656 Z M 0.0585938 0 " fill-opacity="1" fill-rule="nonzero"/></g></g></g></g></g></g><g clip-path="url(#4c0d34bc8c)"><g clip-path="url(#d2cd9d9ef0)"><path fill="#ff3131" d="M 105.859375 94.984375 L 204.558594 94.984375 L 204.558594 192.917969 L 105.859375 192.917969 Z M 105.859375 94.984375 " fill-opacity="1" fill-rule="nonzero"/></g></g><g clip-path="url(#bf2e2fb26e)"><path fill="#ff3131" d="M 65.183594 171.121094 L 167.097656 171.121094 L 167.097656 192.917969 L 65.183594 192.917969 Z M 65.183594 171.121094 " fill-opacity="1" fill-rule="nonzero"/></g><path stroke-linecap="round" transform="matrix(0.00000000130723, 0.748989, -0.748989, 0.00000000130723, 84.013592, 182.021073)" fill="none" stroke-linejoin="miter" d="M 6.000824 6.000169 L 117.844273 6.000169 " stroke="#ff3131" stroke-width="12" stroke-opacity="1" stroke-miterlimit="4"/><path stroke-linecap="round" transform="matrix(0.00000000130723, 0.748989, -0.748989, 0.00000000130723, 173.445451, 181.985965)" fill="none" stroke-linejoin="miter" d="M 6.00076 5.997852 L 117.948516 5.997852 " stroke="#ff3131" stroke-width="12" stroke-opacity="1" stroke-miterlimit="4"/><path stroke-linecap="round" transform="matrix(0, 0.748989, -0.748989, 0, 139.54329, 182.021073)" fill="none" stroke-linejoin="miter" d="M 6.000824 5.998095 L 117.844273 5.998095 " stroke="#ff3131" stroke-width="12" stroke-opacity="1" stroke-miterlimit="4"/></svg>