<svg xmlns="http://www.w3.org/2000/svg" xmlns:xlink="http://www.w3.org/1999/xlink" width="361" zoomAndPan="magnify" viewBox="0 0 270.75 370.499989" height="494" preserveAspectRatio="xMidYMid meet" version="1.0"><defs><filter x="0%" y="0%" width="100%" height="100%" id="146e96e258"><feColorMatrix values="0 0 0 0 1 0 0 0 0 1 0 0 0 0 1 0 0 0 1 0" color-interpolation-filters="sRGB"/></filter><clipPath id="ce1005d0ac"><path d="M 0.0585938 0 L 270 0 L 270 370 L 0.0585938 370 Z M 0.0585938 0 " clip-rule="nonzero"/></clipPath><mask id="959d5094cd"><g filter="url(#146e96e258)"><rect x="-27.075" width="324.9" fill="#000000" y="-37.049999" height="444.599987" fill-opacity="0.3"/></g></mask><clipPath id="6fa6add3f2"><path d="M 0.0585938 0 L 269.710938 0 L 269.710938 370 L 0.0585938 370 Z M 0.0585938 0 " clip-rule="nonzero"/></clipPath><clipPath id="41b1a5d6b7"><path d="M 17.285156 0 L 252.484375 0 C 257.054688 0 261.433594 1.816406 264.664062 5.046875 C 267.898438 8.277344 269.710938 12.65625 269.710938 17.226562 L 269.710938 352.574219 C 269.710938 357.144531 267.898438 361.523438 264.664062 364.757812 C 261.433594 367.988281 257.054688 369.800781 252.484375 369.800781 L 17.285156 369.800781 C 12.714844 369.800781 8.332031 367.988281 5.101562 364.757812 C 1.871094 361.523438 0.0585938 357.144531 0.0585938 352.574219 L 0.0585938 17.226562 C 0.0585938 12.65625 1.871094 8.277344 5.101562 5.046875 C 8.332031 1.816406 12.714844 0 17.285156 0 Z M 17.285156 0 " clip-rule="nonzero"/></clipPath><clipPath id="2fd0ecfed4"><rect x="0" width="270" y="0" height="370"/></clipPath><clipPath id="b29a73e1ee"><path d="M 76.097656 218.429688 L 103.96875 218.429688 L 103.96875 246.300781 L 76.097656 246.300781 Z M 76.097656 218.429688 " clip-rule="nonzero"/></clipPath><clipPath id="bb2c9635f7"><path d="M 90.03125 218.429688 C 82.335938 218.429688 76.097656 224.667969 76.097656 232.367188 C 76.097656 240.0625 82.335938 246.300781 90.03125 246.300781 C 97.726562 246.300781 103.96875 240.0625 103.96875 232.367188 C 103.96875 224.667969 97.726562 218.429688 90.03125 218.429688 Z M 90.03125 218.429688 " clip-rule="nonzero"/></clipPath><clipPath id="6ac4405a8a"><path d="M 157.753906 218.429688 L 185.625 218.429688 L 185.625 246.300781 L 157.753906 246.300781 Z M 157.753906 218.429688 " clip-rule="nonzero"/></clipPath><clipPath id="682701ae21"><path d="M 171.691406 218.429688 C 163.992188 218.429688 157.753906 224.667969 157.753906 232.367188 C 157.753906 240.0625 163.992188 246.300781 171.691406 246.300781 C 179.386719 246.300781 185.625 240.0625 185.625 232.367188 C 185.625 224.667969 179.386719 218.429688 171.691406 218.429688 Z M 171.691406 218.429688 " clip-rule="nonzero"/></clipPath><clipPath id="37c9bf64a8"><path d="M 52.742188 145.808594 L 217.058594 145.808594 L 217.058594 223.996094 L 52.742188 223.996094 Z M 52.742188 145.808594 " clip-rule="nonzero"/></clipPath><clipPath id="a00344a919"><path d="M 69.96875 145.808594 L 199.800781 145.808594 C 204.367188 145.808594 208.75 147.621094 211.980469 150.851562 C 215.210938 154.082031 217.027344 158.464844 217.027344 163.035156 L 217.027344 206.769531 C 217.027344 211.335938 215.210938 215.71875 211.980469 218.949219 C 208.75 222.179688 204.367188 223.996094 199.800781 223.996094 L 69.96875 223.996094 C 65.402344 223.996094 61.019531 222.179688 57.789062 218.949219 C 54.558594 215.71875 52.742188 211.335938 52.742188 206.769531 L 52.742188 163.035156 C 52.742188 158.464844 54.558594 154.082031 57.789062 150.851562 C 61.019531 147.621094 65.402344 145.808594 69.96875 145.808594 Z M 69.96875 145.808594 " clip-rule="nonzero"/></clipPath><clipPath id="5f7f763e36"><path d="M 70.613281 118.992188 L 176.984375 118.992188 L 176.984375 162.5625 L 70.613281 162.5625 Z M 70.613281 118.992188 " clip-rule="nonzero"/></clipPath><clipPath id="2658e25df8"><path d="M 87.839844 118.992188 L 159.707031 118.992188 C 164.273438 118.992188 168.65625 120.808594 171.886719 124.039062 C 175.117188 127.269531 176.933594 131.652344 176.933594 136.21875 L 176.933594 145.335938 C 176.933594 149.902344 175.117188 154.285156 171.886719 157.515625 C 168.65625 160.746094 164.273438 162.5625 159.707031 162.5625 L 87.839844 162.5625 C 83.273438 162.5625 78.890625 160.746094 75.660156 157.515625 C 72.429688 154.285156 70.613281 149.902344 70.613281 145.335938 L 70.613281 136.21875 C 70.613281 131.652344 72.429688 127.269531 75.660156 124.039062 C 78.890625 120.808594 83.273438 118.992188 87.839844 118.992188 Z M 87.839844 118.992188 " clip-rule="nonzero"/></clipPath></defs><path fill="#ff3131" d="M 216.761719 157.246094 L 219.035156 155.296875 L 220.984375 157.570312 L 218.710938 159.519531 M 221.308594 153.347656 L 223.585938 151.398438 L 225.535156 153.671875 L 223.257812 155.621094 M 225.859375 149.449219 L 228.136719 147.5 L 230.085938 149.773438 L 227.808594 151.722656 M 230.410156 145.550781 L 232.6875 143.601562 L 234.636719 145.875 L 232.359375 147.824219 M 234.960938 141.652344 L 237.234375 139.703125 L 239.183594 141.976562 L 236.910156 143.925781 M 239.511719 137.753906 L 241.785156 135.804688 L 243.734375 138.078125 L 241.460938 140.027344 " fill-opacity="1" fill-rule="nonzero"/><g clip-path="url(#ce1005d0ac)"><g mask="url(#959d5094cd)"><g><g clip-path="url(#2fd0ecfed4)"><g clip-path="url(#6fa6add3f2)"><g clip-path="url(#41b1a5d6b7)"><path fill="#919191" d="M 0.0585938 0 L 269.710938 0 L 269.710938 369.722656 L 0.0585938 369.722656 Z M 0.0585938 0 " fill-opacity="1" fill-rule="nonzero"/></g></g></g></g></g></g><g clip-path="url(#b29a73e1ee)"><g clip-path="url(#bb2c9635f7)"><path fill="#ff3131" d="M 76.097656 218.429688 L 103.96875 218.429688 L 103.96875 246.300781 L 76.097656 246.300781 Z M 76.097656 218.429688 " fill-opacity="1" fill-rule="nonzero"/></g></g><g clip-path="url(#6ac4405a8a)"><g clip-path="url(#682701ae21)"><path fill="#ff3131" d="M 157.753906 218.429688 L 185.625 218.429688 L 185.625 246.300781 L 157.753906 246.300781 Z M 157.753906 218.429688 " fill-opacity="1" fill-rule="nonzero"/></g></g><g clip-path="url(#37c9bf64a8)"><g clip-path="url(#a00344a919)"><path fill="#ff3131" d="M 52.742188 145.808594 L 217.058594 145.808594 L 217.058594 223.996094 L 52.742188 223.996094 Z M 52.742188 145.808594 " fill-opacity="1" fill-rule="nonzero"/></g></g><g clip-path="url(#5f7f763e36)"><g clip-path="url(#2658e25df8)"><path fill="#ff3131" d="M 70.613281 118.992188 L 176.984375 118.992188 L 176.984375 162.5625 L 70.613281 162.5625 Z M 70.613281 118.992188 " fill-opacity="1" fill-rule="nonzero"/></g></g></svg>