<svg xmlns="http://www.w3.org/2000/svg" xmlns:xlink="http://www.w3.org/1999/xlink" width="361" zoomAndPan="magnify" viewBox="0 0 270.75 370.499989" height="494" preserveAspectRatio="xMidYMid meet" version="1.0"><defs><filter x="0%" y="0%" width="100%" height="100%" id="5730696cbe"><feColorMatrix values="0 0 0 0 1 0 0 0 0 1 0 0 0 0 1 0 0 0 1 0" color-interpolation-filters="sRGB"/></filter><clipPath id="5e426be08f"><path d="M 0.0585938 0 L 270 0 L 270 370 L 0.0585938 370 Z M 0.0585938 0 " clip-rule="nonzero"/></clipPath><mask id="a4fb62f931"><g filter="url(#5730696cbe)"><rect x="-27.075" width="324.9" fill="#000000" y="-37.049999" height="444.599987" fill-opacity="0.3"/></g></mask><clipPath id="a9f557aba9"><path d="M 0.0585938 0 L 269.710938 0 L 269.710938 370 L 0.0585938 370 Z M 0.0585938 0 " clip-rule="nonzero"/></clipPath><clipPath id="37bf7d4220"><path d="M 17.285156 0 L 252.484375 0 C 257.054688 0 261.433594 1.816406 264.664062 5.046875 C 267.898438 8.277344 269.710938 12.65625 269.710938 17.226562 L 269.710938 352.574219 C 269.710938 357.144531 267.898438 361.523438 264.664062 364.757812 C 261.433594 367.988281 257.054688 369.800781 252.484375 369.800781 L 17.285156 369.800781 C 12.714844 369.800781 8.332031 367.988281 5.101562 364.757812 C 1.871094 361.523438 0.0585938 357.144531 0.0585938 352.574219 L 0.0585938 17.226562 C 0.0585938 12.65625 1.871094 8.277344 5.101562 5.046875 C 8.332031 1.816406 12.714844 0 17.285156 0 Z M 17.285156 0 " clip-rule="nonzero"/></clipPath><clipPath id="187132adba"><rect x="0" width="270" y="0" height="370"/></clipPath><clipPath id="e3204544d9"><path d="M 107.015625 130.902344 L 162.753906 130.902344 L 162.753906 238.898438 L 107.015625 238.898438 Z M 107.015625 130.902344 " clip-rule="nonzero"/></clipPath><clipPath id="1d22222344"><path d="M 124.242188 130.902344 L 145.527344 130.902344 C 150.097656 130.902344 154.476562 132.71875 157.707031 135.949219 C 160.9375 139.179688 162.753906 143.5625 162.753906 148.128906 L 162.753906 221.671875 C 162.753906 226.238281 160.9375 230.621094 157.707031 233.851562 C 154.476562 237.082031 150.097656 238.898438 145.527344 238.898438 L 124.242188 238.898438 C 119.671875 238.898438 115.292969 237.082031 112.0625 233.851562 C 108.832031 230.621094 107.015625 226.238281 107.015625 221.671875 L 107.015625 148.128906 C 107.015625 143.5625 108.832031 139.179688 112.0625 135.949219 C 115.292969 132.71875 119.671875 130.902344 124.242188 130.902344 Z M 124.242188 130.902344 " clip-rule="nonzero"/></clipPath><clipPath id="85d926b03c"><path d="M 115.457031 82.28125 L 154.3125 82.28125 L 154.3125 121.140625 L 115.457031 121.140625 Z M 115.457031 82.28125 " clip-rule="nonzero"/></clipPath><clipPath id="c3f792b25e"><path d="M 134.882812 82.28125 C 124.152344 82.28125 115.457031 90.980469 115.457031 101.710938 C 115.457031 112.441406 124.152344 121.140625 134.882812 121.140625 C 145.613281 121.140625 154.3125 112.441406 154.3125 101.710938 C 154.3125 90.980469 145.613281 82.28125 134.882812 82.28125 Z M 134.882812 82.28125 " clip-rule="nonzero"/></clipPath><clipPath id="cfb3144d39"><path d="M 138 227 L 170 227 L 170 329 L 138 329 Z M 138 227 " clip-rule="nonzero"/></clipPath><clipPath id="8166318c59"><path d="M 137.621094 228.457031 L 156.414062 225.738281 L 171.011719 326.597656 L 152.21875 329.316406 Z M 137.621094 228.457031 " clip-rule="nonzero"/></clipPath><clipPath id="14262156fa"><path d="M 147.015625 227.097656 C 149.507812 226.738281 152.042969 227.382812 154.058594 228.886719 C 156.074219 230.394531 157.410156 232.640625 157.773438 235.132812 L 169.648438 317.1875 C 170.007812 319.679688 169.367188 322.214844 167.859375 324.230469 C 166.351562 326.246094 164.105469 327.582031 161.613281 327.945312 C 159.121094 328.304688 156.585938 327.660156 154.570312 326.152344 C 152.554688 324.648438 151.21875 322.398438 150.855469 319.90625 L 138.980469 237.855469 C 138.621094 235.363281 139.261719 232.828125 140.769531 230.8125 C 142.277344 228.792969 144.523438 227.457031 147.015625 227.097656 Z M 147.015625 227.097656 " clip-rule="nonzero"/></clipPath><clipPath id="096e8774d8"><path d="M 98 227 L 133 227 L 133 328 L 98 328 Z M 98 227 " clip-rule="nonzero"/></clipPath><clipPath id="23b37bccef"><path d="M 115.863281 225.738281 L 134.5 229.363281 L 115.042969 329.402344 L 96.40625 325.773438 Z M 115.863281 225.738281 " clip-rule="nonzero"/></clipPath><clipPath id="bfd5030fd7"><path d="M 125.179688 227.550781 C 127.652344 228.03125 129.832031 229.476562 131.238281 231.5625 C 132.648438 233.648438 133.167969 236.210938 132.6875 238.683594 L 116.859375 320.066406 C 116.378906 322.539062 114.9375 324.71875 112.847656 326.125 C 110.761719 327.535156 108.199219 328.054688 105.726562 327.574219 C 103.253906 327.09375 101.078125 325.652344 99.667969 323.5625 C 98.261719 321.476562 97.738281 318.914062 98.21875 316.441406 L 114.050781 235.058594 C 114.53125 232.585938 115.972656 230.40625 118.058594 229 C 120.148438 227.589844 122.710938 227.070312 125.179688 227.550781 Z M 125.179688 227.550781 " clip-rule="nonzero"/></clipPath><clipPath id="dcf56d9303"><path d="M 59 86 L 122 86 L 122 154 L 59 154 Z M 59 86 " clip-rule="nonzero"/></clipPath><clipPath id="45da95008a"><path d="M 55.773438 94.882812 L 69.972656 82.277344 L 125.714844 145.066406 L 111.515625 157.671875 Z M 55.773438 94.882812 " clip-rule="nonzero"/></clipPath><clipPath id="c42d40202e"><path d="M 62.871094 88.582031 C 64.753906 86.910156 67.226562 86.054688 69.738281 86.203125 C 72.25 86.351562 74.601562 87.492188 76.273438 89.378906 L 119.40625 137.960938 C 121.078125 139.84375 121.933594 142.3125 121.785156 144.828125 C 121.636719 147.339844 120.492188 149.691406 118.609375 151.363281 C 116.726562 153.035156 114.257812 153.890625 111.742188 153.742188 C 109.230469 153.59375 106.878906 152.449219 105.207031 150.566406 L 62.074219 101.984375 C 60.402344 100.101562 59.546875 97.628906 59.699219 95.117188 C 59.847656 92.601562 60.988281 90.25 62.871094 88.582031 Z M 62.871094 88.582031 " clip-rule="nonzero"/></clipPath><clipPath id="68b1abffc0"><path d="M 148 86 L 210 86 L 210 155 L 148 155 Z M 148 86 " clip-rule="nonzero"/></clipPath><clipPath id="0ef85cdc3f"><path d="M 198.558594 82.28125 L 213.074219 94.523438 L 158.945312 158.707031 L 144.429688 146.464844 Z M 198.558594 82.28125 " clip-rule="nonzero"/></clipPath><clipPath id="7f93d6ba31"><path d="M 205.816406 88.402344 C 207.742188 90.023438 208.941406 92.347656 209.15625 94.855469 C 209.367188 97.363281 208.578125 99.855469 206.953125 101.78125 L 165.070312 151.445312 C 163.445312 153.367188 161.125 154.570312 158.617188 154.78125 C 156.105469 154.996094 153.617188 154.203125 151.691406 152.582031 C 149.765625 150.957031 148.566406 148.636719 148.351562 146.125 C 148.136719 143.617188 148.929688 141.128906 150.554688 139.203125 L 192.4375 89.539062 C 194.0625 87.613281 196.382812 86.414062 198.890625 86.199219 C 201.402344 85.984375 203.890625 86.777344 205.816406 88.402344 Z M 205.816406 88.402344 " clip-rule="nonzero"/></clipPath></defs><g clip-path="url(#5e426be08f)"><g mask="url(#a4fb62f931)"><g><g clip-path="url(#187132adba)"><g clip-path="url(#a9f557aba9)"><g clip-path="url(#37bf7d4220)"><path fill="#919191" d="M 0.0585938 0 L 269.710938 0 L 269.710938 369.722656 L 0.0585938 369.722656 Z M 0.0585938 0 " fill-opacity="1" fill-rule="nonzero"/></g></g></g></g></g></g><g clip-path="url(#e3204544d9)"><g clip-path="url(#1d22222344)"><path fill="#00bf63" d="M 107.015625 130.902344 L 162.753906 130.902344 L 162.753906 238.898438 L 107.015625 238.898438 Z M 107.015625 130.902344 " fill-opacity="1" fill-rule="nonzero"/></g></g><g clip-path="url(#85d926b03c)"><g clip-path="url(#c3f792b25e)"><path fill="#00bf63" d="M 115.457031 82.28125 L 154.3125 82.28125 L 154.3125 121.140625 L 115.457031 121.140625 Z M 115.457031 82.28125 " fill-opacity="1" fill-rule="nonzero"/></g></g><g clip-path="url(#cfb3144d39)"><g clip-path="url(#8166318c59)"><g clip-path="url(#14262156fa)"><path fill="#00bf63" d="M 137.621094 228.457031 L 156.414062 225.738281 L 171.011719 326.597656 L 152.21875 329.316406 Z M 137.621094 228.457031 " fill-opacity="1" fill-rule="nonzero"/></g></g></g><g clip-path="url(#096e8774d8)"><g clip-path="url(#23b37bccef)"><g clip-path="url(#bfd5030fd7)"><path fill="#00bf63" d="M 115.863281 225.738281 L 134.5 229.363281 L 115.042969 329.402344 L 96.40625 325.773438 Z M 115.863281 225.738281 " fill-opacity="1" fill-rule="nonzero"/></g></g></g><g clip-path="url(#dcf56d9303)"><g clip-path="url(#45da95008a)"><g clip-path="url(#c42d40202e)"><path fill="#00bf63" d="M 55.773438 94.882812 L 69.972656 82.277344 L 125.714844 145.066406 L 111.515625 157.671875 Z M 55.773438 94.882812 " fill-opacity="1" fill-rule="nonzero"/></g></g></g><g clip-path="url(#68b1abffc0)"><g clip-path="url(#0ef85cdc3f)"><g clip-path="url(#7f93d6ba31)"><path fill="#00bf63" d="M 198.558594 82.28125 L 213.074219 94.523438 L 158.945312 158.707031 L 144.429688 146.464844 Z M 198.558594 82.28125 " fill-opacity="1" fill-rule="nonzero"/></g></g></g></svg>