<svg xmlns="http://www.w3.org/2000/svg" xmlns:xlink="http://www.w3.org/1999/xlink" width="361" zoomAndPan="magnify" viewBox="0 0 270.75 370.499989" height="494" preserveAspectRatio="xMidYMid meet" version="1.0"><defs><filter x="0%" y="0%" width="100%" height="100%" id="b12bed3234"><feColorMatrix values="0 0 0 0 1 0 0 0 0 1 0 0 0 0 1 0 0 0 1 0" color-interpolation-filters="sRGB"/></filter><clipPath id="ffbb3d03e2"><path d="M 0.0585938 0 L 270 0 L 270 370 L 0.0585938 370 Z M 0.0585938 0 " clip-rule="nonzero"/></clipPath><mask id="b36b957b9c"><g filter="url(#b12bed3234)"><rect x="-27.075" width="324.9" fill="#000000" y="-37.049999" height="444.599987" fill-opacity="0.1"/></g></mask><clipPath id="b377feacfe"><path d="M 0.0585938 0 L 269.710938 0 L 269.710938 370 L 0.0585938 370 Z M 0.0585938 0 " clip-rule="nonzero"/></clipPath><clipPath id="4c68acbe32"><path d="M 17.285156 0 L 252.484375 0 C 257.054688 0 261.433594 1.816406 264.664062 5.046875 C 267.898438 8.277344 269.710938 12.65625 269.710938 17.226562 L 269.710938 352.574219 C 269.710938 357.144531 267.898438 361.523438 264.664062 364.757812 C 261.433594 367.988281 257.054688 369.800781 252.484375 369.800781 L 17.285156 369.800781 C 12.714844 369.800781 8.332031 367.988281 5.101562 364.757812 C 1.871094 361.523438 0.0585938 357.144531 0.0585938 352.574219 L 0.0585938 17.226562 C 0.0585938 12.65625 1.871094 8.277344 5.101562 5.046875 C 8.332031 1.816406 12.714844 0 17.285156 0 Z M 17.285156 0 " clip-rule="nonzero"/></clipPath><clipPath id="2df8fe9f7f"><rect x="0" width="270" y="0" height="370"/></clipPath><clipPath id="63353626a0"><path d="M 107.015625 130.902344 L 162.753906 130.902344 L 162.753906 238.898438 L 107.015625 238.898438 Z M 107.015625 130.902344 " clip-rule="nonzero"/></clipPath><clipPath id="35daa96eb6"><path d="M 124.242188 130.902344 L 145.527344 130.902344 C 150.097656 130.902344 154.476562 132.71875 157.707031 135.949219 C 160.9375 139.179688 162.753906 143.5625 162.753906 148.128906 L 162.753906 221.671875 C 162.753906 226.238281 160.9375 230.621094 157.707031 233.851562 C 154.476562 237.082031 150.097656 238.898438 145.527344 238.898438 L 124.242188 238.898438 C 119.671875 238.898438 115.292969 237.082031 112.0625 233.851562 C 108.832031 230.621094 107.015625 226.238281 107.015625 221.671875 L 107.015625 148.128906 C 107.015625 143.5625 108.832031 139.179688 112.0625 135.949219 C 115.292969 132.71875 119.671875 130.902344 124.242188 130.902344 Z M 124.242188 130.902344 " clip-rule="nonzero"/></clipPath><clipPath id="4e3da051f4"><path d="M 115.457031 82.28125 L 154.3125 82.28125 L 154.3125 121.140625 L 115.457031 121.140625 Z M 115.457031 82.28125 " clip-rule="nonzero"/></clipPath><clipPath id="468a3c6632"><path d="M 134.882812 82.28125 C 124.152344 82.28125 115.457031 90.980469 115.457031 101.710938 C 115.457031 112.441406 124.152344 121.140625 134.882812 121.140625 C 145.613281 121.140625 154.3125 112.441406 154.3125 101.710938 C 154.3125 90.980469 145.613281 82.28125 134.882812 82.28125 Z M 134.882812 82.28125 " clip-rule="nonzero"/></clipPath><clipPath id="59328bfc29"><path d="M 138 227 L 170 227 L 170 329 L 138 329 Z M 138 227 " clip-rule="nonzero"/></clipPath><clipPath id="899a3a4c6c"><path d="M 137.621094 228.457031 L 156.414062 225.738281 L 171.011719 326.597656 L 152.21875 329.316406 Z M 137.621094 228.457031 " clip-rule="nonzero"/></clipPath><clipPath id="7a403edc57"><path d="M 147.015625 227.097656 C 149.507812 226.738281 152.042969 227.382812 154.058594 228.886719 C 156.074219 230.394531 157.410156 232.640625 157.773438 235.132812 L 169.648438 317.1875 C 170.007812 319.679688 169.367188 322.214844 167.859375 324.230469 C 166.351562 326.246094 164.105469 327.582031 161.613281 327.945312 C 159.121094 328.304688 156.585938 327.660156 154.570312 326.152344 C 152.554688 324.648438 151.21875 322.398438 150.855469 319.90625 L 138.980469 237.855469 C 138.621094 235.363281 139.261719 232.828125 140.769531 230.8125 C 142.277344 228.792969 144.523438 227.457031 147.015625 227.097656 Z M 147.015625 227.097656 " clip-rule="nonzero"/></clipPath><clipPath id="499512c8d9"><path d="M 98 227 L 133 227 L 133 328 L 98 328 Z M 98 227 " clip-rule="nonzero"/></clipPath><clipPath id="20d90631c3"><path d="M 115.863281 225.738281 L 134.5 229.363281 L 115.042969 329.402344 L 96.40625 325.773438 Z M 115.863281 225.738281 " clip-rule="nonzero"/></clipPath><clipPath id="4fd1870773"><path d="M 125.179688 227.550781 C 127.652344 228.03125 129.832031 229.476562 131.238281 231.5625 C 132.648438 233.648438 133.167969 236.210938 132.6875 238.683594 L 116.859375 320.066406 C 116.378906 322.539062 114.9375 324.71875 112.847656 326.125 C 110.761719 327.535156 108.199219 328.054688 105.726562 327.574219 C 103.253906 327.09375 101.078125 325.652344 99.667969 323.5625 C 98.261719 321.476562 97.738281 318.914062 98.21875 316.441406 L 114.050781 235.058594 C 114.53125 232.585938 115.972656 230.40625 118.058594 229 C 120.148438 227.589844 122.710938 227.070312 125.179688 227.550781 Z M 125.179688 227.550781 " clip-rule="nonzero"/></clipPath><clipPath id="637be03e91"><path d="M 85 133 L 129 133 L 129 214 L 85 214 Z M 85 133 " clip-rule="nonzero"/></clipPath><clipPath id="74b7488968"><path d="M 113.886719 130.90625 L 131.5 137.996094 L 100.136719 215.882812 L 82.523438 208.789062 Z M 113.886719 130.90625 " clip-rule="nonzero"/></clipPath><clipPath id="605065a73f"><path d="M 122.691406 134.449219 C 125.027344 135.390625 126.894531 137.222656 127.882812 139.539062 C 128.867188 141.855469 128.894531 144.46875 127.953125 146.804688 L 103.6875 207.070312 C 102.746094 209.40625 100.914062 211.269531 98.597656 212.257812 C 96.28125 213.246094 93.667969 213.269531 91.332031 212.328125 C 88.996094 211.390625 87.132812 209.558594 86.144531 207.242188 C 85.15625 204.925781 85.132812 202.3125 86.074219 199.976562 L 110.339844 139.710938 C 111.28125 137.375 113.109375 135.507812 115.425781 134.523438 C 117.742188 133.535156 120.355469 133.511719 122.691406 134.449219 Z M 122.691406 134.449219 " clip-rule="nonzero"/></clipPath><clipPath id="b49e1a4aca"><path d="M 141 133 L 184 133 L 184 214 L 141 214 Z M 141 133 " clip-rule="nonzero"/></clipPath><clipPath id="44d27d4d3d"><path d="M 186.222656 209.628906 L 168.417969 216.21875 L 139.265625 137.480469 L 157.074219 130.890625 Z M 186.222656 209.628906 " clip-rule="nonzero"/></clipPath><clipPath id="a4ecffd5cc"><path d="M 177.320312 212.925781 C 174.960938 213.796875 172.347656 213.699219 170.058594 212.648438 C 167.773438 211.597656 165.996094 209.679688 165.121094 207.316406 L 142.566406 146.390625 C 141.691406 144.03125 141.792969 141.417969 142.84375 139.128906 C 143.894531 136.839844 145.8125 135.066406 148.171875 134.191406 C 150.535156 133.316406 153.144531 133.417969 155.433594 134.46875 C 157.722656 135.519531 159.5 137.4375 160.371094 139.796875 L 182.929688 200.726562 C 183.800781 203.085938 183.703125 205.699219 182.652344 207.984375 C 181.597656 210.273438 179.683594 212.050781 177.320312 212.925781 Z M 177.320312 212.925781 " clip-rule="nonzero"/></clipPath></defs><g clip-path="url(#ffbb3d03e2)"><g mask="url(#b36b957b9c)"><g><g clip-path="url(#2df8fe9f7f)"><g clip-path="url(#b377feacfe)"><g clip-path="url(#4c68acbe32)"><path fill="#919191" d="M 0.0585938 0 L 269.710938 0 L 269.710938 369.722656 L 0.0585938 369.722656 Z M 0.0585938 0 " fill-opacity="1" fill-rule="nonzero"/></g></g></g></g></g></g><g clip-path="url(#63353626a0)"><g clip-path="url(#35daa96eb6)"><path fill="#004aad" d="M 107.015625 130.902344 L 162.753906 130.902344 L 162.753906 238.898438 L 107.015625 238.898438 Z M 107.015625 130.902344 " fill-opacity="1" fill-rule="nonzero"/></g></g><g clip-path="url(#4e3da051f4)"><g clip-path="url(#468a3c6632)"><path fill="#004aad" d="M 115.457031 82.28125 L 154.3125 82.28125 L 154.3125 121.140625 L 115.457031 121.140625 Z M 115.457031 82.28125 " fill-opacity="1" fill-rule="nonzero"/></g></g><g clip-path="url(#59328bfc29)"><g clip-path="url(#899a3a4c6c)"><g clip-path="url(#7a403edc57)"><path fill="#004aad" d="M 137.621094 228.457031 L 156.414062 225.738281 L 171.011719 326.597656 L 152.21875 329.316406 Z M 137.621094 228.457031 " fill-opacity="1" fill-rule="nonzero"/></g></g></g><g clip-path="url(#499512c8d9)"><g clip-path="url(#20d90631c3)"><g clip-path="url(#4fd1870773)"><path fill="#004aad" d="M 115.863281 225.738281 L 134.5 229.363281 L 115.042969 329.402344 L 96.40625 325.773438 Z M 115.863281 225.738281 " fill-opacity="1" fill-rule="nonzero"/></g></g></g><g clip-path="url(#637be03e91)"><g clip-path="url(#74b7488968)"><g clip-path="url(#605065a73f)"><path fill="#004aad" d="M 113.886719 130.90625 L 131.5 137.996094 L 100.136719 215.882812 L 82.523438 208.789062 Z M 113.886719 130.90625 " fill-opacity="1" fill-rule="nonzero"/></g></g></g><g clip-path="url(#b49e1a4aca)"><g clip-path="url(#44d27d4d3d)"><g clip-path="url(#a4ecffd5cc)"><path fill="#004aad" d="M 186.222656 209.628906 L 168.417969 216.21875 L 139.265625 137.480469 L 157.074219 130.890625 Z M 186.222656 209.628906 " fill-opacity="1" fill-rule="nonzero"/></g></g></g></svg>