<svg xmlns="http://www.w3.org/2000/svg" xmlns:xlink="http://www.w3.org/1999/xlink" width="361" zoomAndPan="magnify" viewBox="0 0 270.75 370.499989" height="494" preserveAspectRatio="xMidYMid meet" version="1.0"><defs><filter x="0%" y="0%" width="100%" height="100%" id="b9f7da72f5"><feColorMatrix values="0 0 0 0 1 0 0 0 0 1 0 0 0 0 1 0 0 0 1 0" color-interpolation-filters="sRGB"/></filter><clipPath id="7cfe0eeacf"><path d="M 0.0585938 0 L 270 0 L 270 370 L 0.0585938 370 Z M 0.0585938 0 " clip-rule="nonzero"/></clipPath><mask id="f9ce239696"><g filter="url(#b9f7da72f5)"><rect x="-27.075" width="324.9" fill="#000000" y="-37.049999" height="444.599987" fill-opacity="0.3"/></g></mask><clipPath id="317f8fdb37"><path d="M 0.0585938 0 L 269.710938 0 L 269.710938 370 L 0.0585938 370 Z M 0.0585938 0 " clip-rule="nonzero"/></clipPath><clipPath id="1e2c4ed66b"><path d="M 17.285156 0 L 252.484375 0 C 257.054688 0 261.433594 1.816406 264.664062 5.046875 C 267.898438 8.277344 269.710938 12.65625 269.710938 17.226562 L 269.710938 352.574219 C 269.710938 357.144531 267.898438 361.523438 264.664062 364.757812 C 261.433594 367.988281 257.054688 369.800781 252.484375 369.800781 L 17.285156 369.800781 C 12.714844 369.800781 8.332031 367.988281 5.101562 364.757812 C 1.871094 361.523438 0.0585938 357.144531 0.0585938 352.574219 L 0.0585938 17.226562 C 0.0585938 12.65625 1.871094 8.277344 5.101562 5.046875 C 8.332031 1.816406 12.714844 0 17.285156 0 Z M 17.285156 0 " clip-rule="nonzero"/></clipPath><clipPath id="4a3ffbc567"><rect x="0" width="270" y="0" height="370"/></clipPath><clipPath id="736903eb89"><path d="M 53.234375 103.253906 L 216.515625 103.253906 L 216.515625 266.53125 L 53.234375 266.53125 Z M 53.234375 103.253906 " clip-rule="nonzero"/></clipPath><clipPath id="62c9855d80"><path d="M 134.882812 103.253906 C 89.789062 103.253906 53.234375 139.804688 53.234375 184.898438 C 53.234375 229.988281 89.789062 266.542969 134.882812 266.542969 C 179.972656 266.542969 216.527344 229.988281 216.527344 184.898438 C 216.527344 139.804688 179.972656 103.253906 134.882812 103.253906 Z M 134.882812 103.253906 " clip-rule="nonzero"/></clipPath></defs><g clip-path="url(#7cfe0eeacf)"><g mask="url(#f9ce239696)"><g><g clip-path="url(#4a3ffbc567)"><g clip-path="url(#317f8fdb37)"><g clip-path="url(#1e2c4ed66b)"><path fill="#919191" d="M 0.0585938 0 L 269.710938 0 L 269.710938 369.722656 L 0.0585938 369.722656 Z M 0.0585938 0 " fill-opacity="1" fill-rule="nonzero"/></g></g></g></g></g></g><g clip-path="url(#736903eb89)"><g clip-path="url(#62c9855d80)"><path stroke-linecap="butt" transform="matrix(0.748989, 0, 0, 0.748989, 53.236051, 103.252274)" fill="none" stroke-linejoin="miter" d="M 109.009277 0.00217924 C 48.803128 0.00217924 -0.00223716 48.802329 -0.00223716 109.008478 C -0.00223716 169.209411 48.803128 218.014776 109.009277 218.014776 C 169.21021 218.014776 218.015575 169.209411 218.015575 109.008478 C 218.015575 48.802329 169.21021 0.00217924 109.009277 0.00217924 Z M 109.009277 0.00217924 " stroke="#004aad" stroke-width="20" stroke-opacity="1" stroke-miterlimit="4"/></g></g><path stroke-linecap="butt" transform="matrix(0.491025, -0.565579, 0.565579, 0.491025, 82.586906, 239.922587)" fill="none" stroke-linejoin="miter" d="M -0.00184824 5.000303 L 203.262084 5.001914 " stroke="#004aad" stroke-width="10" stroke-opacity="1" stroke-miterlimit="4"/></svg>