<svg xmlns="http://www.w3.org/2000/svg" xmlns:xlink="http://www.w3.org/1999/xlink" width="361" zoomAndPan="magnify" viewBox="0 0 270.75 370.499989" height="494" preserveAspectRatio="xMidYMid meet" version="1.0"><defs><filter x="0%" y="0%" width="100%" height="100%" id="43f4ce2231"><feColorMatrix values="0 0 0 0 1 0 0 0 0 1 0 0 0 0 1 0 0 0 1 0" color-interpolation-filters="sRGB"/></filter><clipPath id="d652141b27"><path d="M 0.0585938 0 L 270 0 L 270 370 L 0.0585938 370 Z M 0.0585938 0 " clip-rule="nonzero"/></clipPath><mask id="a79cdb6315"><g filter="url(#43f4ce2231)"><rect x="-27.075" width="324.9" fill="#000000" y="-37.049999" height="444.599987" fill-opacity="0.1"/></g></mask><clipPath id="43c5dea71e"><path d="M 0.0585938 0 L 269.710938 0 L 269.710938 370 L 0.0585938 370 Z M 0.0585938 0 " clip-rule="nonzero"/></clipPath><clipPath id="bf44077bff"><path d="M 17.285156 0 L 252.484375 0 C 257.054688 0 261.433594 1.816406 264.664062 5.046875 C 267.898438 8.277344 269.710938 12.65625 269.710938 17.226562 L 269.710938 352.574219 C 269.710938 357.144531 267.898438 361.523438 264.664062 364.757812 C 261.433594 367.988281 257.054688 369.800781 252.484375 369.800781 L 17.285156 369.800781 C 12.714844 369.800781 8.332031 367.988281 5.101562 364.757812 C 1.871094 361.523438 0.0585938 357.144531 0.0585938 352.574219 L 0.0585938 17.226562 C 0.0585938 12.65625 1.871094 8.277344 5.101562 5.046875 C 8.332031 1.816406 12.714844 0 17.285156 0 Z M 17.285156 0 " clip-rule="nonzero"/></clipPath><clipPath id="5639513426"><rect x="0" width="270" y="0" height="370"/></clipPath><clipPath id="601048a60d"><path d="M 98.175781 103.542969 L 171.59375 103.542969 L 171.59375 266.152344 L 98.175781 266.152344 Z M 98.175781 103.542969 " clip-rule="nonzero"/></clipPath><clipPath id="ba60d505d2"><path d="M 98.175781 103.636719 L 98.175781 266.152344 L 134.882812 245.835938 L 171.59375 266.152344 L 171.59375 103.636719 L 134.882812 123.953125 Z M 98.175781 103.636719 " clip-rule="nonzero"/></clipPath><clipPath id="2db9af2386"><path d="M 81.113281 80.347656 L 141.644531 80.347656 L 141.644531 140.875 L 81.113281 140.875 Z M 81.113281 80.347656 " clip-rule="nonzero"/></clipPath><clipPath id="00c4409fa8"><path d="M 111.378906 80.347656 C 94.664062 80.347656 81.113281 93.898438 81.113281 110.613281 C 81.113281 127.324219 94.664062 140.875 111.378906 140.875 C 128.09375 140.875 141.644531 127.324219 141.644531 110.613281 C 141.644531 93.898438 128.09375 80.347656 111.378906 80.347656 Z M 111.378906 80.347656 " clip-rule="nonzero"/></clipPath><clipPath id="8ceee67ef1"><path d="M 128.144531 80.347656 L 188.671875 80.347656 L 188.671875 140.875 L 128.144531 140.875 Z M 128.144531 80.347656 " clip-rule="nonzero"/></clipPath><clipPath id="08cf16a09d"><path d="M 158.40625 80.347656 C 141.695312 80.347656 128.144531 93.898438 128.144531 110.613281 C 128.144531 127.324219 141.695312 140.875 158.40625 140.875 C 175.121094 140.875 188.671875 127.324219 188.671875 110.613281 C 188.671875 93.898438 175.121094 80.347656 158.40625 80.347656 Z M 158.40625 80.347656 " clip-rule="nonzero"/></clipPath><clipPath id="3570e6513d"><path d="M 81.113281 223.839844 L 141.644531 223.839844 L 141.644531 284.367188 L 81.113281 284.367188 Z M 81.113281 223.839844 " clip-rule="nonzero"/></clipPath><clipPath id="cf7c8fd2c5"><path d="M 111.378906 223.839844 C 94.664062 223.839844 81.113281 237.390625 81.113281 254.105469 C 81.113281 270.820312 94.664062 284.367188 111.378906 284.367188 C 128.09375 284.367188 141.644531 270.820312 141.644531 254.105469 C 141.644531 237.390625 128.09375 223.839844 111.378906 223.839844 Z M 111.378906 223.839844 " clip-rule="nonzero"/></clipPath><clipPath id="30917181ce"><path d="M 128.144531 223.839844 L 188.671875 223.839844 L 188.671875 284.367188 L 128.144531 284.367188 Z M 128.144531 223.839844 " clip-rule="nonzero"/></clipPath><clipPath id="b1e10391d1"><path d="M 158.40625 223.839844 C 141.695312 223.839844 128.144531 237.390625 128.144531 254.105469 C 128.144531 270.820312 141.695312 284.367188 158.40625 284.367188 C 175.121094 284.367188 188.671875 270.820312 188.671875 254.105469 C 188.671875 237.390625 175.121094 223.839844 158.40625 223.839844 Z M 158.40625 223.839844 " clip-rule="nonzero"/></clipPath></defs><g clip-path="url(#d652141b27)"><g mask="url(#a79cdb6315)"><g><g clip-path="url(#5639513426)"><g clip-path="url(#43c5dea71e)"><g clip-path="url(#bf44077bff)"><path fill="#919191" d="M 0.0585938 0 L 269.710938 0 L 269.710938 369.722656 L 0.0585938 369.722656 Z M 0.0585938 0 " fill-opacity="1" fill-rule="nonzero"/></g></g></g></g></g></g><g clip-path="url(#601048a60d)"><g clip-path="url(#ba60d505d2)"><path fill="#0097b2" d="M 98.175781 266.152344 L 98.175781 103.542969 L 171.59375 103.542969 L 171.59375 266.152344 Z M 98.175781 266.152344 " fill-opacity="1" fill-rule="nonzero"/></g></g><g clip-path="url(#2db9af2386)"><g clip-path="url(#00c4409fa8)"><path fill="#0097b2" d="M 81.113281 80.347656 L 141.644531 80.347656 L 141.644531 140.875 L 81.113281 140.875 Z M 81.113281 80.347656 " fill-opacity="1" fill-rule="nonzero"/></g></g><g clip-path="url(#8ceee67ef1)"><g clip-path="url(#08cf16a09d)"><path fill="#0097b2" d="M 128.144531 80.347656 L 188.671875 80.347656 L 188.671875 140.875 L 128.144531 140.875 Z M 128.144531 80.347656 " fill-opacity="1" fill-rule="nonzero"/></g></g><g clip-path="url(#3570e6513d)"><g clip-path="url(#cf7c8fd2c5)"><path fill="#0097b2" d="M 81.113281 223.839844 L 141.644531 223.839844 L 141.644531 284.367188 L 81.113281 284.367188 Z M 81.113281 223.839844 " fill-opacity="1" fill-rule="nonzero"/></g></g><g clip-path="url(#30917181ce)"><g clip-path="url(#b1e10391d1)"><path fill="#0097b2" d="M 128.144531 223.839844 L 188.671875 223.839844 L 188.671875 284.367188 L 128.144531 284.367188 Z M 128.144531 223.839844 " fill-opacity="1" fill-rule="nonzero"/></g></g></svg>