<svg xmlns="http://www.w3.org/2000/svg" xmlns:xlink="http://www.w3.org/1999/xlink" width="361" zoomAndPan="magnify" viewBox="0 0 270.75 370.499989" height="494" preserveAspectRatio="xMidYMid meet" version="1.0"><defs><filter x="0%" y="0%" width="100%" height="100%" id="8c935e94c8"><feColorMatrix values="0 0 0 0 1 0 0 0 0 1 0 0 0 0 1 0 0 0 1 0" color-interpolation-filters="sRGB"/></filter><clipPath id="8b02d9de47"><path d="M 0.0585938 0 L 270 0 L 270 370 L 0.0585938 370 Z M 0.0585938 0 " clip-rule="nonzero"/></clipPath><mask id="78c5ff7f54"><g filter="url(#8c935e94c8)"><rect x="-27.075" width="324.9" fill="#000000" y="-37.049999" height="444.599987" fill-opacity="0.3"/></g></mask><clipPath id="c5569a42ad"><path d="M 0.0585938 0 L 269.710938 0 L 269.710938 370 L 0.0585938 370 Z M 0.0585938 0 " clip-rule="nonzero"/></clipPath><clipPath id="4ee06ba2f9"><path d="M 17.285156 0 L 252.484375 0 C 257.054688 0 261.433594 1.816406 264.664062 5.046875 C 267.898438 8.277344 269.710938 12.65625 269.710938 17.226562 L 269.710938 352.574219 C 269.710938 357.144531 267.898438 361.523438 264.664062 364.757812 C 261.433594 367.988281 257.054688 369.800781 252.484375 369.800781 L 17.285156 369.800781 C 12.714844 369.800781 8.332031 367.988281 5.101562 364.757812 C 1.871094 361.523438 0.0585938 357.144531 0.0585938 352.574219 L 0.0585938 17.226562 C 0.0585938 12.65625 1.871094 8.277344 5.101562 5.046875 C 8.332031 1.816406 12.714844 0 17.285156 0 Z M 17.285156 0 " clip-rule="nonzero"/></clipPath><clipPath id="f7c04169a5"><rect x="0" width="270" y="0" height="370"/></clipPath><clipPath id="60d5f9fbf3"><path d="M 95 85 L 175 85 L 175 166 L 95 166 Z M 95 85 " clip-rule="nonzero"/></clipPath><clipPath id="e81145d51b"><path d="M 134.882812 46.234375 L 214.328125 125.679688 L 134.882812 205.121094 L 55.441406 125.679688 Z M 134.882812 46.234375 " clip-rule="nonzero"/></clipPath><clipPath id="18059ef482"><path d="M 174.605469 85.957031 L 160.164062 125.679688 L 174.605469 165.398438 L 134.882812 150.957031 L 95.164062 165.398438 L 109.605469 125.679688 L 95.164062 85.957031 L 134.882812 100.398438 Z M 174.605469 85.957031 " clip-rule="nonzero"/></clipPath><clipPath id="452da1e6ed"><path d="M 81 72 L 189 72 L 189 180 L 81 180 Z M 81 72 " clip-rule="nonzero"/></clipPath><clipPath id="8a4e22ec7a"><path d="M 63.941406 89.925781 L 170.636719 54.738281 L 205.828125 161.433594 L 99.132812 196.621094 Z M 63.941406 89.925781 " clip-rule="nonzero"/></clipPath><clipPath id="2ac239881d"><path d="M 117.289062 72.332031 L 146.261719 103.105469 L 188.230469 108.085938 L 157.457031 137.054688 L 152.480469 179.027344 L 123.507812 148.25 L 81.535156 143.273438 L 112.3125 114.300781 Z M 117.289062 72.332031 " clip-rule="nonzero"/></clipPath><clipPath id="0dc2d17fa8"><path d="M 80 71 L 190 71 L 190 181 L 80 181 Z M 80 71 " clip-rule="nonzero"/></clipPath><clipPath id="585ea0af97"><path d="M 67.261719 167.371094 L 93.191406 58.054688 L 202.507812 83.988281 L 176.574219 193.300781 Z M 67.261719 167.371094 " clip-rule="nonzero"/></clipPath><clipPath id="76d792b502"><path d="M 80.226562 112.710938 L 121.617188 104.160156 L 147.851562 71.019531 L 156.402344 112.414062 L 189.542969 138.644531 L 148.152344 147.195312 L 121.917969 180.335938 L 113.367188 138.945312 Z M 80.226562 112.710938 " clip-rule="nonzero"/></clipPath></defs><g clip-path="url(#8b02d9de47)"><g mask="url(#78c5ff7f54)"><g><g clip-path="url(#f7c04169a5)"><g clip-path="url(#c5569a42ad)"><g clip-path="url(#4ee06ba2f9)"><path fill="#919191" d="M 0.0585938 0 L 269.710938 0 L 269.710938 369.722656 L 0.0585938 369.722656 Z M 0.0585938 0 " fill-opacity="1" fill-rule="nonzero"/></g></g></g></g></g></g><g clip-path="url(#60d5f9fbf3)"><g clip-path="url(#e81145d51b)"><g clip-path="url(#18059ef482)"><path fill="#ff3131" d="M 134.882812 46.234375 L 214.328125 125.679688 L 134.882812 205.121094 L 55.441406 125.679688 Z M 134.882812 46.234375 " fill-opacity="1" fill-rule="nonzero"/></g></g></g><g clip-path="url(#452da1e6ed)"><g clip-path="url(#8a4e22ec7a)"><g clip-path="url(#2ac239881d)"><path fill="#ff3131" d="M 63.941406 89.925781 L 170.636719 54.738281 L 205.828125 161.433594 L 99.132812 196.621094 Z M 63.941406 89.925781 " fill-opacity="1" fill-rule="nonzero"/></g></g></g><g clip-path="url(#0dc2d17fa8)"><g clip-path="url(#585ea0af97)"><g clip-path="url(#76d792b502)"><path fill="#ff3131" d="M 67.261719 167.371094 L 93.191406 58.054688 L 202.507812 83.988281 L 176.574219 193.300781 Z M 67.261719 167.371094 " fill-opacity="1" fill-rule="nonzero"/></g></g></g><path stroke-linecap="round" transform="matrix(0.00000000130723, 0.748989, -0.748989, 0.00000000130723, 138.628895, 125.679021)" fill="none" stroke-linejoin="miter" d="M 5.002423 5.001517 L 231.250064 5.001518 " stroke="#ff3131" stroke-width="10" stroke-opacity="1" stroke-miterlimit="4"/><path stroke-linecap="round" transform="matrix(-0.409974, 0.626822, -0.626822, -0.409974, 164.001532, 218.63772)" fill="none" stroke-linejoin="miter" d="M 7.001953 7.001549 L 52.990296 6.997644 " stroke="#ff3131" stroke-width="14" stroke-opacity="1" stroke-miterlimit="4"/></svg>