<svg xmlns="http://www.w3.org/2000/svg" xmlns:xlink="http://www.w3.org/1999/xlink" width="361" zoomAndPan="magnify" viewBox="0 0 270.75 370.499989" height="494" preserveAspectRatio="xMidYMid meet" version="1.0"><defs><filter x="0%" y="0%" width="100%" height="100%" id="9f58f06db6"><feColorMatrix values="0 0 0 0 1 0 0 0 0 1 0 0 0 0 1 0 0 0 1 0" color-interpolation-filters="sRGB"/></filter><clipPath id="fd051cf798"><path d="M 0.0585938 0 L 270 0 L 270 370 L 0.0585938 370 Z M 0.0585938 0 " clip-rule="nonzero"/></clipPath><mask id="2034e6830a"><g filter="url(#9f58f06db6)"><rect x="-27.075" width="324.9" fill="#000000" y="-37.049999" height="444.599987" fill-opacity="0.3"/></g></mask><clipPath id="be917b4d04"><path d="M 0.0585938 0 L 269.710938 0 L 269.710938 370 L 0.0585938 370 Z M 0.0585938 0 " clip-rule="nonzero"/></clipPath><clipPath id="c2cc1361d9"><path d="M 17.285156 0 L 252.484375 0 C 257.054688 0 261.433594 1.816406 264.664062 5.046875 C 267.898438 8.277344 269.710938 12.65625 269.710938 17.226562 L 269.710938 352.574219 C 269.710938 357.144531 267.898438 361.523438 264.664062 364.757812 C 261.433594 367.988281 257.054688 369.800781 252.484375 369.800781 L 17.285156 369.800781 C 12.714844 369.800781 8.332031 367.988281 5.101562 364.757812 C 1.871094 361.523438 0.0585938 357.144531 0.0585938 352.574219 L 0.0585938 17.226562 C 0.0585938 12.65625 1.871094 8.277344 5.101562 5.046875 C 8.332031 1.816406 12.714844 0 17.285156 0 Z M 17.285156 0 " clip-rule="nonzero"/></clipPath><clipPath id="9bc2d452f9"><rect x="0" width="270" y="0" height="370"/></clipPath><clipPath id="52fd2a5633"><path d="M 70 168 L 135 168 L 135 231 L 70 231 Z M 70 168 " clip-rule="nonzero"/></clipPath><clipPath id="82aa0b7e5c"><path d="M 60.925781 174.125 L 125.4375 163.574219 L 134.652344 219.941406 L 70.140625 230.488281 Z M 60.925781 174.125 " clip-rule="nonzero"/></clipPath><clipPath id="563b42af24"><path d="M 93.132812 168.859375 L 134.558594 219.957031 L 70.140625 230.488281 Z M 93.132812 168.859375 " clip-rule="nonzero"/></clipPath><clipPath id="3fcbd9d713"><path d="M 43 220 L 108 220 L 108 284 L 43 284 Z M 43 220 " clip-rule="nonzero"/></clipPath><clipPath id="f5a7783956"><path d="M 118.125 276.867188 L 53.921875 289.171875 L 43.175781 233.078125 L 107.375 220.777344 Z M 118.125 276.867188 " clip-rule="nonzero"/></clipPath><clipPath id="f53d20be1e"><path d="M 86.070312 283.011719 L 43.269531 233.0625 L 107.375 220.777344 Z M 86.070312 283.011719 " clip-rule="nonzero"/></clipPath><clipPath id="54183c26c6"><path d="M 157 63 L 222 63 L 222 125 L 157 125 Z M 157 63 " clip-rule="nonzero"/></clipPath><clipPath id="5b0f054364"><path d="M 148 68.535156 L 212.507812 57.984375 L 221.726562 114.351562 L 157.214844 124.898438 Z M 148 68.535156 " clip-rule="nonzero"/></clipPath><clipPath id="c39634d91f"><path d="M 180.207031 63.269531 L 221.632812 114.367188 L 157.214844 124.898438 Z M 180.207031 63.269531 " clip-rule="nonzero"/></clipPath><clipPath id="33c911a11d"><path d="M 130 115 L 195 115 L 195 178 L 130 178 Z M 130 115 " clip-rule="nonzero"/></clipPath><clipPath id="76001dc181"><path d="M 205.195312 171.277344 L 140.996094 183.582031 L 130.25 127.488281 L 194.449219 115.1875 Z M 205.195312 171.277344 " clip-rule="nonzero"/></clipPath><clipPath id="2754e8ab2c"><path d="M 173.144531 177.421875 L 130.34375 127.472656 L 194.449219 115.1875 Z M 173.144531 177.421875 " clip-rule="nonzero"/></clipPath></defs><g clip-path="url(#fd051cf798)"><g mask="url(#2034e6830a)"><g><g clip-path="url(#9bc2d452f9)"><g clip-path="url(#be917b4d04)"><g clip-path="url(#c2cc1361d9)"><path fill="#919191" d="M 0.0585938 0 L 269.710938 0 L 269.710938 369.722656 L 0.0585938 369.722656 Z M 0.0585938 0 " fill-opacity="1" fill-rule="nonzero"/></g></g></g></g></g></g><g clip-path="url(#52fd2a5633)"><g clip-path="url(#82aa0b7e5c)"><g clip-path="url(#563b42af24)"><path fill="#004aad" d="M 60.925781 174.125 L 125.4375 163.574219 L 134.652344 219.941406 L 70.140625 230.488281 Z M 60.925781 174.125 " fill-opacity="1" fill-rule="nonzero"/></g></g></g><g clip-path="url(#3fcbd9d713)"><g clip-path="url(#f5a7783956)"><g clip-path="url(#f53d20be1e)"><path fill="#004aad" d="M 118.125 276.867188 L 53.921875 289.171875 L 43.175781 233.078125 L 107.375 220.777344 Z M 118.125 276.867188 " fill-opacity="1" fill-rule="nonzero"/></g></g></g><g clip-path="url(#54183c26c6)"><g clip-path="url(#5b0f054364)"><g clip-path="url(#c39634d91f)"><path fill="#004aad" d="M 148 68.535156 L 212.507812 57.984375 L 221.726562 114.351562 L 157.214844 124.898438 Z M 148 68.535156 " fill-opacity="1" fill-rule="nonzero"/></g></g></g><g clip-path="url(#33c911a11d)"><g clip-path="url(#76001dc181)"><g clip-path="url(#2754e8ab2c)"><path fill="#004aad" d="M 205.195312 171.277344 L 140.996094 183.582031 L 130.25 127.488281 L 194.449219 115.1875 Z M 205.195312 171.277344 " fill-opacity="1" fill-rule="nonzero"/></g></g></g></svg>