<svg xmlns="http://www.w3.org/2000/svg" xmlns:xlink="http://www.w3.org/1999/xlink" width="361" zoomAndPan="magnify" viewBox="0 0 270.75 370.499989" height="494" preserveAspectRatio="xMidYMid meet" version="1.0"><defs><filter x="0%" y="0%" width="100%" height="100%" id="37bd64447b"><feColorMatrix values="0 0 0 0 1 0 0 0 0 1 0 0 0 0 1 0 0 0 1 0" color-interpolation-filters="sRGB"/></filter><clipPath id="32c37a6ee1"><path d="M 0.0585938 0 L 270 0 L 270 370 L 0.0585938 370 Z M 0.0585938 0 " clip-rule="nonzero"/></clipPath><mask id="9ca5de277e"><g filter="url(#37bd64447b)"><rect x="-27.075" width="324.9" fill="#000000" y="-37.049999" height="444.599987" fill-opacity="0.1"/></g></mask><clipPath id="8473306f07"><path d="M 0.0585938 0 L 269.710938 0 L 269.710938 370 L 0.0585938 370 Z M 0.0585938 0 " clip-rule="nonzero"/></clipPath><clipPath id="e700c29487"><path d="M 17.285156 0 L 252.484375 0 C 257.054688 0 261.433594 1.816406 264.664062 5.046875 C 267.898438 8.277344 269.710938 12.65625 269.710938 17.226562 L 269.710938 352.574219 C 269.710938 357.144531 267.898438 361.523438 264.664062 364.757812 C 261.433594 367.988281 257.054688 369.800781 252.484375 369.800781 L 17.285156 369.800781 C 12.714844 369.800781 8.332031 367.988281 5.101562 364.757812 C 1.871094 361.523438 0.0585938 357.144531 0.0585938 352.574219 L 0.0585938 17.226562 C 0.0585938 12.65625 1.871094 8.277344 5.101562 5.046875 C 8.332031 1.816406 12.714844 0 17.285156 0 Z M 17.285156 0 " clip-rule="nonzero"/></clipPath><clipPath id="37f5ca3f0d"><rect x="0" width="270" y="0" height="370"/></clipPath><clipPath id="28f5f959ee"><path d="M 70 168 L 135 168 L 135 231 L 70 231 Z M 70 168 " clip-rule="nonzero"/></clipPath><clipPath id="255893382f"><path d="M 60.925781 174.125 L 125.4375 163.574219 L 134.652344 219.941406 L 70.140625 230.488281 Z M 60.925781 174.125 " clip-rule="nonzero"/></clipPath><clipPath id="70dd25fb29"><path d="M 93.132812 168.859375 L 134.558594 219.957031 L 70.140625 230.488281 Z M 93.132812 168.859375 " clip-rule="nonzero"/></clipPath><clipPath id="87bc4fbbdb"><path d="M 43 220 L 108 220 L 108 284 L 43 284 Z M 43 220 " clip-rule="nonzero"/></clipPath><clipPath id="636dacf69c"><path d="M 118.125 276.867188 L 53.921875 289.171875 L 43.175781 233.078125 L 107.375 220.777344 Z M 118.125 276.867188 " clip-rule="nonzero"/></clipPath><clipPath id="59905c4b92"><path d="M 86.070312 283.011719 L 43.269531 233.0625 L 107.375 220.777344 Z M 86.070312 283.011719 " clip-rule="nonzero"/></clipPath><clipPath id="c1d8ee7f72"><path d="M 157 63 L 222 63 L 222 125 L 157 125 Z M 157 63 " clip-rule="nonzero"/></clipPath><clipPath id="66639c8721"><path d="M 148 68.535156 L 212.507812 57.984375 L 221.726562 114.351562 L 157.214844 124.898438 Z M 148 68.535156 " clip-rule="nonzero"/></clipPath><clipPath id="336c3e8419"><path d="M 180.207031 63.269531 L 221.632812 114.367188 L 157.214844 124.898438 Z M 180.207031 63.269531 " clip-rule="nonzero"/></clipPath><clipPath id="e2dab32383"><path d="M 130 115 L 195 115 L 195 178 L 130 178 Z M 130 115 " clip-rule="nonzero"/></clipPath><clipPath id="67b848ba39"><path d="M 205.195312 171.277344 L 140.996094 183.582031 L 130.25 127.488281 L 194.449219 115.1875 Z M 205.195312 171.277344 " clip-rule="nonzero"/></clipPath><clipPath id="bc0b5c567e"><path d="M 173.144531 177.421875 L 130.34375 127.472656 L 194.449219 115.1875 Z M 173.144531 177.421875 " clip-rule="nonzero"/></clipPath></defs><g clip-path="url(#32c37a6ee1)"><g mask="url(#9ca5de277e)"><g><g clip-path="url(#37f5ca3f0d)"><g clip-path="url(#8473306f07)"><g clip-path="url(#e700c29487)"><path fill="#919191" d="M 0.0585938 0 L 269.710938 0 L 269.710938 369.722656 L 0.0585938 369.722656 Z M 0.0585938 0 " fill-opacity="1" fill-rule="nonzero"/></g></g></g></g></g></g><g clip-path="url(#28f5f959ee)"><g clip-path="url(#255893382f)"><g clip-path="url(#70dd25fb29)"><path fill="#004aad" d="M 60.925781 174.125 L 125.4375 163.574219 L 134.652344 219.941406 L 70.140625 230.488281 Z M 60.925781 174.125 " fill-opacity="1" fill-rule="nonzero"/></g></g></g><g clip-path="url(#87bc4fbbdb)"><g clip-path="url(#636dacf69c)"><g clip-path="url(#59905c4b92)"><path fill="#004aad" d="M 118.125 276.867188 L 53.921875 289.171875 L 43.175781 233.078125 L 107.375 220.777344 Z M 118.125 276.867188 " fill-opacity="1" fill-rule="nonzero"/></g></g></g><g clip-path="url(#c1d8ee7f72)"><g clip-path="url(#66639c8721)"><g clip-path="url(#336c3e8419)"><path fill="#004aad" d="M 148 68.535156 L 212.507812 57.984375 L 221.726562 114.351562 L 157.214844 124.898438 Z M 148 68.535156 " fill-opacity="1" fill-rule="nonzero"/></g></g></g><g clip-path="url(#e2dab32383)"><g clip-path="url(#67b848ba39)"><g clip-path="url(#bc0b5c567e)"><path fill="#004aad" d="M 205.195312 171.277344 L 140.996094 183.582031 L 130.25 127.488281 L 194.449219 115.1875 Z M 205.195312 171.277344 " fill-opacity="1" fill-rule="nonzero"/></g></g></g></svg>