<svg xmlns="http://www.w3.org/2000/svg" xmlns:xlink="http://www.w3.org/1999/xlink" width="361" zoomAndPan="magnify" viewBox="0 0 270.75 370.499989" height="494" preserveAspectRatio="xMidYMid meet" version="1.0"><defs><filter x="0%" y="0%" width="100%" height="100%" id="62d800d9ba"><feColorMatrix values="0 0 0 0 1 0 0 0 0 1 0 0 0 0 1 0 0 0 1 0" color-interpolation-filters="sRGB"/></filter><clipPath id="27f34fa76a"><path d="M 0.0585938 0 L 270 0 L 270 370 L 0.0585938 370 Z M 0.0585938 0 " clip-rule="nonzero"/></clipPath><mask id="bfbd35d3c1"><g filter="url(#62d800d9ba)"><rect x="-27.075" width="324.9" fill="#000000" y="-37.049999" height="444.599987" fill-opacity="0.1"/></g></mask><clipPath id="42d7bc0067"><path d="M 0.0585938 0 L 269.710938 0 L 269.710938 370 L 0.0585938 370 Z M 0.0585938 0 " clip-rule="nonzero"/></clipPath><clipPath id="c388146f33"><path d="M 17.285156 0 L 252.484375 0 C 257.054688 0 261.433594 1.816406 264.664062 5.046875 C 267.898438 8.277344 269.710938 12.65625 269.710938 17.226562 L 269.710938 352.574219 C 269.710938 357.144531 267.898438 361.523438 264.664062 364.757812 C 261.433594 367.988281 257.054688 369.800781 252.484375 369.800781 L 17.285156 369.800781 C 12.714844 369.800781 8.332031 367.988281 5.101562 364.757812 C 1.871094 361.523438 0.0585938 357.144531 0.0585938 352.574219 L 0.0585938 17.226562 C 0.0585938 12.65625 1.871094 8.277344 5.101562 5.046875 C 8.332031 1.816406 12.714844 0 17.285156 0 Z M 17.285156 0 " clip-rule="nonzero"/></clipPath><clipPath id="074784f555"><rect x="0" width="270" y="0" height="370"/></clipPath><clipPath id="744ad799ad"><path d="M 89.242188 184.902344 L 180.527344 184.902344 L 180.527344 297.578125 L 89.242188 297.578125 Z M 89.242188 184.902344 " clip-rule="nonzero"/></clipPath><clipPath id="02cc142be0"><path d="M 119.6875 294.613281 C 124.367188 296.203125 129.6875 297.25 134.910156 297.25 C 140.132812 297.25 145.15625 296.355469 149.785156 294.761719 C 149.886719 294.710938 149.984375 294.710938 150.082031 294.664062 C 167.472656 288.296875 180.28125 271.488281 180.527344 251.84375 L 180.527344 184.902344 L 89.242188 184.902344 L 89.242188 251.792969 C 89.488281 271.585938 102.101562 288.398438 119.6875 294.613281 Z M 119.6875 294.613281 " clip-rule="nonzero"/></clipPath><clipPath id="d8e048a3c8"><path d="M 89.242188 60.796875 L 180.527344 60.796875 L 180.527344 173.472656 L 89.242188 173.472656 Z M 89.242188 60.796875 " clip-rule="nonzero"/></clipPath><clipPath id="631f0ad2f0"><path d="M 119.6875 63.429688 C 124.351562 61.839844 129.6875 60.796875 134.910156 60.796875 C 140.132812 60.796875 145.15625 61.691406 149.785156 63.28125 C 149.886719 63.332031 149.984375 63.332031 150.082031 63.382812 C 167.472656 69.746094 180.28125 86.558594 180.527344 106.203125 L 180.527344 173.144531 L 89.242188 173.144531 L 89.242188 106.25 C 89.488281 86.457031 102.101562 69.648438 119.6875 63.429688 Z M 119.6875 63.429688 " clip-rule="nonzero"/></clipPath></defs><g clip-path="url(#27f34fa76a)"><g mask="url(#bfbd35d3c1)"><g><g clip-path="url(#074784f555)"><g clip-path="url(#42d7bc0067)"><g clip-path="url(#c388146f33)"><path fill="#919191" d="M 0.0585938 0 L 269.710938 0 L 269.710938 369.722656 L 0.0585938 369.722656 Z M 0.0585938 0 " fill-opacity="1" fill-rule="nonzero"/></g></g></g></g></g></g><g clip-path="url(#744ad799ad)"><g clip-path="url(#02cc142be0)"><path fill="#0097b2" d="M 89.242188 184.902344 L 180.527344 184.902344 L 180.527344 297.222656 L 89.242188 297.222656 Z M 89.242188 184.902344 " fill-opacity="1" fill-rule="nonzero"/></g></g><g clip-path="url(#d8e048a3c8)"><g clip-path="url(#631f0ad2f0)"><path fill="#0097b2" d="M 89.242188 60.796875 L 180.527344 60.796875 L 180.527344 173.117188 L 89.242188 173.117188 Z M 89.242188 60.796875 " fill-opacity="1" fill-rule="nonzero"/></g></g></svg>