<svg xmlns="http://www.w3.org/2000/svg" xmlns:xlink="http://www.w3.org/1999/xlink" width="361" zoomAndPan="magnify" viewBox="0 0 270.75 370.499989" height="494" preserveAspectRatio="xMidYMid meet" version="1.0"><defs><filter x="0%" y="0%" width="100%" height="100%" id="f51acc7b51"><feColorMatrix values="0 0 0 0 1 0 0 0 0 1 0 0 0 0 1 0 0 0 1 0" color-interpolation-filters="sRGB"/></filter><clipPath id="5cf186ef31"><path d="M 0.0585938 0 L 270 0 L 270 370 L 0.0585938 370 Z M 0.0585938 0 " clip-rule="nonzero"/></clipPath><mask id="edfbbfe89b"><g filter="url(#f51acc7b51)"><rect x="-27.075" width="324.9" fill="#000000" y="-37.049999" height="444.599987" fill-opacity="0.3"/></g></mask><clipPath id="5e27422b54"><path d="M 0.0585938 0 L 269.710938 0 L 269.710938 370 L 0.0585938 370 Z M 0.0585938 0 " clip-rule="nonzero"/></clipPath><clipPath id="4d38ab7dca"><path d="M 17.285156 0 L 252.484375 0 C 257.054688 0 261.433594 1.816406 264.664062 5.046875 C 267.898438 8.277344 269.710938 12.65625 269.710938 17.226562 L 269.710938 352.574219 C 269.710938 357.144531 267.898438 361.523438 264.664062 364.757812 C 261.433594 367.988281 257.054688 369.800781 252.484375 369.800781 L 17.285156 369.800781 C 12.714844 369.800781 8.332031 367.988281 5.101562 364.757812 C 1.871094 361.523438 0.0585938 357.144531 0.0585938 352.574219 L 0.0585938 17.226562 C 0.0585938 12.65625 1.871094 8.277344 5.101562 5.046875 C 8.332031 1.816406 12.714844 0 17.285156 0 Z M 17.285156 0 " clip-rule="nonzero"/></clipPath><clipPath id="8eb23a5819"><rect x="0" width="270" y="0" height="370"/></clipPath><clipPath id="fe257fc690"><path d="M 129.28125 59.105469 L 197.15625 59.105469 L 197.15625 136.792969 L 129.28125 136.792969 Z M 129.28125 59.105469 " clip-rule="nonzero"/></clipPath><clipPath id="2575bbfe37"><path d="M 197.15625 98.003906 L 129.28125 59.21875 L 129.28125 136.792969 Z M 197.15625 98.003906 " clip-rule="nonzero"/></clipPath><clipPath id="2ae5423206"><path d="M 56.09375 226.269531 L 151.71875 226.269531 L 151.71875 321.894531 L 56.09375 321.894531 Z M 56.09375 226.269531 " clip-rule="nonzero"/></clipPath><clipPath id="2b6c784d5e"><path d="M 103.90625 226.269531 C 77.5 226.269531 56.09375 247.675781 56.09375 274.082031 C 56.09375 300.488281 77.5 321.894531 103.90625 321.894531 C 130.3125 321.894531 151.71875 300.488281 151.71875 274.082031 C 151.71875 247.675781 130.3125 226.269531 103.90625 226.269531 Z M 103.90625 226.269531 " clip-rule="nonzero"/></clipPath></defs><g clip-path="url(#5cf186ef31)"><g mask="url(#edfbbfe89b)"><g><g clip-path="url(#8eb23a5819)"><g clip-path="url(#5e27422b54)"><g clip-path="url(#4d38ab7dca)"><path fill="#919191" d="M 0.0585938 0 L 269.710938 0 L 269.710938 369.722656 L 0.0585938 369.722656 Z M 0.0585938 0 " fill-opacity="1" fill-rule="nonzero"/></g></g></g></g></g></g><path stroke-linecap="round" transform="matrix(0, -0.748989, 0.748989, 0, 129.636751, 304.908341)" fill="none" stroke-linejoin="miter" d="M 7.001808 6.998973 L 255.326078 6.998973 " stroke="#ffde59" stroke-width="14" stroke-opacity="1" stroke-miterlimit="4"/><g clip-path="url(#fe257fc690)"><g clip-path="url(#2575bbfe37)"><path fill="#ffde59" d="M 129.28125 136.792969 L 129.28125 59.105469 L 197.15625 59.105469 L 197.15625 136.792969 Z M 129.28125 136.792969 " fill-opacity="1" fill-rule="nonzero"/></g></g><g clip-path="url(#2ae5423206)"><g clip-path="url(#2b6c784d5e)"><path fill="#ffde59" d="M 56.09375 226.269531 L 151.71875 226.269531 L 151.71875 321.894531 L 56.09375 321.894531 Z M 56.09375 226.269531 " fill-opacity="1" fill-rule="nonzero"/></g></g></svg>