<svg xmlns="http://www.w3.org/2000/svg" xmlns:xlink="http://www.w3.org/1999/xlink" width="361" zoomAndPan="magnify" viewBox="0 0 270.75 377.999986" height="504" preserveAspectRatio="xMidYMid meet" version="1.0"><defs><filter x="0%" y="0%" width="100%" height="100%" id="3e2e60aebf"><feColorMatrix values="0 0 0 0 1 0 0 0 0 1 0 0 0 0 1 0 0 0 1 0" color-interpolation-filters="sRGB"/></filter><g/><clipPath id="5d00a7ec32"><path d="M 0 7 L 270 7 L 270 377.824219 L 0 377.824219 Z M 0 7 " clip-rule="nonzero"/></clipPath><mask id="5d1c8e08fb"><g filter="url(#3e2e60aebf)"><rect x="-27.075" width="324.9" fill="#000000" y="-37.799999" height="453.599983" fill-opacity="0.3"/></g></mask><clipPath id="2b82120eed"><path d="M 0 0.265625 L 269.769531 0.265625 L 269.769531 370.824219 L 0 370.824219 Z M 0 0.265625 " clip-rule="nonzero"/></clipPath><clipPath id="ff85432014"><path d="M 17.234375 0.265625 L 252.535156 0.265625 C 257.105469 0.265625 261.488281 2.082031 264.722656 5.3125 C 267.953125 8.546875 269.769531 12.929688 269.769531 17.5 L 269.769531 352.992188 C 269.769531 357.5625 267.953125 361.945312 264.722656 365.175781 C 261.488281 368.410156 257.105469 370.226562 252.535156 370.226562 L 17.234375 370.226562 C 12.664062 370.226562 8.28125 368.410156 5.046875 365.175781 C 1.816406 361.945312 0 357.5625 0 352.992188 L 0 17.5 C 0 12.929688 1.816406 8.546875 5.046875 5.3125 C 8.28125 2.082031 12.664062 0.265625 17.234375 0.265625 Z M 17.234375 0.265625 " clip-rule="nonzero"/></clipPath><clipPath id="8373d77705"><rect x="0" width="270" y="0" height="371"/></clipPath></defs><g clip-path="url(#5d00a7ec32)"><g mask="url(#5d1c8e08fb)"><g transform="matrix(1, 0, 0, 1, 0, 7)"><g clip-path="url(#8373d77705)"><g clip-path="url(#2b82120eed)"><g clip-path="url(#ff85432014)"><path fill="#919191" d="M 0 0.265625 L 269.769531 0.265625 L 269.769531 370.144531 L 0 370.144531 Z M 0 0.265625 " fill-opacity="1" fill-rule="nonzero"/></g></g></g></g></g></g><g fill="#0097b2" fill-opacity="1"><g transform="translate(203.570318, 79.488738)"><g><path d="M -40.28125 103.828125 L -28.3125 103.828125 L -8.765625 128.53125 L -8.765625 130.296875 L -18.125 130.296875 L -34.296875 116.5625 L -50.5625 130.296875 L -59.84375 130.296875 L -59.84375 128.53125 Z M -40.28125 103.828125 "/></g></g><g transform="translate(134.880114, 79.488738)"><g><path d="M -40.28125 103.828125 L -28.3125 103.828125 L -8.765625 128.53125 L -8.765625 130.296875 L -18.125 130.296875 L -34.296875 116.5625 L -50.5625 130.296875 L -59.84375 130.296875 L -59.84375 128.53125 Z M -40.28125 103.828125 "/></g></g></g></svg>