<svg xmlns="http://www.w3.org/2000/svg" xmlns:xlink="http://www.w3.org/1999/xlink" width="361" zoomAndPan="magnify" viewBox="0 0 270.75 370.499989" height="494" preserveAspectRatio="xMidYMid meet" version="1.0"><defs><filter x="0%" y="0%" width="100%" height="100%" id="5ede9d6c31"><feColorMatrix values="0 0 0 0 1 0 0 0 0 1 0 0 0 0 1 0 0 0 1 0" color-interpolation-filters="sRGB"/></filter><clipPath id="a29e08c775"><path d="M 0.0585938 0 L 270 0 L 270 370 L 0.0585938 370 Z M 0.0585938 0 " clip-rule="nonzero"/></clipPath><mask id="44c61123cf"><g filter="url(#5ede9d6c31)"><rect x="-27.075" width="324.9" fill="#000000" y="-37.049999" height="444.599987" fill-opacity="0.3"/></g></mask><clipPath id="c4a3b6e0b1"><path d="M 0.0585938 0 L 269.710938 0 L 269.710938 370 L 0.0585938 370 Z M 0.0585938 0 " clip-rule="nonzero"/></clipPath><clipPath id="cac0e58d85"><path d="M 17.285156 0 L 252.484375 0 C 257.054688 0 261.433594 1.816406 264.664062 5.046875 C 267.898438 8.277344 269.710938 12.65625 269.710938 17.226562 L 269.710938 352.574219 C 269.710938 357.144531 267.898438 361.523438 264.664062 364.757812 C 261.433594 367.988281 257.054688 369.800781 252.484375 369.800781 L 17.285156 369.800781 C 12.714844 369.800781 8.332031 367.988281 5.101562 364.757812 C 1.871094 361.523438 0.0585938 357.144531 0.0585938 352.574219 L 0.0585938 17.226562 C 0.0585938 12.65625 1.871094 8.277344 5.101562 5.046875 C 8.332031 1.816406 12.714844 0 17.285156 0 Z M 17.285156 0 " clip-rule="nonzero"/></clipPath><clipPath id="6f21361424"><rect x="0" width="270" y="0" height="370"/></clipPath><clipPath id="eedaecf834"><path d="M 48.445312 98.460938 L 221.324219 98.460938 L 221.324219 271.339844 L 48.445312 271.339844 Z M 48.445312 98.460938 " clip-rule="nonzero"/></clipPath><clipPath id="7c6918759f"><path d="M 134.882812 98.460938 C 87.144531 98.460938 48.445312 137.160156 48.445312 184.902344 C 48.445312 232.640625 87.144531 271.339844 134.882812 271.339844 C 182.625 271.339844 221.324219 232.640625 221.324219 184.902344 C 221.324219 137.160156 182.625 98.460938 134.882812 98.460938 Z M 134.882812 98.460938 " clip-rule="nonzero"/></clipPath><clipPath id="b1d18111d3"><path d="M 48.445312 98.460938 L 221.320312 98.460938 L 221.320312 271.339844 L 48.445312 271.339844 Z M 48.445312 98.460938 " clip-rule="nonzero"/></clipPath><clipPath id="d92896af9d"><path d="M 134.882812 98.460938 C 87.144531 98.460938 48.445312 137.160156 48.445312 184.898438 C 48.445312 232.636719 87.144531 271.339844 134.882812 271.339844 C 182.621094 271.339844 221.320312 232.636719 221.320312 184.898438 C 221.320312 137.160156 182.621094 98.460938 134.882812 98.460938 Z M 134.882812 98.460938 " clip-rule="nonzero"/></clipPath></defs><g clip-path="url(#a29e08c775)"><g mask="url(#44c61123cf)"><g><g clip-path="url(#6f21361424)"><g clip-path="url(#c4a3b6e0b1)"><g clip-path="url(#cac0e58d85)"><path fill="#919191" d="M 0.0585938 0 L 269.710938 0 L 269.710938 369.722656 L 0.0585938 369.722656 Z M 0.0585938 0 " fill-opacity="1" fill-rule="nonzero"/></g></g></g></g></g></g><g clip-path="url(#eedaecf834)"><g clip-path="url(#7c6918759f)"><path fill="#004aad" d="M 48.445312 98.460938 L 221.324219 98.460938 L 221.324219 271.339844 L 48.445312 271.339844 Z M 48.445312 98.460938 " fill-opacity="1" fill-rule="nonzero"/></g></g><g clip-path="url(#b1d18111d3)"><g clip-path="url(#d92896af9d)"><path stroke-linecap="butt" transform="matrix(0.748989, 0, 0, 0.748989, 48.446005, 98.462226)" fill="none" stroke-linejoin="miter" d="M 115.404617 -0.00172014 C 51.667672 -0.00172014 -0.000924378 51.666876 -0.000924378 115.403821 C -0.000924378 179.140766 51.667672 230.814578 115.404617 230.814578 C 179.141562 230.814578 230.810158 179.140766 230.810158 115.403821 C 230.810158 51.666876 179.141562 -0.00172014 115.404617 -0.00172014 Z M 115.404617 -0.00172014 " stroke="#004aad" stroke-width="20" stroke-opacity="1" stroke-miterlimit="4"/></g></g></svg>