<svg xmlns="http://www.w3.org/2000/svg" xmlns:xlink="http://www.w3.org/1999/xlink" width="361" zoomAndPan="magnify" viewBox="0 0 270.75 370.499989" height="494" preserveAspectRatio="xMidYMid meet" version="1.0"><defs><filter x="0%" y="0%" width="100%" height="100%" id="b056acefb4"><feColorMatrix values="0 0 0 0 1 0 0 0 0 1 0 0 0 0 1 0 0 0 1 0" color-interpolation-filters="sRGB"/></filter><g/><clipPath id="c2f85030e0"><path d="M 0.0585938 0 L 270 0 L 270 370 L 0.0585938 370 Z M 0.0585938 0 " clip-rule="nonzero"/></clipPath><mask id="c060fff25e"><g filter="url(#b056acefb4)"><rect x="-27.075" width="324.9" fill="#000000" y="-37.049999" height="444.599987" fill-opacity="0.3"/></g></mask><clipPath id="622caa7e42"><path d="M 0.0585938 0 L 269.710938 0 L 269.710938 370 L 0.0585938 370 Z M 0.0585938 0 " clip-rule="nonzero"/></clipPath><clipPath id="deef7ff0d0"><path d="M 17.285156 0 L 252.484375 0 C 257.054688 0 261.433594 1.816406 264.664062 5.046875 C 267.898438 8.277344 269.710938 12.65625 269.710938 17.226562 L 269.710938 352.574219 C 269.710938 357.144531 267.898438 361.523438 264.664062 364.757812 C 261.433594 367.988281 257.054688 369.800781 252.484375 369.800781 L 17.285156 369.800781 C 12.714844 369.800781 8.332031 367.988281 5.101562 364.757812 C 1.871094 361.523438 0.0585938 357.144531 0.0585938 352.574219 L 0.0585938 17.226562 C 0.0585938 12.65625 1.871094 8.277344 5.101562 5.046875 C 8.332031 1.816406 12.714844 0 17.285156 0 Z M 17.285156 0 " clip-rule="nonzero"/></clipPath><clipPath id="0f3ba2d929"><rect x="0" width="270" y="0" height="370"/></clipPath></defs><g clip-path="url(#c2f85030e0)"><g mask="url(#c060fff25e)"><g><g clip-path="url(#0f3ba2d929)"><g clip-path="url(#622caa7e42)"><g clip-path="url(#deef7ff0d0)"><path fill="#919191" d="M 0.0585938 0 L 269.710938 0 L 269.710938 369.722656 L 0.0585938 369.722656 Z M 0.0585938 0 " fill-opacity="1" fill-rule="nonzero"/></g></g></g></g></g></g><g fill="#00bf63" fill-opacity="1"><g transform="translate(117.062207, 235.936393)"><g><path d="M 23.265625 0.859375 C 19.984375 0.859375 17.390625 -0.0625 15.484375 -1.90625 C 13.578125 -3.75 12.625 -6.195312 12.625 -9.25 C 12.625 -12.25 13.578125 -14.710938 15.484375 -16.640625 C 17.390625 -18.578125 19.984375 -19.546875 23.265625 -19.546875 C 26.617188 -19.546875 29.242188 -18.625 31.140625 -16.78125 C 33.046875 -14.9375 34 -12.488281 34 -9.4375 C 34 -6.375 33.03125 -3.890625 31.09375 -1.984375 C 29.164062 -0.0859375 26.554688 0.859375 23.265625 0.859375 Z M 23.265625 -76.046875 C 19.984375 -76.046875 17.390625 -76.96875 15.484375 -78.8125 C 13.578125 -80.65625 12.625 -83.101562 12.625 -86.15625 C 12.625 -89.15625 13.578125 -91.617188 15.484375 -93.546875 C 17.390625 -95.484375 19.984375 -96.453125 23.265625 -96.453125 C 26.617188 -96.453125 29.242188 -95.53125 31.140625 -93.6875 C 33.046875 -91.84375 34 -89.394531 34 -86.34375 C 34 -83.28125 33.03125 -80.796875 31.09375 -78.890625 C 29.164062 -76.992188 26.554688 -76.046875 23.265625 -76.046875 Z M 23.265625 -76.046875 "/></g></g></g></svg>