<svg xmlns="http://www.w3.org/2000/svg" xmlns:xlink="http://www.w3.org/1999/xlink" width="361" zoomAndPan="magnify" viewBox="0 0 270.75 370.499989" height="494" preserveAspectRatio="xMidYMid meet" version="1.0"><defs><filter x="0%" y="0%" width="100%" height="100%" id="33020e5fa8"><feColorMatrix values="0 0 0 0 1 0 0 0 0 1 0 0 0 0 1 0 0 0 1 0" color-interpolation-filters="sRGB"/></filter><clipPath id="0eeb54bbb6"><path d="M 0.0585938 0 L 270 0 L 270 370 L 0.0585938 370 Z M 0.0585938 0 " clip-rule="nonzero"/></clipPath><mask id="ca259e2458"><g filter="url(#33020e5fa8)"><rect x="-27.075" width="324.9" fill="#000000" y="-37.049999" height="444.599987" fill-opacity="0.3"/></g></mask><clipPath id="722dc50976"><path d="M 0.0585938 0 L 269.710938 0 L 269.710938 370 L 0.0585938 370 Z M 0.0585938 0 " clip-rule="nonzero"/></clipPath><clipPath id="ddf841c441"><path d="M 17.285156 0 L 252.484375 0 C 257.054688 0 261.433594 1.816406 264.664062 5.046875 C 267.898438 8.277344 269.710938 12.65625 269.710938 17.226562 L 269.710938 352.574219 C 269.710938 357.144531 267.898438 361.523438 264.664062 364.757812 C 261.433594 367.988281 257.054688 369.800781 252.484375 369.800781 L 17.285156 369.800781 C 12.714844 369.800781 8.332031 367.988281 5.101562 364.757812 C 1.871094 361.523438 0.0585938 357.144531 0.0585938 352.574219 L 0.0585938 17.226562 C 0.0585938 12.65625 1.871094 8.277344 5.101562 5.046875 C 8.332031 1.816406 12.714844 0 17.285156 0 Z M 17.285156 0 " clip-rule="nonzero"/></clipPath><clipPath id="fe01801787"><rect x="0" width="270" y="0" height="370"/></clipPath><clipPath id="ece6fb94ad"><path d="M 97.484375 152.175781 L 172.394531 152.175781 L 172.394531 217.625 L 97.484375 217.625 Z M 97.484375 152.175781 " clip-rule="nonzero"/></clipPath><clipPath id="a10406fc79"><path d="M 134.882812 152.175781 L 172.285156 217.625 L 97.484375 217.625 Z M 134.882812 152.175781 " clip-rule="nonzero"/></clipPath><clipPath id="98f4755ea3"><path d="M 97.484375 60.519531 L 172.394531 60.519531 L 172.394531 125.96875 L 97.484375 125.96875 Z M 97.484375 60.519531 " clip-rule="nonzero"/></clipPath><clipPath id="7f66522e27"><path d="M 134.882812 60.519531 L 172.285156 125.96875 L 97.484375 125.96875 Z M 134.882812 60.519531 " clip-rule="nonzero"/></clipPath><clipPath id="485c5eb749"><path d="M 97.484375 243.839844 L 172.394531 243.839844 L 172.394531 309.289062 L 97.484375 309.289062 Z M 97.484375 243.839844 " clip-rule="nonzero"/></clipPath><clipPath id="472b7fdcc4"><path d="M 134.882812 243.839844 L 172.285156 309.289062 L 97.484375 309.289062 Z M 134.882812 243.839844 " clip-rule="nonzero"/></clipPath></defs><g clip-path="url(#0eeb54bbb6)"><g mask="url(#ca259e2458)"><g><g clip-path="url(#fe01801787)"><g clip-path="url(#722dc50976)"><g clip-path="url(#ddf841c441)"><path fill="#919191" d="M 0.0585938 0 L 269.710938 0 L 269.710938 369.722656 L 0.0585938 369.722656 Z M 0.0585938 0 " fill-opacity="1" fill-rule="nonzero"/></g></g></g></g></g></g><g clip-path="url(#ece6fb94ad)"><g clip-path="url(#a10406fc79)"><path fill="#004aad" d="M 97.484375 152.175781 L 172.394531 152.175781 L 172.394531 217.625 L 97.484375 217.625 Z M 97.484375 152.175781 " fill-opacity="1" fill-rule="nonzero"/></g></g><g clip-path="url(#98f4755ea3)"><g clip-path="url(#7f66522e27)"><path fill="#004aad" d="M 97.484375 60.519531 L 172.394531 60.519531 L 172.394531 125.96875 L 97.484375 125.96875 Z M 97.484375 60.519531 " fill-opacity="1" fill-rule="nonzero"/></g></g><g clip-path="url(#485c5eb749)"><g clip-path="url(#472b7fdcc4)"><path fill="#004aad" d="M 97.484375 243.839844 L 172.394531 243.839844 L 172.394531 309.289062 L 97.484375 309.289062 Z M 97.484375 243.839844 " fill-opacity="1" fill-rule="nonzero"/></g></g></svg>