<svg xmlns="http://www.w3.org/2000/svg" xmlns:xlink="http://www.w3.org/1999/xlink" width="361" zoomAndPan="magnify" viewBox="0 0 270.75 370.499989" height="494" preserveAspectRatio="xMidYMid meet" version="1.0"><defs><filter x="0%" y="0%" width="100%" height="100%" id="8c733fe92a"><feColorMatrix values="0 0 0 0 1 0 0 0 0 1 0 0 0 0 1 0 0 0 1 0" color-interpolation-filters="sRGB"/></filter><clipPath id="c46c5f1e1a"><path d="M 0.0585938 0 L 270 0 L 270 370 L 0.0585938 370 Z M 0.0585938 0 " clip-rule="nonzero"/></clipPath><mask id="8feb43b266"><g filter="url(#8c733fe92a)"><rect x="-27.075" width="324.9" fill="#000000" y="-37.049999" height="444.599987" fill-opacity="0.1"/></g></mask><clipPath id="860ebfb13e"><path d="M 0.0585938 0 L 269.710938 0 L 269.710938 370 L 0.0585938 370 Z M 0.0585938 0 " clip-rule="nonzero"/></clipPath><clipPath id="b53733d45a"><path d="M 17.285156 0 L 252.484375 0 C 257.054688 0 261.433594 1.816406 264.664062 5.046875 C 267.898438 8.277344 269.710938 12.65625 269.710938 17.226562 L 269.710938 352.574219 C 269.710938 357.144531 267.898438 361.523438 264.664062 364.757812 C 261.433594 367.988281 257.054688 369.800781 252.484375 369.800781 L 17.285156 369.800781 C 12.714844 369.800781 8.332031 367.988281 5.101562 364.757812 C 1.871094 361.523438 0.0585938 357.144531 0.0585938 352.574219 L 0.0585938 17.226562 C 0.0585938 12.65625 1.871094 8.277344 5.101562 5.046875 C 8.332031 1.816406 12.714844 0 17.285156 0 Z M 17.285156 0 " clip-rule="nonzero"/></clipPath><clipPath id="8a303b6196"><rect x="0" width="270" y="0" height="370"/></clipPath><clipPath id="d03d56d77e"><path d="M 79.144531 230.414062 L 190.625 230.414062 L 190.625 316.636719 L 79.144531 316.636719 Z M 79.144531 230.414062 " clip-rule="nonzero"/></clipPath><clipPath id="2a38b71b8c"><path d="M 96.371094 230.414062 L 173.398438 230.414062 C 177.964844 230.414062 182.347656 232.230469 185.578125 235.460938 C 188.808594 238.691406 190.625 243.074219 190.625 247.640625 L 190.625 299.410156 C 190.625 303.976562 188.808594 308.359375 185.578125 311.589844 C 182.347656 314.820312 177.964844 316.636719 173.398438 316.636719 L 96.371094 316.636719 C 91.804688 316.636719 87.421875 314.820312 84.191406 311.589844 C 80.960938 308.359375 79.144531 303.976562 79.144531 299.410156 L 79.144531 247.640625 C 79.144531 243.074219 80.960938 238.691406 84.191406 235.460938 C 87.421875 232.230469 91.804688 230.414062 96.371094 230.414062 Z M 96.371094 230.414062 " clip-rule="nonzero"/></clipPath><clipPath id="eaef7257da"><path d="M 79.144531 44.699219 L 190.625 44.699219 L 190.625 130.921875 L 79.144531 130.921875 Z M 79.144531 44.699219 " clip-rule="nonzero"/></clipPath><clipPath id="5d9291bdaf"><path d="M 96.371094 44.699219 L 173.398438 44.699219 C 177.964844 44.699219 182.347656 46.515625 185.578125 49.746094 C 188.808594 52.976562 190.625 57.359375 190.625 61.925781 L 190.625 113.695312 C 190.625 118.261719 188.808594 122.644531 185.578125 125.875 C 182.347656 129.105469 177.964844 130.921875 173.398438 130.921875 L 96.371094 130.921875 C 91.804688 130.921875 87.421875 129.105469 84.191406 125.875 C 80.960938 122.644531 79.144531 118.261719 79.144531 113.695312 L 79.144531 61.925781 C 79.144531 57.359375 80.960938 52.976562 84.191406 49.746094 C 87.421875 46.515625 91.804688 44.699219 96.371094 44.699219 Z M 96.371094 44.699219 " clip-rule="nonzero"/></clipPath></defs><g clip-path="url(#c46c5f1e1a)"><g mask="url(#8feb43b266)"><g><g clip-path="url(#8a303b6196)"><g clip-path="url(#860ebfb13e)"><g clip-path="url(#b53733d45a)"><path fill="#919191" d="M 0.0585938 0 L 269.710938 0 L 269.710938 369.722656 L 0.0585938 369.722656 Z M 0.0585938 0 " fill-opacity="1" fill-rule="nonzero"/></g></g></g></g></g></g><path stroke-linecap="butt" transform="matrix(0, -0.748989, 0.748989, 0, 104.922422, 254.398793)" fill="none" stroke-linejoin="miter" d="M 0.000474924 40.0011 L 185.583934 40.0011 " stroke="#ff3131" stroke-width="80" stroke-opacity="1" stroke-miterlimit="4"/><g clip-path="url(#d03d56d77e)"><g clip-path="url(#2a38b71b8c)"><path fill="#ff3131" d="M 79.144531 230.414062 L 190.625 230.414062 L 190.625 316.636719 L 79.144531 316.636719 Z M 79.144531 230.414062 " fill-opacity="1" fill-rule="nonzero"/></g></g><g clip-path="url(#eaef7257da)"><g clip-path="url(#5d9291bdaf)"><path fill="#ff3131" d="M 79.144531 44.699219 L 190.625 44.699219 L 190.625 130.921875 L 79.144531 130.921875 Z M 79.144531 44.699219 " fill-opacity="1" fill-rule="nonzero"/></g></g></svg>