<svg xmlns="http://www.w3.org/2000/svg" xmlns:xlink="http://www.w3.org/1999/xlink" width="361" zoomAndPan="magnify" viewBox="0 0 270.75 370.499989" height="494" preserveAspectRatio="xMidYMid meet" version="1.0"><defs><filter x="0%" y="0%" width="100%" height="100%" id="2e21ebf934"><feColorMatrix values="0 0 0 0 1 0 0 0 0 1 0 0 0 0 1 0 0 0 1 0" color-interpolation-filters="sRGB"/></filter><clipPath id="fd3e90f257"><path d="M 0.0585938 0 L 270 0 L 270 370 L 0.0585938 370 Z M 0.0585938 0 " clip-rule="nonzero"/></clipPath><mask id="1b6764fa78"><g filter="url(#2e21ebf934)"><rect x="-27.075" width="324.9" fill="#000000" y="-37.049999" height="444.599987" fill-opacity="0.1"/></g></mask><clipPath id="1cc954b80f"><path d="M 0.0585938 0 L 269.710938 0 L 269.710938 370 L 0.0585938 370 Z M 0.0585938 0 " clip-rule="nonzero"/></clipPath><clipPath id="b45fe6a080"><path d="M 17.285156 0 L 252.484375 0 C 257.054688 0 261.433594 1.816406 264.664062 5.046875 C 267.898438 8.277344 269.710938 12.65625 269.710938 17.226562 L 269.710938 352.574219 C 269.710938 357.144531 267.898438 361.523438 264.664062 364.757812 C 261.433594 367.988281 257.054688 369.800781 252.484375 369.800781 L 17.285156 369.800781 C 12.714844 369.800781 8.332031 367.988281 5.101562 364.757812 C 1.871094 361.523438 0.0585938 357.144531 0.0585938 352.574219 L 0.0585938 17.226562 C 0.0585938 12.65625 1.871094 8.277344 5.101562 5.046875 C 8.332031 1.816406 12.714844 0 17.285156 0 Z M 17.285156 0 " clip-rule="nonzero"/></clipPath><clipPath id="d24d2fd2df"><rect x="0" width="270" y="0" height="370"/></clipPath><clipPath id="a7d975a625"><path d="M 58.210938 113.160156 L 211.558594 113.160156 L 211.558594 298.25 L 58.210938 298.25 Z M 58.210938 113.160156 " clip-rule="nonzero"/></clipPath><clipPath id="ebcfda32da"><path d="M 110.617188 113.160156 L 159.152344 113.160156 L 211.558594 298.246094 L 58.210938 298.246094 Z M 110.617188 113.160156 " clip-rule="nonzero"/></clipPath><clipPath id="54f53a1bbf"><path d="M 106.796875 46.859375 L 162.972656 46.859375 L 162.972656 103.035156 L 106.796875 103.035156 Z M 106.796875 46.859375 " clip-rule="nonzero"/></clipPath><clipPath id="c3f8853065"><path d="M 134.882812 46.859375 C 119.371094 46.859375 106.796875 59.433594 106.796875 74.949219 C 106.796875 90.460938 119.371094 103.035156 134.882812 103.035156 C 150.398438 103.035156 162.972656 90.460938 162.972656 74.949219 C 162.972656 59.433594 150.398438 46.859375 134.882812 46.859375 Z M 134.882812 46.859375 " clip-rule="nonzero"/></clipPath><clipPath id="1005f1e4b1"><path d="M 65 133 L 99 133 L 99 177 L 65 177 Z M 65 133 " clip-rule="nonzero"/></clipPath><clipPath id="3f74272f5b"><path d="M 84.957031 129.578125 L 101.460938 138.96875 L 78.023438 180.160156 L 61.519531 170.773438 Z M 84.957031 129.578125 " clip-rule="nonzero"/></clipPath><clipPath id="97d2333e7a"><path d="M 93.210938 134.273438 C 95.398438 135.519531 97.003906 137.582031 97.671875 140.007812 C 98.335938 142.4375 98.011719 145.03125 96.765625 147.21875 L 82.75 171.855469 C 81.503906 174.046875 79.441406 175.648438 77.011719 176.316406 C 74.585938 176.984375 71.992188 176.660156 69.804688 175.414062 C 67.613281 174.167969 66.011719 172.105469 65.34375 169.675781 C 64.675781 167.25 65 164.65625 66.246094 162.464844 L 80.265625 137.828125 C 81.507812 135.640625 83.574219 134.035156 86 133.371094 C 88.429688 132.703125 91.023438 133.027344 93.210938 134.273438 Z M 93.210938 134.273438 " clip-rule="nonzero"/></clipPath><clipPath id="ce8b7820f8"><path d="M 34 155 L 82 155 L 82 179 L 34 179 Z M 34 155 " clip-rule="nonzero"/></clipPath><clipPath id="8e0a1d3640"><path d="M 83.027344 161.332031 L 80.179688 180.105469 L 33.320312 172.992188 L 36.171875 154.21875 Z M 83.027344 161.332031 " clip-rule="nonzero"/></clipPath><clipPath id="e9b379322b"><path d="M 81.605469 170.71875 C 81.226562 173.210938 79.875 175.445312 77.847656 176.941406 C 75.820312 178.433594 73.28125 179.058594 70.792969 178.679688 L 42.769531 174.425781 C 40.277344 174.050781 38.042969 172.699219 36.546875 170.671875 C 35.054688 168.644531 34.429688 166.105469 34.808594 163.617188 C 35.183594 161.125 36.535156 158.890625 38.5625 157.394531 C 40.589844 155.902344 43.128906 155.277344 45.617188 155.652344 L 73.644531 159.910156 C 76.132812 160.285156 78.371094 161.636719 79.863281 163.664062 C 81.355469 165.691406 81.980469 168.230469 81.605469 170.71875 Z M 81.605469 170.71875 " clip-rule="nonzero"/></clipPath><clipPath id="a17d6c9e07"><path d="M 171 131 L 202 131 L 202 177 L 171 177 Z M 171 131 " clip-rule="nonzero"/></clipPath><clipPath id="8a58d62fbe"><path d="M 168.5 136.351562 L 185.898438 128.742188 L 204.890625 172.164062 L 187.492188 179.773438 Z M 168.5 136.351562 " clip-rule="nonzero"/></clipPath><clipPath id="d387c67331"><path d="M 177.199219 132.546875 C 179.503906 131.535156 182.117188 131.484375 184.464844 132.402344 C 186.808594 133.320312 188.691406 135.132812 189.703125 137.4375 L 201.058594 163.410156 C 202.070312 165.71875 202.121094 168.332031 201.203125 170.675781 C 200.285156 173.019531 198.472656 174.902344 196.164062 175.914062 C 193.859375 176.921875 191.246094 176.972656 188.902344 176.054688 C 186.554688 175.136719 184.671875 173.324219 183.664062 171.019531 L 172.304688 145.046875 C 171.296875 142.742188 171.246094 140.128906 172.164062 137.78125 C 173.078125 135.4375 174.890625 133.554688 177.199219 132.546875 Z M 177.199219 132.546875 " clip-rule="nonzero"/></clipPath><clipPath id="9abe674085"><path d="M 182 154 L 230 154 L 230 178 L 182 178 Z M 182 154 " clip-rule="nonzero"/></clipPath><clipPath id="2b2bb7e618"><path d="M 184.097656 178.308594 L 181.675781 159.472656 L 228.683594 153.425781 L 231.105469 172.257812 Z M 184.097656 178.308594 " clip-rule="nonzero"/></clipPath><clipPath id="b8a750aec4"><path d="M 182.886719 168.890625 C 182.566406 166.394531 183.25 163.871094 184.789062 161.878906 C 186.328125 159.882812 188.59375 158.582031 191.09375 158.261719 L 219.207031 154.644531 C 221.703125 154.324219 224.226562 155.007812 226.21875 156.546875 C 228.210938 158.085938 229.511719 160.351562 229.835938 162.847656 C 230.15625 165.347656 229.472656 167.871094 227.933594 169.863281 C 226.394531 171.855469 224.128906 173.15625 221.628906 173.476562 L 193.515625 177.09375 C 191.019531 177.417969 188.496094 176.734375 186.503906 175.195312 C 184.507812 173.65625 183.210938 171.386719 182.886719 168.890625 Z M 182.886719 168.890625 " clip-rule="nonzero"/></clipPath></defs><g clip-path="url(#fd3e90f257)"><g mask="url(#1b6764fa78)"><g><g clip-path="url(#d24d2fd2df)"><g clip-path="url(#1cc954b80f)"><g clip-path="url(#b45fe6a080)"><path fill="#919191" d="M 0.0585938 0 L 269.710938 0 L 269.710938 369.722656 L 0.0585938 369.722656 Z M 0.0585938 0 " fill-opacity="1" fill-rule="nonzero"/></g></g></g></g></g></g><g clip-path="url(#a7d975a625)"><g clip-path="url(#ebcfda32da)"><path fill="#00bf63" d="M 58.210938 113.160156 L 211.558594 113.160156 L 211.558594 298.25 L 58.210938 298.25 Z M 58.210938 113.160156 " fill-opacity="1" fill-rule="nonzero"/></g></g><g clip-path="url(#54f53a1bbf)"><g clip-path="url(#c3f8853065)"><path fill="#00bf63" d="M 106.796875 46.859375 L 162.972656 46.859375 L 162.972656 103.035156 L 106.796875 103.035156 Z M 106.796875 46.859375 " fill-opacity="1" fill-rule="nonzero"/></g></g><g clip-path="url(#1005f1e4b1)"><g clip-path="url(#3f74272f5b)"><g clip-path="url(#97d2333e7a)"><path fill="#00bf63" d="M 84.957031 129.578125 L 101.460938 138.96875 L 78.0625 180.097656 L 61.558594 170.707031 Z M 84.957031 129.578125 " fill-opacity="1" fill-rule="nonzero"/></g></g></g><g clip-path="url(#ce8b7820f8)"><g clip-path="url(#8e0a1d3640)"><g clip-path="url(#e9b379322b)"><path fill="#00bf63" d="M 83.027344 161.332031 L 80.179688 180.105469 L 33.394531 173.003906 L 36.242188 154.230469 Z M 83.027344 161.332031 " fill-opacity="1" fill-rule="nonzero"/></g></g></g><g clip-path="url(#a17d6c9e07)"><g clip-path="url(#8a58d62fbe)"><g clip-path="url(#d387c67331)"><path fill="#00bf63" d="M 168.5 136.351562 L 185.898438 128.742188 L 204.859375 172.097656 L 187.460938 179.707031 Z M 168.5 136.351562 " fill-opacity="1" fill-rule="nonzero"/></g></g></g><g clip-path="url(#9abe674085)"><g clip-path="url(#2b2bb7e618)"><g clip-path="url(#b8a750aec4)"><path fill="#00bf63" d="M 184.097656 178.308594 L 181.675781 159.472656 L 228.609375 153.433594 L 231.035156 172.265625 Z M 184.097656 178.308594 " fill-opacity="1" fill-rule="nonzero"/></g></g></g></svg>