<svg xmlns="http://www.w3.org/2000/svg" xmlns:xlink="http://www.w3.org/1999/xlink" width="361" zoomAndPan="magnify" viewBox="0 0 270.75 370.499989" height="494" preserveAspectRatio="xMidYMid meet" version="1.0"><defs><filter x="0%" y="0%" width="100%" height="100%" id="72d2efab7c"><feColorMatrix values="0 0 0 0 1 0 0 0 0 1 0 0 0 0 1 0 0 0 1 0" color-interpolation-filters="sRGB"/></filter><clipPath id="73a2f4a194"><path d="M 0.0585938 0 L 270 0 L 270 370 L 0.0585938 370 Z M 0.0585938 0 " clip-rule="nonzero"/></clipPath><mask id="7c81a49516"><g filter="url(#72d2efab7c)"><rect x="-27.075" width="324.9" fill="#000000" y="-37.049999" height="444.599987" fill-opacity="0.3"/></g></mask><clipPath id="ba07b5bb07"><path d="M 0.0585938 0 L 269.710938 0 L 269.710938 370 L 0.0585938 370 Z M 0.0585938 0 " clip-rule="nonzero"/></clipPath><clipPath id="6cce1aca17"><path d="M 17.285156 0 L 252.484375 0 C 257.054688 0 261.433594 1.816406 264.664062 5.046875 C 267.898438 8.277344 269.710938 12.65625 269.710938 17.226562 L 269.710938 352.574219 C 269.710938 357.144531 267.898438 361.523438 264.664062 364.757812 C 261.433594 367.988281 257.054688 369.800781 252.484375 369.800781 L 17.285156 369.800781 C 12.714844 369.800781 8.332031 367.988281 5.101562 364.757812 C 1.871094 361.523438 0.0585938 357.144531 0.0585938 352.574219 L 0.0585938 17.226562 C 0.0585938 12.65625 1.871094 8.277344 5.101562 5.046875 C 8.332031 1.816406 12.714844 0 17.285156 0 Z M 17.285156 0 " clip-rule="nonzero"/></clipPath><clipPath id="001ac04234"><rect x="0" width="270" y="0" height="370"/></clipPath><clipPath id="f1a2b34bbb"><path d="M 66.953125 184.902344 L 202.894531 184.902344 L 202.894531 211.898438 L 66.953125 211.898438 Z M 66.953125 184.902344 " clip-rule="nonzero"/></clipPath><clipPath id="3d79bf53ea"><path d="M 80.453125 184.902344 L 189.316406 184.902344 C 192.898438 184.902344 196.332031 186.324219 198.863281 188.855469 C 201.394531 191.386719 202.816406 194.820312 202.816406 198.398438 C 202.816406 201.980469 201.394531 205.414062 198.863281 207.945312 C 196.332031 210.476562 192.898438 211.898438 189.316406 211.898438 L 80.453125 211.898438 C 76.871094 211.898438 73.4375 210.476562 70.90625 207.945312 C 68.375 205.414062 66.953125 201.980469 66.953125 198.398438 C 66.953125 194.820312 68.375 191.386719 70.90625 188.855469 C 73.4375 186.324219 76.871094 184.902344 80.453125 184.902344 Z M 80.453125 184.902344 " clip-rule="nonzero"/></clipPath><clipPath id="3648ea2378"><path d="M 66.957031 76 L 93.957031 76 L 93.957031 211.890625 L 66.957031 211.890625 Z M 66.957031 76 " clip-rule="nonzero"/></clipPath><clipPath id="592ff6fa5b"><path d="M 66.957031 198.390625 L 66.957031 89.527344 C 66.957031 85.949219 68.378906 82.515625 70.910156 79.984375 C 73.441406 77.449219 76.875 76.027344 80.457031 76.027344 C 84.035156 76.027344 87.46875 77.449219 90 79.984375 C 92.53125 82.515625 93.957031 85.949219 93.957031 89.527344 L 93.957031 198.390625 C 93.957031 201.972656 92.53125 205.40625 90 207.9375 C 87.46875 210.46875 84.035156 211.890625 80.457031 211.890625 C 76.875 211.890625 73.441406 210.46875 70.910156 207.9375 C 68.378906 205.40625 66.957031 201.972656 66.957031 198.390625 Z M 66.957031 198.390625 " clip-rule="nonzero"/></clipPath><clipPath id="f3aafd7d5c"><path d="M 75.226562 198.386719 L 85.675781 198.386719 L 85.675781 315.101562 L 75.226562 315.101562 Z M 75.226562 198.386719 " clip-rule="nonzero"/></clipPath><clipPath id="ad21f02939"><path d="M 75.226562 309.875 L 75.226562 203.625 C 75.226562 200.738281 77.566406 198.398438 80.453125 198.398438 C 83.335938 198.398438 85.675781 200.738281 85.675781 203.625 L 85.675781 309.875 C 85.675781 312.761719 83.335938 315.101562 80.453125 315.101562 C 77.566406 315.101562 75.226562 312.761719 75.226562 309.875 Z M 75.226562 309.875 " clip-rule="nonzero"/></clipPath><clipPath id="16fc1dd742"><path d="M 179.527344 198.386719 L 189.976562 198.386719 L 189.976562 315.101562 L 179.527344 315.101562 Z M 179.527344 198.386719 " clip-rule="nonzero"/></clipPath><clipPath id="ff3f41f936"><path d="M 179.527344 309.875 L 179.527344 203.625 C 179.527344 200.738281 181.867188 198.398438 184.753906 198.398438 C 187.640625 198.398438 189.976562 200.738281 189.976562 203.625 L 189.976562 309.875 C 189.976562 312.761719 187.640625 315.101562 184.753906 315.101562 C 181.867188 315.101562 179.527344 312.761719 179.527344 309.875 Z M 179.527344 309.875 " clip-rule="nonzero"/></clipPath></defs><g clip-path="url(#73a2f4a194)"><g mask="url(#7c81a49516)"><g><g clip-path="url(#001ac04234)"><g clip-path="url(#ba07b5bb07)"><g clip-path="url(#6cce1aca17)"><path fill="#919191" d="M 0.0585938 0 L 269.710938 0 L 269.710938 369.722656 L 0.0585938 369.722656 Z M 0.0585938 0 " fill-opacity="1" fill-rule="nonzero"/></g></g></g></g></g></g><g clip-path="url(#f1a2b34bbb)"><g clip-path="url(#3d79bf53ea)"><path fill="#ffde59" d="M 66.953125 184.902344 L 202.789062 184.902344 L 202.789062 211.898438 L 66.953125 211.898438 Z M 66.953125 184.902344 " fill-opacity="1" fill-rule="nonzero"/></g></g><g clip-path="url(#3648ea2378)"><g clip-path="url(#592ff6fa5b)"><path fill="#ffde59" d="M 66.957031 211.890625 L 66.957031 76.054688 L 93.957031 76.054688 L 93.957031 211.890625 Z M 66.957031 211.890625 " fill-opacity="1" fill-rule="nonzero"/></g></g><g clip-path="url(#f3aafd7d5c)"><g clip-path="url(#ad21f02939)"><path fill="#ffde59" d="M 75.226562 315.101562 L 75.226562 198.386719 L 85.675781 198.386719 L 85.675781 315.101562 Z M 75.226562 315.101562 " fill-opacity="1" fill-rule="nonzero"/></g></g><g clip-path="url(#16fc1dd742)"><g clip-path="url(#ff3f41f936)"><path fill="#ffde59" d="M 179.527344 315.101562 L 179.527344 198.386719 L 189.976562 198.386719 L 189.976562 315.101562 Z M 179.527344 315.101562 " fill-opacity="1" fill-rule="nonzero"/></g></g></svg>