<svg xmlns="http://www.w3.org/2000/svg" xmlns:xlink="http://www.w3.org/1999/xlink" width="361" zoomAndPan="magnify" viewBox="0 0 270.75 370.499989" height="494" preserveAspectRatio="xMidYMid meet" version="1.0"><defs><filter x="0%" y="0%" width="100%" height="100%" id="704e52b23f"><feColorMatrix values="0 0 0 0 1 0 0 0 0 1 0 0 0 0 1 0 0 0 1 0" color-interpolation-filters="sRGB"/></filter><clipPath id="f4ecea93de"><path d="M 47.445312 52.234375 L 222.730469 52.234375 L 222.730469 167 L 47.445312 167 Z M 47.445312 52.234375 " clip-rule="nonzero"/></clipPath><clipPath id="4344bbda57"><path d="M 146.738281 52.234375 C 148.65625 52.234375 150.585938 52.234375 152.5 52.234375 C 167.761719 54.152344 177.300781 60.53125 181.644531 70.972656 C 207.089844 69.582031 225.59375 89.324219 214.316406 108.699219 C 218.066406 112.769531 221.195312 117.324219 222.324219 123.4375 C 222.324219 125.1875 222.324219 126.933594 222.324219 128.683594 C 218.957031 144.242188 204.472656 154.753906 180.691406 151.925781 C 174.570312 159.910156 163.683594 167.910156 146.742188 166.914062 C 137.984375 166.390625 131.890625 163.351562 126.558594 159.664062 C 120.9375 162.730469 114.855469 165.136719 106.0625 165.164062 C 85.722656 165.210938 72.117188 153.390625 71.789062 137.183594 C 58.710938 133.390625 49.855469 126.3125 47.445312 114.199219 C 47.445312 112.449219 47.445312 110.695312 47.445312 108.949219 C 50.105469 96.949219 58.480469 89.410156 72.425781 86.214844 C 71.585938 65.964844 99.476562 53.316406 122.390625 62.234375 C 127.847656 57.824219 135.566406 53.011719 146.738281 52.234375 Z M 146.738281 52.234375 " clip-rule="nonzero"/></clipPath><clipPath id="96b3dc7a15"><path d="M 0.0585938 0 L 270 0 L 270 370 L 0.0585938 370 Z M 0.0585938 0 " clip-rule="nonzero"/></clipPath><mask id="1adf2f86c3"><g filter="url(#704e52b23f)"><rect x="-27.075" width="324.9" fill="#000000" y="-37.049999" height="444.599987" fill-opacity="0.3"/></g></mask><clipPath id="106d989d6d"><path d="M 0.0585938 0 L 269.710938 0 L 269.710938 370 L 0.0585938 370 Z M 0.0585938 0 " clip-rule="nonzero"/></clipPath><clipPath id="d37d46fdd8"><path d="M 17.285156 0 L 252.484375 0 C 257.054688 0 261.433594 1.816406 264.664062 5.046875 C 267.898438 8.277344 269.710938 12.65625 269.710938 17.226562 L 269.710938 352.574219 C 269.710938 357.144531 267.898438 361.523438 264.664062 364.757812 C 261.433594 367.988281 257.054688 369.800781 252.484375 369.800781 L 17.285156 369.800781 C 12.714844 369.800781 8.332031 367.988281 5.101562 364.757812 C 1.871094 361.523438 0.0585938 357.144531 0.0585938 352.574219 L 0.0585938 17.226562 C 0.0585938 12.65625 1.871094 8.277344 5.101562 5.046875 C 8.332031 1.816406 12.714844 0 17.285156 0 Z M 17.285156 0 " clip-rule="nonzero"/></clipPath><clipPath id="fb665440a4"><rect x="0" width="270" y="0" height="370"/></clipPath><clipPath id="a25bfa14a1"><path d="M 119.425781 151.371094 L 150.34375 151.371094 L 150.34375 325.058594 L 119.425781 325.058594 Z M 119.425781 151.371094 " clip-rule="nonzero"/></clipPath></defs><g clip-path="url(#f4ecea93de)"><g clip-path="url(#4344bbda57)"><path fill="#00bf63" d="M 47.445312 52.234375 L 222.28125 52.234375 L 222.28125 167 L 47.445312 167 Z M 47.445312 52.234375 " fill-opacity="1" fill-rule="nonzero"/></g></g><g clip-path="url(#96b3dc7a15)"><g mask="url(#1adf2f86c3)"><g><g clip-path="url(#fb665440a4)"><g clip-path="url(#106d989d6d)"><g clip-path="url(#d37d46fdd8)"><path fill="#919191" d="M 0.0585938 0 L 269.710938 0 L 269.710938 369.722656 L 0.0585938 369.722656 Z M 0.0585938 0 " fill-opacity="1" fill-rule="nonzero"/></g></g></g></g></g></g><g clip-path="url(#a25bfa14a1)"><path fill="#00bf63" d="M 119.425781 151.371094 L 150.34375 151.371094 L 150.34375 325.039062 L 119.425781 325.039062 Z M 119.425781 151.371094 " fill-opacity="1" fill-rule="nonzero"/></g></svg>