<svg xmlns="http://www.w3.org/2000/svg" xmlns:xlink="http://www.w3.org/1999/xlink" width="361" zoomAndPan="magnify" viewBox="0 0 270.75 370.499989" height="494" preserveAspectRatio="xMidYMid meet" version="1.0"><defs><filter x="0%" y="0%" width="100%" height="100%" id="67df2f2574"><feColorMatrix values="0 0 0 0 1 0 0 0 0 1 0 0 0 0 1 0 0 0 1 0" color-interpolation-filters="sRGB"/></filter><clipPath id="5bd02b62c8"><path d="M 0.0585938 0 L 270 0 L 270 370 L 0.0585938 370 Z M 0.0585938 0 " clip-rule="nonzero"/></clipPath><mask id="117792d896"><g filter="url(#67df2f2574)"><rect x="-27.075" width="324.9" fill="#000000" y="-37.049999" height="444.599987" fill-opacity="0.3"/></g></mask><clipPath id="a2ec687ed9"><path d="M 0.0585938 0 L 269.710938 0 L 269.710938 370 L 0.0585938 370 Z M 0.0585938 0 " clip-rule="nonzero"/></clipPath><clipPath id="8845b1df14"><path d="M 17.285156 0 L 252.484375 0 C 257.054688 0 261.433594 1.816406 264.664062 5.046875 C 267.898438 8.277344 269.710938 12.65625 269.710938 17.226562 L 269.710938 352.574219 C 269.710938 357.144531 267.898438 361.523438 264.664062 364.757812 C 261.433594 367.988281 257.054688 369.800781 252.484375 369.800781 L 17.285156 369.800781 C 12.714844 369.800781 8.332031 367.988281 5.101562 364.757812 C 1.871094 361.523438 0.0585938 357.144531 0.0585938 352.574219 L 0.0585938 17.226562 C 0.0585938 12.65625 1.871094 8.277344 5.101562 5.046875 C 8.332031 1.816406 12.714844 0 17.285156 0 Z M 17.285156 0 " clip-rule="nonzero"/></clipPath><clipPath id="c64cb74060"><rect x="0" width="270" y="0" height="370"/></clipPath><clipPath id="75bdd519bc"><path d="M 74.339844 178.804688 L 195.429688 178.804688 L 195.429688 318.34375 L 74.339844 318.34375 Z M 74.339844 178.804688 " clip-rule="nonzero"/></clipPath><clipPath id="3b4eae5bf1"><path d="M 110.925781 318.175781 L 158.84375 318.175781 L 195.429688 178.804688 L 74.339844 178.804688 Z M 110.925781 318.175781 " clip-rule="nonzero"/></clipPath><clipPath id="1d55f24620"><path d="M 51.640625 91.710938 L 132.636719 91.710938 L 132.636719 172.707031 L 51.640625 172.707031 Z M 51.640625 91.710938 " clip-rule="nonzero"/></clipPath><clipPath id="a689118ddb"><path d="M 92.140625 91.710938 C 69.773438 91.710938 51.640625 109.84375 51.640625 132.210938 C 51.640625 154.578125 69.773438 172.707031 92.140625 172.707031 C 114.507812 172.707031 132.636719 154.578125 132.636719 132.210938 C 132.636719 109.84375 114.507812 91.710938 92.140625 91.710938 Z M 92.140625 91.710938 " clip-rule="nonzero"/></clipPath><clipPath id="020a11e306"><path d="M 137.132812 91.710938 L 218.125 91.710938 L 218.125 172.707031 L 137.132812 172.707031 Z M 137.132812 91.710938 " clip-rule="nonzero"/></clipPath><clipPath id="3fc2a88061"><path d="M 177.628906 91.710938 C 155.261719 91.710938 137.132812 109.84375 137.132812 132.210938 C 137.132812 154.578125 155.261719 172.707031 177.628906 172.707031 C 199.996094 172.707031 218.125 154.578125 218.125 132.210938 C 218.125 109.84375 199.996094 91.710938 177.628906 91.710938 Z M 177.628906 91.710938 " clip-rule="nonzero"/></clipPath><clipPath id="43206f265d"><path d="M 92.140625 18.554688 L 173.136719 18.554688 L 173.136719 99.550781 L 92.140625 99.550781 Z M 92.140625 18.554688 " clip-rule="nonzero"/></clipPath><clipPath id="bff5e19380"><path d="M 132.636719 18.554688 C 110.269531 18.554688 92.140625 36.6875 92.140625 59.054688 C 92.140625 81.417969 110.269531 99.550781 132.636719 99.550781 C 155.003906 99.550781 173.136719 81.417969 173.136719 59.054688 C 173.136719 36.6875 155.003906 18.554688 132.636719 18.554688 Z M 132.636719 18.554688 " clip-rule="nonzero"/></clipPath></defs><g clip-path="url(#5bd02b62c8)"><g mask="url(#117792d896)"><g><g clip-path="url(#c64cb74060)"><g clip-path="url(#a2ec687ed9)"><g clip-path="url(#8845b1df14)"><path fill="#919191" d="M 0.0585938 0 L 269.710938 0 L 269.710938 369.722656 L 0.0585938 369.722656 Z M 0.0585938 0 " fill-opacity="1" fill-rule="nonzero"/></g></g></g></g></g></g><g clip-path="url(#75bdd519bc)"><g clip-path="url(#3b4eae5bf1)"><path fill="#00bf63" d="M 74.339844 178.804688 L 195.429688 178.804688 L 195.429688 318.34375 L 74.339844 318.34375 Z M 74.339844 178.804688 " fill-opacity="1" fill-rule="nonzero"/></g></g><g clip-path="url(#1d55f24620)"><g clip-path="url(#a689118ddb)"><path fill="#00bf63" d="M 51.640625 91.710938 L 132.636719 91.710938 L 132.636719 172.707031 L 51.640625 172.707031 Z M 51.640625 91.710938 " fill-opacity="1" fill-rule="nonzero"/></g></g><g clip-path="url(#020a11e306)"><g clip-path="url(#3fc2a88061)"><path fill="#00bf63" d="M 137.132812 91.710938 L 218.125 91.710938 L 218.125 172.707031 L 137.132812 172.707031 Z M 137.132812 91.710938 " fill-opacity="1" fill-rule="nonzero"/></g></g><g clip-path="url(#43206f265d)"><g clip-path="url(#bff5e19380)"><path fill="#00bf63" d="M 92.140625 18.554688 L 173.136719 18.554688 L 173.136719 99.550781 L 92.140625 99.550781 Z M 92.140625 18.554688 " fill-opacity="1" fill-rule="nonzero"/></g></g></svg>