<svg xmlns="http://www.w3.org/2000/svg" xmlns:xlink="http://www.w3.org/1999/xlink" width="361" zoomAndPan="magnify" viewBox="0 0 270.75 370.499989" height="494" preserveAspectRatio="xMidYMid meet" version="1.0"><defs><filter x="0%" y="0%" width="100%" height="100%" id="771b9d3dfc"><feColorMatrix values="0 0 0 0 1 0 0 0 0 1 0 0 0 0 1 0 0 0 1 0" color-interpolation-filters="sRGB"/></filter><g/><clipPath id="cfa3621b85"><path d="M 0.0585938 0 L 270 0 L 270 370 L 0.0585938 370 Z M 0.0585938 0 " clip-rule="nonzero"/></clipPath><mask id="f9b27d999c"><g filter="url(#771b9d3dfc)"><rect x="-27.075" width="324.9" fill="#000000" y="-37.049999" height="444.599987" fill-opacity="0.3"/></g></mask><clipPath id="9213bad036"><path d="M 0.0585938 0 L 269.707031 0 L 269.707031 370 L 0.0585938 370 Z M 0.0585938 0 " clip-rule="nonzero"/></clipPath><clipPath id="e11adb522b"><path d="M 17.277344 0 L 252.480469 0 C 257.046875 0 261.429688 1.816406 264.660156 5.046875 C 267.890625 8.277344 269.707031 12.65625 269.707031 17.226562 L 269.707031 352.574219 C 269.707031 357.144531 267.890625 361.523438 264.660156 364.757812 C 261.429688 367.988281 257.046875 369.800781 252.480469 369.800781 L 17.277344 369.800781 C 12.710938 369.800781 8.328125 367.988281 5.097656 364.757812 C 1.867188 361.523438 0.0507812 357.144531 0.0507812 352.574219 L 0.0507812 17.226562 C 0.0507812 12.65625 1.867188 8.277344 5.097656 5.046875 C 8.328125 1.816406 12.710938 0 17.277344 0 Z M 17.277344 0 " clip-rule="nonzero"/></clipPath><clipPath id="4b892cea60"><rect x="0" width="270" y="0" height="370"/></clipPath></defs><g clip-path="url(#cfa3621b85)"><g mask="url(#f9b27d999c)"><g><g clip-path="url(#4b892cea60)"><g clip-path="url(#9213bad036)"><g clip-path="url(#e11adb522b)"><path fill="#919191" d="M 0.0507812 0 L 269.707031 0 L 269.707031 369.722656 L 0.0507812 369.722656 Z M 0.0507812 0 " fill-opacity="1" fill-rule="nonzero"/></g></g></g></g></g></g><g fill="#ffde59" fill-opacity="1"><g transform="translate(151.786336, 228.693967)"><g><path d="M -11.0625 -30.3125 C -7.3125 -30.3125 -4.445312 -29.125 -2.46875 -26.75 C -0.5 -24.382812 0.484375 -21.019531 0.484375 -16.65625 C 0.484375 -12.289062 -0.5 -8.914062 -2.46875 -6.53125 C -4.445312 -4.144531 -7.3125 -2.953125 -11.0625 -2.953125 L -27.484375 -2.953125 L -27.484375 -11.78125 L -11.1875 -11.78125 C -9.632812 -11.78125 -8.398438 -12.191406 -7.484375 -13.015625 C -6.566406 -13.835938 -6.109375 -15.035156 -6.109375 -16.609375 C -6.109375 -18.179688 -6.570312 -19.382812 -7.5 -20.21875 C -8.4375 -21.0625 -9.664062 -21.484375 -11.1875 -21.484375 L -27.484375 -21.484375 L -27.484375 -30.3125 Z M -11.0625 -30.3125 "/></g></g></g><g fill="#ffde59" fill-opacity="1"><g transform="translate(117.973411, 177.287578)"><g><path d="M 11.0625 30.3125 C 7.3125 30.3125 4.445312 29.125 2.46875 26.75 C 0.5 24.382812 -0.484375 21.019531 -0.484375 16.65625 C -0.484375 12.289062 0.5 8.914062 2.46875 6.53125 C 4.445312 4.144531 7.3125 2.953125 11.0625 2.953125 L 27.484375 2.953125 L 27.484375 11.78125 L 11.1875 11.78125 C 9.632812 11.78125 8.398438 12.191406 7.484375 13.015625 C 6.566406 13.835938 6.109375 15.035156 6.109375 16.609375 C 6.109375 18.179688 6.570312 19.382812 7.5 20.21875 C 8.4375 21.0625 9.664062 21.484375 11.1875 21.484375 L 27.484375 21.484375 L 27.484375 30.3125 Z M 11.0625 30.3125 "/></g></g></g><g fill="#ffde59" fill-opacity="1"><g transform="translate(151.786336, 191.453538)"><g><path d="M -11.0625 -30.3125 C -7.3125 -30.3125 -4.445312 -29.125 -2.46875 -26.75 C -0.5 -24.382812 0.484375 -21.019531 0.484375 -16.65625 C 0.484375 -12.289062 -0.5 -8.914062 -2.46875 -6.53125 C -4.445312 -4.144531 -7.3125 -2.953125 -11.0625 -2.953125 L -27.484375 -2.953125 L -27.484375 -11.78125 L -11.1875 -11.78125 C -9.632812 -11.78125 -8.398438 -12.191406 -7.484375 -13.015625 C -6.566406 -13.835938 -6.109375 -15.035156 -6.109375 -16.609375 C -6.109375 -18.179688 -6.570312 -19.382812 -7.5 -20.21875 C -8.4375 -21.0625 -9.664062 -21.484375 -11.1875 -21.484375 L -27.484375 -21.484375 L -27.484375 -30.3125 Z M -11.0625 -30.3125 "/></g></g></g><g fill="#ffde59" fill-opacity="1"><g transform="translate(117.973411, 140.047121)"><g><path d="M 11.0625 30.3125 C 7.3125 30.3125 4.445312 29.125 2.46875 26.75 C 0.5 24.382812 -0.484375 21.019531 -0.484375 16.65625 C -0.484375 12.289062 0.5 8.914062 2.46875 6.53125 C 4.445312 4.144531 7.3125 2.953125 11.0625 2.953125 L 27.484375 2.953125 L 27.484375 11.78125 L 11.1875 11.78125 C 9.632812 11.78125 8.398438 12.191406 7.484375 13.015625 C 6.566406 13.835938 6.109375 15.035156 6.109375 16.609375 C 6.109375 18.179688 6.570312 19.382812 7.5 20.21875 C 8.4375 21.0625 9.664062 21.484375 11.1875 21.484375 L 27.484375 21.484375 L 27.484375 30.3125 Z M 11.0625 30.3125 "/></g></g></g><g fill="#ffde59" fill-opacity="1"><g transform="translate(151.786336, 302.931009)"><g><path d="M -11.0625 -30.3125 C -7.3125 -30.3125 -4.445312 -29.125 -2.46875 -26.75 C -0.5 -24.382812 0.484375 -21.019531 0.484375 -16.65625 C 0.484375 -12.289062 -0.5 -8.914062 -2.46875 -6.53125 C -4.445312 -4.144531 -7.3125 -2.953125 -11.0625 -2.953125 L -27.484375 -2.953125 L -27.484375 -11.78125 L -11.1875 -11.78125 C -9.632812 -11.78125 -8.398438 -12.191406 -7.484375 -13.015625 C -6.566406 -13.835938 -6.109375 -15.035156 -6.109375 -16.609375 C -6.109375 -18.179688 -6.570312 -19.382812 -7.5 -20.21875 C -8.4375 -21.0625 -9.664062 -21.484375 -11.1875 -21.484375 L -27.484375 -21.484375 L -27.484375 -30.3125 Z M -11.0625 -30.3125 "/></g></g></g><g fill="#ffde59" fill-opacity="1"><g transform="translate(117.973411, 251.524575)"><g><path d="M 11.0625 30.3125 C 7.3125 30.3125 4.445312 29.125 2.46875 26.75 C 0.5 24.382812 -0.484375 21.019531 -0.484375 16.65625 C -0.484375 12.289062 0.5 8.914062 2.46875 6.53125 C 4.445312 4.144531 7.3125 2.953125 11.0625 2.953125 L 27.484375 2.953125 L 27.484375 11.78125 L 11.1875 11.78125 C 9.632812 11.78125 8.398438 12.191406 7.484375 13.015625 C 6.566406 13.835938 6.109375 15.035156 6.109375 16.609375 C 6.109375 18.179688 6.570312 19.382812 7.5 20.21875 C 8.4375 21.0625 9.664062 21.484375 11.1875 21.484375 L 27.484375 21.484375 L 27.484375 30.3125 Z M 11.0625 30.3125 "/></g></g></g><g fill="#ffde59" fill-opacity="1"><g transform="translate(151.786336, 265.690566)"><g><path d="M -11.0625 -30.3125 C -7.3125 -30.3125 -4.445312 -29.125 -2.46875 -26.75 C -0.5 -24.382812 0.484375 -21.019531 0.484375 -16.65625 C 0.484375 -12.289062 -0.5 -8.914062 -2.46875 -6.53125 C -4.445312 -4.144531 -7.3125 -2.953125 -11.0625 -2.953125 L -27.484375 -2.953125 L -27.484375 -11.78125 L -11.1875 -11.78125 C -9.632812 -11.78125 -8.398438 -12.191406 -7.484375 -13.015625 C -6.566406 -13.835938 -6.109375 -15.035156 -6.109375 -16.609375 C -6.109375 -18.179688 -6.570312 -19.382812 -7.5 -20.21875 C -8.4375 -21.0625 -9.664062 -21.484375 -11.1875 -21.484375 L -27.484375 -21.484375 L -27.484375 -30.3125 Z M -11.0625 -30.3125 "/></g></g></g><g fill="#ffde59" fill-opacity="1"><g transform="translate(117.973411, 214.284161)"><g><path d="M 11.0625 30.3125 C 7.3125 30.3125 4.445312 29.125 2.46875 26.75 C 0.5 24.382812 -0.484375 21.019531 -0.484375 16.65625 C -0.484375 12.289062 0.5 8.914062 2.46875 6.53125 C 4.445312 4.144531 7.3125 2.953125 11.0625 2.953125 L 27.484375 2.953125 L 27.484375 11.78125 L 11.1875 11.78125 C 9.632812 11.78125 8.398438 12.191406 7.484375 13.015625 C 6.566406 13.835938 6.109375 15.035156 6.109375 16.609375 C 6.109375 18.179688 6.570312 19.382812 7.5 20.21875 C 8.4375 21.0625 9.664062 21.484375 11.1875 21.484375 L 27.484375 21.484375 L 27.484375 30.3125 Z M 11.0625 30.3125 "/></g></g></g><g fill="#ffde59" fill-opacity="1"><g transform="translate(151.786336, 155.502058)"><g><path d="M -11.0625 -30.3125 C -7.3125 -30.3125 -4.445312 -29.125 -2.46875 -26.75 C -0.5 -24.382812 0.484375 -21.019531 0.484375 -16.65625 C 0.484375 -12.289062 -0.5 -8.914062 -2.46875 -6.53125 C -4.445312 -4.144531 -7.3125 -2.953125 -11.0625 -2.953125 L -27.484375 -2.953125 L -27.484375 -11.78125 L -11.1875 -11.78125 C -9.632812 -11.78125 -8.398438 -12.191406 -7.484375 -13.015625 C -6.566406 -13.835938 -6.109375 -15.035156 -6.109375 -16.609375 C -6.109375 -18.179688 -6.570312 -19.382812 -7.5 -20.21875 C -8.4375 -21.0625 -9.664062 -21.484375 -11.1875 -21.484375 L -27.484375 -21.484375 L -27.484375 -30.3125 Z M -11.0625 -30.3125 "/></g></g></g><g fill="#ffde59" fill-opacity="1"><g transform="translate(117.973411, 104.095641)"><g><path d="M 11.0625 30.3125 C 7.3125 30.3125 4.445312 29.125 2.46875 26.75 C 0.5 24.382812 -0.484375 21.019531 -0.484375 16.65625 C -0.484375 12.289062 0.5 8.914062 2.46875 6.53125 C 4.445312 4.144531 7.3125 2.953125 11.0625 2.953125 L 27.484375 2.953125 L 27.484375 11.78125 L 11.1875 11.78125 C 9.632812 11.78125 8.398438 12.191406 7.484375 13.015625 C 6.566406 13.835938 6.109375 15.035156 6.109375 16.609375 C 6.109375 18.179688 6.570312 19.382812 7.5 20.21875 C 8.4375 21.0625 9.664062 21.484375 11.1875 21.484375 L 27.484375 21.484375 L 27.484375 30.3125 Z M 11.0625 30.3125 "/></g></g></g><g fill="#ffde59" fill-opacity="1"><g transform="translate(151.786336, 118.261614)"><g><path d="M -11.0625 -30.3125 C -7.3125 -30.3125 -4.445312 -29.125 -2.46875 -26.75 C -0.5 -24.382812 0.484375 -21.019531 0.484375 -16.65625 C 0.484375 -12.289062 -0.5 -8.914062 -2.46875 -6.53125 C -4.445312 -4.144531 -7.3125 -2.953125 -11.0625 -2.953125 L -27.484375 -2.953125 L -27.484375 -11.78125 L -11.1875 -11.78125 C -9.632812 -11.78125 -8.398438 -12.191406 -7.484375 -13.015625 C -6.566406 -13.835938 -6.109375 -15.035156 -6.109375 -16.609375 C -6.109375 -18.179688 -6.570312 -19.382812 -7.5 -20.21875 C -8.4375 -21.0625 -9.664062 -21.484375 -11.1875 -21.484375 L -27.484375 -21.484375 L -27.484375 -30.3125 Z M -11.0625 -30.3125 "/></g></g></g><g fill="#ffde59" fill-opacity="1"><g transform="translate(117.973411, 66.855219)"><g><path d="M 11.0625 30.3125 C 7.3125 30.3125 4.445312 29.125 2.46875 26.75 C 0.5 24.382812 -0.484375 21.019531 -0.484375 16.65625 C -0.484375 12.289062 0.5 8.914062 2.46875 6.53125 C 4.445312 4.144531 7.3125 2.953125 11.0625 2.953125 L 27.484375 2.953125 L 27.484375 11.78125 L 11.1875 11.78125 C 9.632812 11.78125 8.398438 12.191406 7.484375 13.015625 C 6.566406 13.835938 6.109375 15.035156 6.109375 16.609375 C 6.109375 18.179688 6.570312 19.382812 7.5 20.21875 C 8.4375 21.0625 9.664062 21.484375 11.1875 21.484375 L 27.484375 21.484375 L 27.484375 30.3125 Z M 11.0625 30.3125 "/></g></g></g></svg>