<svg xmlns="http://www.w3.org/2000/svg" xmlns:xlink="http://www.w3.org/1999/xlink" width="361" zoomAndPan="magnify" viewBox="0 0 270.75 370.499989" height="494" preserveAspectRatio="xMidYMid meet" version="1.0"><defs><filter x="0%" y="0%" width="100%" height="100%" id="ef448c8e70"><feColorMatrix values="0 0 0 0 1 0 0 0 0 1 0 0 0 0 1 0 0 0 1 0" color-interpolation-filters="sRGB"/></filter><g/><clipPath id="76cf37d1fb"><path d="M 0.0585938 0 L 270 0 L 270 370 L 0.0585938 370 Z M 0.0585938 0 " clip-rule="nonzero"/></clipPath><mask id="9c09c2be80"><g filter="url(#ef448c8e70)"><rect x="-27.075" width="324.9" fill="#000000" y="-37.049999" height="444.599987" fill-opacity="0.1"/></g></mask><clipPath id="6176ef566e"><path d="M 0.0585938 0 L 269.710938 0 L 269.710938 370 L 0.0585938 370 Z M 0.0585938 0 " clip-rule="nonzero"/></clipPath><clipPath id="4b5ec9e2f9"><path d="M 17.285156 0 L 252.484375 0 C 257.054688 0 261.433594 1.816406 264.664062 5.046875 C 267.898438 8.277344 269.710938 12.65625 269.710938 17.226562 L 269.710938 352.574219 C 269.710938 357.144531 267.898438 361.523438 264.664062 364.757812 C 261.433594 367.988281 257.054688 369.800781 252.484375 369.800781 L 17.285156 369.800781 C 12.714844 369.800781 8.332031 367.988281 5.101562 364.757812 C 1.871094 361.523438 0.0585938 357.144531 0.0585938 352.574219 L 0.0585938 17.226562 C 0.0585938 12.65625 1.871094 8.277344 5.101562 5.046875 C 8.332031 1.816406 12.714844 0 17.285156 0 Z M 17.285156 0 " clip-rule="nonzero"/></clipPath><clipPath id="a42407dcf6"><rect x="0" width="270" y="0" height="370"/></clipPath></defs><g clip-path="url(#76cf37d1fb)"><g mask="url(#9c09c2be80)"><g><g clip-path="url(#a42407dcf6)"><g clip-path="url(#6176ef566e)"><g clip-path="url(#4b5ec9e2f9)"><path fill="#919191" d="M 0.0585938 0 L 269.710938 0 L 269.710938 369.722656 L 0.0585938 369.722656 Z M 0.0585938 0 " fill-opacity="1" fill-rule="nonzero"/></g></g></g></g></g></g><g fill="#ffde59" fill-opacity="1"><g transform="translate(151.789869, 228.699717)"><g><path d="M -11.0625 -30.3125 C -7.3125 -30.3125 -4.445312 -29.125 -2.46875 -26.75 C -0.5 -24.382812 0.484375 -21.019531 0.484375 -16.65625 C 0.484375 -12.289062 -0.5 -8.914062 -2.46875 -6.53125 C -4.445312 -4.144531 -7.3125 -2.953125 -11.0625 -2.953125 L -27.484375 -2.953125 L -27.484375 -11.78125 L -11.1875 -11.78125 C -9.632812 -11.78125 -8.398438 -12.191406 -7.484375 -13.015625 C -6.566406 -13.835938 -6.109375 -15.035156 -6.109375 -16.609375 C -6.109375 -18.179688 -6.570312 -19.382812 -7.5 -20.21875 C -8.4375 -21.0625 -9.664062 -21.484375 -11.1875 -21.484375 L -27.484375 -21.484375 L -27.484375 -30.3125 Z M -11.0625 -30.3125 "/></g></g></g><g fill="#ffde59" fill-opacity="1"><g transform="translate(117.976936, 177.293328)"><g><path d="M 11.0625 30.3125 C 7.3125 30.3125 4.445312 29.125 2.46875 26.75 C 0.5 24.382812 -0.484375 21.019531 -0.484375 16.65625 C -0.484375 12.289062 0.5 8.914062 2.46875 6.53125 C 4.445312 4.144531 7.3125 2.953125 11.0625 2.953125 L 27.484375 2.953125 L 27.484375 11.78125 L 11.1875 11.78125 C 9.632812 11.78125 8.398438 12.191406 7.484375 13.015625 C 6.566406 13.835938 6.109375 15.035156 6.109375 16.609375 C 6.109375 18.179688 6.570312 19.382812 7.5 20.21875 C 8.4375 21.0625 9.664062 21.484375 11.1875 21.484375 L 27.484375 21.484375 L 27.484375 30.3125 Z M 11.0625 30.3125 "/></g></g></g><g fill="#ffde59" fill-opacity="1"><g transform="translate(151.789869, 191.459288)"><g><path d="M -11.0625 -30.3125 C -7.3125 -30.3125 -4.445312 -29.125 -2.46875 -26.75 C -0.5 -24.382812 0.484375 -21.019531 0.484375 -16.65625 C 0.484375 -12.289062 -0.5 -8.914062 -2.46875 -6.53125 C -4.445312 -4.144531 -7.3125 -2.953125 -11.0625 -2.953125 L -27.484375 -2.953125 L -27.484375 -11.78125 L -11.1875 -11.78125 C -9.632812 -11.78125 -8.398438 -12.191406 -7.484375 -13.015625 C -6.566406 -13.835938 -6.109375 -15.035156 -6.109375 -16.609375 C -6.109375 -18.179688 -6.570312 -19.382812 -7.5 -20.21875 C -8.4375 -21.0625 -9.664062 -21.484375 -11.1875 -21.484375 L -27.484375 -21.484375 L -27.484375 -30.3125 Z M -11.0625 -30.3125 "/></g></g></g><g fill="#ffde59" fill-opacity="1"><g transform="translate(117.976936, 140.052885)"><g><path d="M 11.0625 30.3125 C 7.3125 30.3125 4.445312 29.125 2.46875 26.75 C 0.5 24.382812 -0.484375 21.019531 -0.484375 16.65625 C -0.484375 12.289062 0.5 8.914062 2.46875 6.53125 C 4.445312 4.144531 7.3125 2.953125 11.0625 2.953125 L 27.484375 2.953125 L 27.484375 11.78125 L 11.1875 11.78125 C 9.632812 11.78125 8.398438 12.191406 7.484375 13.015625 C 6.566406 13.835938 6.109375 15.035156 6.109375 16.609375 C 6.109375 18.179688 6.570312 19.382812 7.5 20.21875 C 8.4375 21.0625 9.664062 21.484375 11.1875 21.484375 L 27.484375 21.484375 L 27.484375 30.3125 Z M 11.0625 30.3125 "/></g></g></g><g fill="#ffde59" fill-opacity="1"><g transform="translate(151.789869, 302.936742)"><g><path d="M -11.0625 -30.3125 C -7.3125 -30.3125 -4.445312 -29.125 -2.46875 -26.75 C -0.5 -24.382812 0.484375 -21.019531 0.484375 -16.65625 C 0.484375 -12.289062 -0.5 -8.914062 -2.46875 -6.53125 C -4.445312 -4.144531 -7.3125 -2.953125 -11.0625 -2.953125 L -27.484375 -2.953125 L -27.484375 -11.78125 L -11.1875 -11.78125 C -9.632812 -11.78125 -8.398438 -12.191406 -7.484375 -13.015625 C -6.566406 -13.835938 -6.109375 -15.035156 -6.109375 -16.609375 C -6.109375 -18.179688 -6.570312 -19.382812 -7.5 -20.21875 C -8.4375 -21.0625 -9.664062 -21.484375 -11.1875 -21.484375 L -27.484375 -21.484375 L -27.484375 -30.3125 Z M -11.0625 -30.3125 "/></g></g></g><g fill="#ffde59" fill-opacity="1"><g transform="translate(117.976936, 251.53034)"><g><path d="M 11.0625 30.3125 C 7.3125 30.3125 4.445312 29.125 2.46875 26.75 C 0.5 24.382812 -0.484375 21.019531 -0.484375 16.65625 C -0.484375 12.289062 0.5 8.914062 2.46875 6.53125 C 4.445312 4.144531 7.3125 2.953125 11.0625 2.953125 L 27.484375 2.953125 L 27.484375 11.78125 L 11.1875 11.78125 C 9.632812 11.78125 8.398438 12.191406 7.484375 13.015625 C 6.566406 13.835938 6.109375 15.035156 6.109375 16.609375 C 6.109375 18.179688 6.570312 19.382812 7.5 20.21875 C 8.4375 21.0625 9.664062 21.484375 11.1875 21.484375 L 27.484375 21.484375 L 27.484375 30.3125 Z M 11.0625 30.3125 "/></g></g></g><g fill="#ffde59" fill-opacity="1"><g transform="translate(151.789869, 265.696299)"><g><path d="M -11.0625 -30.3125 C -7.3125 -30.3125 -4.445312 -29.125 -2.46875 -26.75 C -0.5 -24.382812 0.484375 -21.019531 0.484375 -16.65625 C 0.484375 -12.289062 -0.5 -8.914062 -2.46875 -6.53125 C -4.445312 -4.144531 -7.3125 -2.953125 -11.0625 -2.953125 L -27.484375 -2.953125 L -27.484375 -11.78125 L -11.1875 -11.78125 C -9.632812 -11.78125 -8.398438 -12.191406 -7.484375 -13.015625 C -6.566406 -13.835938 -6.109375 -15.035156 -6.109375 -16.609375 C -6.109375 -18.179688 -6.570312 -19.382812 -7.5 -20.21875 C -8.4375 -21.0625 -9.664062 -21.484375 -11.1875 -21.484375 L -27.484375 -21.484375 L -27.484375 -30.3125 Z M -11.0625 -30.3125 "/></g></g></g><g fill="#ffde59" fill-opacity="1"><g transform="translate(117.976936, 214.289896)"><g><path d="M 11.0625 30.3125 C 7.3125 30.3125 4.445312 29.125 2.46875 26.75 C 0.5 24.382812 -0.484375 21.019531 -0.484375 16.65625 C -0.484375 12.289062 0.5 8.914062 2.46875 6.53125 C 4.445312 4.144531 7.3125 2.953125 11.0625 2.953125 L 27.484375 2.953125 L 27.484375 11.78125 L 11.1875 11.78125 C 9.632812 11.78125 8.398438 12.191406 7.484375 13.015625 C 6.566406 13.835938 6.109375 15.035156 6.109375 16.609375 C 6.109375 18.179688 6.570312 19.382812 7.5 20.21875 C 8.4375 21.0625 9.664062 21.484375 11.1875 21.484375 L 27.484375 21.484375 L 27.484375 30.3125 Z M 11.0625 30.3125 "/></g></g></g><g fill="#ffde59" fill-opacity="1"><g transform="translate(151.789869, 155.507808)"><g><path d="M -11.0625 -30.3125 C -7.3125 -30.3125 -4.445312 -29.125 -2.46875 -26.75 C -0.5 -24.382812 0.484375 -21.019531 0.484375 -16.65625 C 0.484375 -12.289062 -0.5 -8.914062 -2.46875 -6.53125 C -4.445312 -4.144531 -7.3125 -2.953125 -11.0625 -2.953125 L -27.484375 -2.953125 L -27.484375 -11.78125 L -11.1875 -11.78125 C -9.632812 -11.78125 -8.398438 -12.191406 -7.484375 -13.015625 C -6.566406 -13.835938 -6.109375 -15.035156 -6.109375 -16.609375 C -6.109375 -18.179688 -6.570312 -19.382812 -7.5 -20.21875 C -8.4375 -21.0625 -9.664062 -21.484375 -11.1875 -21.484375 L -27.484375 -21.484375 L -27.484375 -30.3125 Z M -11.0625 -30.3125 "/></g></g></g><g fill="#ffde59" fill-opacity="1"><g transform="translate(117.976936, 104.101405)"><g><path d="M 11.0625 30.3125 C 7.3125 30.3125 4.445312 29.125 2.46875 26.75 C 0.5 24.382812 -0.484375 21.019531 -0.484375 16.65625 C -0.484375 12.289062 0.5 8.914062 2.46875 6.53125 C 4.445312 4.144531 7.3125 2.953125 11.0625 2.953125 L 27.484375 2.953125 L 27.484375 11.78125 L 11.1875 11.78125 C 9.632812 11.78125 8.398438 12.191406 7.484375 13.015625 C 6.566406 13.835938 6.109375 15.035156 6.109375 16.609375 C 6.109375 18.179688 6.570312 19.382812 7.5 20.21875 C 8.4375 21.0625 9.664062 21.484375 11.1875 21.484375 L 27.484375 21.484375 L 27.484375 30.3125 Z M 11.0625 30.3125 "/></g></g></g><g fill="#ffde59" fill-opacity="1"><g transform="translate(151.789869, 118.267364)"><g><path d="M -11.0625 -30.3125 C -7.3125 -30.3125 -4.445312 -29.125 -2.46875 -26.75 C -0.5 -24.382812 0.484375 -21.019531 0.484375 -16.65625 C 0.484375 -12.289062 -0.5 -8.914062 -2.46875 -6.53125 C -4.445312 -4.144531 -7.3125 -2.953125 -11.0625 -2.953125 L -27.484375 -2.953125 L -27.484375 -11.78125 L -11.1875 -11.78125 C -9.632812 -11.78125 -8.398438 -12.191406 -7.484375 -13.015625 C -6.566406 -13.835938 -6.109375 -15.035156 -6.109375 -16.609375 C -6.109375 -18.179688 -6.570312 -19.382812 -7.5 -20.21875 C -8.4375 -21.0625 -9.664062 -21.484375 -11.1875 -21.484375 L -27.484375 -21.484375 L -27.484375 -30.3125 Z M -11.0625 -30.3125 "/></g></g></g><g fill="#ffde59" fill-opacity="1"><g transform="translate(117.976936, 66.860961)"><g><path d="M 11.0625 30.3125 C 7.3125 30.3125 4.445312 29.125 2.46875 26.75 C 0.5 24.382812 -0.484375 21.019531 -0.484375 16.65625 C -0.484375 12.289062 0.5 8.914062 2.46875 6.53125 C 4.445312 4.144531 7.3125 2.953125 11.0625 2.953125 L 27.484375 2.953125 L 27.484375 11.78125 L 11.1875 11.78125 C 9.632812 11.78125 8.398438 12.191406 7.484375 13.015625 C 6.566406 13.835938 6.109375 15.035156 6.109375 16.609375 C 6.109375 18.179688 6.570312 19.382812 7.5 20.21875 C 8.4375 21.0625 9.664062 21.484375 11.1875 21.484375 L 27.484375 21.484375 L 27.484375 30.3125 Z M 11.0625 30.3125 "/></g></g></g></svg>