<svg xmlns="http://www.w3.org/2000/svg" xmlns:xlink="http://www.w3.org/1999/xlink" width="361" zoomAndPan="magnify" viewBox="0 0 270.75 370.499989" height="494" preserveAspectRatio="xMidYMid meet" version="1.0"><defs><filter x="0%" y="0%" width="100%" height="100%" id="df55990adb"><feColorMatrix values="0 0 0 0 1 0 0 0 0 1 0 0 0 0 1 0 0 0 1 0" color-interpolation-filters="sRGB"/></filter><g/><clipPath id="ee07c1655e"><path d="M 0.0585938 0 L 270 0 L 270 370 L 0.0585938 370 Z M 0.0585938 0 " clip-rule="nonzero"/></clipPath><mask id="6073a523ee"><g filter="url(#df55990adb)"><rect x="-27.075" width="324.9" fill="#000000" y="-37.049999" height="444.599987" fill-opacity="0.3"/></g></mask><clipPath id="7ba44b637a"><path d="M 0.0585938 0 L 269.710938 0 L 269.710938 370 L 0.0585938 370 Z M 0.0585938 0 " clip-rule="nonzero"/></clipPath><clipPath id="8733ce420f"><path d="M 17.285156 0 L 252.484375 0 C 257.054688 0 261.433594 1.816406 264.664062 5.046875 C 267.898438 8.277344 269.710938 12.65625 269.710938 17.226562 L 269.710938 352.574219 C 269.710938 357.144531 267.898438 361.523438 264.664062 364.757812 C 261.433594 367.988281 257.054688 369.800781 252.484375 369.800781 L 17.285156 369.800781 C 12.714844 369.800781 8.332031 367.988281 5.101562 364.757812 C 1.871094 361.523438 0.0585938 357.144531 0.0585938 352.574219 L 0.0585938 17.226562 C 0.0585938 12.65625 1.871094 8.277344 5.101562 5.046875 C 8.332031 1.816406 12.714844 0 17.285156 0 Z M 17.285156 0 " clip-rule="nonzero"/></clipPath><clipPath id="3c15de2616"><rect x="0" width="270" y="0" height="370"/></clipPath></defs><g clip-path="url(#ee07c1655e)"><g mask="url(#6073a523ee)"><g><g clip-path="url(#3c15de2616)"><g clip-path="url(#7ba44b637a)"><g clip-path="url(#8733ce420f)"><path fill="#919191" d="M 0.0585938 0 L 269.710938 0 L 269.710938 369.722656 L 0.0585938 369.722656 Z M 0.0585938 0 " fill-opacity="1" fill-rule="nonzero"/></g></g></g></g></g></g><g fill="#ff3131" fill-opacity="1"><g transform="translate(90.715977, 248.794552)"><g><path d="M 53.46875 -96.203125 C 57.488281 -96.203125 61.289062 -95.804688 64.875 -95.015625 C 68.457031 -94.234375 71.5625 -93.1875 74.1875 -91.875 C 76.195312 -90.820312 77.613281 -89.789062 78.4375 -88.78125 C 79.269531 -87.78125 79.6875 -86.671875 79.6875 -85.453125 C 79.6875 -83.441406 78.460938 -81.34375 76.015625 -79.15625 C 73.566406 -81.082031 70.351562 -82.765625 66.375 -84.203125 C 62.40625 -85.648438 58.101562 -86.375 53.46875 -86.375 C 46.476562 -86.375 40.316406 -84.753906 34.984375 -81.515625 C 29.660156 -78.285156 25.535156 -73.722656 22.609375 -67.828125 C 19.679688 -61.929688 18.21875 -55.09375 18.21875 -47.3125 C 18.21875 -39.625 19.550781 -32.804688 22.21875 -26.859375 C 24.882812 -20.921875 28.75 -16.289062 33.8125 -12.96875 C 38.882812 -9.65625 45 -8 52.15625 -8 C 57.570312 -8 62.597656 -8.9375 67.234375 -10.8125 C 71.867188 -12.6875 75.625 -14.894531 78.5 -17.4375 C 81.125 -15.070312 82.4375 -12.84375 82.4375 -10.75 C 82.4375 -9.695312 82.085938 -8.691406 81.390625 -7.734375 C 80.691406 -6.773438 79.335938 -5.679688 77.328125 -4.453125 C 74.703125 -2.878906 71.140625 -1.4375 66.640625 -0.125 C 62.140625 1.175781 57.3125 1.828125 52.15625 1.828125 C 41.9375 1.828125 33.421875 -0.242188 26.609375 -4.390625 C 19.796875 -8.535156 14.75 -14.253906 11.46875 -21.546875 C 8.1875 -28.847656 6.546875 -37.304688 6.546875 -46.921875 C 6.546875 -56.441406 8.445312 -64.9375 12.25 -72.40625 C 16.050781 -79.882812 21.488281 -85.71875 28.5625 -89.90625 C 35.644531 -94.101562 43.945312 -96.203125 53.46875 -96.203125 Z M 53.46875 -96.203125 "/></g></g></g></svg>