<svg xmlns="http://www.w3.org/2000/svg" xmlns:xlink="http://www.w3.org/1999/xlink" width="361" zoomAndPan="magnify" viewBox="0 0 270.75 370.499989" height="494" preserveAspectRatio="xMidYMid meet" version="1.0"><defs><filter x="0%" y="0%" width="100%" height="100%" id="3326dc9113"><feColorMatrix values="0 0 0 0 1 0 0 0 0 1 0 0 0 0 1 0 0 0 1 0" color-interpolation-filters="sRGB"/></filter><clipPath id="ad392f0a18"><path d="M 0.0585938 0 L 270 0 L 270 370 L 0.0585938 370 Z M 0.0585938 0 " clip-rule="nonzero"/></clipPath><mask id="fc51d21197"><g filter="url(#3326dc9113)"><rect x="-27.075" width="324.9" fill="#000000" y="-37.049999" height="444.599987" fill-opacity="0.1"/></g></mask><clipPath id="434286dd45"><path d="M 0.0585938 0 L 269.710938 0 L 269.710938 370 L 0.0585938 370 Z M 0.0585938 0 " clip-rule="nonzero"/></clipPath><clipPath id="e0c2a6f76e"><path d="M 17.285156 0 L 252.484375 0 C 257.054688 0 261.433594 1.816406 264.664062 5.046875 C 267.898438 8.277344 269.710938 12.65625 269.710938 17.226562 L 269.710938 352.574219 C 269.710938 357.144531 267.898438 361.523438 264.664062 364.757812 C 261.433594 367.988281 257.054688 369.800781 252.484375 369.800781 L 17.285156 369.800781 C 12.714844 369.800781 8.332031 367.988281 5.101562 364.757812 C 1.871094 361.523438 0.0585938 357.144531 0.0585938 352.574219 L 0.0585938 17.226562 C 0.0585938 12.65625 1.871094 8.277344 5.101562 5.046875 C 8.332031 1.816406 12.714844 0 17.285156 0 Z M 17.285156 0 " clip-rule="nonzero"/></clipPath><clipPath id="4261657155"><rect x="0" width="270" y="0" height="370"/></clipPath><clipPath id="432c1099b6"><path d="M 56.542969 116.351562 L 213.453125 116.351562 L 213.453125 253.449219 L 56.542969 253.449219 Z M 56.542969 116.351562 " clip-rule="nonzero"/></clipPath><clipPath id="c6038462e6"><path d="M 134.882812 116.351562 L 213.226562 253.449219 L 56.542969 253.449219 Z M 134.882812 116.351562 " clip-rule="nonzero"/></clipPath></defs><g clip-path="url(#ad392f0a18)"><g mask="url(#fc51d21197)"><g><g clip-path="url(#4261657155)"><g clip-path="url(#434286dd45)"><g clip-path="url(#e0c2a6f76e)"><path fill="#919191" d="M 0.0585938 0 L 269.710938 0 L 269.710938 369.722656 L 0.0585938 369.722656 Z M 0.0585938 0 " fill-opacity="1" fill-rule="nonzero"/></g></g></g></g></g></g><g clip-path="url(#432c1099b6)"><g clip-path="url(#c6038462e6)"><path fill="#00bf63" d="M 56.542969 116.351562 L 213.453125 116.351562 L 213.453125 253.449219 L 56.542969 253.449219 Z M 56.542969 116.351562 " fill-opacity="1" fill-rule="nonzero"/></g></g></svg>