<svg xmlns="http://www.w3.org/2000/svg" xmlns:xlink="http://www.w3.org/1999/xlink" width="361" zoomAndPan="magnify" viewBox="0 0 270.75 370.499989" height="494" preserveAspectRatio="xMidYMid meet" version="1.0"><defs><filter x="0%" y="0%" width="100%" height="100%" id="49525060f7"><feColorMatrix values="0 0 0 0 1 0 0 0 0 1 0 0 0 0 1 0 0 0 1 0" color-interpolation-filters="sRGB"/></filter><clipPath id="a87351a11d"><path d="M 0.0585938 0 L 270 0 L 270 370 L 0.0585938 370 Z M 0.0585938 0 " clip-rule="nonzero"/></clipPath><mask id="5a9083ec38"><g filter="url(#49525060f7)"><rect x="-27.075" width="324.9" fill="#000000" y="-37.049999" height="444.599987" fill-opacity="0.3"/></g></mask><clipPath id="9a63f5e053"><path d="M 0.0585938 0 L 269.710938 0 L 269.710938 370 L 0.0585938 370 Z M 0.0585938 0 " clip-rule="nonzero"/></clipPath><clipPath id="fe51ba39e9"><path d="M 17.285156 0 L 252.484375 0 C 257.054688 0 261.433594 1.816406 264.664062 5.046875 C 267.898438 8.277344 269.710938 12.65625 269.710938 17.226562 L 269.710938 352.574219 C 269.710938 357.144531 267.898438 361.523438 264.664062 364.757812 C 261.433594 367.988281 257.054688 369.800781 252.484375 369.800781 L 17.285156 369.800781 C 12.714844 369.800781 8.332031 367.988281 5.101562 364.757812 C 1.871094 361.523438 0.0585938 357.144531 0.0585938 352.574219 L 0.0585938 17.226562 C 0.0585938 12.65625 1.871094 8.277344 5.101562 5.046875 C 8.332031 1.816406 12.714844 0 17.285156 0 Z M 17.285156 0 " clip-rule="nonzero"/></clipPath><clipPath id="d15930758c"><rect x="0" width="270" y="0" height="370"/></clipPath><clipPath id="a9b85cd68f"><path d="M 67.558594 80 L 202.199219 80 L 202.199219 289.714844 L 67.558594 289.714844 Z M 67.558594 80 " clip-rule="nonzero"/></clipPath><clipPath id="96e788daf0"><path d="M 134.878906 80 C 97.699219 80 67.558594 126.964844 67.558594 184.894531 C 67.558594 242.828125 97.699219 289.792969 134.878906 289.792969 C 172.058594 289.792969 202.199219 242.828125 202.199219 184.894531 C 202.199219 126.964844 172.058594 80 134.878906 80 Z M 134.878906 80 " clip-rule="nonzero"/></clipPath></defs><g clip-path="url(#a87351a11d)"><g mask="url(#5a9083ec38)"><g><g clip-path="url(#d15930758c)"><g clip-path="url(#9a63f5e053)"><g clip-path="url(#fe51ba39e9)"><path fill="#919191" d="M 0.0585938 0 L 269.710938 0 L 269.710938 369.722656 L 0.0585938 369.722656 Z M 0.0585938 0 " fill-opacity="1" fill-rule="nonzero"/></g></g></g></g></g></g><g clip-path="url(#a9b85cd68f)"><g clip-path="url(#96e788daf0)"><path stroke-linecap="butt" transform="matrix(0.748989, 0, 0, 0.748989, 67.557685, 79.999643)" fill="none" stroke-linejoin="miter" d="M 89.882771 0.000476706 C 40.242951 0.000476706 0.00121391 62.70478 0.00121391 140.048606 C 0.00121391 217.397647 40.242951 280.10195 89.882771 280.10195 C 139.522591 280.10195 179.764328 217.397647 179.764328 140.048606 C 179.764328 62.70478 139.522591 0.000476706 89.882771 0.000476706 Z M 89.882771 0.000476706 " stroke="#ffde59" stroke-width="18" stroke-opacity="1" stroke-miterlimit="4"/></g></g></svg>