<svg xmlns="http://www.w3.org/2000/svg" xmlns:xlink="http://www.w3.org/1999/xlink" width="361" zoomAndPan="magnify" viewBox="0 0 270.75 370.499989" height="494" preserveAspectRatio="xMidYMid meet" version="1.0"><defs><filter x="0%" y="0%" width="100%" height="100%" id="5c27d18480"><feColorMatrix values="0 0 0 0 1 0 0 0 0 1 0 0 0 0 1 0 0 0 1 0" color-interpolation-filters="sRGB"/></filter><clipPath id="1f36fec06c"><path d="M 0.0585938 0 L 270 0 L 270 370 L 0.0585938 370 Z M 0.0585938 0 " clip-rule="nonzero"/></clipPath><mask id="ba6fa971c1"><g filter="url(#5c27d18480)"><rect x="-27.075" width="324.9" fill="#000000" y="-37.049999" height="444.599987" fill-opacity="0.3"/></g></mask><clipPath id="55105649bc"><path d="M 0.0585938 0.00390625 L 269.710938 0.00390625 L 269.710938 370 L 0.0585938 370 Z M 0.0585938 0.00390625 " clip-rule="nonzero"/></clipPath><clipPath id="0b1caa4512"><path d="M 17.285156 0.00390625 L 252.484375 0.00390625 C 257.054688 0.00390625 261.433594 1.820312 264.664062 5.050781 C 267.898438 8.28125 269.710938 12.664062 269.710938 17.230469 L 269.710938 352.582031 C 269.710938 357.148438 267.898438 361.53125 264.664062 364.761719 C 261.433594 367.992188 257.054688 369.808594 252.484375 369.808594 L 17.285156 369.808594 C 12.714844 369.808594 8.332031 367.992188 5.101562 364.761719 C 1.871094 361.53125 0.0585938 357.148438 0.0585938 352.582031 L 0.0585938 17.230469 C 0.0585938 12.664062 1.871094 8.28125 5.101562 5.050781 C 8.332031 1.820312 12.714844 0.00390625 17.285156 0.00390625 Z M 17.285156 0.00390625 " clip-rule="nonzero"/></clipPath><clipPath id="13c0682c4a"><rect x="0" width="270" y="0" height="370"/></clipPath><clipPath id="9c0ecbb8d3"><path d="M 64.007812 68.96875 L 157.632812 68.96875 L 157.632812 162.589844 L 64.007812 162.589844 Z M 64.007812 68.96875 " clip-rule="nonzero"/></clipPath><clipPath id="169cd8dff0"><path d="M 157.632812 115.777344 C 157.632812 89.925781 136.675781 68.96875 110.820312 68.96875 C 84.96875 68.96875 64.007812 89.925781 64.007812 115.777344 C 64.007812 141.632812 84.96875 162.589844 110.820312 162.589844 C 136.675781 162.589844 157.632812 141.632812 157.632812 115.777344 Z M 157.632812 115.777344 " clip-rule="nonzero"/></clipPath><clipPath id="23153eecd3"><path d="M 134.25 74.925781 L 205.742188 74.925781 L 205.742188 156.75 L 134.25 156.75 Z M 134.25 74.925781 " clip-rule="nonzero"/></clipPath><clipPath id="44d5e8e7bf"><path d="M 205.742188 115.777344 L 134.25 156.632812 L 134.25 74.925781 Z M 205.742188 115.777344 " clip-rule="nonzero"/></clipPath><clipPath id="7740826138"><path d="M 64.007812 192.429688 L 157.632812 192.429688 L 157.632812 286.050781 L 64.007812 286.050781 Z M 64.007812 192.429688 " clip-rule="nonzero"/></clipPath><clipPath id="bff8047fd2"><path d="M 157.632812 239.238281 C 157.632812 213.386719 136.675781 192.429688 110.820312 192.429688 C 84.96875 192.429688 64.007812 213.386719 64.007812 239.238281 C 64.007812 265.09375 84.96875 286.050781 110.820312 286.050781 C 136.675781 286.050781 157.632812 265.09375 157.632812 239.238281 Z M 157.632812 239.238281 " clip-rule="nonzero"/></clipPath><clipPath id="4fff6e8ba6"><path d="M 134.25 198.386719 L 205.742188 198.386719 L 205.742188 280.210938 L 134.25 280.210938 Z M 134.25 198.386719 " clip-rule="nonzero"/></clipPath><clipPath id="9f3e033a7e"><path d="M 205.742188 239.238281 L 134.25 280.09375 L 134.25 198.386719 Z M 205.742188 239.238281 " clip-rule="nonzero"/></clipPath></defs><g clip-path="url(#1f36fec06c)"><g mask="url(#ba6fa971c1)"><g><g clip-path="url(#13c0682c4a)"><g clip-path="url(#55105649bc)"><g clip-path="url(#0b1caa4512)"><path fill="#919191" d="M 0.0585938 0.00390625 L 269.710938 0.00390625 L 269.710938 369.726562 L 0.0585938 369.726562 Z M 0.0585938 0.00390625 " fill-opacity="1" fill-rule="nonzero"/></g></g></g></g></g></g><g clip-path="url(#9c0ecbb8d3)"><g clip-path="url(#169cd8dff0)"><path fill="#ff3131" d="M 157.632812 68.96875 L 157.632812 162.589844 L 64.007812 162.589844 L 64.007812 68.96875 Z M 157.632812 68.96875 " fill-opacity="1" fill-rule="nonzero"/></g></g><g clip-path="url(#23153eecd3)"><g clip-path="url(#44d5e8e7bf)"><path fill="#ff3131" d="M 205.742188 74.925781 L 205.742188 156.75 L 134.25 156.75 L 134.25 74.925781 Z M 205.742188 74.925781 " fill-opacity="1" fill-rule="nonzero"/></g></g><g clip-path="url(#7740826138)"><g clip-path="url(#bff8047fd2)"><path fill="#ff3131" d="M 157.632812 192.429688 L 157.632812 286.050781 L 64.007812 286.050781 L 64.007812 192.429688 Z M 157.632812 192.429688 " fill-opacity="1" fill-rule="nonzero"/></g></g><g clip-path="url(#4fff6e8ba6)"><g clip-path="url(#9f3e033a7e)"><path fill="#ff3131" d="M 205.742188 198.386719 L 205.742188 280.210938 L 134.25 280.210938 L 134.25 198.386719 Z M 205.742188 198.386719 " fill-opacity="1" fill-rule="nonzero"/></g></g></svg>