<svg xmlns="http://www.w3.org/2000/svg" xmlns:xlink="http://www.w3.org/1999/xlink" width="361" zoomAndPan="magnify" viewBox="0 0 270.75 370.499989" height="494" preserveAspectRatio="xMidYMid meet" version="1.0"><defs><filter x="0%" y="0%" width="100%" height="100%" id="be4c254ad5"><feColorMatrix values="0 0 0 0 1 0 0 0 0 1 0 0 0 0 1 0 0 0 1 0" color-interpolation-filters="sRGB"/></filter><clipPath id="cf6182e78d"><path d="M 0.0585938 0 L 270 0 L 270 370 L 0.0585938 370 Z M 0.0585938 0 " clip-rule="nonzero"/></clipPath><mask id="448d74c242"><g filter="url(#be4c254ad5)"><rect x="-27.075" width="324.9" fill="#000000" y="-37.049999" height="444.599987" fill-opacity="0.3"/></g></mask><clipPath id="281d01a818"><path d="M 0.0585938 0 L 269.710938 0 L 269.710938 370 L 0.0585938 370 Z M 0.0585938 0 " clip-rule="nonzero"/></clipPath><clipPath id="310af0b1c5"><path d="M 17.285156 0 L 252.484375 0 C 257.054688 0 261.433594 1.816406 264.664062 5.046875 C 267.898438 8.277344 269.710938 12.65625 269.710938 17.226562 L 269.710938 352.574219 C 269.710938 357.144531 267.898438 361.523438 264.664062 364.757812 C 261.433594 367.988281 257.054688 369.800781 252.484375 369.800781 L 17.285156 369.800781 C 12.714844 369.800781 8.332031 367.988281 5.101562 364.757812 C 1.871094 361.523438 0.0585938 357.144531 0.0585938 352.574219 L 0.0585938 17.226562 C 0.0585938 12.65625 1.871094 8.277344 5.101562 5.046875 C 8.332031 1.816406 12.714844 0 17.285156 0 Z M 17.285156 0 " clip-rule="nonzero"/></clipPath><clipPath id="9723696cd0"><rect x="0" width="270" y="0" height="370"/></clipPath><clipPath id="b168e93a6f"><path d="M 57.816406 137.636719 L 168.617188 137.636719 L 168.617188 258.824219 L 57.816406 258.824219 Z M 57.816406 137.636719 " clip-rule="nonzero"/></clipPath><clipPath id="c74b949cd8"><path d="M 113.214844 137.636719 C 82.621094 137.636719 57.816406 164.726562 57.816406 198.148438 C 57.816406 231.566406 82.621094 258.660156 113.214844 258.660156 C 143.8125 258.660156 168.617188 231.566406 168.617188 198.148438 C 168.617188 164.726562 143.8125 137.636719 113.214844 137.636719 Z M 113.214844 137.636719 " clip-rule="nonzero"/></clipPath><clipPath id="598128113c"><path d="M 101.152344 138.382812 L 211.953125 138.382812 L 211.953125 259.574219 L 101.152344 259.574219 Z M 101.152344 138.382812 " clip-rule="nonzero"/></clipPath><clipPath id="cef1f3ca3a"><path d="M 156.554688 138.382812 C 125.957031 138.382812 101.152344 165.476562 101.152344 198.894531 C 101.152344 232.316406 125.957031 259.410156 156.554688 259.410156 C 187.148438 259.410156 211.953125 232.316406 211.953125 198.894531 C 211.953125 165.476562 187.148438 138.382812 156.554688 138.382812 Z M 156.554688 138.382812 " clip-rule="nonzero"/></clipPath><clipPath id="3bffb58a7b"><path d="M 96.117188 180.21875 L 168.617188 180.21875 L 168.617188 259.515625 L 96.117188 259.515625 Z M 96.117188 180.21875 " clip-rule="nonzero"/></clipPath><clipPath id="7ba9e5acb9"><path d="M 132.367188 180.21875 C 112.347656 180.21875 96.117188 197.945312 96.117188 219.8125 C 96.117188 241.679688 112.347656 259.410156 132.367188 259.410156 C 152.386719 259.410156 168.617188 241.679688 168.617188 219.8125 C 168.617188 197.945312 152.386719 180.21875 132.367188 180.21875 Z M 132.367188 180.21875 " clip-rule="nonzero"/></clipPath></defs><g clip-path="url(#cf6182e78d)"><g mask="url(#448d74c242)"><g><g clip-path="url(#9723696cd0)"><g clip-path="url(#281d01a818)"><g clip-path="url(#310af0b1c5)"><path fill="#919191" d="M 0.0585938 0 L 269.710938 0 L 269.710938 369.722656 L 0.0585938 369.722656 Z M 0.0585938 0 " fill-opacity="1" fill-rule="nonzero"/></g></g></g></g></g></g><g clip-path="url(#b168e93a6f)"><g clip-path="url(#c74b949cd8)"><path fill="#004aad" d="M 57.816406 137.636719 L 168.617188 137.636719 L 168.617188 258.824219 L 57.816406 258.824219 Z M 57.816406 137.636719 " fill-opacity="1" fill-rule="nonzero"/></g></g><g clip-path="url(#598128113c)"><g clip-path="url(#cef1f3ca3a)"><path fill="#004aad" d="M 101.152344 138.382812 L 211.953125 138.382812 L 211.953125 259.574219 L 101.152344 259.574219 Z M 101.152344 138.382812 " fill-opacity="1" fill-rule="nonzero"/></g></g><g clip-path="url(#3bffb58a7b)"><g clip-path="url(#7ba9e5acb9)"><path fill="#004aad" d="M 96.117188 180.21875 L 168.617188 180.21875 L 168.617188 259.515625 L 96.117188 259.515625 Z M 96.117188 180.21875 " fill-opacity="1" fill-rule="nonzero"/></g></g><path stroke-linecap="round" transform="matrix(0.303849, -0.684588, 0.684588, 0.303849, 136.656844, 135.649078)" fill="none" stroke-linejoin="miter" d="M 4.498227 4.501749 L 32.394919 4.501999 " stroke="#004aad" stroke-width="9" stroke-opacity="1" stroke-miterlimit="4"/></svg>