<svg xmlns="http://www.w3.org/2000/svg" xmlns:xlink="http://www.w3.org/1999/xlink" width="361" zoomAndPan="magnify" viewBox="0 0 270.75 370.499989" height="494" preserveAspectRatio="xMidYMid meet" version="1.0"><defs><filter x="0%" y="0%" width="100%" height="100%" id="77cfeabd9c"><feColorMatrix values="0 0 0 0 1 0 0 0 0 1 0 0 0 0 1 0 0 0 1 0" color-interpolation-filters="sRGB"/></filter><clipPath id="117ce63c1d"><path d="M 0.0585938 0 L 270 0 L 270 370 L 0.0585938 370 Z M 0.0585938 0 " clip-rule="nonzero"/></clipPath><mask id="420b0de549"><g filter="url(#77cfeabd9c)"><rect x="-27.075" width="324.9" fill="#000000" y="-37.049999" height="444.599987" fill-opacity="0.3"/></g></mask><clipPath id="eca75945ea"><path d="M 0.0585938 0 L 269.710938 0 L 269.710938 370 L 0.0585938 370 Z M 0.0585938 0 " clip-rule="nonzero"/></clipPath><clipPath id="d18de6c6a3"><path d="M 17.285156 0 L 252.484375 0 C 257.054688 0 261.433594 1.816406 264.664062 5.046875 C 267.898438 8.277344 269.710938 12.65625 269.710938 17.226562 L 269.710938 352.574219 C 269.710938 357.144531 267.898438 361.523438 264.664062 364.757812 C 261.433594 367.988281 257.054688 369.800781 252.484375 369.800781 L 17.285156 369.800781 C 12.714844 369.800781 8.332031 367.988281 5.101562 364.757812 C 1.871094 361.523438 0.0585938 357.144531 0.0585938 352.574219 L 0.0585938 17.226562 C 0.0585938 12.65625 1.871094 8.277344 5.101562 5.046875 C 8.332031 1.816406 12.714844 0 17.285156 0 Z M 17.285156 0 " clip-rule="nonzero"/></clipPath><clipPath id="ac1df5e8fb"><rect x="0" width="270" y="0" height="370"/></clipPath><clipPath id="744ff3f90b"><path d="M 31.125 139.882812 L 174.132812 139.882812 L 174.132812 211.386719 L 31.125 211.386719 Z M 31.125 139.882812 " clip-rule="nonzero"/></clipPath><clipPath id="f077e0cfe3"><path d="M 138.378906 139.882812 C 158.125 139.882812 174.132812 155.890625 174.132812 175.636719 C 174.132812 195.378906 158.125 211.386719 138.378906 211.386719 L 66.878906 211.386719 C 47.132812 211.386719 31.125 195.378906 31.125 175.636719 C 31.125 155.890625 47.132812 139.882812 66.878906 139.882812 Z M 138.378906 139.882812 " clip-rule="nonzero"/></clipPath><clipPath id="b52f6e6684"><path d="M 132 93 L 206 93 L 206 192 L 132 192 Z M 132 93 " clip-rule="nonzero"/></clipPath><clipPath id="5cc204d533"><path d="M 121.238281 177.410156 L 173.875 83.710938 L 216.40625 107.601562 L 163.769531 201.300781 Z M 121.238281 177.410156 " clip-rule="nonzero"/></clipPath><clipPath id="ac600e427d"><path d="M 156.351562 114.902344 C 166.023438 97.6875 183.382812 89.082031 195.128906 95.675781 C 206.871094 102.273438 208.554688 121.578125 198.882812 138.792969 L 181.277344 170.132812 C 171.605469 187.347656 154.246094 195.953125 142.503906 189.355469 C 130.757812 182.757812 129.078125 163.453125 138.746094 146.242188 Z M 156.351562 114.902344 " clip-rule="nonzero"/></clipPath><clipPath id="15f22377f0"><path d="M 158.714844 92.679688 L 238.742188 92.679688 L 238.742188 139.882812 L 158.714844 139.882812 Z M 158.714844 92.679688 " clip-rule="nonzero"/></clipPath><clipPath id="0f577b6be3"><path d="M 206.15625 92.679688 C 224.097656 92.679688 238.644531 103.246094 238.644531 116.28125 C 238.644531 129.316406 224.097656 139.882812 206.15625 139.882812 L 191.203125 139.882812 C 173.261719 139.882812 158.714844 129.316406 158.714844 116.28125 C 158.714844 103.246094 173.261719 92.679688 191.203125 92.679688 Z M 206.15625 92.679688 " clip-rule="nonzero"/></clipPath></defs><g clip-path="url(#117ce63c1d)"><g mask="url(#420b0de549)"><g><g clip-path="url(#ac1df5e8fb)"><g clip-path="url(#eca75945ea)"><g clip-path="url(#d18de6c6a3)"><path fill="#919191" d="M 0.0585938 0 L 269.710938 0 L 269.710938 369.722656 L 0.0585938 369.722656 Z M 0.0585938 0 " fill-opacity="1" fill-rule="nonzero"/></g></g></g></g></g></g><g clip-path="url(#744ff3f90b)"><g clip-path="url(#f077e0cfe3)"><path fill="#0097b2" d="M 31.125 139.882812 L 174.132812 139.882812 L 174.132812 211.386719 L 31.125 211.386719 Z M 31.125 139.882812 " fill-opacity="1" fill-rule="nonzero"/></g></g><g clip-path="url(#b52f6e6684)"><g clip-path="url(#5cc204d533)"><g clip-path="url(#ac600e427d)"><path fill="#0097b2" d="M 121.238281 177.410156 L 173.875 83.710938 L 216.40625 107.601562 L 163.769531 201.300781 Z M 121.238281 177.410156 " fill-opacity="1" fill-rule="nonzero"/></g></g></g><g clip-path="url(#15f22377f0)"><g clip-path="url(#0f577b6be3)"><path fill="#0097b2" d="M 158.714844 92.679688 L 238.554688 92.679688 L 238.554688 139.882812 L 158.714844 139.882812 Z M 158.714844 92.679688 " fill-opacity="1" fill-rule="nonzero"/></g></g><path stroke-linecap="round" transform="matrix(0, 0.748989, -0.748989, 0, 63.959524, 199.324872)" fill="none" stroke-linejoin="miter" d="M 10.002193 10.001178 L 105.813617 10.001178 " stroke="#0097b2" stroke-width="20" stroke-opacity="1" stroke-miterlimit="4"/><path stroke-linecap="round" transform="matrix(0, 0.748989, -0.748989, 0, 143.963598, 199.324872)" fill="none" stroke-linejoin="miter" d="M 10.002193 10.001403 L 105.813617 10.001403 " stroke="#0097b2" stroke-width="20" stroke-opacity="1" stroke-miterlimit="4"/></svg>