<svg xmlns="http://www.w3.org/2000/svg" xmlns:xlink="http://www.w3.org/1999/xlink" width="361" zoomAndPan="magnify" viewBox="0 0 270.75 370.499989" height="494" preserveAspectRatio="xMidYMid meet" version="1.0"><defs><filter x="0%" y="0%" width="100%" height="100%" id="a5ffa9724a"><feColorMatrix values="0 0 0 0 1 0 0 0 0 1 0 0 0 0 1 0 0 0 1 0" color-interpolation-filters="sRGB"/></filter><clipPath id="6b7f096c69"><path d="M 0.0585938 0 L 270 0 L 270 370 L 0.0585938 370 Z M 0.0585938 0 " clip-rule="nonzero"/></clipPath><mask id="5ad5a6715d"><g filter="url(#a5ffa9724a)"><rect x="-27.075" width="324.9" fill="#000000" y="-37.049999" height="444.599987" fill-opacity="0.3"/></g></mask><clipPath id="81b28d77f9"><path d="M 0.0585938 0 L 269.710938 0 L 269.710938 370 L 0.0585938 370 Z M 0.0585938 0 " clip-rule="nonzero"/></clipPath><clipPath id="89fbd48e79"><path d="M 17.285156 0 L 252.484375 0 C 257.054688 0 261.433594 1.816406 264.664062 5.046875 C 267.898438 8.277344 269.710938 12.65625 269.710938 17.226562 L 269.710938 352.574219 C 269.710938 357.144531 267.898438 361.523438 264.664062 364.757812 C 261.433594 367.988281 257.054688 369.800781 252.484375 369.800781 L 17.285156 369.800781 C 12.714844 369.800781 8.332031 367.988281 5.101562 364.757812 C 1.871094 361.523438 0.0585938 357.144531 0.0585938 352.574219 L 0.0585938 17.226562 C 0.0585938 12.65625 1.871094 8.277344 5.101562 5.046875 C 8.332031 1.816406 12.714844 0 17.285156 0 Z M 17.285156 0 " clip-rule="nonzero"/></clipPath><clipPath id="cfdf24974a"><rect x="0" width="270" y="0" height="370"/></clipPath><clipPath id="37b05c9257"><path d="M 101.734375 96.503906 L 168.035156 96.503906 L 168.035156 151.75 L 101.734375 151.75 Z M 46.488281 151.75 L 223.28125 151.75 L 223.28125 218.050781 L 46.488281 218.050781 Z M 101.734375 218.050781 L 168.035156 218.050781 L 168.035156 273.300781 L 101.734375 273.300781 Z M 101.734375 218.050781 " clip-rule="nonzero"/></clipPath></defs><g clip-path="url(#6b7f096c69)"><g mask="url(#5ad5a6715d)"><g><g clip-path="url(#cfdf24974a)"><g clip-path="url(#81b28d77f9)"><g clip-path="url(#89fbd48e79)"><path fill="#919191" d="M 0.0585938 0 L 269.710938 0 L 269.710938 369.722656 L 0.0585938 369.722656 Z M 0.0585938 0 " fill-opacity="1" fill-rule="nonzero"/></g></g></g></g></g></g><g clip-path="url(#37b05c9257)"><path fill="#0097b2" d="M 46.488281 96.503906 L 223.28125 96.503906 L 223.28125 273.300781 L 46.488281 273.300781 Z M 46.488281 96.503906 " fill-opacity="1" fill-rule="nonzero"/></g></svg>