<svg xmlns="http://www.w3.org/2000/svg" xmlns:xlink="http://www.w3.org/1999/xlink" width="361" zoomAndPan="magnify" viewBox="0 0 270.75 370.499989" height="494" preserveAspectRatio="xMidYMid meet" version="1.0"><defs><filter x="0%" y="0%" width="100%" height="100%" id="4b6a9ba03c"><feColorMatrix values="0 0 0 0 1 0 0 0 0 1 0 0 0 0 1 0 0 0 1 0" color-interpolation-filters="sRGB"/></filter><clipPath id="022f921d57"><path d="M 0.0585938 0 L 270 0 L 270 370 L 0.0585938 370 Z M 0.0585938 0 " clip-rule="nonzero"/></clipPath><mask id="7a4b243cf4"><g filter="url(#4b6a9ba03c)"><rect x="-27.075" width="324.9" fill="#000000" y="-37.049999" height="444.599987" fill-opacity="0.3"/></g></mask><clipPath id="b27ad992d0"><path d="M 0.0585938 0 L 269.710938 0 L 269.710938 370 L 0.0585938 370 Z M 0.0585938 0 " clip-rule="nonzero"/></clipPath><clipPath id="badb96f584"><path d="M 17.285156 0 L 252.484375 0 C 257.054688 0 261.433594 1.816406 264.664062 5.046875 C 267.898438 8.277344 269.710938 12.65625 269.710938 17.226562 L 269.710938 352.574219 C 269.710938 357.144531 267.898438 361.523438 264.664062 364.757812 C 261.433594 367.988281 257.054688 369.800781 252.484375 369.800781 L 17.285156 369.800781 C 12.714844 369.800781 8.332031 367.988281 5.101562 364.757812 C 1.871094 361.523438 0.0585938 357.144531 0.0585938 352.574219 L 0.0585938 17.226562 C 0.0585938 12.65625 1.871094 8.277344 5.101562 5.046875 C 8.332031 1.816406 12.714844 0 17.285156 0 Z M 17.285156 0 " clip-rule="nonzero"/></clipPath><clipPath id="11b05501ff"><rect x="0" width="270" y="0" height="370"/></clipPath><clipPath id="cfb8f8af1b"><path d="M 42.992188 247.605469 L 83.925781 247.605469 L 83.925781 268.507812 L 42.992188 268.507812 Z M 42.992188 247.605469 " clip-rule="nonzero"/></clipPath><clipPath id="12a19f292f"><path d="M 63.460938 226.703125 L 104.394531 226.703125 L 104.394531 247.605469 L 63.460938 247.605469 Z M 63.460938 226.703125 " clip-rule="nonzero"/></clipPath><clipPath id="6c46377a31"><path d="M 82.847656 205.804688 L 123.78125 205.804688 L 123.78125 226.703125 L 82.847656 226.703125 Z M 82.847656 205.804688 " clip-rule="nonzero"/></clipPath><clipPath id="f1b098ecc0"><path d="M 103.3125 184.902344 L 144.246094 184.902344 L 144.246094 205.804688 L 103.3125 205.804688 Z M 103.3125 184.902344 " clip-rule="nonzero"/></clipPath><clipPath id="d268cdb92e"><path d="M 125.523438 164 L 166.457031 164 L 166.457031 184.902344 L 125.523438 184.902344 Z M 125.523438 164 " clip-rule="nonzero"/></clipPath><clipPath id="36d9233d2b"><path d="M 145.988281 143.097656 L 186.921875 143.097656 L 186.921875 164 L 145.988281 164 Z M 145.988281 143.097656 " clip-rule="nonzero"/></clipPath><clipPath id="2e7b0e6816"><path d="M 165.375 122.195312 L 206.308594 122.195312 L 206.308594 143.097656 L 165.375 143.097656 Z M 165.375 122.195312 " clip-rule="nonzero"/></clipPath><clipPath id="bbf3919788"><path d="M 185.84375 101.292969 L 226.773438 101.292969 L 226.773438 122.195312 L 185.84375 122.195312 Z M 185.84375 101.292969 " clip-rule="nonzero"/></clipPath></defs><g clip-path="url(#022f921d57)"><g mask="url(#7a4b243cf4)"><g><g clip-path="url(#11b05501ff)"><g clip-path="url(#b27ad992d0)"><g clip-path="url(#badb96f584)"><path fill="#919191" d="M 0.0585938 0 L 269.710938 0 L 269.710938 369.722656 L 0.0585938 369.722656 Z M 0.0585938 0 " fill-opacity="1" fill-rule="nonzero"/></g></g></g></g></g></g><g clip-path="url(#cfb8f8af1b)"><path fill="#00bf63" d="M 42.992188 247.605469 L 83.898438 247.605469 L 83.898438 268.507812 L 42.992188 268.507812 Z M 42.992188 247.605469 " fill-opacity="1" fill-rule="nonzero"/></g><g clip-path="url(#12a19f292f)"><path fill="#00bf63" d="M 63.460938 226.703125 L 104.367188 226.703125 L 104.367188 247.605469 L 63.460938 247.605469 Z M 63.460938 226.703125 " fill-opacity="1" fill-rule="nonzero"/></g><g clip-path="url(#6c46377a31)"><path fill="#00bf63" d="M 82.847656 205.804688 L 123.753906 205.804688 L 123.753906 226.703125 L 82.847656 226.703125 Z M 82.847656 205.804688 " fill-opacity="1" fill-rule="nonzero"/></g><g clip-path="url(#f1b098ecc0)"><path fill="#00bf63" d="M 103.3125 184.902344 L 144.21875 184.902344 L 144.21875 205.804688 L 103.3125 205.804688 Z M 103.3125 184.902344 " fill-opacity="1" fill-rule="nonzero"/></g><g clip-path="url(#d268cdb92e)"><path fill="#00bf63" d="M 125.523438 164 L 166.429688 164 L 166.429688 184.902344 L 125.523438 184.902344 Z M 125.523438 164 " fill-opacity="1" fill-rule="nonzero"/></g><g clip-path="url(#36d9233d2b)"><path fill="#00bf63" d="M 145.988281 143.097656 L 186.894531 143.097656 L 186.894531 164 L 145.988281 164 Z M 145.988281 143.097656 " fill-opacity="1" fill-rule="nonzero"/></g><g clip-path="url(#2e7b0e6816)"><path fill="#00bf63" d="M 165.375 122.195312 L 206.28125 122.195312 L 206.28125 143.097656 L 165.375 143.097656 Z M 165.375 122.195312 " fill-opacity="1" fill-rule="nonzero"/></g><g clip-path="url(#bbf3919788)"><path fill="#00bf63" d="M 185.84375 101.292969 L 226.746094 101.292969 L 226.746094 122.195312 L 185.84375 122.195312 Z M 185.84375 101.292969 " fill-opacity="1" fill-rule="nonzero"/></g></svg>