<svg xmlns="http://www.w3.org/2000/svg" xmlns:xlink="http://www.w3.org/1999/xlink" width="361" zoomAndPan="magnify" viewBox="0 0 270.75 370.499989" height="494" preserveAspectRatio="xMidYMid meet" version="1.0"><defs><filter x="0%" y="0%" width="100%" height="100%" id="15d32e196b"><feColorMatrix values="0 0 0 0 1 0 0 0 0 1 0 0 0 0 1 0 0 0 1 0" color-interpolation-filters="sRGB"/></filter><clipPath id="60af71f6aa"><path d="M 0.0585938 0 L 270 0 L 270 370 L 0.0585938 370 Z M 0.0585938 0 " clip-rule="nonzero"/></clipPath><mask id="da19c151df"><g filter="url(#15d32e196b)"><rect x="-27.075" width="324.9" fill="#000000" y="-37.049999" height="444.599987" fill-opacity="0.1"/></g></mask><clipPath id="b94f7ad50a"><path d="M 0.0585938 0 L 269.710938 0 L 269.710938 370 L 0.0585938 370 Z M 0.0585938 0 " clip-rule="nonzero"/></clipPath><clipPath id="f542feac3b"><path d="M 17.285156 0 L 252.484375 0 C 257.054688 0 261.433594 1.816406 264.664062 5.046875 C 267.898438 8.277344 269.710938 12.65625 269.710938 17.226562 L 269.710938 352.574219 C 269.710938 357.144531 267.898438 361.523438 264.664062 364.757812 C 261.433594 367.988281 257.054688 369.800781 252.484375 369.800781 L 17.285156 369.800781 C 12.714844 369.800781 8.332031 367.988281 5.101562 364.757812 C 1.871094 361.523438 0.0585938 357.144531 0.0585938 352.574219 L 0.0585938 17.226562 C 0.0585938 12.65625 1.871094 8.277344 5.101562 5.046875 C 8.332031 1.816406 12.714844 0 17.285156 0 Z M 17.285156 0 " clip-rule="nonzero"/></clipPath><clipPath id="ce0f882d02"><rect x="0" width="270" y="0" height="370"/></clipPath><clipPath id="bded868c6e"><path d="M 42.992188 247.605469 L 83.925781 247.605469 L 83.925781 268.507812 L 42.992188 268.507812 Z M 42.992188 247.605469 " clip-rule="nonzero"/></clipPath><clipPath id="6ed64069be"><path d="M 63.460938 226.703125 L 104.394531 226.703125 L 104.394531 247.605469 L 63.460938 247.605469 Z M 63.460938 226.703125 " clip-rule="nonzero"/></clipPath><clipPath id="cb9b894ff0"><path d="M 82.847656 205.804688 L 123.78125 205.804688 L 123.78125 226.703125 L 82.847656 226.703125 Z M 82.847656 205.804688 " clip-rule="nonzero"/></clipPath><clipPath id="72db7576b4"><path d="M 103.3125 184.902344 L 144.246094 184.902344 L 144.246094 205.804688 L 103.3125 205.804688 Z M 103.3125 184.902344 " clip-rule="nonzero"/></clipPath><clipPath id="3e3a23ef73"><path d="M 125.523438 164 L 166.457031 164 L 166.457031 184.902344 L 125.523438 184.902344 Z M 125.523438 164 " clip-rule="nonzero"/></clipPath><clipPath id="7b542b0002"><path d="M 145.988281 143.097656 L 186.921875 143.097656 L 186.921875 164 L 145.988281 164 Z M 145.988281 143.097656 " clip-rule="nonzero"/></clipPath><clipPath id="37acb40c4f"><path d="M 165.375 122.195312 L 206.308594 122.195312 L 206.308594 143.097656 L 165.375 143.097656 Z M 165.375 122.195312 " clip-rule="nonzero"/></clipPath><clipPath id="5b166e86f2"><path d="M 185.84375 101.292969 L 226.773438 101.292969 L 226.773438 122.195312 L 185.84375 122.195312 Z M 185.84375 101.292969 " clip-rule="nonzero"/></clipPath></defs><g clip-path="url(#60af71f6aa)"><g mask="url(#da19c151df)"><g><g clip-path="url(#ce0f882d02)"><g clip-path="url(#b94f7ad50a)"><g clip-path="url(#f542feac3b)"><path fill="#919191" d="M 0.0585938 0 L 269.710938 0 L 269.710938 369.722656 L 0.0585938 369.722656 Z M 0.0585938 0 " fill-opacity="1" fill-rule="nonzero"/></g></g></g></g></g></g><g clip-path="url(#bded868c6e)"><path fill="#00bf63" d="M 42.992188 247.605469 L 83.898438 247.605469 L 83.898438 268.507812 L 42.992188 268.507812 Z M 42.992188 247.605469 " fill-opacity="1" fill-rule="nonzero"/></g><g clip-path="url(#6ed64069be)"><path fill="#00bf63" d="M 63.460938 226.703125 L 104.367188 226.703125 L 104.367188 247.605469 L 63.460938 247.605469 Z M 63.460938 226.703125 " fill-opacity="1" fill-rule="nonzero"/></g><g clip-path="url(#cb9b894ff0)"><path fill="#00bf63" d="M 82.847656 205.804688 L 123.753906 205.804688 L 123.753906 226.703125 L 82.847656 226.703125 Z M 82.847656 205.804688 " fill-opacity="1" fill-rule="nonzero"/></g><g clip-path="url(#72db7576b4)"><path fill="#00bf63" d="M 103.3125 184.902344 L 144.21875 184.902344 L 144.21875 205.804688 L 103.3125 205.804688 Z M 103.3125 184.902344 " fill-opacity="1" fill-rule="nonzero"/></g><g clip-path="url(#3e3a23ef73)"><path fill="#00bf63" d="M 125.523438 164 L 166.429688 164 L 166.429688 184.902344 L 125.523438 184.902344 Z M 125.523438 164 " fill-opacity="1" fill-rule="nonzero"/></g><g clip-path="url(#7b542b0002)"><path fill="#00bf63" d="M 145.988281 143.097656 L 186.894531 143.097656 L 186.894531 164 L 145.988281 164 Z M 145.988281 143.097656 " fill-opacity="1" fill-rule="nonzero"/></g><g clip-path="url(#37acb40c4f)"><path fill="#00bf63" d="M 165.375 122.195312 L 206.28125 122.195312 L 206.28125 143.097656 L 165.375 143.097656 Z M 165.375 122.195312 " fill-opacity="1" fill-rule="nonzero"/></g><g clip-path="url(#5b166e86f2)"><path fill="#00bf63" d="M 185.84375 101.292969 L 226.746094 101.292969 L 226.746094 122.195312 L 185.84375 122.195312 Z M 185.84375 101.292969 " fill-opacity="1" fill-rule="nonzero"/></g></svg>