<svg xmlns="http://www.w3.org/2000/svg" xmlns:xlink="http://www.w3.org/1999/xlink" width="361" zoomAndPan="magnify" viewBox="0 0 270.75 370.499989" height="494" preserveAspectRatio="xMidYMid meet" version="1.0"><defs><filter x="0%" y="0%" width="100%" height="100%" id="2c54d37e4b"><feColorMatrix values="0 0 0 0 1 0 0 0 0 1 0 0 0 0 1 0 0 0 1 0" color-interpolation-filters="sRGB"/></filter><clipPath id="3e6f5f683d"><path d="M 0.0585938 0 L 270 0 L 270 370 L 0.0585938 370 Z M 0.0585938 0 " clip-rule="nonzero"/></clipPath><mask id="0c97ea1aff"><g filter="url(#2c54d37e4b)"><rect x="-27.075" width="324.9" fill="#000000" y="-37.049999" height="444.599987" fill-opacity="0.3"/></g></mask><clipPath id="9a356a1ddb"><path d="M 0.0585938 0 L 269.710938 0 L 269.710938 370 L 0.0585938 370 Z M 0.0585938 0 " clip-rule="nonzero"/></clipPath><clipPath id="eb5ad08ba2"><path d="M 17.285156 0 L 252.484375 0 C 257.054688 0 261.433594 1.816406 264.664062 5.046875 C 267.898438 8.277344 269.710938 12.65625 269.710938 17.226562 L 269.710938 352.574219 C 269.710938 357.144531 267.898438 361.523438 264.664062 364.757812 C 261.433594 367.988281 257.054688 369.800781 252.484375 369.800781 L 17.285156 369.800781 C 12.714844 369.800781 8.332031 367.988281 5.101562 364.757812 C 1.871094 361.523438 0.0585938 357.144531 0.0585938 352.574219 L 0.0585938 17.226562 C 0.0585938 12.65625 1.871094 8.277344 5.101562 5.046875 C 8.332031 1.816406 12.714844 0 17.285156 0 Z M 17.285156 0 " clip-rule="nonzero"/></clipPath><clipPath id="1ebcf41119"><rect x="0" width="270" y="0" height="370"/></clipPath></defs><g clip-path="url(#3e6f5f683d)"><g mask="url(#0c97ea1aff)"><g><g clip-path="url(#1ebcf41119)"><g clip-path="url(#9a356a1ddb)"><g clip-path="url(#eb5ad08ba2)"><path fill="#919191" d="M 0.0585938 0 L 269.710938 0 L 269.710938 369.722656 L 0.0585938 369.722656 Z M 0.0585938 0 " fill-opacity="1" fill-rule="nonzero"/></g></g></g></g></g></g><path stroke-linecap="round" transform="matrix(0.748989, 0, 0, 0.748989, 51.448476, 179.283386)" fill="none" stroke-linejoin="miter" d="M 7.500683 7.502054 L 223.447983 7.502054 " stroke="#ffde59" stroke-width="15" stroke-opacity="1" stroke-miterlimit="4"/><path stroke-linecap="round" transform="matrix(0.748989, 0, 0, 0.748989, 51.448476, 119.851966)" fill="none" stroke-linejoin="miter" d="M 7.500683 7.499152 L 223.447983 7.499152 " stroke="#ffde59" stroke-width="15" stroke-opacity="1" stroke-miterlimit="4"/><path stroke-linecap="round" transform="matrix(0.748989, 0, 0, 0.748989, 51.448476, 237.425836)" fill="none" stroke-linejoin="miter" d="M 7.500683 7.499618 L 223.447983 7.499618 " stroke="#ffde59" stroke-width="15" stroke-opacity="1" stroke-miterlimit="4"/><path stroke-linecap="round" transform="matrix(0, -0.748989, 0.748989, 0, 129.265315, 287.945316)" fill="none" stroke-linejoin="miter" d="M 7.499695 7.500105 L 267.662838 7.500105 " stroke="#ffde59" stroke-width="15" stroke-opacity="1" stroke-miterlimit="4"/><path stroke-linecap="round" transform="matrix(0, -0.748989, 0.748989, 0, 87.252253, 287.945316)" fill="none" stroke-linejoin="miter" d="M 7.499695 7.501899 L 267.662838 7.501899 " stroke="#ffde59" stroke-width="15" stroke-opacity="1" stroke-miterlimit="4"/><path stroke-linecap="round" transform="matrix(0, -0.748989, 0.748989, 0, 169.989421, 287.945316)" fill="none" stroke-linejoin="miter" d="M 7.499695 7.498169 L 267.662838 7.498169 " stroke="#ffde59" stroke-width="15" stroke-opacity="1" stroke-miterlimit="4"/></svg>