<svg xmlns="http://www.w3.org/2000/svg" xmlns:xlink="http://www.w3.org/1999/xlink" width="361" zoomAndPan="magnify" viewBox="0 0 270.75 370.499989" height="494" preserveAspectRatio="xMidYMid meet" version="1.0"><defs><filter x="0%" y="0%" width="100%" height="100%" id="d052067cc3"><feColorMatrix values="0 0 0 0 1 0 0 0 0 1 0 0 0 0 1 0 0 0 1 0" color-interpolation-filters="sRGB"/></filter><clipPath id="d55c38b642"><path d="M 0.0585938 0 L 270 0 L 270 370 L 0.0585938 370 Z M 0.0585938 0 " clip-rule="nonzero"/></clipPath><mask id="911660d4cf"><g filter="url(#d052067cc3)"><rect x="-27.075" width="324.9" fill="#000000" y="-37.049999" height="444.599987" fill-opacity="0.3"/></g></mask><clipPath id="a14a9f46a7"><path d="M 0.0585938 0 L 269.710938 0 L 269.710938 370 L 0.0585938 370 Z M 0.0585938 0 " clip-rule="nonzero"/></clipPath><clipPath id="c19fef6fb0"><path d="M 17.285156 0 L 252.484375 0 C 257.054688 0 261.433594 1.816406 264.664062 5.046875 C 267.898438 8.277344 269.710938 12.65625 269.710938 17.226562 L 269.710938 352.574219 C 269.710938 357.144531 267.898438 361.523438 264.664062 364.757812 C 261.433594 367.988281 257.054688 369.800781 252.484375 369.800781 L 17.285156 369.800781 C 12.714844 369.800781 8.332031 367.988281 5.101562 364.757812 C 1.871094 361.523438 0.0585938 357.144531 0.0585938 352.574219 L 0.0585938 17.226562 C 0.0585938 12.65625 1.871094 8.277344 5.101562 5.046875 C 8.332031 1.816406 12.714844 0 17.285156 0 Z M 17.285156 0 " clip-rule="nonzero"/></clipPath><clipPath id="9e2b8f0e76"><rect x="0" width="270" y="0" height="370"/></clipPath></defs><g clip-path="url(#d55c38b642)"><g mask="url(#911660d4cf)"><g><g clip-path="url(#9e2b8f0e76)"><g clip-path="url(#a14a9f46a7)"><g clip-path="url(#c19fef6fb0)"><path fill="#919191" d="M 0.0585938 0 L 269.710938 0 L 269.710938 369.722656 L 0.0585938 369.722656 Z M 0.0585938 0 " fill-opacity="1" fill-rule="nonzero"/></g></g></g></g></g></g><path stroke-linecap="round" transform="matrix(0.0809668, -0.7446, 0.7446, 0.0809668, 119.056183, 182.591124)" fill="none" stroke-linejoin="miter" d="M 3.998927 4.001359 L 133.682641 4.001264 " stroke="#ff3131" stroke-width="8" stroke-opacity="1" stroke-miterlimit="4"/><path stroke-linecap="round" transform="matrix(-0.107479, -0.741237, 0.741237, -0.107479, 144.941615, 183.345832)" fill="none" stroke-linejoin="miter" d="M 4.002323 4.000222 L 133.526158 3.999242 " stroke="#ff3131" stroke-width="8" stroke-opacity="1" stroke-miterlimit="4"/><path stroke-linecap="round" transform="matrix(0.360028, -0.656784, 0.656784, 0.360028, 145.281191, 181.475686)" fill="none" stroke-linejoin="miter" d="M 3.999032 3.999341 L 82.572424 4.000013 " stroke="#ff3131" stroke-width="8" stroke-opacity="1" stroke-miterlimit="4"/><path stroke-linecap="round" transform="matrix(-0.327524, -0.673582, 0.673582, -0.327524, 119.340018, 184.226758)" fill="none" stroke-linejoin="miter" d="M 4.000544 3.997897 L 80.416371 3.998876 " stroke="#ff3131" stroke-width="8" stroke-opacity="1" stroke-miterlimit="4"/><path stroke-linecap="round" transform="matrix(-0.0932876, -0.743157, 0.743157, -0.0932876, 102.304068, 213.189292)" fill="none" stroke-linejoin="miter" d="M 3.999887 3.998368 L 112.747273 3.9987 " stroke="#ff3131" stroke-width="8" stroke-opacity="1" stroke-miterlimit="4"/><path stroke-linecap="round" transform="matrix(0.132995, -0.737087, 0.737087, 0.132995, 160.47445, 212.286905)" fill="none" stroke-linejoin="miter" d="M 3.998877 3.997962 L 113.706246 4.002346 " stroke="#ff3131" stroke-width="8" stroke-opacity="1" stroke-miterlimit="4"/><path stroke-linecap="round" transform="matrix(0.566732, -0.489693, 0.489693, 0.566732, 161.46417, 210.550099)" fill="none" stroke-linejoin="miter" d="M 4.000575 4.00247 L 57.06117 4.00074 " stroke="#ff3131" stroke-width="8" stroke-opacity="1" stroke-miterlimit="4"/><path stroke-linecap="round" transform="matrix(-0.577199, -0.477311, 0.477311, -0.577199, 103.369177, 215.128251)" fill="none" stroke-linejoin="miter" d="M 4.000948 3.999309 L 58.643368 4.000314 " stroke="#ff3131" stroke-width="8" stroke-opacity="1" stroke-miterlimit="4"/><path stroke-linecap="round" transform="matrix(-0.335894, -0.669448, 0.669448, -0.335894, 119.35771, 289.723344)" fill="none" stroke-linejoin="miter" d="M 3.998942 3.998695 L 153.537359 4.002421 " stroke="#ff3131" stroke-width="8" stroke-opacity="1" stroke-miterlimit="4"/><path stroke-linecap="round" transform="matrix(0.233518, -0.711656, 0.711656, 0.233518, 160.576281, 287.445511)" fill="none" stroke-linejoin="miter" d="M 4.001541 3.997375 L 144.190323 3.99971 " stroke="#ff3131" stroke-width="8" stroke-opacity="1" stroke-miterlimit="4"/></svg>