<svg xmlns="http://www.w3.org/2000/svg" xmlns:xlink="http://www.w3.org/1999/xlink" width="361" zoomAndPan="magnify" viewBox="0 0 270.75 370.499989" height="494" preserveAspectRatio="xMidYMid meet" version="1.0"><defs><filter x="0%" y="0%" width="100%" height="100%" id="bcf5251f0b"><feColorMatrix values="0 0 0 0 1 0 0 0 0 1 0 0 0 0 1 0 0 0 1 0" color-interpolation-filters="sRGB"/></filter><clipPath id="ebcca34f6a"><path d="M 0.0585938 0 L 270 0 L 270 370 L 0.0585938 370 Z M 0.0585938 0 " clip-rule="nonzero"/></clipPath><mask id="45d0fe6062"><g filter="url(#bcf5251f0b)"><rect x="-27.075" width="324.9" fill="#000000" y="-37.049999" height="444.599987" fill-opacity="0.3"/></g></mask><clipPath id="63f04669e5"><path d="M 0.0585938 0 L 269.710938 0 L 269.710938 370 L 0.0585938 370 Z M 0.0585938 0 " clip-rule="nonzero"/></clipPath><clipPath id="516cb27f28"><path d="M 17.285156 0 L 252.484375 0 C 257.054688 0 261.433594 1.816406 264.664062 5.046875 C 267.898438 8.277344 269.710938 12.65625 269.710938 17.226562 L 269.710938 352.574219 C 269.710938 357.144531 267.898438 361.523438 264.664062 364.757812 C 261.433594 367.988281 257.054688 369.800781 252.484375 369.800781 L 17.285156 369.800781 C 12.714844 369.800781 8.332031 367.988281 5.101562 364.757812 C 1.871094 361.523438 0.0585938 357.144531 0.0585938 352.574219 L 0.0585938 17.226562 C 0.0585938 12.65625 1.871094 8.277344 5.101562 5.046875 C 8.332031 1.816406 12.714844 0 17.285156 0 Z M 17.285156 0 " clip-rule="nonzero"/></clipPath><clipPath id="96b53bfaed"><rect x="0" width="270" y="0" height="370"/></clipPath><clipPath id="64b63ec469"><path d="M 0.0585938 5 L 240 5 L 240 352 L 0.0585938 352 Z M 0.0585938 5 " clip-rule="nonzero"/></clipPath><clipPath id="7df435364d"><path d="M 106.292969 81.011719 L 140.691406 81.011719 L 140.691406 115.414062 L 106.292969 115.414062 Z M 106.292969 81.011719 " clip-rule="nonzero"/></clipPath><clipPath id="fc973fae7c"><path d="M 123.492188 81.011719 C 113.992188 81.011719 106.292969 88.714844 106.292969 98.214844 C 106.292969 107.710938 113.992188 115.414062 123.492188 115.414062 C 132.992188 115.414062 140.691406 107.710938 140.691406 98.214844 C 140.691406 88.714844 132.992188 81.011719 123.492188 81.011719 Z M 123.492188 81.011719 " clip-rule="nonzero"/></clipPath></defs><g clip-path="url(#ebcca34f6a)"><g mask="url(#45d0fe6062)"><g><g clip-path="url(#96b53bfaed)"><g clip-path="url(#63f04669e5)"><g clip-path="url(#516cb27f28)"><path fill="#919191" d="M 0.0585938 0 L 269.710938 0 L 269.710938 369.722656 L 0.0585938 369.722656 Z M 0.0585938 0 " fill-opacity="1" fill-rule="nonzero"/></g></g></g></g></g></g><g clip-path="url(#64b63ec469)"><path stroke-linecap="round" transform="matrix(0.138425, -0.736086, 0.736086, 0.138425, 82.14738, 233.815723)" fill="none" stroke-linejoin="miter" d="M 14.999141 15.00094 L 140.828251 15.001042 " stroke="#004aad" stroke-width="30" stroke-opacity="1" stroke-miterlimit="4"/></g><path stroke-linecap="round" transform="matrix(0.748989, 0.000000000000000793, -0.000000000000000793, 0.748989, 83.273409, 220.91295)" fill="none" stroke-linejoin="miter" d="M 9.997888 9.999336 L 97.391717 9.999336 " stroke="#004aad" stroke-width="20" stroke-opacity="1" stroke-miterlimit="4"/><path stroke-linecap="round" transform="matrix(0.250671, 0.705797, -0.705797, 0.250671, 164.762486, 219.415499)" fill="none" stroke-linejoin="miter" d="M 10.000246 10.000493 L 81.190115 10.002551 " stroke="#004aad" stroke-width="20" stroke-opacity="1" stroke-miterlimit="4"/><g clip-path="url(#7df435364d)"><g clip-path="url(#fc973fae7c)"><path fill="#004aad" d="M 106.292969 81.011719 L 140.691406 81.011719 L 140.691406 115.414062 L 106.292969 115.414062 Z M 106.292969 81.011719 " fill-opacity="1" fill-rule="nonzero"/></g></g><path stroke-linecap="round" transform="matrix(0.519806, 0.539246, -0.539246, 0.519806, 118.232968, 119.624518)" fill="none" stroke-linejoin="miter" d="M 10.000273 9.999339 L 99.736343 10.000839 " stroke="#004aad" stroke-width="20" stroke-opacity="1" stroke-miterlimit="4"/></svg>