<svg xmlns="http://www.w3.org/2000/svg" xmlns:xlink="http://www.w3.org/1999/xlink" width="361" zoomAndPan="magnify" viewBox="0 0 270.75 370.499989" height="494" preserveAspectRatio="xMidYMid meet" version="1.0"><defs><filter x="0%" y="0%" width="100%" height="100%" id="b9818d540a"><feColorMatrix values="0 0 0 0 1 0 0 0 0 1 0 0 0 0 1 0 0 0 1 0" color-interpolation-filters="sRGB"/></filter><clipPath id="b712846af2"><path d="M 0.0585938 0 L 270 0 L 270 370 L 0.0585938 370 Z M 0.0585938 0 " clip-rule="nonzero"/></clipPath><mask id="6bf198f47f"><g filter="url(#b9818d540a)"><rect x="-27.075" width="324.9" fill="#000000" y="-37.049999" height="444.599987" fill-opacity="0.3"/></g></mask><clipPath id="e359a93500"><path d="M 0.0585938 0 L 269.710938 0 L 269.710938 370 L 0.0585938 370 Z M 0.0585938 0 " clip-rule="nonzero"/></clipPath><clipPath id="c74a30de71"><path d="M 17.285156 0 L 252.484375 0 C 257.054688 0 261.433594 1.816406 264.664062 5.046875 C 267.898438 8.277344 269.710938 12.65625 269.710938 17.226562 L 269.710938 352.574219 C 269.710938 357.144531 267.898438 361.523438 264.664062 364.757812 C 261.433594 367.988281 257.054688 369.800781 252.484375 369.800781 L 17.285156 369.800781 C 12.714844 369.800781 8.332031 367.988281 5.101562 364.757812 C 1.871094 361.523438 0.0585938 357.144531 0.0585938 352.574219 L 0.0585938 17.226562 C 0.0585938 12.65625 1.871094 8.277344 5.101562 5.046875 C 8.332031 1.816406 12.714844 0 17.285156 0 Z M 17.285156 0 " clip-rule="nonzero"/></clipPath><clipPath id="0ec8c41ef0"><rect x="0" width="270" y="0" height="370"/></clipPath><clipPath id="4587244721"><path d="M 0.0585938 0 L 270.441406 0 L 270.441406 370 L 0.0585938 370 Z M 0.0585938 0 " clip-rule="nonzero"/></clipPath><clipPath id="03266a52dc"><path d="M 67 53 L 270.441406 53 L 270.441406 353 L 67 353 Z M 67 53 " clip-rule="nonzero"/></clipPath><clipPath id="fe10374f79"><path d="M 151.972656 93.667969 L 187.679688 93.667969 L 187.679688 129.375 L 151.972656 129.375 Z M 151.972656 93.667969 " clip-rule="nonzero"/></clipPath><clipPath id="4254203e60"><path d="M 169.824219 93.667969 C 159.964844 93.667969 151.972656 101.660156 151.972656 111.523438 C 151.972656 121.382812 159.964844 129.375 169.824219 129.375 C 179.683594 129.375 187.679688 121.382812 187.679688 111.523438 C 187.679688 101.660156 179.683594 93.667969 169.824219 93.667969 Z M 169.824219 93.667969 " clip-rule="nonzero"/></clipPath><clipPath id="bd02776de4"><path d="M 0.0585938 85 L 249 85 L 249 347 L 0.0585938 347 Z M 0.0585938 85 " clip-rule="nonzero"/></clipPath><clipPath id="e1960cf7ed"><path d="M 0.0585938 87 L 210 87 L 210 370 L 0.0585938 370 Z M 0.0585938 87 " clip-rule="nonzero"/></clipPath></defs><g clip-path="url(#b712846af2)"><g mask="url(#6bf198f47f)"><g><g clip-path="url(#0ec8c41ef0)"><g clip-path="url(#e359a93500)"><g clip-path="url(#c74a30de71)"><path fill="#919191" d="M 0.0585938 0 L 269.710938 0 L 269.710938 369.722656 L 0.0585938 369.722656 Z M 0.0585938 0 " fill-opacity="1" fill-rule="nonzero"/></g></g></g></g></g></g><g clip-path="url(#4587244721)"><path stroke-linecap="round" transform="matrix(0.138425, -0.736086, 0.736086, 0.138425, 133.532154, 252.326315)" fill="none" stroke-linejoin="miter" d="M 19.997747 20.001855 L 135.828203 19.99835 " stroke="#0097b2" stroke-width="40" stroke-opacity="1" stroke-miterlimit="4"/></g><path stroke-linecap="round" transform="matrix(0.748989, 0, 0, 0.748989, 42.659859, 232.625736)" fill="none" stroke-linejoin="miter" d="M 14.99978 14.9984 L 137.357399 14.9984 " stroke="#0097b2" stroke-width="30" stroke-opacity="1" stroke-miterlimit="4"/><g clip-path="url(#03266a52dc)"><path stroke-linecap="round" transform="matrix(0.319103, 0.677612, -0.677612, 0.319103, 178.2179, 147.291864)" fill="none" stroke-linejoin="miter" d="M 12.500031 12.497431 L 140.711615 12.501117 " stroke="#0097b2" stroke-width="25" stroke-opacity="1" stroke-miterlimit="4"/></g><g clip-path="url(#fe10374f79)"><g clip-path="url(#4254203e60)"><path fill="#0097b2" d="M 151.972656 93.667969 L 187.679688 93.667969 L 187.679688 129.375 L 151.972656 129.375 Z M 151.972656 93.667969 " fill-opacity="1" fill-rule="nonzero"/></g></g><g clip-path="url(#bd02776de4)"><path stroke-linecap="round" transform="matrix(0.450543, 0.598328, -0.598328, 0.450543, 107.119043, 177.942782)" fill="none" stroke-linejoin="miter" d="M 12.502469 12.498999 L 95.512414 12.500789 " stroke="#0097b2" stroke-width="25" stroke-opacity="1" stroke-miterlimit="4"/></g><g clip-path="url(#e1960cf7ed)"><path stroke-linecap="round" transform="matrix(0.0348117, -0.74818, 0.74818, 0.0348117, 90.284329, 275.25741)" fill="none" stroke-linejoin="miter" d="M 12.500534 12.498092 L 109.402489 12.500336 " stroke="#0097b2" stroke-width="25" stroke-opacity="1" stroke-miterlimit="4"/></g></svg>