<svg xmlns="http://www.w3.org/2000/svg" xmlns:xlink="http://www.w3.org/1999/xlink" width="361" zoomAndPan="magnify" viewBox="0 0 270.75 370.499989" height="494" preserveAspectRatio="xMidYMid meet" version="1.0"><defs><filter x="0%" y="0%" width="100%" height="100%" id="9c2eb7e71a"><feColorMatrix values="0 0 0 0 1 0 0 0 0 1 0 0 0 0 1 0 0 0 1 0" color-interpolation-filters="sRGB"/></filter><clipPath id="f359e0d60a"><path d="M 0.0585938 0 L 270 0 L 270 370 L 0.0585938 370 Z M 0.0585938 0 " clip-rule="nonzero"/></clipPath><mask id="5ceacb2507"><g filter="url(#9c2eb7e71a)"><rect x="-27.075" width="324.9" fill="#000000" y="-37.049999" height="444.599987" fill-opacity="0.3"/></g></mask><clipPath id="bf5a6d760f"><path d="M 0.0585938 0 L 269.710938 0 L 269.710938 370 L 0.0585938 370 Z M 0.0585938 0 " clip-rule="nonzero"/></clipPath><clipPath id="cc415a7734"><path d="M 17.285156 0 L 252.484375 0 C 257.054688 0 261.433594 1.816406 264.664062 5.046875 C 267.898438 8.277344 269.710938 12.65625 269.710938 17.226562 L 269.710938 352.574219 C 269.710938 357.144531 267.898438 361.523438 264.664062 364.757812 C 261.433594 367.988281 257.054688 369.800781 252.484375 369.800781 L 17.285156 369.800781 C 12.714844 369.800781 8.332031 367.988281 5.101562 364.757812 C 1.871094 361.523438 0.0585938 357.144531 0.0585938 352.574219 L 0.0585938 17.226562 C 0.0585938 12.65625 1.871094 8.277344 5.101562 5.046875 C 8.332031 1.816406 12.714844 0 17.285156 0 Z M 17.285156 0 " clip-rule="nonzero"/></clipPath><clipPath id="4740c8e35a"><rect x="0" width="270" y="0" height="370"/></clipPath><clipPath id="aef2e32f9e"><path d="M 133.375 98.671875 L 216.683594 98.671875 L 216.683594 215 L 133.375 215 Z M 133.375 98.671875 " clip-rule="nonzero"/></clipPath><clipPath id="998cd3dcc5"><path d="M 150.601562 98.671875 L 199.457031 98.671875 C 204.023438 98.671875 208.40625 100.484375 211.636719 103.71875 C 214.867188 106.949219 216.683594 111.328125 216.683594 115.898438 L 216.683594 197.710938 C 216.683594 202.28125 214.867188 206.664062 211.636719 209.894531 C 208.40625 213.125 204.023438 214.9375 199.457031 214.9375 L 150.601562 214.9375 C 146.03125 214.9375 141.648438 213.125 138.417969 209.894531 C 135.1875 206.664062 133.375 202.28125 133.375 197.710938 L 133.375 115.898438 C 133.375 111.328125 135.1875 106.949219 138.417969 103.71875 C 141.648438 100.484375 146.03125 98.671875 150.601562 98.671875 Z M 150.601562 98.671875 " clip-rule="nonzero"/></clipPath><clipPath id="58ba43f674"><path d="M 87.3125 98.234375 L 204.011719 98.234375 L 204.011719 214.9375 L 87.3125 214.9375 Z M 87.3125 98.234375 " clip-rule="nonzero"/></clipPath><clipPath id="b78f51ee97"><path d="M 145.664062 98.234375 C 113.433594 98.234375 87.3125 124.359375 87.3125 156.585938 C 87.3125 188.8125 113.433594 214.9375 145.664062 214.9375 C 177.890625 214.9375 204.011719 188.8125 204.011719 156.585938 C 204.011719 124.359375 177.890625 98.234375 145.664062 98.234375 Z M 145.664062 98.234375 " clip-rule="nonzero"/></clipPath><clipPath id="76f0082977"><path d="M 47.03125 125.523438 L 80.125 125.523438 L 80.125 195.195312 L 47.03125 195.195312 Z M 47.03125 125.523438 " clip-rule="nonzero"/></clipPath><clipPath id="6c5ec44608"><path d="M 112 162 L 179 162 L 179 267 L 112 267 Z M 112 162 " clip-rule="nonzero"/></clipPath><clipPath id="1fda4faced"><path d="M 107.011719 171.03125 L 137.695312 156.800781 L 184.324219 257.359375 L 153.640625 271.589844 Z M 107.011719 171.03125 " clip-rule="nonzero"/></clipPath><clipPath id="550585d9c6"><path d="M 122.351562 163.917969 C 130.824219 159.988281 140.878906 163.671875 144.808594 172.144531 L 177.199219 241.996094 C 181.125 250.46875 177.441406 260.519531 168.96875 264.449219 C 160.496094 268.378906 150.445312 264.695312 146.515625 256.222656 L 114.125 186.371094 C 110.195312 177.898438 113.878906 167.84375 122.351562 163.917969 Z M 122.351562 163.917969 " clip-rule="nonzero"/></clipPath><clipPath id="7b8f5d2d4f"><path d="M 186.8125 100.917969 L 221.214844 100.917969 L 221.214844 135.320312 L 186.8125 135.320312 Z M 186.8125 100.917969 " clip-rule="nonzero"/></clipPath><clipPath id="071bb839e1"><path d="M 204.015625 100.917969 C 194.515625 100.917969 186.8125 108.621094 186.8125 118.117188 C 186.8125 127.617188 194.515625 135.320312 204.015625 135.320312 C 213.511719 135.320312 221.214844 127.617188 221.214844 118.117188 C 221.214844 108.621094 213.511719 100.917969 204.015625 100.917969 Z M 204.015625 100.917969 " clip-rule="nonzero"/></clipPath><clipPath id="be05ef0a81"><path d="M 188.335938 129.34375 L 222.738281 129.34375 L 222.738281 163.746094 L 188.335938 163.746094 Z M 188.335938 129.34375 " clip-rule="nonzero"/></clipPath><clipPath id="90613b759d"><path d="M 205.539062 129.34375 C 196.039062 129.34375 188.335938 137.046875 188.335938 146.546875 C 188.335938 156.046875 196.039062 163.746094 205.539062 163.746094 C 215.039062 163.746094 222.738281 156.046875 222.738281 146.546875 C 222.738281 137.046875 215.039062 129.34375 205.539062 129.34375 Z M 205.539062 129.34375 " clip-rule="nonzero"/></clipPath><clipPath id="bb92260da3"><path d="M 188.335938 154.261719 L 222.738281 154.261719 L 222.738281 188.664062 L 188.335938 188.664062 Z M 188.335938 154.261719 " clip-rule="nonzero"/></clipPath><clipPath id="1ecba338cb"><path d="M 205.539062 154.261719 C 196.039062 154.261719 188.335938 161.960938 188.335938 171.460938 C 188.335938 180.960938 196.039062 188.664062 205.539062 188.664062 C 215.039062 188.664062 222.738281 180.960938 222.738281 171.460938 C 222.738281 161.960938 215.039062 154.261719 205.539062 154.261719 Z M 205.539062 154.261719 " clip-rule="nonzero"/></clipPath><clipPath id="13eb753bce"><path d="M 188.335938 177.996094 L 222.738281 177.996094 L 222.738281 212.394531 L 188.335938 212.394531 Z M 188.335938 177.996094 " clip-rule="nonzero"/></clipPath><clipPath id="5ae9c1533e"><path d="M 205.539062 177.996094 C 196.039062 177.996094 188.335938 185.695312 188.335938 195.195312 C 188.335938 204.695312 196.039062 212.394531 205.539062 212.394531 C 215.039062 212.394531 222.738281 204.695312 222.738281 195.195312 C 222.738281 185.695312 215.039062 177.996094 205.539062 177.996094 Z M 205.539062 177.996094 " clip-rule="nonzero"/></clipPath></defs><g clip-path="url(#f359e0d60a)"><g mask="url(#5ceacb2507)"><g><g clip-path="url(#4740c8e35a)"><g clip-path="url(#bf5a6d760f)"><g clip-path="url(#cc415a7734)"><path fill="#919191" d="M 0.0585938 0 L 269.710938 0 L 269.710938 369.722656 L 0.0585938 369.722656 Z M 0.0585938 0 " fill-opacity="1" fill-rule="nonzero"/></g></g></g></g></g></g><g clip-path="url(#aef2e32f9e)"><g clip-path="url(#998cd3dcc5)"><path fill="#ff3131" d="M 133.375 98.671875 L 216.683594 98.671875 L 216.683594 214.847656 L 133.375 214.847656 Z M 133.375 98.671875 " fill-opacity="1" fill-rule="nonzero"/></g></g><g clip-path="url(#58ba43f674)"><g clip-path="url(#b78f51ee97)"><path fill="#ff3131" d="M 87.3125 98.234375 L 204.011719 98.234375 L 204.011719 214.9375 L 87.3125 214.9375 Z M 87.3125 98.234375 " fill-opacity="1" fill-rule="nonzero"/></g></g><g clip-path="url(#76f0082977)"><path fill="#ff3131" d="M 47.03125 125.523438 L 80.125 125.523438 L 80.125 195.203125 L 47.03125 195.203125 Z M 47.03125 125.523438 " fill-opacity="1" fill-rule="nonzero"/></g><g clip-path="url(#6c5ec44608)"><g clip-path="url(#1fda4faced)"><g clip-path="url(#550585d9c6)"><path fill="#ff3131" d="M 107.011719 171.03125 L 137.695312 156.800781 L 184.324219 257.359375 L 153.640625 271.589844 Z M 107.011719 171.03125 " fill-opacity="1" fill-rule="nonzero"/></g></g></g><g clip-path="url(#7b8f5d2d4f)"><g clip-path="url(#071bb839e1)"><path fill="#ff3131" d="M 186.8125 100.917969 L 221.214844 100.917969 L 221.214844 135.320312 L 186.8125 135.320312 Z M 186.8125 100.917969 " fill-opacity="1" fill-rule="nonzero"/></g></g><g clip-path="url(#be05ef0a81)"><g clip-path="url(#90613b759d)"><path fill="#ff3131" d="M 188.335938 129.34375 L 222.738281 129.34375 L 222.738281 163.746094 L 188.335938 163.746094 Z M 188.335938 129.34375 " fill-opacity="1" fill-rule="nonzero"/></g></g><g clip-path="url(#bb92260da3)"><g clip-path="url(#1ecba338cb)"><path fill="#ff3131" d="M 188.335938 154.261719 L 222.738281 154.261719 L 222.738281 188.664062 L 188.335938 188.664062 Z M 188.335938 154.261719 " fill-opacity="1" fill-rule="nonzero"/></g></g><g clip-path="url(#13eb753bce)"><g clip-path="url(#5ae9c1533e)"><path fill="#ff3131" d="M 188.335938 177.996094 L 222.738281 177.996094 L 222.738281 212.394531 L 188.335938 212.394531 Z M 188.335938 177.996094 " fill-opacity="1" fill-rule="nonzero"/></g></g></svg>