<svg xmlns="http://www.w3.org/2000/svg" xmlns:xlink="http://www.w3.org/1999/xlink" width="361" zoomAndPan="magnify" viewBox="0 0 270.75 370.499989" height="494" preserveAspectRatio="xMidYMid meet" version="1.0"><defs><filter x="0%" y="0%" width="100%" height="100%" id="351a003408"><feColorMatrix values="0 0 0 0 1 0 0 0 0 1 0 0 0 0 1 0 0 0 1 0" color-interpolation-filters="sRGB"/></filter><clipPath id="53aeab7b4e"><path d="M 0.0585938 0 L 270 0 L 270 370 L 0.0585938 370 Z M 0.0585938 0 " clip-rule="nonzero"/></clipPath><mask id="c0a469c446"><g filter="url(#351a003408)"><rect x="-27.075" width="324.9" fill="#000000" y="-37.049999" height="444.599987" fill-opacity="0.3"/></g></mask><clipPath id="be17b15355"><path d="M 0.0585938 0 L 269.710938 0 L 269.710938 370 L 0.0585938 370 Z M 0.0585938 0 " clip-rule="nonzero"/></clipPath><clipPath id="b88281e925"><path d="M 17.285156 0 L 252.484375 0 C 257.054688 0 261.433594 1.816406 264.664062 5.046875 C 267.898438 8.277344 269.710938 12.65625 269.710938 17.226562 L 269.710938 352.574219 C 269.710938 357.144531 267.898438 361.523438 264.664062 364.757812 C 261.433594 367.988281 257.054688 369.800781 252.484375 369.800781 L 17.285156 369.800781 C 12.714844 369.800781 8.332031 367.988281 5.101562 364.757812 C 1.871094 361.523438 0.0585938 357.144531 0.0585938 352.574219 L 0.0585938 17.226562 C 0.0585938 12.65625 1.871094 8.277344 5.101562 5.046875 C 8.332031 1.816406 12.714844 0 17.285156 0 Z M 17.285156 0 " clip-rule="nonzero"/></clipPath><clipPath id="df33a12105"><rect x="0" width="270" y="0" height="370"/></clipPath><clipPath id="e21b7fd7b6"><path d="M 77.238281 97.0625 L 192.523438 97.0625 L 192.523438 273 L 77.238281 273 Z M 77.238281 97.0625 " clip-rule="nonzero"/></clipPath><clipPath id="065be01069"><path d="M 192.523438 196.808594 C 192.523438 198.734375 192.523438 200.675781 192.523438 202.597656 C 190.601562 217.929688 184.191406 227.511719 173.703125 231.875 C 175.101562 257.4375 155.269531 276.023438 135.804688 264.695312 C 131.714844 268.464844 127.140625 271.605469 121 272.742188 C 119.242188 272.742188 117.484375 272.742188 115.726562 272.742188 C 100.097656 269.359375 89.539062 254.808594 92.382812 230.917969 C 84.355469 224.769531 76.320312 213.832031 77.320312 196.8125 C 77.847656 188.015625 80.898438 181.894531 84.605469 176.535156 C 81.527344 170.890625 79.105469 164.78125 79.082031 155.949219 C 79.035156 135.515625 90.90625 121.847656 107.191406 121.515625 C 111 108.382812 118.109375 99.484375 130.277344 97.0625 C 132.035156 97.0625 133.800781 97.0625 135.550781 97.0625 C 147.609375 99.738281 155.183594 108.148438 158.390625 122.15625 C 178.730469 121.316406 191.441406 149.332031 182.480469 172.351562 C 186.910156 177.832031 191.746094 185.585938 192.523438 196.808594 Z M 192.523438 196.808594 " clip-rule="nonzero"/></clipPath></defs><g clip-path="url(#53aeab7b4e)"><g mask="url(#c0a469c446)"><g><g clip-path="url(#df33a12105)"><g clip-path="url(#be17b15355)"><g clip-path="url(#b88281e925)"><path fill="#919191" d="M 0.0585938 0 L 269.710938 0 L 269.710938 369.722656 L 0.0585938 369.722656 Z M 0.0585938 0 " fill-opacity="1" fill-rule="nonzero"/></g></g></g></g></g></g><g clip-path="url(#e21b7fd7b6)"><g clip-path="url(#065be01069)"><path fill="#004aad" d="M 192.523438 97.0625 L 192.523438 272.699219 L 77.238281 272.699219 L 77.238281 97.0625 Z M 192.523438 97.0625 " fill-opacity="1" fill-rule="nonzero"/></g></g></svg>