<svg xmlns="http://www.w3.org/2000/svg" xmlns:xlink="http://www.w3.org/1999/xlink" width="361" zoomAndPan="magnify" viewBox="0 0 270.75 370.499989" height="494" preserveAspectRatio="xMidYMid meet" version="1.0"><defs><filter x="0%" y="0%" width="100%" height="100%" id="784bf99661"><feColorMatrix values="0 0 0 0 1 0 0 0 0 1 0 0 0 0 1 0 0 0 1 0" color-interpolation-filters="sRGB"/></filter><clipPath id="1183f9ec07"><path d="M 0.0585938 0 L 270 0 L 270 370 L 0.0585938 370 Z M 0.0585938 0 " clip-rule="nonzero"/></clipPath><mask id="2632649cee"><g filter="url(#784bf99661)"><rect x="-27.075" width="324.9" fill="#000000" y="-37.049999" height="444.599987" fill-opacity="0.3"/></g></mask><clipPath id="8cd085b342"><path d="M 0.0585938 0 L 269.710938 0 L 269.710938 370 L 0.0585938 370 Z M 0.0585938 0 " clip-rule="nonzero"/></clipPath><clipPath id="e21ba43b94"><path d="M 17.285156 0 L 252.484375 0 C 257.054688 0 261.433594 1.816406 264.664062 5.046875 C 267.898438 8.277344 269.710938 12.65625 269.710938 17.226562 L 269.710938 352.574219 C 269.710938 357.144531 267.898438 361.523438 264.664062 364.757812 C 261.433594 367.988281 257.054688 369.800781 252.484375 369.800781 L 17.285156 369.800781 C 12.714844 369.800781 8.332031 367.988281 5.101562 364.757812 C 1.871094 361.523438 0.0585938 357.144531 0.0585938 352.574219 L 0.0585938 17.226562 C 0.0585938 12.65625 1.871094 8.277344 5.101562 5.046875 C 8.332031 1.816406 12.714844 0 17.285156 0 Z M 17.285156 0 " clip-rule="nonzero"/></clipPath><clipPath id="da1f40ab47"><rect x="0" width="270" y="0" height="370"/></clipPath><clipPath id="eef39c7a3e"><path d="M 53.96875 123.296875 L 118.257812 123.296875 L 118.257812 215.707031 L 53.96875 215.707031 Z M 53.96875 123.296875 " clip-rule="nonzero"/></clipPath><clipPath id="97e604d44e"><path d="M 86.113281 123.296875 L 118.257812 215.691406 L 53.96875 215.691406 Z M 86.113281 123.296875 " clip-rule="nonzero"/></clipPath><clipPath id="1ff5eaba12"><path d="M 86.113281 123.296875 L 150.398438 123.296875 L 150.398438 215.707031 L 86.113281 215.707031 Z M 86.113281 123.296875 " clip-rule="nonzero"/></clipPath><clipPath id="5132fa1240"><path d="M 118.257812 123.296875 L 150.398438 215.691406 L 86.113281 215.691406 Z M 118.257812 123.296875 " clip-rule="nonzero"/></clipPath><clipPath id="9475876d5f"><path d="M 118.257812 123.296875 L 182.542969 123.296875 L 182.542969 215.707031 L 118.257812 215.707031 Z M 118.257812 123.296875 " clip-rule="nonzero"/></clipPath><clipPath id="c50cd8c0b8"><path d="M 150.398438 123.296875 L 182.542969 215.691406 L 118.257812 215.691406 Z M 150.398438 123.296875 " clip-rule="nonzero"/></clipPath><clipPath id="8e231d9756"><path d="M 151.511719 123.296875 L 215.800781 123.296875 L 215.800781 215.707031 L 151.511719 215.707031 Z M 151.511719 123.296875 " clip-rule="nonzero"/></clipPath><clipPath id="a765d98e54"><path d="M 183.65625 123.296875 L 215.800781 215.691406 L 151.511719 215.691406 Z M 183.65625 123.296875 " clip-rule="nonzero"/></clipPath><clipPath id="d9f2592714"><path d="M 53.96875 196.964844 L 215.9375 196.964844 L 215.9375 246.503906 L 53.96875 246.503906 Z M 53.96875 196.964844 " clip-rule="nonzero"/></clipPath><clipPath id="75470470ed"><path d="M 71.195312 196.964844 L 198.570312 196.964844 C 203.140625 196.964844 207.523438 198.78125 210.753906 202.011719 C 213.984375 205.242188 215.800781 209.625 215.800781 214.191406 L 215.800781 229.277344 C 215.800781 233.847656 213.984375 238.226562 210.753906 241.457031 C 207.523438 244.6875 203.140625 246.503906 198.570312 246.503906 L 71.195312 246.503906 C 66.628906 246.503906 62.246094 244.6875 59.015625 241.457031 C 55.785156 238.226562 53.96875 233.847656 53.96875 229.277344 L 53.96875 214.191406 C 53.96875 209.625 55.785156 205.242188 59.015625 202.011719 C 62.246094 198.78125 66.628906 196.964844 71.195312 196.964844 Z M 71.195312 196.964844 " clip-rule="nonzero"/></clipPath></defs><g clip-path="url(#1183f9ec07)"><g mask="url(#2632649cee)"><g><g clip-path="url(#da1f40ab47)"><g clip-path="url(#8cd085b342)"><g clip-path="url(#e21ba43b94)"><path fill="#919191" d="M 0.0585938 0 L 269.710938 0 L 269.710938 369.722656 L 0.0585938 369.722656 Z M 0.0585938 0 " fill-opacity="1" fill-rule="nonzero"/></g></g></g></g></g></g><g clip-path="url(#eef39c7a3e)"><g clip-path="url(#97e604d44e)"><path fill="#0097b2" d="M 53.96875 123.296875 L 118.257812 123.296875 L 118.257812 215.707031 L 53.96875 215.707031 Z M 53.96875 123.296875 " fill-opacity="1" fill-rule="nonzero"/></g></g><g clip-path="url(#1ff5eaba12)"><g clip-path="url(#5132fa1240)"><path fill="#0097b2" d="M 86.113281 123.296875 L 150.398438 123.296875 L 150.398438 215.707031 L 86.113281 215.707031 Z M 86.113281 123.296875 " fill-opacity="1" fill-rule="nonzero"/></g></g><g clip-path="url(#9475876d5f)"><g clip-path="url(#c50cd8c0b8)"><path fill="#0097b2" d="M 118.257812 123.296875 L 182.542969 123.296875 L 182.542969 215.707031 L 118.257812 215.707031 Z M 118.257812 123.296875 " fill-opacity="1" fill-rule="nonzero"/></g></g><g clip-path="url(#8e231d9756)"><g clip-path="url(#a765d98e54)"><path fill="#0097b2" d="M 151.511719 123.296875 L 215.800781 123.296875 L 215.800781 215.707031 L 151.511719 215.707031 Z M 151.511719 123.296875 " fill-opacity="1" fill-rule="nonzero"/></g></g><g clip-path="url(#d9f2592714)"><g clip-path="url(#75470470ed)"><path fill="#0097b2" d="M 53.96875 196.964844 L 215.742188 196.964844 L 215.742188 246.503906 L 53.96875 246.503906 Z M 53.96875 196.964844 " fill-opacity="1" fill-rule="nonzero"/></g></g></svg>