<svg xmlns="http://www.w3.org/2000/svg" xmlns:xlink="http://www.w3.org/1999/xlink" width="361" zoomAndPan="magnify" viewBox="0 0 270.75 370.499989" height="494" preserveAspectRatio="xMidYMid meet" version="1.0"><defs><filter x="0%" y="0%" width="100%" height="100%" id="8ab09f76c6"><feColorMatrix values="0 0 0 0 1 0 0 0 0 1 0 0 0 0 1 0 0 0 1 0" color-interpolation-filters="sRGB"/></filter><clipPath id="bb6622dbdb"><path d="M 0.0585938 0 L 270 0 L 270 370 L 0.0585938 370 Z M 0.0585938 0 " clip-rule="nonzero"/></clipPath><mask id="3e1967db6c"><g filter="url(#8ab09f76c6)"><rect x="-27.075" width="324.9" fill="#000000" y="-37.049999" height="444.599987" fill-opacity="0.3"/></g></mask><clipPath id="1291ab5511"><path d="M 0.0585938 0 L 269.710938 0 L 269.710938 370 L 0.0585938 370 Z M 0.0585938 0 " clip-rule="nonzero"/></clipPath><clipPath id="72bcf69de1"><path d="M 17.285156 0 L 252.484375 0 C 257.054688 0 261.433594 1.816406 264.664062 5.046875 C 267.898438 8.277344 269.710938 12.65625 269.710938 17.226562 L 269.710938 352.574219 C 269.710938 357.144531 267.898438 361.523438 264.664062 364.757812 C 261.433594 367.988281 257.054688 369.800781 252.484375 369.800781 L 17.285156 369.800781 C 12.714844 369.800781 8.332031 367.988281 5.101562 364.757812 C 1.871094 361.523438 0.0585938 357.144531 0.0585938 352.574219 L 0.0585938 17.226562 C 0.0585938 12.65625 1.871094 8.277344 5.101562 5.046875 C 8.332031 1.816406 12.714844 0 17.285156 0 Z M 17.285156 0 " clip-rule="nonzero"/></clipPath><clipPath id="249207cce3"><rect x="0" width="270" y="0" height="370"/></clipPath><clipPath id="050830302b"><path d="M 55.195312 90.84375 L 214.566406 90.84375 L 214.566406 278.839844 L 55.195312 278.839844 Z M 55.195312 90.84375 " clip-rule="nonzero"/></clipPath></defs><g clip-path="url(#bb6622dbdb)"><g mask="url(#3e1967db6c)"><g><g clip-path="url(#249207cce3)"><g clip-path="url(#1291ab5511)"><g clip-path="url(#72bcf69de1)"><path fill="#919191" d="M 0.0585938 0 L 269.710938 0 L 269.710938 369.722656 L 0.0585938 369.722656 Z M 0.0585938 0 " fill-opacity="1" fill-rule="nonzero"/></g></g></g></g></g></g><g clip-path="url(#050830302b)"><path stroke-linecap="butt" transform="matrix(0.748989, 0, 0, 0.748989, 55.195615, 90.843427)" fill="none" stroke-linejoin="miter" d="M -0.000403586 0.000431793 L 212.781157 0.000431793 L 212.781157 251.151412 L -0.000403586 251.151412 Z M -0.000403586 0.000431793 " stroke="#00bf63" stroke-width="20" stroke-opacity="1" stroke-miterlimit="4"/></g></svg>