<svg xmlns="http://www.w3.org/2000/svg" xmlns:xlink="http://www.w3.org/1999/xlink" width="361" zoomAndPan="magnify" viewBox="0 0 270.75 370.499989" height="494" preserveAspectRatio="xMidYMid meet" version="1.0"><defs><filter x="0%" y="0%" width="100%" height="100%" id="95da3ed780"><feColorMatrix values="0 0 0 0 1 0 0 0 0 1 0 0 0 0 1 0 0 0 1 0" color-interpolation-filters="sRGB"/></filter><clipPath id="b16c469a4d"><path d="M 0.0585938 0 L 270 0 L 270 370 L 0.0585938 370 Z M 0.0585938 0 " clip-rule="nonzero"/></clipPath><mask id="87d55659e5"><g filter="url(#95da3ed780)"><rect x="-27.075" width="324.9" fill="#000000" y="-37.049999" height="444.599987" fill-opacity="0.1"/></g></mask><clipPath id="2bbd46a7a8"><path d="M 0.0585938 0 L 269.710938 0 L 269.710938 370 L 0.0585938 370 Z M 0.0585938 0 " clip-rule="nonzero"/></clipPath><clipPath id="ebe06df11e"><path d="M 17.285156 0 L 252.484375 0 C 257.054688 0 261.433594 1.816406 264.664062 5.046875 C 267.898438 8.277344 269.710938 12.65625 269.710938 17.226562 L 269.710938 352.574219 C 269.710938 357.144531 267.898438 361.523438 264.664062 364.757812 C 261.433594 367.988281 257.054688 369.800781 252.484375 369.800781 L 17.285156 369.800781 C 12.714844 369.800781 8.332031 367.988281 5.101562 364.757812 C 1.871094 361.523438 0.0585938 357.144531 0.0585938 352.574219 L 0.0585938 17.226562 C 0.0585938 12.65625 1.871094 8.277344 5.101562 5.046875 C 8.332031 1.816406 12.714844 0 17.285156 0 Z M 17.285156 0 " clip-rule="nonzero"/></clipPath><clipPath id="151bd139b0"><rect x="0" width="270" y="0" height="370"/></clipPath><clipPath id="02c13792ae"><path d="M 57.035156 67.109375 L 142.816406 67.109375 L 142.816406 152.890625 L 57.035156 152.890625 Z M 57.035156 67.109375 " clip-rule="nonzero"/></clipPath><clipPath id="b44a92ce73"><path d="M 142.816406 110 C 142.816406 86.3125 123.613281 67.109375 99.925781 67.109375 C 76.238281 67.109375 57.035156 86.3125 57.035156 110 C 57.035156 133.6875 76.238281 152.890625 99.925781 152.890625 C 123.613281 152.890625 142.816406 133.6875 142.816406 110 Z M 142.816406 110 " clip-rule="nonzero"/></clipPath><clipPath id="1263bd145e"><path d="M 57.035156 216.90625 L 142.816406 216.90625 L 142.816406 302.691406 L 57.035156 302.691406 Z M 57.035156 216.90625 " clip-rule="nonzero"/></clipPath><clipPath id="f0e744cd70"><path d="M 142.816406 259.796875 C 142.816406 236.109375 123.613281 216.90625 99.925781 216.90625 C 76.238281 216.90625 57.035156 236.109375 57.035156 259.796875 C 57.035156 283.488281 76.238281 302.691406 99.925781 302.691406 C 123.613281 302.691406 142.816406 283.488281 142.816406 259.796875 Z M 142.816406 259.796875 " clip-rule="nonzero"/></clipPath><clipPath id="c1deb55389"><path d="M 107 128 L 270.441406 128 L 270.441406 313 L 107 313 Z M 107 128 " clip-rule="nonzero"/></clipPath><clipPath id="f3b329f1e5"><path d="M 91.609375 159.125 L 116.328125 159.125 L 116.328125 183.84375 L 91.609375 183.84375 Z M 91.609375 159.125 " clip-rule="nonzero"/></clipPath><clipPath id="02a6fc35ea"><path d="M 116.328125 171.601562 C 116.328125 164.710938 110.742188 159.125 103.851562 159.125 C 96.960938 159.125 91.375 164.710938 91.375 171.601562 C 91.375 178.492188 96.960938 184.074219 103.851562 184.074219 C 110.742188 184.074219 116.328125 178.492188 116.328125 171.601562 Z M 116.328125 171.601562 " clip-rule="nonzero"/></clipPath></defs><g clip-path="url(#b16c469a4d)"><g mask="url(#87d55659e5)"><g><g clip-path="url(#151bd139b0)"><g clip-path="url(#2bbd46a7a8)"><g clip-path="url(#ebe06df11e)"><path fill="#919191" d="M 0.0585938 0 L 269.710938 0 L 269.710938 369.722656 L 0.0585938 369.722656 Z M 0.0585938 0 " fill-opacity="1" fill-rule="nonzero"/></g></g></g></g></g></g><g clip-path="url(#02c13792ae)"><g clip-path="url(#b44a92ce73)"><path stroke-linecap="butt" transform="matrix(0, 0.748989, -0.748989, 0, 142.816811, 67.109194)" fill="none" stroke-linejoin="miter" d="M 57.264921 0.000540252 C 25.638963 0.000540252 0.000241271 25.639262 0.000241271 57.26522 C 0.000241271 88.891179 25.638963 114.529901 57.264921 114.529901 C 88.89088 114.529901 114.529602 88.891179 114.529602 57.26522 C 114.529602 25.639262 88.89088 0.000540252 57.264921 0.000540252 Z M 57.264921 0.000540252 " stroke="#00bf63" stroke-width="20" stroke-opacity="1" stroke-miterlimit="4"/></g></g><g clip-path="url(#1263bd145e)"><g clip-path="url(#f0e744cd70)"><path stroke-linecap="butt" transform="matrix(0, 0.748989, -0.748989, 0, 142.816811, 216.907013)" fill="none" stroke-linejoin="miter" d="M 57.263662 0.000540252 C 25.637703 0.000540252 -0.00101856 25.639262 -0.00101856 57.26522 C -0.00101856 88.891179 25.637703 114.529901 57.263662 114.529901 C 88.894835 114.529901 114.533557 88.891179 114.533557 57.26522 C 114.533557 25.639262 88.894835 0.000540252 57.263662 0.000540252 Z M 57.263662 0.000540252 " stroke="#00bf63" stroke-width="20" stroke-opacity="1" stroke-miterlimit="4"/></g></g><path stroke-linecap="round" transform="matrix(0.649392, -0.373196, 0.373196, 0.649392, 101.24111, 254.573927)" fill="none" stroke-linejoin="miter" d="M 5.002831 4.998882 L 104.639111 4.999254 " stroke="#00bf63" stroke-width="10" stroke-opacity="1" stroke-miterlimit="4"/><path stroke-linecap="round" transform="matrix(0.668107, 0.338552, -0.338552, 0.668107, 102.563142, 178.751897)" fill="none" stroke-linejoin="miter" d="M 5 4.999945 L 107.880494 5.002401 " stroke="#00bf63" stroke-width="10" stroke-opacity="1" stroke-miterlimit="4"/><path stroke-linecap="round" transform="matrix(0, -0.748989, 0.748989, 0, 100.866944, 259.79605)" fill="none" stroke-linejoin="miter" d="M 5.000431 5.001858 L 98.308481 5.001858 " stroke="#00bf63" stroke-width="10" stroke-opacity="1" stroke-miterlimit="4"/><path stroke-linecap="round" transform="matrix(0.0871527, -0.743901, 0.743901, 0.0871527, 169.774935, 219.431063)" fill="none" stroke-linejoin="miter" d="M 4.998438 4.999488 L 103.544768 5.001184 " stroke="#00bf63" stroke-width="10" stroke-opacity="1" stroke-miterlimit="4"/><path stroke-linecap="round" transform="matrix(0.718287, 0.212247, -0.212247, 0.718287, 98.741536, 108.175963)" fill="none" stroke-linejoin="miter" d="M 5.001985 4.998709 L 149.307165 4.999584 " stroke="#00bf63" stroke-width="10" stroke-opacity="1" stroke-miterlimit="4"/><g clip-path="url(#c1deb55389)"><path stroke-linecap="round" transform="matrix(0.125427, -0.738412, 0.738412, 0.125427, 183.78583, 233.752146)" fill="none" stroke-linejoin="miter" d="M 10.001928 10.001779 L 29.818255 10.000247 " stroke="#00bf63" stroke-width="20" stroke-opacity="1" stroke-miterlimit="4"/></g><g clip-path="url(#f3b329f1e5)"><g clip-path="url(#02a6fc35ea)"><path stroke-linecap="butt" transform="matrix(0, 0.748989, -0.748989, 0, 116.327032, 159.125322)" fill="none" stroke-linejoin="miter" d="M 16.657438 -0.00145947 C 7.457538 -0.00145947 -0.000430187 7.456509 -0.000430187 16.656408 C -0.000430187 25.856308 7.457538 33.314276 16.657438 33.314276 C 25.857337 33.314276 33.31009 25.856308 33.31009 16.656408 C 33.31009 7.456509 25.857337 -0.00145947 16.657438 -0.00145947 Z M 16.657438 -0.00145947 " stroke="#00bf63" stroke-width="12" stroke-opacity="1" stroke-miterlimit="4"/></g></g><path stroke-linecap="round" transform="matrix(0.675333, -0.323899, 0.323899, 0.675333, 111.723608, 166.741212)" fill="none" stroke-linejoin="miter" d="M 4.997844 5.001361 L 95.683701 4.998446 " stroke="#00bf63" stroke-width="10" stroke-opacity="1" stroke-miterlimit="4"/></svg>