<svg xmlns="http://www.w3.org/2000/svg" xmlns:xlink="http://www.w3.org/1999/xlink" width="361" zoomAndPan="magnify" viewBox="0 0 270.75 370.499989" height="494" preserveAspectRatio="xMidYMid meet" version="1.0"><defs><filter x="0%" y="0%" width="100%" height="100%" id="301bde27b4"><feColorMatrix values="0 0 0 0 1 0 0 0 0 1 0 0 0 0 1 0 0 0 1 0" color-interpolation-filters="sRGB"/></filter><clipPath id="432ce3771e"><path d="M 0.0585938 0 L 270 0 L 270 370 L 0.0585938 370 Z M 0.0585938 0 " clip-rule="nonzero"/></clipPath><mask id="8fbd59459d"><g filter="url(#301bde27b4)"><rect x="-27.075" width="324.9" fill="#000000" y="-37.049999" height="444.599987" fill-opacity="0.3"/></g></mask><clipPath id="7256f9c010"><path d="M 0.0585938 0.00390625 L 269.710938 0.00390625 L 269.710938 370 L 0.0585938 370 Z M 0.0585938 0.00390625 " clip-rule="nonzero"/></clipPath><clipPath id="aaefdc4739"><path d="M 17.285156 0.00390625 L 252.484375 0.00390625 C 257.054688 0.00390625 261.433594 1.820312 264.664062 5.050781 C 267.898438 8.28125 269.710938 12.664062 269.710938 17.230469 L 269.710938 352.582031 C 269.710938 357.148438 267.898438 361.53125 264.664062 364.761719 C 261.433594 367.992188 257.054688 369.808594 252.484375 369.808594 L 17.285156 369.808594 C 12.714844 369.808594 8.332031 367.992188 5.101562 364.761719 C 1.871094 361.53125 0.0585938 357.148438 0.0585938 352.582031 L 0.0585938 17.230469 C 0.0585938 12.664062 1.871094 8.28125 5.101562 5.050781 C 8.332031 1.820312 12.714844 0.00390625 17.285156 0.00390625 Z M 17.285156 0.00390625 " clip-rule="nonzero"/></clipPath><clipPath id="0bdf24f4ca"><rect x="0" width="270" y="0" height="370"/></clipPath><clipPath id="5b8c1fce99"><path d="M 57.027344 67.113281 L 142.8125 67.113281 L 142.8125 152.894531 L 57.027344 152.894531 Z M 57.027344 67.113281 " clip-rule="nonzero"/></clipPath><clipPath id="1e17423f58"><path d="M 142.8125 110.003906 C 142.8125 86.316406 123.609375 67.113281 99.917969 67.113281 C 76.230469 67.113281 57.027344 86.316406 57.027344 110.003906 C 57.027344 133.691406 76.230469 152.894531 99.917969 152.894531 C 123.609375 152.894531 142.8125 133.691406 142.8125 110.003906 Z M 142.8125 110.003906 " clip-rule="nonzero"/></clipPath><clipPath id="4f26c04114"><path d="M 57.027344 216.910156 L 142.8125 216.910156 L 142.8125 302.691406 L 57.027344 302.691406 Z M 57.027344 216.910156 " clip-rule="nonzero"/></clipPath><clipPath id="dbf20fec3f"><path d="M 142.8125 259.800781 C 142.8125 236.113281 123.609375 216.910156 99.917969 216.910156 C 76.230469 216.910156 57.027344 236.113281 57.027344 259.800781 C 57.027344 283.488281 76.230469 302.691406 99.917969 302.691406 C 123.609375 302.691406 142.8125 283.488281 142.8125 259.800781 Z M 142.8125 259.800781 " clip-rule="nonzero"/></clipPath><clipPath id="fcee690715"><path d="M 107 128 L 270.441406 128 L 270.441406 313 L 107 313 Z M 107 128 " clip-rule="nonzero"/></clipPath><clipPath id="37b74d7730"><path d="M 91.613281 159.128906 L 116.328125 159.128906 L 116.328125 183.84375 L 91.613281 183.84375 Z M 91.613281 159.128906 " clip-rule="nonzero"/></clipPath><clipPath id="0c3b282395"><path d="M 116.328125 171.601562 C 116.328125 164.714844 110.742188 159.128906 103.851562 159.128906 C 96.960938 159.128906 91.378906 164.714844 91.378906 171.601562 C 91.378906 178.492188 96.960938 184.078125 103.851562 184.078125 C 110.742188 184.078125 116.328125 178.492188 116.328125 171.601562 Z M 116.328125 171.601562 " clip-rule="nonzero"/></clipPath></defs><g clip-path="url(#432ce3771e)"><g mask="url(#8fbd59459d)"><g><g clip-path="url(#0bdf24f4ca)"><g clip-path="url(#7256f9c010)"><g clip-path="url(#aaefdc4739)"><path fill="#919191" d="M 0.0585938 0.00390625 L 269.710938 0.00390625 L 269.710938 369.726562 L 0.0585938 369.726562 Z M 0.0585938 0.00390625 " fill-opacity="1" fill-rule="nonzero"/></g></g></g></g></g></g><g clip-path="url(#5b8c1fce99)"><g clip-path="url(#1e17423f58)"><path stroke-linecap="butt" transform="matrix(0, 0.748989, -0.748989, 0, 142.810668, 67.111946)" fill="none" stroke-linejoin="miter" d="M 57.266463 -0.00244599 C 25.640505 -0.00244599 0.00178303 25.636276 0.00178303 57.26745 C 0.00178303 88.893408 25.640505 114.53213 57.266463 114.53213 C 88.892421 114.53213 114.531143 88.893408 114.531143 57.26745 C 114.531143 25.636276 88.892421 -0.00244599 57.266463 -0.00244599 Z M 57.266463 -0.00244599 " stroke="#00bf63" stroke-width="20" stroke-opacity="1" stroke-miterlimit="4"/></g></g><g clip-path="url(#4f26c04114)"><g clip-path="url(#dbf20fec3f)"><path stroke-linecap="butt" transform="matrix(0, 0.748989, -0.748989, 0, 142.810668, 216.909764)" fill="none" stroke-linejoin="miter" d="M 57.265203 -0.00244599 C 25.639245 -0.00244599 0.000523207 25.636276 0.000523207 57.26745 C 0.000523207 88.893408 25.639245 114.53213 57.265203 114.53213 C 88.891162 114.53213 114.529884 88.893408 114.529884 57.26745 C 114.529884 25.636276 88.891162 -0.00244599 57.265203 -0.00244599 Z M 57.265203 -0.00244599 " stroke="#00bf63" stroke-width="20" stroke-opacity="1" stroke-miterlimit="4"/></g></g><path stroke-linecap="round" transform="matrix(0.649392, -0.373196, 0.373196, 0.649392, 101.236825, 254.572084)" fill="none" stroke-linejoin="miter" d="M 5.002043 5.001267 L 104.638324 5.00164 " stroke="#00bf63" stroke-width="10" stroke-opacity="1" stroke-miterlimit="4"/><path stroke-linecap="round" transform="matrix(0.668107, 0.338552, -0.338552, 0.668107, 102.556287, 178.752642)" fill="none" stroke-linejoin="miter" d="M 4.99841 4.999636 L 107.878904 5.002091 " stroke="#00bf63" stroke-width="10" stroke-opacity="1" stroke-miterlimit="4"/><path stroke-linecap="round" transform="matrix(-0.00000000130723, -0.748989, 0.748989, -0.00000000130723, 100.861745, 259.795173)" fill="none" stroke-linejoin="miter" d="M 4.99926 4.998368 L 98.30731 4.998368 " stroke="#00bf63" stroke-width="10" stroke-opacity="1" stroke-miterlimit="4"/><path stroke-linecap="round" transform="matrix(0.0871527, -0.743901, 0.743901, 0.0871527, 169.770913, 219.428985)" fill="none" stroke-linejoin="miter" d="M 5.000881 4.999357 L 103.542031 5.00166 " stroke="#00bf63" stroke-width="10" stroke-opacity="1" stroke-miterlimit="4"/><path stroke-linecap="round" transform="matrix(0.718287, 0.212247, -0.212247, 0.718287, 98.736905, 108.174487)" fill="none" stroke-linejoin="miter" d="M 4.998469 5.001803 L 149.308651 5.0012 " stroke="#00bf63" stroke-width="10" stroke-opacity="1" stroke-miterlimit="4"/><path stroke-linecap="round" transform="matrix(0.0244226, -0.748591, 0.748591, 0.0244226, 202.794298, 148.52382)" fill="none" stroke-linejoin="miter" d="M 5.998883 6.00166 L 32.851437 6.00225 " stroke="#00bf63" stroke-width="12" stroke-opacity="1" stroke-miterlimit="4"/><g clip-path="url(#fcee690715)"><path stroke-linecap="round" transform="matrix(0.125427, -0.738412, 0.738412, 0.125427, 183.779527, 233.75235)" fill="none" stroke-linejoin="miter" d="M 10.001859 9.999747 L 29.818186 9.998216 " stroke="#00bf63" stroke-width="20" stroke-opacity="1" stroke-miterlimit="4"/></g><g clip-path="url(#37b74d7730)"><g clip-path="url(#0c3b282395)"><path stroke-linecap="butt" transform="matrix(0, 0.748989, -0.748989, 0, 116.328173, 159.128059)" fill="none" stroke-linejoin="miter" d="M 16.653783 0.0000637332 C 7.459099 0.0000637332 0.00113078 7.458032 0.00113078 16.657932 C 0.00113078 25.857831 7.459099 33.310584 16.653783 33.310584 C 25.853683 33.310584 33.311651 25.857831 33.311651 16.657932 C 33.311651 7.458032 25.853683 0.0000637332 16.653783 0.0000637332 Z M 16.653783 0.0000637332 " stroke="#00bf63" stroke-width="12" stroke-opacity="1" stroke-miterlimit="4"/></g></g><path stroke-linecap="round" transform="matrix(0.675333, -0.323899, 0.323899, 0.675333, 111.719497, 166.739237)" fill="none" stroke-linejoin="miter" d="M 4.999205 4.999154 L 95.682806 5.000941 " stroke="#00bf63" stroke-width="10" stroke-opacity="1" stroke-miterlimit="4"/></svg>