<svg xmlns="http://www.w3.org/2000/svg" xmlns:xlink="http://www.w3.org/1999/xlink" width="361" zoomAndPan="magnify" viewBox="0 0 270.75 370.499989" height="494" preserveAspectRatio="xMidYMid meet" version="1.0"><defs><filter x="0%" y="0%" width="100%" height="100%" id="a639f9215a"><feColorMatrix values="0 0 0 0 1 0 0 0 0 1 0 0 0 0 1 0 0 0 1 0" color-interpolation-filters="sRGB"/></filter><clipPath id="72a129ebf5"><path d="M 0.0585938 0 L 270 0 L 270 370 L 0.0585938 370 Z M 0.0585938 0 " clip-rule="nonzero"/></clipPath><mask id="ad23fa0bbe"><g filter="url(#a639f9215a)"><rect x="-27.075" width="324.9" fill="#000000" y="-37.049999" height="444.599987" fill-opacity="0.3"/></g></mask><clipPath id="3b701f776a"><path d="M 0.0585938 0 L 269.710938 0 L 269.710938 370 L 0.0585938 370 Z M 0.0585938 0 " clip-rule="nonzero"/></clipPath><clipPath id="e5a9cdaad7"><path d="M 17.285156 0 L 252.484375 0 C 257.054688 0 261.433594 1.816406 264.664062 5.046875 C 267.898438 8.277344 269.710938 12.65625 269.710938 17.226562 L 269.710938 352.574219 C 269.710938 357.144531 267.898438 361.523438 264.664062 364.757812 C 261.433594 367.988281 257.054688 369.800781 252.484375 369.800781 L 17.285156 369.800781 C 12.714844 369.800781 8.332031 367.988281 5.101562 364.757812 C 1.871094 361.523438 0.0585938 357.144531 0.0585938 352.574219 L 0.0585938 17.226562 C 0.0585938 12.65625 1.871094 8.277344 5.101562 5.046875 C 8.332031 1.816406 12.714844 0 17.285156 0 Z M 17.285156 0 " clip-rule="nonzero"/></clipPath><clipPath id="9f0baa08b2"><rect x="0" width="270" y="0" height="370"/></clipPath><clipPath id="aa1d246970"><path d="M 73.484375 86.996094 L 185.996094 86.996094 L 185.996094 185.300781 L 73.484375 185.300781 Z M 73.484375 86.996094 " clip-rule="nonzero"/></clipPath><clipPath id="66e60d39ca"><path d="M 129.660156 86.996094 L 185.832031 185.300781 L 73.484375 185.300781 Z M 129.660156 86.996094 " clip-rule="nonzero"/></clipPath><clipPath id="1ca8635389"><path d="M 62.40625 116.832031 L 197 116.832031 L 197 234.523438 L 62.40625 234.523438 Z M 62.40625 116.832031 " clip-rule="nonzero"/></clipPath><clipPath id="e72ea5da51"><path d="M 129.660156 116.832031 L 196.910156 234.523438 L 62.40625 234.523438 Z M 129.660156 116.832031 " clip-rule="nonzero"/></clipPath><clipPath id="d35e8fbbfc"><path d="M 51.328125 145.726562 L 208 145.726562 L 208 282.804688 L 51.328125 282.804688 Z M 51.328125 145.726562 " clip-rule="nonzero"/></clipPath><clipPath id="852f0d8ede"><path d="M 129.660156 145.726562 L 207.988281 282.804688 L 51.328125 282.804688 Z M 129.660156 145.726562 " clip-rule="nonzero"/></clipPath></defs><g clip-path="url(#72a129ebf5)"><g mask="url(#ad23fa0bbe)"><g><g clip-path="url(#9f0baa08b2)"><g clip-path="url(#3b701f776a)"><g clip-path="url(#e5a9cdaad7)"><path fill="#919191" d="M 0.0585938 0 L 269.710938 0 L 269.710938 369.722656 L 0.0585938 369.722656 Z M 0.0585938 0 " fill-opacity="1" fill-rule="nonzero"/></g></g></g></g></g></g><g clip-path="url(#aa1d246970)"><g clip-path="url(#66e60d39ca)"><path fill="#00bf63" d="M 73.484375 86.996094 L 185.996094 86.996094 L 185.996094 185.300781 L 73.484375 185.300781 Z M 73.484375 86.996094 " fill-opacity="1" fill-rule="nonzero"/></g></g><g clip-path="url(#1ca8635389)"><g clip-path="url(#e72ea5da51)"><path fill="#00bf63" d="M 62.40625 116.832031 L 197.109375 116.832031 L 197.109375 234.523438 L 62.40625 234.523438 Z M 62.40625 116.832031 " fill-opacity="1" fill-rule="nonzero"/></g></g><g clip-path="url(#d35e8fbbfc)"><g clip-path="url(#852f0d8ede)"><path fill="#00bf63" d="M 51.328125 145.726562 L 208.21875 145.726562 L 208.21875 282.804688 L 51.328125 282.804688 Z M 51.328125 145.726562 " fill-opacity="1" fill-rule="nonzero"/></g></g></svg>