<svg xmlns="http://www.w3.org/2000/svg" xmlns:xlink="http://www.w3.org/1999/xlink" width="361" zoomAndPan="magnify" viewBox="0 0 270.75 370.499989" height="494" preserveAspectRatio="xMidYMid meet" version="1.0"><defs><filter x="0%" y="0%" width="100%" height="100%" id="e10ddc2b20"><feColorMatrix values="0 0 0 0 1 0 0 0 0 1 0 0 0 0 1 0 0 0 1 0" color-interpolation-filters="sRGB"/></filter><clipPath id="9e657efb32"><path d="M 0.0585938 0 L 270 0 L 270 370 L 0.0585938 370 Z M 0.0585938 0 " clip-rule="nonzero"/></clipPath><mask id="bcbc375492"><g filter="url(#e10ddc2b20)"><rect x="-27.075" width="324.9" fill="#000000" y="-37.049999" height="444.599987" fill-opacity="0.1"/></g></mask><clipPath id="4febf87695"><path d="M 0.0585938 0 L 269.710938 0 L 269.710938 370 L 0.0585938 370 Z M 0.0585938 0 " clip-rule="nonzero"/></clipPath><clipPath id="91d913c276"><path d="M 17.285156 0 L 252.484375 0 C 257.054688 0 261.433594 1.816406 264.664062 5.046875 C 267.898438 8.277344 269.710938 12.65625 269.710938 17.226562 L 269.710938 352.574219 C 269.710938 357.144531 267.898438 361.523438 264.664062 364.757812 C 261.433594 367.988281 257.054688 369.800781 252.484375 369.800781 L 17.285156 369.800781 C 12.714844 369.800781 8.332031 367.988281 5.101562 364.757812 C 1.871094 361.523438 0.0585938 357.144531 0.0585938 352.574219 L 0.0585938 17.226562 C 0.0585938 12.65625 1.871094 8.277344 5.101562 5.046875 C 8.332031 1.816406 12.714844 0 17.285156 0 Z M 17.285156 0 " clip-rule="nonzero"/></clipPath><clipPath id="22aa5c661e"><rect x="0" width="270" y="0" height="370"/></clipPath><clipPath id="a556b8cd1a"><path d="M 45.332031 126.132812 L 224.851562 126.132812 L 224.851562 243.667969 L 45.332031 243.667969 Z M 45.332031 126.132812 " clip-rule="nonzero"/></clipPath><clipPath id="b6e3901e17"><path d="M 147.023438 126.132812 C 148.988281 126.132812 150.964844 126.132812 152.925781 126.132812 C 168.554688 128.097656 178.324219 134.628906 182.773438 145.324219 C 208.835938 143.898438 227.78125 164.117188 216.234375 183.960938 C 220.074219 188.128906 223.277344 192.792969 224.433594 199.054688 C 224.433594 200.847656 224.433594 202.636719 224.433594 204.429688 C 220.988281 220.359375 206.152344 231.128906 181.796875 228.230469 C 175.53125 236.410156 164.378906 244.601562 147.027344 243.582031 C 138.058594 243.046875 131.820312 239.933594 126.355469 236.15625 C 120.601562 239.296875 114.371094 241.761719 105.367188 241.789062 C 84.535156 241.835938 70.601562 229.734375 70.265625 213.132812 C 56.871094 209.246094 47.804688 201.996094 45.332031 189.59375 C 45.332031 187.800781 45.332031 186.003906 45.332031 184.21875 C 48.058594 171.925781 56.636719 164.203125 70.917969 160.929688 C 70.058594 140.195312 98.621094 127.238281 122.089844 136.375 C 127.675781 131.855469 135.582031 126.929688 147.023438 126.132812 Z M 147.023438 126.132812 " clip-rule="nonzero"/></clipPath></defs><g clip-path="url(#9e657efb32)"><g mask="url(#bcbc375492)"><g><g clip-path="url(#22aa5c661e)"><g clip-path="url(#4febf87695)"><g clip-path="url(#91d913c276)"><path fill="#919191" d="M 0.0585938 0 L 269.710938 0 L 269.710938 369.722656 L 0.0585938 369.722656 Z M 0.0585938 0 " fill-opacity="1" fill-rule="nonzero"/></g></g></g></g></g></g><g clip-path="url(#a556b8cd1a)"><g clip-path="url(#b6e3901e17)"><path fill="#ffde59" d="M 45.332031 126.132812 L 224.390625 126.132812 L 224.390625 243.667969 L 45.332031 243.667969 Z M 45.332031 126.132812 " fill-opacity="1" fill-rule="nonzero"/></g></g></svg>